<svg width="32" height="32" viewBox="0 0 32 32" fill="none" xmlns="http://www.w3.org/2000/svg">
<path d="M24.2525 15.2517L26.1825 10.2317C26.3825 9.71167 26.2625 9.11167 25.8625 8.71167L21.1425 3.99167C20.7425 3.59167 20.1525 3.47167 19.6225 3.67167L14.6025 5.60167C14.2225 5.75167 13.8725 5.97167 13.5825 6.26167L2.4825 17.3617C1.9225 17.9217 1.9225 18.8217 2.4825 19.3717L10.4825 27.3717C11.0425 27.9317 11.9425 27.9317 12.4925 27.3717L23.5925 16.2717C23.8825 15.9817 24.1025 15.6417 24.2525 15.2517ZM19.2725 10.5917C18.5825 9.90167 18.5825 8.79167 19.2725 8.10167C19.9625 7.41167 21.0725 7.41167 21.7625 8.10167C22.4525 8.79167 22.4525 9.90167 21.7625 10.5917C21.0725 11.2717 19.9525 11.2717 19.2725 10.5917Z" fill="url(#paint0_linear_1737_16740)"/>
<path d="M24.2525 15.2517L26.1825 10.2317C26.3825 9.71167 26.2625 9.11167 25.8625 8.71167L21.1425 3.99167C20.7425 3.59167 20.1525 3.47167 19.6225 3.67167L14.6025 5.60167C14.2225 5.75167 13.8725 5.97167 13.5825 6.26167L2.4825 17.3617C1.9225 17.9217 1.9225 18.8217 2.4825 19.3717L10.4825 27.3717C11.0425 27.9317 11.9425 27.9317 12.4925 27.3717L23.5925 16.2717C23.8825 15.9817 24.1025 15.6417 24.2525 15.2517ZM19.2725 10.5917C18.5825 9.90167 18.5825 8.79167 19.2725 8.10167C19.9625 7.41167 21.0725 7.41167 21.7625 8.10167C22.4525 8.79167 22.4525 9.90167 21.7625 10.5917C21.0725 11.2717 19.9525 11.2717 19.2725 10.5917Z" fill="url(#paint1_linear_1737_16740)"/>
<path d="M24.2525 15.2517L26.1825 10.2317C26.3825 9.71167 26.2625 9.11167 25.8625 8.71167L21.1425 3.99167C20.7425 3.59167 20.1525 3.47167 19.6225 3.67167L14.6025 5.60167C14.2225 5.75167 13.8725 5.97167 13.5825 6.26167L2.4825 17.3617C1.9225 17.9217 1.9225 18.8217 2.4825 19.3717L10.4825 27.3717C11.0425 27.9317 11.9425 27.9317 12.4925 27.3717L23.5925 16.2717C23.8825 15.9817 24.1025 15.6417 24.2525 15.2517ZM19.2725 10.5917C18.5825 9.90167 18.5825 8.79167 19.2725 8.10167C19.9625 7.41167 21.0725 7.41167 21.7625 8.10167C22.4525 8.79167 22.4525 9.90167 21.7625 10.5917C21.0725 11.2717 19.9525 11.2717 19.2725 10.5917Z" fill="url(#paint2_radial_1737_16740)"/>
<path d="M24.2525 15.2517L26.1825 10.2317C26.3825 9.71167 26.2625 9.11167 25.8625 8.71167L21.1425 3.99167C20.7425 3.59167 20.1525 3.47167 19.6225 3.67167L14.6025 5.60167C14.2225 5.75167 13.8725 5.97167 13.5825 6.26167L2.4825 17.3617C1.9225 17.9217 1.9225 18.8217 2.4825 19.3717L10.4825 27.3717C11.0425 27.9317 11.9425 27.9317 12.4925 27.3717L23.5925 16.2717C23.8825 15.9817 24.1025 15.6417 24.2525 15.2517ZM19.2725 10.5917C18.5825 9.90167 18.5825 8.79167 19.2725 8.10167C19.9625 7.41167 21.0725 7.41167 21.7625 8.10167C22.4525 8.79167 22.4525 9.90167 21.7625 10.5917C21.0725 11.2717 19.9525 11.2717 19.2725 10.5917Z" fill="url(#paint3_linear_1737_16740)"/>
<path d="M24.2525 15.2517L26.1825 10.2317C26.3825 9.71167 26.2625 9.11167 25.8625 8.71167L21.1425 3.99167C20.7425 3.59167 20.1525 3.47167 19.6225 3.67167L14.6025 5.60167C14.2225 5.75167 13.8725 5.97167 13.5825 6.26167L2.4825 17.3617C1.9225 17.9217 1.9225 18.8217 2.4825 19.3717L10.4825 27.3717C11.0425 27.9317 11.9425 27.9317 12.4925 27.3717L23.5925 16.2717C23.8825 15.9817 24.1025 15.6417 24.2525 15.2517ZM19.2725 10.5917C18.5825 9.90167 18.5825 8.79167 19.2725 8.10167C19.9625 7.41167 21.0725 7.41167 21.7625 8.10167C22.4525 8.79167 22.4525 9.90167 21.7625 10.5917C21.0725 11.2717 19.9525 11.2717 19.2725 10.5917Z" fill="url(#paint4_linear_1737_16740)"/>
<path d="M24.2525 15.2517L26.1825 10.2317C26.3825 9.71167 26.2625 9.11167 25.8625 8.71167L21.1425 3.99167C20.7425 3.59167 20.1525 3.47167 19.6225 3.67167L14.6025 5.60167C14.2225 5.75167 13.8725 5.97167 13.5825 6.26167L2.4825 17.3617C1.9225 17.9217 1.9225 18.8217 2.4825 19.3717L10.4825 27.3717C11.0425 27.9317 11.9425 27.9317 12.4925 27.3717L23.5925 16.2717C23.8825 15.9817 24.1025 15.6417 24.2525 15.2517ZM19.2725 10.5917C18.5825 9.90167 18.5825 8.79167 19.2725 8.10167C19.9625 7.41167 21.0725 7.41167 21.7625 8.10167C22.4525 8.79167 22.4525 9.90167 21.7625 10.5917C21.0725 11.2717 19.9525 11.2717 19.2725 10.5917Z" fill="url(#paint5_linear_1737_16740)"/>
<path d="M24.2525 15.2517L26.1825 10.2317C26.3825 9.71167 26.2625 9.11167 25.8625 8.71167L21.1425 3.99167C20.7425 3.59167 20.1525 3.47167 19.6225 3.67167L14.6025 5.60167C14.2225 5.75167 13.8725 5.97167 13.5825 6.26167L2.4825 17.3617C1.9225 17.9217 1.9225 18.8217 2.4825 19.3717L10.4825 27.3717C11.0425 27.9317 11.9425 27.9317 12.4925 27.3717L23.5925 16.2717C23.8825 15.9817 24.1025 15.6417 24.2525 15.2517ZM19.2725 10.5917C18.5825 9.90167 18.5825 8.79167 19.2725 8.10167C19.9625 7.41167 21.0725 7.41167 21.7625 8.10167C22.4525 8.79167 22.4525 9.90167 21.7625 10.5917C21.0725 11.2717 19.9525 11.2717 19.2725 10.5917Z" fill="url(#paint6_linear_1737_16740)"/>
<path d="M24.2525 15.2517L26.1825 10.2317C26.3825 9.71167 26.2625 9.11167 25.8625 8.71167L21.1425 3.99167C20.7425 3.59167 20.1525 3.47167 19.6225 3.67167L14.6025 5.60167C14.2225 5.75167 13.8725 5.97167 13.5825 6.26167L2.4825 17.3617C1.9225 17.9217 1.9225 18.8217 2.4825 19.3717L10.4825 27.3717C11.0425 27.9317 11.9425 27.9317 12.4925 27.3717L23.5925 16.2717C23.8825 15.9817 24.1025 15.6417 24.2525 15.2517ZM19.2725 10.5917C18.5825 9.90167 18.5825 8.79167 19.2725 8.10167C19.9625 7.41167 21.0725 7.41167 21.7625 8.10167C22.4525 8.79167 22.4525 9.90167 21.7625 10.5917C21.0725 11.2717 19.9525 11.2717 19.2725 10.5917Z" fill="url(#paint7_linear_1737_16740)"/>
<path d="M24.2525 15.2517L26.1825 10.2317C26.3825 9.71167 26.2625 9.11167 25.8625 8.71167L21.1425 3.99167C20.7425 3.59167 20.1525 3.47167 19.6225 3.67167L14.6025 5.60167C14.2225 5.75167 13.8725 5.97167 13.5825 6.26167L2.4825 17.3617C1.9225 17.9217 1.9225 18.8217 2.4825 19.3717L10.4825 27.3717C11.0425 27.9317 11.9425 27.9317 12.4925 27.3717L23.5925 16.2717C23.8825 15.9817 24.1025 15.6417 24.2525 15.2517ZM19.2725 10.5917C18.5825 9.90167 18.5825 8.79167 19.2725 8.10167C19.9625 7.41167 21.0725 7.41167 21.7625 8.10167C22.4525 8.79167 22.4525 9.90167 21.7625 10.5917C21.0725 11.2717 19.9525 11.2717 19.2725 10.5917Z" fill="url(#paint8_linear_1737_16740)"/>
<path d="M24.2525 15.2517L26.1825 10.2317C26.3825 9.71167 26.2625 9.11167 25.8625 8.71167L21.1425 3.99167C20.7425 3.59167 20.1525 3.47167 19.6225 3.67167L14.6025 5.60167C14.2225 5.75167 13.8725 5.97167 13.5825 6.26167L2.4825 17.3617C1.9225 17.9217 1.9225 18.8217 2.4825 19.3717L10.4825 27.3717C11.0425 27.9317 11.9425 27.9317 12.4925 27.3717L23.5925 16.2717C23.8825 15.9817 24.1025 15.6417 24.2525 15.2517ZM19.2725 10.5917C18.5825 9.90167 18.5825 8.79167 19.2725 8.10167C19.9625 7.41167 21.0725 7.41167 21.7625 8.10167C22.4525 8.79167 22.4525 9.90167 21.7625 10.5917C21.0725 11.2717 19.9525 11.2717 19.2725 10.5917Z" fill="url(#paint9_linear_1737_16740)"/>
<path d="M24.2525 15.2517L26.1825 10.2317C26.3825 9.71167 26.2625 9.11167 25.8625 8.71167L21.1425 3.99167C20.7425 3.59167 20.1525 3.47167 19.6225 3.67167L14.6025 5.60167C14.2225 5.75167 13.8725 5.97167 13.5825 6.26167L2.4825 17.3617C1.9225 17.9217 1.9225 18.8217 2.4825 19.3717L10.4825 27.3717C11.0425 27.9317 11.9425 27.9317 12.4925 27.3717L23.5925 16.2717C23.8825 15.9817 24.1025 15.6417 24.2525 15.2517ZM19.2725 10.5917C18.5825 9.90167 18.5825 8.79167 19.2725 8.10167C19.9625 7.41167 21.0725 7.41167 21.7625 8.10167C22.4525 8.79167 22.4525 9.90167 21.7625 10.5917C21.0725 11.2717 19.9525 11.2717 19.2725 10.5917Z" fill="url(#paint10_radial_1737_16740)"/>
<g opacity="0.55">
<path d="M24.4346 14.1098C24.4137 14.1119 24.5512 13.513 24.5301 13.5146C23.2404 13.6119 22.1614 12.2936 21.7344 11.1379C21.964 11.5102 20.2387 11.8483 19.9748 11.8237C20.46 13.2891 22.1338 15.4693 23.7246 15.4511L24.4346 14.1098Z" fill="url(#paint11_radial_1737_16740)"/>
<path d="M24.4346 14.1098C24.4137 14.1119 24.5512 13.513 24.5301 13.5146C23.2404 13.6119 22.1614 12.2936 21.7344 11.1379C21.964 11.5102 20.2387 11.8483 19.9748 11.8237C20.46 13.2891 22.1338 15.4693 23.7246 15.4511L24.4346 14.1098Z" fill="url(#paint12_radial_1737_16740)"/>
<path d="M24.4346 14.1098C24.4137 14.1119 24.5512 13.513 24.5301 13.5146C23.2404 13.6119 22.1614 12.2936 21.7344 11.1379C21.964 11.5102 20.2387 11.8483 19.9748 11.8237C20.46 13.2891 22.1338 15.4693 23.7246 15.4511L24.4346 14.1098Z" fill="url(#paint13_radial_1737_16740)"/>
<path d="M24.4346 14.1098C24.4137 14.1119 24.5512 13.513 24.5301 13.5146C23.2404 13.6119 22.1614 12.2936 21.7344 11.1379C21.964 11.5102 20.2387 11.8483 19.9748 11.8237C20.46 13.2891 22.1338 15.4693 23.7246 15.4511L24.4346 14.1098Z" fill="url(#paint14_radial_1737_16740)"/>
<path d="M24.4346 14.1098C24.4137 14.1119 24.5512 13.513 24.5301 13.5146C23.2404 13.6119 22.1614 12.2936 21.7344 11.1379C21.964 11.5102 20.2387 11.8483 19.9748 11.8237C20.46 13.2891 22.1338 15.4693 23.7246 15.4511L24.4346 14.1098Z" fill="url(#paint15_radial_1737_16740)"/>
<path d="M24.4346 14.1098C24.4137 14.1119 24.5512 13.513 24.5301 13.5146C23.2404 13.6119 22.1614 12.2936 21.7344 11.1379C21.964 11.5102 20.2387 11.8483 19.9748 11.8237C20.46 13.2891 22.1338 15.4693 23.7246 15.4511L24.4346 14.1098Z" fill="url(#paint16_radial_1737_16740)" fill-opacity="0.82"/>
</g>
<path d="M20.5163 7.58014C20.9663 7.58014 21.4163 7.75014 21.7563 8.10014C22.4463 8.79014 22.4463 9.90014 21.7563 10.5901C21.4163 10.9301 20.9663 11.1101 20.5163 11.1101C20.0663 11.1101 19.6163 10.9401 19.2763 10.5901C18.5863 9.90014 18.5863 8.79014 19.2763 8.10014C19.6163 7.75014 20.0663 7.58014 20.5163 7.58014ZM20.5163 6.64014C19.7963 6.64014 19.1163 6.92014 18.6063 7.43014C17.5563 8.48014 17.5563 10.1901 18.6063 11.2501C19.1163 11.7601 19.7963 12.0401 20.5163 12.0401C21.2363 12.0401 21.9163 11.7601 22.4263 11.2501C23.4763 10.2001 23.4763 8.49014 22.4263 7.43014C21.9163 6.92014 21.2363 6.64014 20.5163 6.64014Z" fill="#F6424A"/>
<path d="M20.5163 7.58014C20.9663 7.58014 21.4163 7.75014 21.7563 8.10014C22.4463 8.79014 22.4463 9.90014 21.7563 10.5901C21.4163 10.9301 20.9663 11.1101 20.5163 11.1101C20.0663 11.1101 19.6163 10.9401 19.2763 10.5901C18.5863 9.90014 18.5863 8.79014 19.2763 8.10014C19.6163 7.75014 20.0663 7.58014 20.5163 7.58014ZM20.5163 6.64014C19.7963 6.64014 19.1163 6.92014 18.6063 7.43014C17.5563 8.48014 17.5563 10.1901 18.6063 11.2501C19.1163 11.7601 19.7963 12.0401 20.5163 12.0401C21.2363 12.0401 21.9163 11.7601 22.4263 11.2501C23.4763 10.2001 23.4763 8.49014 22.4263 7.43014C21.9163 6.92014 21.2363 6.64014 20.5163 6.64014Z" fill="url(#paint17_radial_1737_16740)"/>
<path d="M20.5163 7.58014C20.9663 7.58014 21.4163 7.75014 21.7563 8.10014C22.4463 8.79014 22.4463 9.90014 21.7563 10.5901C21.4163 10.9301 20.9663 11.1101 20.5163 11.1101C20.0663 11.1101 19.6163 10.9401 19.2763 10.5901C18.5863 9.90014 18.5863 8.79014 19.2763 8.10014C19.6163 7.75014 20.0663 7.58014 20.5163 7.58014ZM20.5163 6.64014C19.7963 6.64014 19.1163 6.92014 18.6063 7.43014C17.5563 8.48014 17.5563 10.1901 18.6063 11.2501C19.1163 11.7601 19.7963 12.0401 20.5163 12.0401C21.2363 12.0401 21.9163 11.7601 22.4263 11.2501C23.4763 10.2001 23.4763 8.49014 22.4263 7.43014C21.9163 6.92014 21.2363 6.64014 20.5163 6.64014Z" fill="url(#paint18_radial_1737_16740)"/>
<path d="M20.5163 7.58014C20.9663 7.58014 21.4163 7.75014 21.7563 8.10014C22.4463 8.79014 22.4463 9.90014 21.7563 10.5901C21.4163 10.9301 20.9663 11.1101 20.5163 11.1101C20.0663 11.1101 19.6163 10.9401 19.2763 10.5901C18.5863 9.90014 18.5863 8.79014 19.2763 8.10014C19.6163 7.75014 20.0663 7.58014 20.5163 7.58014ZM20.5163 6.64014C19.7963 6.64014 19.1163 6.92014 18.6063 7.43014C17.5563 8.48014 17.5563 10.1901 18.6063 11.2501C19.1163 11.7601 19.7963 12.0401 20.5163 12.0401C21.2363 12.0401 21.9163 11.7601 22.4263 11.2501C23.4763 10.2001 23.4763 8.49014 22.4263 7.43014C21.9163 6.92014 21.2363 6.64014 20.5163 6.64014Z" fill="url(#paint19_linear_1737_16740)"/>
<path d="M20.5163 7.58014C20.9663 7.58014 21.4163 7.75014 21.7563 8.10014C22.4463 8.79014 22.4463 9.90014 21.7563 10.5901C21.4163 10.9301 20.9663 11.1101 20.5163 11.1101C20.0663 11.1101 19.6163 10.9401 19.2763 10.5901C18.5863 9.90014 18.5863 8.79014 19.2763 8.10014C19.6163 7.75014 20.0663 7.58014 20.5163 7.58014ZM20.5163 6.64014C19.7963 6.64014 19.1163 6.92014 18.6063 7.43014C17.5563 8.48014 17.5563 10.1901 18.6063 11.2501C19.1163 11.7601 19.7963 12.0401 20.5163 12.0401C21.2363 12.0401 21.9163 11.7601 22.4263 11.2501C23.4763 10.2001 23.4763 8.49014 22.4263 7.43014C21.9163 6.92014 21.2363 6.64014 20.5163 6.64014Z" fill="url(#paint20_linear_1737_16740)"/>
<path d="M20.5163 7.58014C20.9663 7.58014 21.4163 7.75014 21.7563 8.10014C22.4463 8.79014 22.4463 9.90014 21.7563 10.5901C21.4163 10.9301 20.9663 11.1101 20.5163 11.1101C20.0663 11.1101 19.6163 10.9401 19.2763 10.5901C18.5863 9.90014 18.5863 8.79014 19.2763 8.10014C19.6163 7.75014 20.0663 7.58014 20.5163 7.58014ZM20.5163 6.64014C19.7963 6.64014 19.1163 6.92014 18.6063 7.43014C17.5563 8.48014 17.5563 10.1901 18.6063 11.2501C19.1163 11.7601 19.7963 12.0401 20.5163 12.0401C21.2363 12.0401 21.9163 11.7601 22.4263 11.2501C23.4763 10.2001 23.4763 8.49014 22.4263 7.43014C21.9163 6.92014 21.2363 6.64014 20.5163 6.64014Z" fill="url(#paint21_linear_1737_16740)"/>
<path d="M20.5163 7.58014C20.9663 7.58014 21.4163 7.75014 21.7563 8.10014C22.4463 8.79014 22.4463 9.90014 21.7563 10.5901C21.4163 10.9301 20.9663 11.1101 20.5163 11.1101C20.0663 11.1101 19.6163 10.9401 19.2763 10.5901C18.5863 9.90014 18.5863 8.79014 19.2763 8.10014C19.6163 7.75014 20.0663 7.58014 20.5163 7.58014ZM20.5163 6.64014C19.7963 6.64014 19.1163 6.92014 18.6063 7.43014C17.5563 8.48014 17.5563 10.1901 18.6063 11.2501C19.1163 11.7601 19.7963 12.0401 20.5163 12.0401C21.2363 12.0401 21.9163 11.7601 22.4263 11.2501C23.4763 10.2001 23.4763 8.49014 22.4263 7.43014C21.9163 6.92014 21.2363 6.64014 20.5163 6.64014Z" fill="url(#paint22_radial_1737_16740)"/>
<path d="M20.5163 7.58014C20.9663 7.58014 21.4163 7.75014 21.7563 8.10014C22.4463 8.79014 22.4463 9.90014 21.7563 10.5901C21.4163 10.9301 20.9663 11.1101 20.5163 11.1101C20.0663 11.1101 19.6163 10.9401 19.2763 10.5901C18.5863 9.90014 18.5863 8.79014 19.2763 8.10014C19.6163 7.75014 20.0663 7.58014 20.5163 7.58014ZM20.5163 6.64014C19.7963 6.64014 19.1163 6.92014 18.6063 7.43014C17.5563 8.48014 17.5563 10.1901 18.6063 11.2501C19.1163 11.7601 19.7963 12.0401 20.5163 12.0401C21.2363 12.0401 21.9163 11.7601 22.4263 11.2501C23.4763 10.2001 23.4763 8.49014 22.4263 7.43014C21.9163 6.92014 21.2363 6.64014 20.5163 6.64014Z" fill="url(#paint23_linear_1737_16740)"/>
<path d="M20.5163 7.58014C20.9663 7.58014 21.4163 7.75014 21.7563 8.10014C22.4463 8.79014 22.4463 9.90014 21.7563 10.5901C21.4163 10.9301 20.9663 11.1101 20.5163 11.1101C20.0663 11.1101 19.6163 10.9401 19.2763 10.5901C18.5863 9.90014 18.5863 8.79014 19.2763 8.10014C19.6163 7.75014 20.0663 7.58014 20.5163 7.58014ZM20.5163 6.64014C19.7963 6.64014 19.1163 6.92014 18.6063 7.43014C17.5563 8.48014 17.5563 10.1901 18.6063 11.2501C19.1163 11.7601 19.7963 12.0401 20.5163 12.0401C21.2363 12.0401 21.9163 11.7601 22.4263 11.2501C23.4763 10.2001 23.4763 8.49014 22.4263 7.43014C21.9163 6.92014 21.2363 6.64014 20.5163 6.64014Z" fill="url(#paint24_linear_1737_16740)"/>
<path d="M23.1646 6.01362C23.7861 5.54107 24.5616 5.26058 25.4025 5.26058C27.4466 5.26058 29.1036 6.91759 29.1036 8.96163C29.1036 11.0057 27.4466 12.6627 25.4025 12.6627C23.3585 12.6627 21.7015 11.0057 21.7015 8.96163C21.7015 8.67717 21.7336 8.40021 21.7943 8.13417C21.7839 8.12321 21.7733 8.11235 21.7626 8.10159C21.5098 7.84888 21.2008 7.68875 20.8767 7.62115C20.751 8.04607 20.6836 8.49597 20.6836 8.96163C20.6836 11.5678 22.7963 13.6806 25.4025 13.6806C28.0087 13.6806 30.1215 11.5678 30.1215 8.96163C30.1215 6.35542 28.0087 4.24268 25.4025 4.24268C24.2803 4.24268 23.2496 4.63442 22.4396 5.28863L23.1646 6.01362Z" fill="url(#paint25_radial_1737_16740)"/>
<path d="M23.1646 6.01362C23.7861 5.54107 24.5616 5.26058 25.4025 5.26058C27.4466 5.26058 29.1036 6.91759 29.1036 8.96163C29.1036 11.0057 27.4466 12.6627 25.4025 12.6627C23.3585 12.6627 21.7015 11.0057 21.7015 8.96163C21.7015 8.67717 21.7336 8.40021 21.7943 8.13417C21.7839 8.12321 21.7733 8.11235 21.7626 8.10159C21.5098 7.84888 21.2008 7.68875 20.8767 7.62115C20.751 8.04607 20.6836 8.49597 20.6836 8.96163C20.6836 11.5678 22.7963 13.6806 25.4025 13.6806C28.0087 13.6806 30.1215 11.5678 30.1215 8.96163C30.1215 6.35542 28.0087 4.24268 25.4025 4.24268C24.2803 4.24268 23.2496 4.63442 22.4396 5.28863L23.1646 6.01362Z" fill="url(#paint26_radial_1737_16740)"/>
<defs>
<linearGradient id="paint0_linear_1737_16740" x1="21.9687" y1="11.1392" x2="3.4375" y2="17.7954" gradientUnits="userSpaceOnUse">
<stop stop-color="#FFD846"/>
<stop offset="1" stop-color="#FFB349"/>
</linearGradient>
<linearGradient id="paint1_linear_1737_16740" x1="3.71875" y1="15.0454" x2="5.84375" y2="17.1704" gradientUnits="userSpaceOnUse">
<stop offset="0.232565" stop-color="#FFBD42"/>
<stop offset="1" stop-color="#FFBD42" stop-opacity="0"/>
</linearGradient>
<radialGradient id="paint2_radial_1737_16740" cx="0" cy="0" r="1" gradientUnits="userSpaceOnUse" gradientTransform="translate(20.3594 9.88916) rotate(92.6291) scale(3.06573 3.30347)">
<stop offset="0.588488" stop-color="#FCA643"/>
<stop offset="1" stop-color="#FFCE46" stop-opacity="0"/>
</radialGradient>
<linearGradient id="paint3_linear_1737_16740" x1="19.7887" y1="3.29081" x2="19.6647" y2="4.45562" gradientUnits="userSpaceOnUse">
<stop stop-color="#FFF043"/>
<stop offset="1" stop-color="#FFF043" stop-opacity="0"/>
</linearGradient>
<linearGradient id="paint4_linear_1737_16740" x1="0.918872" y1="16.1299" x2="3.14067" y2="17.7358" gradientUnits="userSpaceOnUse">
<stop stop-color="#FFF043"/>
<stop offset="1" stop-color="#FFF043" stop-opacity="0"/>
</linearGradient>
<linearGradient id="paint5_linear_1737_16740" x1="19.272" y1="3.20381" x2="19.6647" y2="4.45562" gradientUnits="userSpaceOnUse">
<stop stop-color="#FFF043"/>
<stop offset="1" stop-color="#FFF043" stop-opacity="0"/>
</linearGradient>
<linearGradient id="paint6_linear_1737_16740" x1="23.651" y1="6.38447" x2="23.3185" y2="6.74554" gradientUnits="userSpaceOnUse">
<stop stop-color="#FCFF43"/>
<stop offset="1" stop-color="#FFF043" stop-opacity="0"/>
</linearGradient>
<linearGradient id="paint7_linear_1737_16740" x1="18.3414" y1="21.6852" x2="17.8931" y2="21.2369" gradientUnits="userSpaceOnUse">
<stop stop-color="#FF8B5F"/>
<stop offset="1" stop-color="#FF905F" stop-opacity="0"/>
</linearGradient>
<linearGradient id="paint8_linear_1737_16740" x1="25.7743" y1="12.1047" x2="25.1389" y2="11.8324" gradientUnits="userSpaceOnUse">
<stop stop-color="#FF775F"/>
<stop offset="1" stop-color="#FF905F" stop-opacity="0"/>
</linearGradient>
<linearGradient id="paint9_linear_1737_16740" x1="8.08851" y1="25.1731" x2="8.54875" y2="24.6893" gradientUnits="userSpaceOnUse">
<stop stop-color="#FF6F5F"/>
<stop offset="1" stop-color="#FF905F" stop-opacity="0"/>
</linearGradient>
<radialGradient id="paint10_radial_1737_16740" cx="0" cy="0" r="1" gradientUnits="userSpaceOnUse" gradientTransform="translate(11.2281 28.396) rotate(-2.26795) scale(2.12245 1.3934)">
<stop stop-color="#FF6F5F"/>
<stop offset="1" stop-color="#FF905F" stop-opacity="0"/>
</radialGradient>
<radialGradient id="paint11_radial_1737_16740" cx="0" cy="0" r="1" gradientUnits="userSpaceOnUse" gradientTransform="translate(21.2234 12.1856) rotate(58.0226) scale(2.10549 0.631049)">
<stop stop-color="#E37D42"/>
<stop offset="1" stop-color="#E3A242" stop-opacity="0"/>
</radialGradient>
<radialGradient id="paint12_radial_1737_16740" cx="0" cy="0" r="1" gradientUnits="userSpaceOnUse" gradientTransform="translate(21.5643 12.7706) rotate(45.1151) scale(2.04272 0.517208)">
<stop stop-color="#E37D42"/>
<stop offset="1" stop-color="#E3A242" stop-opacity="0"/>
</radialGradient>
<radialGradient id="paint13_radial_1737_16740" cx="0" cy="0" r="1" gradientUnits="userSpaceOnUse" gradientTransform="translate(22.388 13.4954) rotate(23.296) scale(2.19368 0.632148)">
<stop stop-color="#E37D42"/>
<stop offset="1" stop-color="#E3A242" stop-opacity="0"/>
</radialGradient>
<radialGradient id="paint14_radial_1737_16740" cx="0" cy="0" r="1" gradientUnits="userSpaceOnUse" gradientTransform="translate(23.2652 13.9337) rotate(17.6779) scale(1.25503 0.491897)">
<stop stop-color="#E37D42"/>
<stop offset="1" stop-color="#E3A242" stop-opacity="0"/>
</radialGradient>
<radialGradient id="paint15_radial_1737_16740" cx="0" cy="0" r="1" gradientUnits="userSpaceOnUse" gradientTransform="translate(22.9508 13.6226) rotate(25.3802) scale(1.71622 0.378696)">
<stop stop-color="#E37D42"/>
<stop offset="0.97855" stop-color="#E3A242" stop-opacity="0"/>
</radialGradient>
<radialGradient id="paint16_radial_1737_16740" cx="0" cy="0" r="1" gradientUnits="userSpaceOnUse" gradientTransform="translate(23.1617 13.946) rotate(22.2707) scale(1.6325 0.360223)">
<stop stop-color="#E37D42"/>
<stop offset="0.97855" stop-color="#E3A242" stop-opacity="0"/>
</radialGradient>
<radialGradient id="paint17_radial_1737_16740" cx="0" cy="0" r="1" gradientUnits="userSpaceOnUse" gradientTransform="translate(18.707 9.34013) rotate(-3.09587) scale(4.51348 5.10986)">
<stop offset="0.883561" stop-color="#FF5856" stop-opacity="0"/>
<stop offset="0.967272" stop-color="#FF5856"/>
</radialGradient>
<radialGradient id="paint18_radial_1737_16740" cx="0" cy="0" r="1" gradientUnits="userSpaceOnUse" gradientTransform="translate(21.3788 11.5339) rotate(149.588) scale(1.0001 1.09979)">
<stop offset="0.187536" stop-color="#CA313A"/>
<stop offset="1" stop-color="#CA313A" stop-opacity="0"/>
</radialGradient>
<linearGradient id="paint19_linear_1737_16740" x1="21.8683" y1="12.2814" x2="21.1777" y2="11.1962" gradientUnits="userSpaceOnUse">
<stop offset="0.528572" stop-color="#F32D61"/>
<stop offset="1" stop-color="#F32D61" stop-opacity="0"/>
</linearGradient>
<linearGradient id="paint20_linear_1737_16740" x1="23.0664" y1="11.5626" x2="22.2489" y2="10.7169" gradientUnits="userSpaceOnUse">
<stop offset="0.528572" stop-color="#F32D61"/>
<stop offset="1" stop-color="#F32D61" stop-opacity="0"/>
</linearGradient>
<linearGradient id="paint21_linear_1737_16740" x1="23.6479" y1="10.8855" x2="22.2808" y2="10.3563" gradientUnits="userSpaceOnUse">
<stop offset="0.528572" stop-color="#F32D61"/>
<stop offset="1" stop-color="#F32D61" stop-opacity="0"/>
</linearGradient>
<radialGradient id="paint22_radial_1737_16740" cx="0" cy="0" r="1" gradientUnits="userSpaceOnUse" gradientTransform="translate(21.3368 9.66976) rotate(-62.8427) scale(3.40501 3.40185)">
<stop offset="0.0260417" stop-color="#C83936"/>
<stop offset="0.46875" stop-color="#C83936" stop-opacity="0"/>
</radialGradient>
<linearGradient id="paint23_linear_1737_16740" x1="17.9253" y1="7.99309" x2="18.3801" y2="8.28652" gradientUnits="userSpaceOnUse">
<stop stop-color="#C83936"/>
<stop offset="1" stop-color="#C83936" stop-opacity="0"/>
</linearGradient>
<linearGradient id="paint24_linear_1737_16740" x1="17.4548" y1="8.88144" x2="18.1509" y2="8.92723" gradientUnits="userSpaceOnUse">
<stop stop-color="#C85336"/>
<stop offset="1" stop-color="#C83936" stop-opacity="0"/>
</linearGradient>
<radialGradient id="paint25_radial_1737_16740" cx="0" cy="0" r="1" gradientUnits="userSpaceOnUse" gradientTransform="translate(25.4025 8.86235) rotate(90) scale(4.81822)">
<stop offset="0.740061" stop-color="#A57DC4"/>
<stop offset="0.824062" stop-color="#AAA2B3"/>
<stop offset="0.943739" stop-color="#AAA2B3"/>
<stop offset="1" stop-color="#A476C6"/>
</radialGradient>
<radialGradient id="paint26_radial_1737_16740" cx="0" cy="0" r="1" gradientUnits="userSpaceOnUse" gradientTransform="translate(21.3751 7.4516) rotate(120.816) scale(1.03703 1.5785)">
<stop offset="0.184563" stop-color="#8A4172"/>
<stop offset="1" stop-color="#8A4172" stop-opacity="0"/>
</radialGradient>
</defs>
</svg>
