<svg width="36" height="35" viewBox="0 0 36 35" fill="none" xmlns="http://www.w3.org/2000/svg">
<path id="Star background" d="M17.0767 1.21993C17.4183 0.398636 18.5817 0.398636 18.9233 1.21993L23.0555 11.1549C23.1995 11.5011 23.5251 11.7377 23.8989 11.7677L34.6245 12.6275C35.5112 12.6986 35.8707 13.8051 35.1952 14.3838L27.0234 21.3838C26.7386 21.6277 26.6142 22.0105 26.7012 22.3753L29.1978 32.8417C29.4042 33.7069 28.463 34.3907 27.7039 33.9271L18.5213 28.3184C18.2012 28.1229 17.7988 28.1229 17.4787 28.3184L8.29612 33.9271C7.53702 34.3907 6.59577 33.7069 6.80215 32.8417L9.29877 22.3753C9.38578 22.0105 9.26141 21.6277 8.97662 21.3838L0.804826 14.3838C0.129289 13.8051 0.488815 12.6986 1.37547 12.6275L12.1011 11.7677C12.4749 11.7377 12.8005 11.5011 12.9445 11.1549L17.0767 1.21993Z" fill="#F79009"/>
</svg>
