<svg width="48" height="48" viewBox="0 0 48 48" fill="none" xmlns="http://www.w3.org/2000/svg">
<g id="Books">
<g id="Shape">
<path d="M24.8588 16.6133H43.4438C44.561 16.6133 45.4666 17.5189 45.4666 18.6361V41.9998H24.8588V16.6133Z" fill="url(#paint0_linear_14794_31495)"/>
<path d="M24.8588 16.6133H43.4438C44.561 16.6133 45.4666 17.5189 45.4666 18.6361V41.9998H24.8588V16.6133Z" fill="url(#paint1_linear_14794_31495)"/>
<path d="M24.8588 16.6133H43.4438C44.561 16.6133 45.4666 17.5189 45.4666 18.6361V41.9998H24.8588V16.6133Z" fill="url(#paint2_radial_14794_31495)"/>
</g>
<g id="Shape_2">
<path d="M23.7209 41.3936H45.4667V43.9221H44.9609L44.4552 44.4278H23.7209V41.3936Z" fill="url(#paint3_linear_14794_31495)"/>
<path d="M23.7209 41.3936H45.4667V43.9221H44.9609L44.4552 44.4278H23.7209V41.3936Z" fill="url(#paint4_linear_14794_31495)"/>
</g>
<g id="Shape_3">
<path d="M24.7324 16.6133C23.8945 16.6133 23.2152 17.2925 23.2152 18.1304V42.9104H24.2266C24.2266 42.3518 24.6795 41.899 25.2381 41.899H26.2495V16.6133H24.7324Z" fill="url(#paint5_linear_14794_31495)"/>
<path d="M24.7324 16.6133C23.8945 16.6133 23.2152 17.2925 23.2152 18.1304V42.9104H24.2266C24.2266 42.3518 24.6795 41.899 25.2381 41.899H26.2495V16.6133H24.7324Z" fill="url(#paint6_radial_14794_31495)"/>
</g>
<path id="Shape_4" d="M24.7324 40.8877C23.8945 40.8877 23.2152 41.5669 23.2152 42.4048V43.4163C23.2152 44.2542 23.8945 44.9334 24.7324 44.9334H44.3618C45.0224 44.9334 45.4666 44.5951 45.4666 43.922H25.2381C24.6795 43.922 24.2266 43.4691 24.2266 42.9106C24.2266 42.352 24.6795 41.8991 25.2381 41.8991H45.4666V40.8877H24.7324Z" fill="url(#paint7_linear_14794_31495)"/>
<g id="Shape_5">
<path d="M15.6558 10.5542H32.85C33.9672 10.5542 34.8729 11.4599 34.8729 12.5771V34.8285H15.6558V10.5542Z" fill="url(#paint8_linear_14794_31495)"/>
<path d="M15.6558 10.5542H32.85C33.9672 10.5542 34.8729 11.4599 34.8729 12.5771V34.8285H15.6558V10.5542Z" fill="url(#paint9_linear_14794_31495)"/>
<path d="M15.6558 10.5542H32.85C33.9672 10.5542 34.8729 11.4599 34.8729 12.5771V34.8285H15.6558V10.5542Z" fill="url(#paint10_radial_14794_31495)"/>
</g>
<g id="Shape_6">
<path d="M13.1272 35.3345H34.8729V37.863H34.3672L33.8615 38.3688H13.1272V35.3345Z" fill="url(#paint11_linear_14794_31495)"/>
<path d="M13.1272 35.3345H34.8729V37.863H34.3672L33.8615 38.3688H13.1272V35.3345Z" fill="url(#paint12_linear_14794_31495)"/>
</g>
<g id="Shape_7">
<path d="M14.1386 10.5542C13.3007 10.5542 12.6215 11.2334 12.6215 12.0713V36.8513H13.6329C13.6329 36.2927 14.0857 35.8399 14.6443 35.8399H15.6557V10.5542H14.1386Z" fill="url(#paint13_linear_14794_31495)"/>
<path d="M14.1386 10.5542C13.3007 10.5542 12.6215 11.2334 12.6215 12.0713V36.8513H13.6329C13.6329 36.2927 14.0857 35.8399 14.6443 35.8399H15.6557V10.5542H14.1386Z" fill="url(#paint14_radial_14794_31495)"/>
<path d="M14.1386 10.5542C13.3007 10.5542 12.6215 11.2334 12.6215 12.0713V36.8513H13.6329C13.6329 36.2927 14.0857 35.8399 14.6443 35.8399H15.6557V10.5542H14.1386Z" fill="url(#paint15_radial_14794_31495)"/>
</g>
<path id="Shape_8" d="M14.1386 34.8286C13.3007 34.8286 12.6215 35.5079 12.6215 36.3458V37.3572C12.6215 38.1951 13.3007 38.8743 14.1386 38.8743H33.7681C34.4287 38.8743 34.8729 38.536 34.8729 37.8629H14.6443C14.0857 37.8629 13.6329 37.4101 13.6329 36.8515C13.6329 36.2929 14.0857 35.84 14.6443 35.84H34.8729V34.8286H14.1386Z" fill="url(#paint16_linear_14794_31495)"/>
<g id="Shape_9">
<path d="M4.92297 6H23.5031C24.6199 6 25.5254 6.90542 25.5254 8.02232V30.2679H4.92297V6Z" fill="url(#paint17_linear_14794_31495)"/>
<path d="M4.92297 6H23.5031C24.6199 6 25.5254 6.90542 25.5254 8.02232V30.2679H4.92297V6Z" fill="url(#paint18_linear_14794_31495)"/>
</g>
<g id="Shape_10">
<path d="M3.78552 30.7734H25.5255V33.3013H25.0199L24.5143 33.8069H3.78552V30.7734Z" fill="url(#paint19_linear_14794_31495)"/>
<path d="M3.78552 30.7734H25.5255V33.3013H25.0199L24.5143 33.8069H3.78552V30.7734Z" fill="url(#paint20_linear_14794_31495)"/>
</g>
<path id="Shape_11" d="M4.79677 6C3.9591 6 3.28003 6.67907 3.28003 7.51674V32.2902H4.29119C4.29119 31.7317 4.7439 31.279 5.30235 31.279H6.31351V6H4.79677Z" fill="url(#paint21_linear_14794_31495)"/>
<path id="Shape_12" d="M4.79677 30.2681C3.9591 30.2681 3.28003 30.9471 3.28003 31.7848V32.796C3.28003 33.6336 3.9591 34.3127 4.79677 34.3127H24.4211C25.0815 34.3127 25.5256 33.9745 25.5256 33.3015H5.30235C4.7439 33.3015 4.29119 32.8488 4.29119 32.2904C4.29119 31.7319 4.7439 31.2792 5.30235 31.2792H25.5256V30.2681H4.79677Z" fill="url(#paint22_linear_14794_31495)"/>
</g>
<defs>
<linearGradient id="paint0_linear_14794_31495" x1="35.858" y1="16.6133" x2="35.858" y2="40.8876" gradientUnits="userSpaceOnUse">
<stop stop-color="#56D1F3"/>
<stop offset="1" stop-color="#39ADF1"/>
</linearGradient>
<linearGradient id="paint1_linear_14794_31495" x1="45.6247" y1="20.1849" x2="43.6334" y2="20.4693" gradientUnits="userSpaceOnUse">
<stop offset="0.0135725" stop-color="#7FECFF"/>
<stop offset="1" stop-color="#60DEFF" stop-opacity="0"/>
</linearGradient>
<radialGradient id="paint2_radial_14794_31495" cx="0" cy="0" r="1" gradientUnits="userSpaceOnUse" gradientTransform="translate(26.1215 40.8876) scale(9.04124 7.67563)">
<stop stop-color="#2E7CD5"/>
<stop offset="1" stop-color="#2E7CD5" stop-opacity="0"/>
</radialGradient>
<linearGradient id="paint3_linear_14794_31495" x1="24.9564" y1="43.3309" x2="45.2836" y2="43.3309" gradientUnits="userSpaceOnUse">
<stop stop-color="#D5BCEB"/>
<stop offset="1" stop-color="#DCCCED"/>
<stop offset="1" stop-color="#E3D3F2"/>
</linearGradient>
<linearGradient id="paint4_linear_14794_31495" x1="34.5938" y1="41.6343" x2="34.5938" y2="43.0699" gradientUnits="userSpaceOnUse">
<stop stop-color="#9F84AE"/>
<stop offset="1" stop-color="#C5B1D6" stop-opacity="0"/>
</linearGradient>
<linearGradient id="paint5_linear_14794_31495" x1="23.4229" y1="31.5193" x2="25.807" y2="31.5319" gradientUnits="userSpaceOnUse">
<stop stop-color="#44A3D2"/>
<stop offset="1" stop-color="#3C8FCC"/>
</linearGradient>
<radialGradient id="paint6_radial_14794_31495" cx="0" cy="0" r="1" gradientUnits="userSpaceOnUse" gradientTransform="translate(26.2495 38.4373) rotate(90) scale(6.32812 3.69054)">
<stop stop-color="#3163AE"/>
<stop offset="1" stop-color="#3163AE" stop-opacity="0"/>
</radialGradient>
<linearGradient id="paint7_linear_14794_31495" x1="24.6627" y1="43.8855" x2="45.4666" y2="43.8528" gradientUnits="userSpaceOnUse">
<stop stop-color="#3769C5"/>
<stop offset="1" stop-color="#3666C3"/>
</linearGradient>
<linearGradient id="paint8_linear_14794_31495" x1="25.2643" y1="10.5542" x2="25.2643" y2="34.8285" gradientUnits="userSpaceOnUse">
<stop stop-color="#E13074"/>
<stop offset="1" stop-color="#E0334C"/>
</linearGradient>
<linearGradient id="paint9_linear_14794_31495" x1="36.5823" y1="13.9752" x2="33.8415" y2="14.0731" gradientUnits="userSpaceOnUse">
<stop offset="0.408703" stop-color="#F76594"/>
<stop offset="1" stop-color="#FA6295" stop-opacity="0"/>
</linearGradient>
<radialGradient id="paint10_radial_14794_31495" cx="0" cy="0" r="1" gradientUnits="userSpaceOnUse" gradientTransform="translate(16.5121 34.2186) scale(10.125 8.1933)">
<stop stop-color="#B21940"/>
<stop offset="1" stop-color="#B21940" stop-opacity="0"/>
</radialGradient>
<linearGradient id="paint11_linear_14794_31495" x1="14.3627" y1="37.2718" x2="34.6899" y2="37.2718" gradientUnits="userSpaceOnUse">
<stop stop-color="#D5BCEB"/>
<stop offset="1" stop-color="#DCCCED"/>
<stop offset="1" stop-color="#E3D3F2"/>
</linearGradient>
<linearGradient id="paint12_linear_14794_31495" x1="24.0001" y1="35.5752" x2="24.0001" y2="37.0108" gradientUnits="userSpaceOnUse">
<stop stop-color="#9F84AE"/>
<stop offset="1" stop-color="#C5B1D6" stop-opacity="0"/>
</linearGradient>
<linearGradient id="paint13_linear_14794_31495" x1="12.8291" y1="25.4603" x2="15.6557" y2="25.4603" gradientUnits="userSpaceOnUse">
<stop stop-color="#9A3E4F"/>
<stop offset="1" stop-color="#AA2C4D"/>
</linearGradient>
<radialGradient id="paint14_radial_14794_31495" cx="0" cy="0" r="1" gradientUnits="userSpaceOnUse" gradientTransform="translate(13.0249 35.5097) rotate(-90) scale(6.72135 1.18434)">
<stop stop-color="#9B3F51"/>
<stop offset="1" stop-color="#9B3F51" stop-opacity="0"/>
</radialGradient>
<radialGradient id="paint15_radial_14794_31495" cx="0" cy="0" r="1" gradientUnits="userSpaceOnUse" gradientTransform="translate(15.6557 33.5154) rotate(90) scale(4.92188 2.79991)">
<stop offset="0.266667" stop-color="#8F163A"/>
<stop offset="1" stop-color="#8F163A" stop-opacity="0"/>
</radialGradient>
<linearGradient id="paint16_linear_14794_31495" x1="14.069" y1="37.8264" x2="34.8729" y2="37.7937" gradientUnits="userSpaceOnUse">
<stop stop-color="#AB1F5C"/>
<stop offset="1" stop-color="#A51E5A"/>
</linearGradient>
<linearGradient id="paint17_linear_14794_31495" x1="15.9193" y1="6" x2="15.9193" y2="30.2679" gradientUnits="userSpaceOnUse">
<stop stop-color="#A6E051"/>
<stop offset="1" stop-color="#74D891"/>
</linearGradient>
<linearGradient id="paint18_linear_14794_31495" x1="25.6834" y1="9.57066" x2="23.6926" y2="9.85505" gradientUnits="userSpaceOnUse">
<stop offset="0.0135725" stop-color="#C0FA7C"/>
<stop offset="1" stop-color="#B0ED5B" stop-opacity="0"/>
</linearGradient>
<linearGradient id="paint19_linear_14794_31495" x1="5.02066" y1="32.7103" x2="25.3425" y2="32.7103" gradientUnits="userSpaceOnUse">
<stop stop-color="#D5BCEB"/>
<stop offset="1" stop-color="#DCCCED"/>
<stop offset="1" stop-color="#E3D3F2"/>
</linearGradient>
<linearGradient id="paint20_linear_14794_31495" x1="14.6555" y1="31.0141" x2="14.6555" y2="32.4493" gradientUnits="userSpaceOnUse">
<stop stop-color="#9F84AE"/>
<stop offset="1" stop-color="#C5B1D6" stop-opacity="0"/>
</linearGradient>
<linearGradient id="paint21_linear_14794_31495" x1="3.48764" y1="20.9021" x2="5.87113" y2="20.9146" gradientUnits="userSpaceOnUse">
<stop stop-color="#63B33B"/>
<stop offset="1" stop-color="#429B5B"/>
</linearGradient>
<linearGradient id="paint22_linear_14794_31495" x1="4.72717" y1="33.265" x2="25.5256" y2="33.2324" gradientUnits="userSpaceOnUse">
<stop stop-color="#2E7671"/>
<stop offset="1" stop-color="#2E7172"/>
</linearGradient>
</defs>
</svg>
