<svg width="48" height="48" viewBox="0 0 48 48" fill="none" xmlns="http://www.w3.org/2000/svg">
<g id="Dress">
<g id="Rectangle 27">
<path d="M16.3623 3.74063C16.3623 3.40925 16.6309 3.14062 16.9623 3.14062H17.567C17.8984 3.14062 18.167 3.40925 18.167 3.74063V6.92578H16.3623V3.74063Z" fill="#2D83CB"/>
<path d="M16.3623 3.74063C16.3623 3.40925 16.6309 3.14062 16.9623 3.14062H17.567C17.8984 3.14062 18.167 3.40925 18.167 3.74063V6.92578H16.3623V3.74063Z" fill="url(#paint0_linear_14794_30941)"/>
<path d="M16.3623 3.74063C16.3623 3.40925 16.6309 3.14062 16.9623 3.14062H17.567C17.8984 3.14062 18.167 3.40925 18.167 3.74063V6.92578H16.3623V3.74063Z" fill="url(#paint1_radial_14794_30941)"/>
</g>
<g id="Rectangle 28">
<path d="M29.9795 3.74063C29.9795 3.40925 30.2481 3.14062 30.5795 3.14062H31.1842C31.5156 3.14062 31.7842 3.40925 31.7842 3.74063V6.92578H29.9795V3.74063Z" fill="#2D83CB"/>
<path d="M29.9795 3.74063C29.9795 3.40925 30.2481 3.14062 30.5795 3.14062H31.1842C31.5156 3.14062 31.7842 3.40925 31.7842 3.74063V6.92578H29.9795V3.74063Z" fill="url(#paint2_linear_14794_30941)"/>
<path d="M29.9795 3.74063C29.9795 3.40925 30.2481 3.14062 30.5795 3.14062H31.1842C31.5156 3.14062 31.7842 3.40925 31.7842 3.74063V6.92578H29.9795V3.74063Z" fill="url(#paint3_radial_14794_30941)"/>
</g>
<g id="Union">
<path d="M15.0084 8.45085L16.8847 16.3763C16.9086 16.4772 17.0034 16.5415 17.107 16.5423L24.065 17.1168L31.0231 16.5423C31.1267 16.5415 31.2164 16.4701 31.2404 16.3692L33.1379 8.45085C33.3946 7.36737 32.5729 6.32812 31.4594 6.32812H28.6651C27.0032 6.32812 25.4766 7.24409 24.6945 8.71048L24.1393 9.75141C24.1111 9.80435 24.0352 9.80435 24.007 9.75141L23.4518 8.71048C22.6698 7.24409 21.1431 6.32812 19.4812 6.32812H16.687C15.5735 6.32812 14.7517 7.36737 15.0084 8.45085Z" fill="url(#paint4_linear_14794_30941)"/>
<path d="M15.0084 8.45085L16.8847 16.3763C16.9086 16.4772 17.0034 16.5415 17.107 16.5423L24.065 17.1168L31.0231 16.5423C31.1267 16.5415 31.2164 16.4701 31.2404 16.3692L33.1379 8.45085C33.3946 7.36737 32.5729 6.32812 31.4594 6.32812H28.6651C27.0032 6.32812 25.4766 7.24409 24.6945 8.71048L24.1393 9.75141C24.1111 9.80435 24.0352 9.80435 24.007 9.75141L23.4518 8.71048C22.6698 7.24409 21.1431 6.32812 19.4812 6.32812H16.687C15.5735 6.32812 14.7517 7.36737 15.0084 8.45085Z" fill="url(#paint5_linear_14794_30941)"/>
<path d="M15.0084 8.45085L16.8847 16.3763C16.9086 16.4772 17.0034 16.5415 17.107 16.5423L24.065 17.1168L31.0231 16.5423C31.1267 16.5415 31.2164 16.4701 31.2404 16.3692L33.1379 8.45085C33.3946 7.36737 32.5729 6.32812 31.4594 6.32812H28.6651C27.0032 6.32812 25.4766 7.24409 24.6945 8.71048L24.1393 9.75141C24.1111 9.80435 24.0352 9.80435 24.007 9.75141L23.4518 8.71048C22.6698 7.24409 21.1431 6.32812 19.4812 6.32812H16.687C15.5735 6.32812 14.7517 7.36737 15.0084 8.45085Z" fill="url(#paint6_linear_14794_30941)"/>
<path d="M15.0084 8.45085L16.8847 16.3763C16.9086 16.4772 17.0034 16.5415 17.107 16.5423L24.065 17.1168L31.0231 16.5423C31.1267 16.5415 31.2164 16.4701 31.2404 16.3692L33.1379 8.45085C33.3946 7.36737 32.5729 6.32812 31.4594 6.32812H28.6651C27.0032 6.32812 25.4766 7.24409 24.6945 8.71048L24.1393 9.75141C24.1111 9.80435 24.0352 9.80435 24.007 9.75141L23.4518 8.71048C22.6698 7.24409 21.1431 6.32812 19.4812 6.32812H16.687C15.5735 6.32812 14.7517 7.36737 15.0084 8.45085Z" fill="url(#paint7_linear_14794_30941)"/>
<path d="M15.0084 8.45085L16.8847 16.3763C16.9086 16.4772 17.0034 16.5415 17.107 16.5423L24.065 17.1168L31.0231 16.5423C31.1267 16.5415 31.2164 16.4701 31.2404 16.3692L33.1379 8.45085C33.3946 7.36737 32.5729 6.32812 31.4594 6.32812H28.6651C27.0032 6.32812 25.4766 7.24409 24.6945 8.71048L24.1393 9.75141C24.1111 9.80435 24.0352 9.80435 24.007 9.75141L23.4518 8.71048C22.6698 7.24409 21.1431 6.32812 19.4812 6.32812H16.687C15.5735 6.32812 14.7517 7.36737 15.0084 8.45085Z" fill="url(#paint8_radial_14794_30941)"/>
<path d="M15.0084 8.45085L16.8847 16.3763C16.9086 16.4772 17.0034 16.5415 17.107 16.5423L24.065 17.1168L31.0231 16.5423C31.1267 16.5415 31.2164 16.4701 31.2404 16.3692L33.1379 8.45085C33.3946 7.36737 32.5729 6.32812 31.4594 6.32812H28.6651C27.0032 6.32812 25.4766 7.24409 24.6945 8.71048L24.1393 9.75141C24.1111 9.80435 24.0352 9.80435 24.007 9.75141L23.4518 8.71048C22.6698 7.24409 21.1431 6.32812 19.4812 6.32812H16.687C15.5735 6.32812 14.7517 7.36737 15.0084 8.45085Z" fill="url(#paint9_linear_14794_30941)" fill-opacity="0.8"/>
<path d="M15.0084 8.45085L16.8847 16.3763C16.9086 16.4772 17.0034 16.5415 17.107 16.5423L24.065 17.1168L31.0231 16.5423C31.1267 16.5415 31.2164 16.4701 31.2404 16.3692L33.1379 8.45085C33.3946 7.36737 32.5729 6.32812 31.4594 6.32812H28.6651C27.0032 6.32812 25.4766 7.24409 24.6945 8.71048L24.1393 9.75141C24.1111 9.80435 24.0352 9.80435 24.007 9.75141L23.4518 8.71048C22.6698 7.24409 21.1431 6.32812 19.4812 6.32812H16.687C15.5735 6.32812 14.7517 7.36737 15.0084 8.45085Z" fill="url(#paint10_linear_14794_30941)"/>
<path d="M15.0084 8.45085L16.8847 16.3763C16.9086 16.4772 17.0034 16.5415 17.107 16.5423L24.065 17.1168L31.0231 16.5423C31.1267 16.5415 31.2164 16.4701 31.2404 16.3692L33.1379 8.45085C33.3946 7.36737 32.5729 6.32812 31.4594 6.32812H28.6651C27.0032 6.32812 25.4766 7.24409 24.6945 8.71048L24.1393 9.75141C24.1111 9.80435 24.0352 9.80435 24.007 9.75141L23.4518 8.71048C22.6698 7.24409 21.1431 6.32812 19.4812 6.32812H16.687C15.5735 6.32812 14.7517 7.36737 15.0084 8.45085Z" fill="url(#paint11_radial_14794_30941)"/>
<path d="M15.0084 8.45085L16.8847 16.3763C16.9086 16.4772 17.0034 16.5415 17.107 16.5423L24.065 17.1168L31.0231 16.5423C31.1267 16.5415 31.2164 16.4701 31.2404 16.3692L33.1379 8.45085C33.3946 7.36737 32.5729 6.32812 31.4594 6.32812H28.6651C27.0032 6.32812 25.4766 7.24409 24.6945 8.71048L24.1393 9.75141C24.1111 9.80435 24.0352 9.80435 24.007 9.75141L23.4518 8.71048C22.6698 7.24409 21.1431 6.32812 19.4812 6.32812H16.687C15.5735 6.32812 14.7517 7.36737 15.0084 8.45085Z" fill="url(#paint12_radial_14794_30941)"/>
<path d="M15.0084 8.45085L16.8847 16.3763C16.9086 16.4772 17.0034 16.5415 17.107 16.5423L24.065 17.1168L31.0231 16.5423C31.1267 16.5415 31.2164 16.4701 31.2404 16.3692L33.1379 8.45085C33.3946 7.36737 32.5729 6.32812 31.4594 6.32812H28.6651C27.0032 6.32812 25.4766 7.24409 24.6945 8.71048L24.1393 9.75141C24.1111 9.80435 24.0352 9.80435 24.007 9.75141L23.4518 8.71048C22.6698 7.24409 21.1431 6.32812 19.4812 6.32812H16.687C15.5735 6.32812 14.7517 7.36737 15.0084 8.45085Z" fill="url(#paint13_radial_14794_30941)" fill-opacity="0.8"/>
<path d="M15.0084 8.45085L16.8847 16.3763C16.9086 16.4772 17.0034 16.5415 17.107 16.5423L24.065 17.1168L31.0231 16.5423C31.1267 16.5415 31.2164 16.4701 31.2404 16.3692L33.1379 8.45085C33.3946 7.36737 32.5729 6.32812 31.4594 6.32812H28.6651C27.0032 6.32812 25.4766 7.24409 24.6945 8.71048L24.1393 9.75141C24.1111 9.80435 24.0352 9.80435 24.007 9.75141L23.4518 8.71048C22.6698 7.24409 21.1431 6.32812 19.4812 6.32812H16.687C15.5735 6.32812 14.7517 7.36737 15.0084 8.45085Z" fill="url(#paint14_radial_14794_30941)" fill-opacity="0.6"/>
<path d="M15.0084 8.45085L16.8847 16.3763C16.9086 16.4772 17.0034 16.5415 17.107 16.5423L24.065 17.1168L31.0231 16.5423C31.1267 16.5415 31.2164 16.4701 31.2404 16.3692L33.1379 8.45085C33.3946 7.36737 32.5729 6.32812 31.4594 6.32812H28.6651C27.0032 6.32812 25.4766 7.24409 24.6945 8.71048L24.1393 9.75141C24.1111 9.80435 24.0352 9.80435 24.007 9.75141L23.4518 8.71048C22.6698 7.24409 21.1431 6.32812 19.4812 6.32812H16.687C15.5735 6.32812 14.7517 7.36737 15.0084 8.45085Z" fill="url(#paint15_radial_14794_30941)"/>
<path d="M15.0084 8.45085L16.8847 16.3763C16.9086 16.4772 17.0034 16.5415 17.107 16.5423L24.065 17.1168L31.0231 16.5423C31.1267 16.5415 31.2164 16.4701 31.2404 16.3692L33.1379 8.45085C33.3946 7.36737 32.5729 6.32812 31.4594 6.32812H28.6651C27.0032 6.32812 25.4766 7.24409 24.6945 8.71048L24.1393 9.75141C24.1111 9.80435 24.0352 9.80435 24.007 9.75141L23.4518 8.71048C22.6698 7.24409 21.1431 6.32812 19.4812 6.32812H16.687C15.5735 6.32812 14.7517 7.36737 15.0084 8.45085Z" fill="url(#paint16_linear_14794_30941)"/>
<path d="M15.0084 8.45085L16.8847 16.3763C16.9086 16.4772 17.0034 16.5415 17.107 16.5423L24.065 17.1168L31.0231 16.5423C31.1267 16.5415 31.2164 16.4701 31.2404 16.3692L33.1379 8.45085C33.3946 7.36737 32.5729 6.32812 31.4594 6.32812H28.6651C27.0032 6.32812 25.4766 7.24409 24.6945 8.71048L24.1393 9.75141C24.1111 9.80435 24.0352 9.80435 24.007 9.75141L23.4518 8.71048C22.6698 7.24409 21.1431 6.32812 19.4812 6.32812H16.687C15.5735 6.32812 14.7517 7.36737 15.0084 8.45085Z" fill="url(#paint17_linear_14794_30941)"/>
<path d="M15.0084 8.45085L16.8847 16.3763C16.9086 16.4772 17.0034 16.5415 17.107 16.5423L24.065 17.1168L31.0231 16.5423C31.1267 16.5415 31.2164 16.4701 31.2404 16.3692L33.1379 8.45085C33.3946 7.36737 32.5729 6.32812 31.4594 6.32812H28.6651C27.0032 6.32812 25.4766 7.24409 24.6945 8.71048L24.1393 9.75141C24.1111 9.80435 24.0352 9.80435 24.007 9.75141L23.4518 8.71048C22.6698 7.24409 21.1431 6.32812 19.4812 6.32812H16.687C15.5735 6.32812 14.7517 7.36737 15.0084 8.45085Z" fill="url(#paint18_radial_14794_30941)"/>
<path d="M15.0084 8.45085L16.8847 16.3763C16.9086 16.4772 17.0034 16.5415 17.107 16.5423L24.065 17.1168L31.0231 16.5423C31.1267 16.5415 31.2164 16.4701 31.2404 16.3692L33.1379 8.45085C33.3946 7.36737 32.5729 6.32812 31.4594 6.32812H28.6651C27.0032 6.32812 25.4766 7.24409 24.6945 8.71048L24.1393 9.75141C24.1111 9.80435 24.0352 9.80435 24.007 9.75141L23.4518 8.71048C22.6698 7.24409 21.1431 6.32812 19.4812 6.32812H16.687C15.5735 6.32812 14.7517 7.36737 15.0084 8.45085Z" fill="url(#paint19_radial_14794_30941)"/>
<path d="M15.0084 8.45085L16.8847 16.3763C16.9086 16.4772 17.0034 16.5415 17.107 16.5423L24.065 17.1168L31.0231 16.5423C31.1267 16.5415 31.2164 16.4701 31.2404 16.3692L33.1379 8.45085C33.3946 7.36737 32.5729 6.32812 31.4594 6.32812H28.6651C27.0032 6.32812 25.4766 7.24409 24.6945 8.71048L24.1393 9.75141C24.1111 9.80435 24.0352 9.80435 24.007 9.75141L23.4518 8.71048C22.6698 7.24409 21.1431 6.32812 19.4812 6.32812H16.687C15.5735 6.32812 14.7517 7.36737 15.0084 8.45085Z" fill="url(#paint20_radial_14794_30941)" fill-opacity="0.7"/>
<path d="M15.0084 8.45085L16.8847 16.3763C16.9086 16.4772 17.0034 16.5415 17.107 16.5423L24.065 17.1168L31.0231 16.5423C31.1267 16.5415 31.2164 16.4701 31.2404 16.3692L33.1379 8.45085C33.3946 7.36737 32.5729 6.32812 31.4594 6.32812H28.6651C27.0032 6.32812 25.4766 7.24409 24.6945 8.71048L24.1393 9.75141C24.1111 9.80435 24.0352 9.80435 24.007 9.75141L23.4518 8.71048C22.6698 7.24409 21.1431 6.32812 19.4812 6.32812H16.687C15.5735 6.32812 14.7517 7.36737 15.0084 8.45085Z" fill="url(#paint21_radial_14794_30941)" fill-opacity="0.3"/>
<path d="M15.0084 8.45085L16.8847 16.3763C16.9086 16.4772 17.0034 16.5415 17.107 16.5423L24.065 17.1168L31.0231 16.5423C31.1267 16.5415 31.2164 16.4701 31.2404 16.3692L33.1379 8.45085C33.3946 7.36737 32.5729 6.32812 31.4594 6.32812H28.6651C27.0032 6.32812 25.4766 7.24409 24.6945 8.71048L24.1393 9.75141C24.1111 9.80435 24.0352 9.80435 24.007 9.75141L23.4518 8.71048C22.6698 7.24409 21.1431 6.32812 19.4812 6.32812H16.687C15.5735 6.32812 14.7517 7.36737 15.0084 8.45085Z" fill="url(#paint22_radial_14794_30941)" fill-opacity="0.5"/>
<path d="M15.0084 8.45085L16.8847 16.3763C16.9086 16.4772 17.0034 16.5415 17.107 16.5423L24.065 17.1168L31.0231 16.5423C31.1267 16.5415 31.2164 16.4701 31.2404 16.3692L33.1379 8.45085C33.3946 7.36737 32.5729 6.32812 31.4594 6.32812H28.6651C27.0032 6.32812 25.4766 7.24409 24.6945 8.71048L24.1393 9.75141C24.1111 9.80435 24.0352 9.80435 24.007 9.75141L23.4518 8.71048C22.6698 7.24409 21.1431 6.32812 19.4812 6.32812H16.687C15.5735 6.32812 14.7517 7.36737 15.0084 8.45085Z" fill="url(#paint23_radial_14794_30941)" fill-opacity="0.7"/>
<path d="M15.0084 8.45085L16.8847 16.3763C16.9086 16.4772 17.0034 16.5415 17.107 16.5423L24.065 17.1168L31.0231 16.5423C31.1267 16.5415 31.2164 16.4701 31.2404 16.3692L33.1379 8.45085C33.3946 7.36737 32.5729 6.32812 31.4594 6.32812H28.6651C27.0032 6.32812 25.4766 7.24409 24.6945 8.71048L24.1393 9.75141C24.1111 9.80435 24.0352 9.80435 24.007 9.75141L23.4518 8.71048C22.6698 7.24409 21.1431 6.32812 19.4812 6.32812H16.687C15.5735 6.32812 14.7517 7.36737 15.0084 8.45085Z" fill="url(#paint24_radial_14794_30941)"/>
<path d="M15.0084 8.45085L16.8847 16.3763C16.9086 16.4772 17.0034 16.5415 17.107 16.5423L24.065 17.1168L31.0231 16.5423C31.1267 16.5415 31.2164 16.4701 31.2404 16.3692L33.1379 8.45085C33.3946 7.36737 32.5729 6.32812 31.4594 6.32812H28.6651C27.0032 6.32812 25.4766 7.24409 24.6945 8.71048L24.1393 9.75141C24.1111 9.80435 24.0352 9.80435 24.007 9.75141L23.4518 8.71048C22.6698 7.24409 21.1431 6.32812 19.4812 6.32812H16.687C15.5735 6.32812 14.7517 7.36737 15.0084 8.45085Z" fill="url(#paint25_radial_14794_30941)" fill-opacity="0.7"/>
<path d="M15.0084 8.45085L16.8847 16.3763C16.9086 16.4772 17.0034 16.5415 17.107 16.5423L24.065 17.1168L31.0231 16.5423C31.1267 16.5415 31.2164 16.4701 31.2404 16.3692L33.1379 8.45085C33.3946 7.36737 32.5729 6.32812 31.4594 6.32812H28.6651C27.0032 6.32812 25.4766 7.24409 24.6945 8.71048L24.1393 9.75141C24.1111 9.80435 24.0352 9.80435 24.007 9.75141L23.4518 8.71048C22.6698 7.24409 21.1431 6.32812 19.4812 6.32812H16.687C15.5735 6.32812 14.7517 7.36737 15.0084 8.45085Z" fill="url(#paint26_radial_14794_30941)"/>
</g>
<g id="Union_2">
<path d="M17.0387 18.1301L6.60088 39.0467C5.93996 40.1249 5.2555 42.2577 6.81328 43.8163C8.59435 45.5983 10.6722 44.8206 11.7579 43.8163C12.0091 43.5839 12.2246 43.3903 12.4063 43.2299C12.7825 42.8979 13.4286 42.9971 13.7581 43.3749C14.4182 44.1318 15.4339 44.9534 16.5611 44.9534C18.1221 44.9534 18.9384 44.1275 19.318 43.7434L19.3225 43.7389L19.7402 43.2992C20.1192 42.9002 20.6546 42.89 21.0463 43.2767L21.8125 44.0331C22.2255 44.4748 22.9808 44.9178 24.0902 44.9178C25.1995 44.9178 25.9478 44.4748 26.3608 44.0331L27.1269 43.2767C27.5187 42.89 28.0612 42.9002 28.4402 43.2992L28.8578 43.7389L28.8623 43.7434C29.242 44.1275 30.0583 44.9534 31.6193 44.9534C32.7465 44.9534 33.7622 44.1318 34.4222 43.3749C34.7517 42.9971 35.3979 42.8979 35.7741 43.2299C35.9558 43.3903 36.1713 43.5839 36.4225 43.8163C37.5082 44.8206 39.586 45.5983 41.3671 43.8163C42.9249 42.2577 42.2404 40.1249 41.5795 39.0467L31.1417 18.1301C31.1162 18.0791 31.0637 18.0467 31.0063 18.0467L24.0712 17.5049L17.1741 18.0467C17.1166 18.0467 17.0642 18.0791 17.0387 18.1301Z" fill="url(#paint27_linear_14794_30941)"/>
<path d="M17.0387 18.1301L6.60088 39.0467C5.93996 40.1249 5.2555 42.2577 6.81328 43.8163C8.59435 45.5983 10.6722 44.8206 11.7579 43.8163C12.0091 43.5839 12.2246 43.3903 12.4063 43.2299C12.7825 42.8979 13.4286 42.9971 13.7581 43.3749C14.4182 44.1318 15.4339 44.9534 16.5611 44.9534C18.1221 44.9534 18.9384 44.1275 19.318 43.7434L19.3225 43.7389L19.7402 43.2992C20.1192 42.9002 20.6546 42.89 21.0463 43.2767L21.8125 44.0331C22.2255 44.4748 22.9808 44.9178 24.0902 44.9178C25.1995 44.9178 25.9478 44.4748 26.3608 44.0331L27.1269 43.2767C27.5187 42.89 28.0612 42.9002 28.4402 43.2992L28.8578 43.7389L28.8623 43.7434C29.242 44.1275 30.0583 44.9534 31.6193 44.9534C32.7465 44.9534 33.7622 44.1318 34.4222 43.3749C34.7517 42.9971 35.3979 42.8979 35.7741 43.2299C35.9558 43.3903 36.1713 43.5839 36.4225 43.8163C37.5082 44.8206 39.586 45.5983 41.3671 43.8163C42.9249 42.2577 42.2404 40.1249 41.5795 39.0467L31.1417 18.1301C31.1162 18.0791 31.0637 18.0467 31.0063 18.0467L24.0712 17.5049L17.1741 18.0467C17.1166 18.0467 17.0642 18.0791 17.0387 18.1301Z" fill="url(#paint28_linear_14794_30941)"/>
<path d="M17.0387 18.1301L6.60088 39.0467C5.93996 40.1249 5.2555 42.2577 6.81328 43.8163C8.59435 45.5983 10.6722 44.8206 11.7579 43.8163C12.0091 43.5839 12.2246 43.3903 12.4063 43.2299C12.7825 42.8979 13.4286 42.9971 13.7581 43.3749C14.4182 44.1318 15.4339 44.9534 16.5611 44.9534C18.1221 44.9534 18.9384 44.1275 19.318 43.7434L19.3225 43.7389L19.7402 43.2992C20.1192 42.9002 20.6546 42.89 21.0463 43.2767L21.8125 44.0331C22.2255 44.4748 22.9808 44.9178 24.0902 44.9178C25.1995 44.9178 25.9478 44.4748 26.3608 44.0331L27.1269 43.2767C27.5187 42.89 28.0612 42.9002 28.4402 43.2992L28.8578 43.7389L28.8623 43.7434C29.242 44.1275 30.0583 44.9534 31.6193 44.9534C32.7465 44.9534 33.7622 44.1318 34.4222 43.3749C34.7517 42.9971 35.3979 42.8979 35.7741 43.2299C35.9558 43.3903 36.1713 43.5839 36.4225 43.8163C37.5082 44.8206 39.586 45.5983 41.3671 43.8163C42.9249 42.2577 42.2404 40.1249 41.5795 39.0467L31.1417 18.1301C31.1162 18.0791 31.0637 18.0467 31.0063 18.0467L24.0712 17.5049L17.1741 18.0467C17.1166 18.0467 17.0642 18.0791 17.0387 18.1301Z" fill="url(#paint29_linear_14794_30941)"/>
<path d="M17.0387 18.1301L6.60088 39.0467C5.93996 40.1249 5.2555 42.2577 6.81328 43.8163C8.59435 45.5983 10.6722 44.8206 11.7579 43.8163C12.0091 43.5839 12.2246 43.3903 12.4063 43.2299C12.7825 42.8979 13.4286 42.9971 13.7581 43.3749C14.4182 44.1318 15.4339 44.9534 16.5611 44.9534C18.1221 44.9534 18.9384 44.1275 19.318 43.7434L19.3225 43.7389L19.7402 43.2992C20.1192 42.9002 20.6546 42.89 21.0463 43.2767L21.8125 44.0331C22.2255 44.4748 22.9808 44.9178 24.0902 44.9178C25.1995 44.9178 25.9478 44.4748 26.3608 44.0331L27.1269 43.2767C27.5187 42.89 28.0612 42.9002 28.4402 43.2992L28.8578 43.7389L28.8623 43.7434C29.242 44.1275 30.0583 44.9534 31.6193 44.9534C32.7465 44.9534 33.7622 44.1318 34.4222 43.3749C34.7517 42.9971 35.3979 42.8979 35.7741 43.2299C35.9558 43.3903 36.1713 43.5839 36.4225 43.8163C37.5082 44.8206 39.586 45.5983 41.3671 43.8163C42.9249 42.2577 42.2404 40.1249 41.5795 39.0467L31.1417 18.1301C31.1162 18.0791 31.0637 18.0467 31.0063 18.0467L24.0712 17.5049L17.1741 18.0467C17.1166 18.0467 17.0642 18.0791 17.0387 18.1301Z" fill="url(#paint30_linear_14794_30941)" fill-opacity="0.85"/>
<path d="M17.0387 18.1301L6.60088 39.0467C5.93996 40.1249 5.2555 42.2577 6.81328 43.8163C8.59435 45.5983 10.6722 44.8206 11.7579 43.8163C12.0091 43.5839 12.2246 43.3903 12.4063 43.2299C12.7825 42.8979 13.4286 42.9971 13.7581 43.3749C14.4182 44.1318 15.4339 44.9534 16.5611 44.9534C18.1221 44.9534 18.9384 44.1275 19.318 43.7434L19.3225 43.7389L19.7402 43.2992C20.1192 42.9002 20.6546 42.89 21.0463 43.2767L21.8125 44.0331C22.2255 44.4748 22.9808 44.9178 24.0902 44.9178C25.1995 44.9178 25.9478 44.4748 26.3608 44.0331L27.1269 43.2767C27.5187 42.89 28.0612 42.9002 28.4402 43.2992L28.8578 43.7389L28.8623 43.7434C29.242 44.1275 30.0583 44.9534 31.6193 44.9534C32.7465 44.9534 33.7622 44.1318 34.4222 43.3749C34.7517 42.9971 35.3979 42.8979 35.7741 43.2299C35.9558 43.3903 36.1713 43.5839 36.4225 43.8163C37.5082 44.8206 39.586 45.5983 41.3671 43.8163C42.9249 42.2577 42.2404 40.1249 41.5795 39.0467L31.1417 18.1301C31.1162 18.0791 31.0637 18.0467 31.0063 18.0467L24.0712 17.5049L17.1741 18.0467C17.1166 18.0467 17.0642 18.0791 17.0387 18.1301Z" fill="url(#paint31_radial_14794_30941)" fill-opacity="0.8"/>
<path d="M17.0387 18.1301L6.60088 39.0467C5.93996 40.1249 5.2555 42.2577 6.81328 43.8163C8.59435 45.5983 10.6722 44.8206 11.7579 43.8163C12.0091 43.5839 12.2246 43.3903 12.4063 43.2299C12.7825 42.8979 13.4286 42.9971 13.7581 43.3749C14.4182 44.1318 15.4339 44.9534 16.5611 44.9534C18.1221 44.9534 18.9384 44.1275 19.318 43.7434L19.3225 43.7389L19.7402 43.2992C20.1192 42.9002 20.6546 42.89 21.0463 43.2767L21.8125 44.0331C22.2255 44.4748 22.9808 44.9178 24.0902 44.9178C25.1995 44.9178 25.9478 44.4748 26.3608 44.0331L27.1269 43.2767C27.5187 42.89 28.0612 42.9002 28.4402 43.2992L28.8578 43.7389L28.8623 43.7434C29.242 44.1275 30.0583 44.9534 31.6193 44.9534C32.7465 44.9534 33.7622 44.1318 34.4222 43.3749C34.7517 42.9971 35.3979 42.8979 35.7741 43.2299C35.9558 43.3903 36.1713 43.5839 36.4225 43.8163C37.5082 44.8206 39.586 45.5983 41.3671 43.8163C42.9249 42.2577 42.2404 40.1249 41.5795 39.0467L31.1417 18.1301C31.1162 18.0791 31.0637 18.0467 31.0063 18.0467L24.0712 17.5049L17.1741 18.0467C17.1166 18.0467 17.0642 18.0791 17.0387 18.1301Z" fill="url(#paint32_radial_14794_30941)" fill-opacity="0.65"/>
<path d="M17.0387 18.1301L6.60088 39.0467C5.93996 40.1249 5.2555 42.2577 6.81328 43.8163C8.59435 45.5983 10.6722 44.8206 11.7579 43.8163C12.0091 43.5839 12.2246 43.3903 12.4063 43.2299C12.7825 42.8979 13.4286 42.9971 13.7581 43.3749C14.4182 44.1318 15.4339 44.9534 16.5611 44.9534C18.1221 44.9534 18.9384 44.1275 19.318 43.7434L19.3225 43.7389L19.7402 43.2992C20.1192 42.9002 20.6546 42.89 21.0463 43.2767L21.8125 44.0331C22.2255 44.4748 22.9808 44.9178 24.0902 44.9178C25.1995 44.9178 25.9478 44.4748 26.3608 44.0331L27.1269 43.2767C27.5187 42.89 28.0612 42.9002 28.4402 43.2992L28.8578 43.7389L28.8623 43.7434C29.242 44.1275 30.0583 44.9534 31.6193 44.9534C32.7465 44.9534 33.7622 44.1318 34.4222 43.3749C34.7517 42.9971 35.3979 42.8979 35.7741 43.2299C35.9558 43.3903 36.1713 43.5839 36.4225 43.8163C37.5082 44.8206 39.586 45.5983 41.3671 43.8163C42.9249 42.2577 42.2404 40.1249 41.5795 39.0467L31.1417 18.1301C31.1162 18.0791 31.0637 18.0467 31.0063 18.0467L24.0712 17.5049L17.1741 18.0467C17.1166 18.0467 17.0642 18.0791 17.0387 18.1301Z" fill="url(#paint33_radial_14794_30941)" fill-opacity="0.8"/>
<path d="M17.0387 18.1301L6.60088 39.0467C5.93996 40.1249 5.2555 42.2577 6.81328 43.8163C8.59435 45.5983 10.6722 44.8206 11.7579 43.8163C12.0091 43.5839 12.2246 43.3903 12.4063 43.2299C12.7825 42.8979 13.4286 42.9971 13.7581 43.3749C14.4182 44.1318 15.4339 44.9534 16.5611 44.9534C18.1221 44.9534 18.9384 44.1275 19.318 43.7434L19.3225 43.7389L19.7402 43.2992C20.1192 42.9002 20.6546 42.89 21.0463 43.2767L21.8125 44.0331C22.2255 44.4748 22.9808 44.9178 24.0902 44.9178C25.1995 44.9178 25.9478 44.4748 26.3608 44.0331L27.1269 43.2767C27.5187 42.89 28.0612 42.9002 28.4402 43.2992L28.8578 43.7389L28.8623 43.7434C29.242 44.1275 30.0583 44.9534 31.6193 44.9534C32.7465 44.9534 33.7622 44.1318 34.4222 43.3749C34.7517 42.9971 35.3979 42.8979 35.7741 43.2299C35.9558 43.3903 36.1713 43.5839 36.4225 43.8163C37.5082 44.8206 39.586 45.5983 41.3671 43.8163C42.9249 42.2577 42.2404 40.1249 41.5795 39.0467L31.1417 18.1301C31.1162 18.0791 31.0637 18.0467 31.0063 18.0467L24.0712 17.5049L17.1741 18.0467C17.1166 18.0467 17.0642 18.0791 17.0387 18.1301Z" fill="url(#paint34_radial_14794_30941)" fill-opacity="0.8"/>
<path d="M17.0387 18.1301L6.60088 39.0467C5.93996 40.1249 5.2555 42.2577 6.81328 43.8163C8.59435 45.5983 10.6722 44.8206 11.7579 43.8163C12.0091 43.5839 12.2246 43.3903 12.4063 43.2299C12.7825 42.8979 13.4286 42.9971 13.7581 43.3749C14.4182 44.1318 15.4339 44.9534 16.5611 44.9534C18.1221 44.9534 18.9384 44.1275 19.318 43.7434L19.3225 43.7389L19.7402 43.2992C20.1192 42.9002 20.6546 42.89 21.0463 43.2767L21.8125 44.0331C22.2255 44.4748 22.9808 44.9178 24.0902 44.9178C25.1995 44.9178 25.9478 44.4748 26.3608 44.0331L27.1269 43.2767C27.5187 42.89 28.0612 42.9002 28.4402 43.2992L28.8578 43.7389L28.8623 43.7434C29.242 44.1275 30.0583 44.9534 31.6193 44.9534C32.7465 44.9534 33.7622 44.1318 34.4222 43.3749C34.7517 42.9971 35.3979 42.8979 35.7741 43.2299C35.9558 43.3903 36.1713 43.5839 36.4225 43.8163C37.5082 44.8206 39.586 45.5983 41.3671 43.8163C42.9249 42.2577 42.2404 40.1249 41.5795 39.0467L31.1417 18.1301C31.1162 18.0791 31.0637 18.0467 31.0063 18.0467L24.0712 17.5049L17.1741 18.0467C17.1166 18.0467 17.0642 18.0791 17.0387 18.1301Z" fill="url(#paint35_radial_14794_30941)" fill-opacity="0.8"/>
<path d="M17.0387 18.1301L6.60088 39.0467C5.93996 40.1249 5.2555 42.2577 6.81328 43.8163C8.59435 45.5983 10.6722 44.8206 11.7579 43.8163C12.0091 43.5839 12.2246 43.3903 12.4063 43.2299C12.7825 42.8979 13.4286 42.9971 13.7581 43.3749C14.4182 44.1318 15.4339 44.9534 16.5611 44.9534C18.1221 44.9534 18.9384 44.1275 19.318 43.7434L19.3225 43.7389L19.7402 43.2992C20.1192 42.9002 20.6546 42.89 21.0463 43.2767L21.8125 44.0331C22.2255 44.4748 22.9808 44.9178 24.0902 44.9178C25.1995 44.9178 25.9478 44.4748 26.3608 44.0331L27.1269 43.2767C27.5187 42.89 28.0612 42.9002 28.4402 43.2992L28.8578 43.7389L28.8623 43.7434C29.242 44.1275 30.0583 44.9534 31.6193 44.9534C32.7465 44.9534 33.7622 44.1318 34.4222 43.3749C34.7517 42.9971 35.3979 42.8979 35.7741 43.2299C35.9558 43.3903 36.1713 43.5839 36.4225 43.8163C37.5082 44.8206 39.586 45.5983 41.3671 43.8163C42.9249 42.2577 42.2404 40.1249 41.5795 39.0467L31.1417 18.1301C31.1162 18.0791 31.0637 18.0467 31.0063 18.0467L24.0712 17.5049L17.1741 18.0467C17.1166 18.0467 17.0642 18.0791 17.0387 18.1301Z" fill="url(#paint36_radial_14794_30941)"/>
<path d="M17.0387 18.1301L6.60088 39.0467C5.93996 40.1249 5.2555 42.2577 6.81328 43.8163C8.59435 45.5983 10.6722 44.8206 11.7579 43.8163C12.0091 43.5839 12.2246 43.3903 12.4063 43.2299C12.7825 42.8979 13.4286 42.9971 13.7581 43.3749C14.4182 44.1318 15.4339 44.9534 16.5611 44.9534C18.1221 44.9534 18.9384 44.1275 19.318 43.7434L19.3225 43.7389L19.7402 43.2992C20.1192 42.9002 20.6546 42.89 21.0463 43.2767L21.8125 44.0331C22.2255 44.4748 22.9808 44.9178 24.0902 44.9178C25.1995 44.9178 25.9478 44.4748 26.3608 44.0331L27.1269 43.2767C27.5187 42.89 28.0612 42.9002 28.4402 43.2992L28.8578 43.7389L28.8623 43.7434C29.242 44.1275 30.0583 44.9534 31.6193 44.9534C32.7465 44.9534 33.7622 44.1318 34.4222 43.3749C34.7517 42.9971 35.3979 42.8979 35.7741 43.2299C35.9558 43.3903 36.1713 43.5839 36.4225 43.8163C37.5082 44.8206 39.586 45.5983 41.3671 43.8163C42.9249 42.2577 42.2404 40.1249 41.5795 39.0467L31.1417 18.1301C31.1162 18.0791 31.0637 18.0467 31.0063 18.0467L24.0712 17.5049L17.1741 18.0467C17.1166 18.0467 17.0642 18.0791 17.0387 18.1301Z" fill="url(#paint37_radial_14794_30941)" fill-opacity="0.8"/>
<path d="M17.0387 18.1301L6.60088 39.0467C5.93996 40.1249 5.2555 42.2577 6.81328 43.8163C8.59435 45.5983 10.6722 44.8206 11.7579 43.8163C12.0091 43.5839 12.2246 43.3903 12.4063 43.2299C12.7825 42.8979 13.4286 42.9971 13.7581 43.3749C14.4182 44.1318 15.4339 44.9534 16.5611 44.9534C18.1221 44.9534 18.9384 44.1275 19.318 43.7434L19.3225 43.7389L19.7402 43.2992C20.1192 42.9002 20.6546 42.89 21.0463 43.2767L21.8125 44.0331C22.2255 44.4748 22.9808 44.9178 24.0902 44.9178C25.1995 44.9178 25.9478 44.4748 26.3608 44.0331L27.1269 43.2767C27.5187 42.89 28.0612 42.9002 28.4402 43.2992L28.8578 43.7389L28.8623 43.7434C29.242 44.1275 30.0583 44.9534 31.6193 44.9534C32.7465 44.9534 33.7622 44.1318 34.4222 43.3749C34.7517 42.9971 35.3979 42.8979 35.7741 43.2299C35.9558 43.3903 36.1713 43.5839 36.4225 43.8163C37.5082 44.8206 39.586 45.5983 41.3671 43.8163C42.9249 42.2577 42.2404 40.1249 41.5795 39.0467L31.1417 18.1301C31.1162 18.0791 31.0637 18.0467 31.0063 18.0467L24.0712 17.5049L17.1741 18.0467C17.1166 18.0467 17.0642 18.0791 17.0387 18.1301Z" fill="url(#paint38_radial_14794_30941)" fill-opacity="0.8"/>
<path d="M17.0387 18.1301L6.60088 39.0467C5.93996 40.1249 5.2555 42.2577 6.81328 43.8163C8.59435 45.5983 10.6722 44.8206 11.7579 43.8163C12.0091 43.5839 12.2246 43.3903 12.4063 43.2299C12.7825 42.8979 13.4286 42.9971 13.7581 43.3749C14.4182 44.1318 15.4339 44.9534 16.5611 44.9534C18.1221 44.9534 18.9384 44.1275 19.318 43.7434L19.3225 43.7389L19.7402 43.2992C20.1192 42.9002 20.6546 42.89 21.0463 43.2767L21.8125 44.0331C22.2255 44.4748 22.9808 44.9178 24.0902 44.9178C25.1995 44.9178 25.9478 44.4748 26.3608 44.0331L27.1269 43.2767C27.5187 42.89 28.0612 42.9002 28.4402 43.2992L28.8578 43.7389L28.8623 43.7434C29.242 44.1275 30.0583 44.9534 31.6193 44.9534C32.7465 44.9534 33.7622 44.1318 34.4222 43.3749C34.7517 42.9971 35.3979 42.8979 35.7741 43.2299C35.9558 43.3903 36.1713 43.5839 36.4225 43.8163C37.5082 44.8206 39.586 45.5983 41.3671 43.8163C42.9249 42.2577 42.2404 40.1249 41.5795 39.0467L31.1417 18.1301C31.1162 18.0791 31.0637 18.0467 31.0063 18.0467L24.0712 17.5049L17.1741 18.0467C17.1166 18.0467 17.0642 18.0791 17.0387 18.1301Z" fill="url(#paint39_radial_14794_30941)" fill-opacity="0.8"/>
<path d="M17.0387 18.1301L6.60088 39.0467C5.93996 40.1249 5.2555 42.2577 6.81328 43.8163C8.59435 45.5983 10.6722 44.8206 11.7579 43.8163C12.0091 43.5839 12.2246 43.3903 12.4063 43.2299C12.7825 42.8979 13.4286 42.9971 13.7581 43.3749C14.4182 44.1318 15.4339 44.9534 16.5611 44.9534C18.1221 44.9534 18.9384 44.1275 19.318 43.7434L19.3225 43.7389L19.7402 43.2992C20.1192 42.9002 20.6546 42.89 21.0463 43.2767L21.8125 44.0331C22.2255 44.4748 22.9808 44.9178 24.0902 44.9178C25.1995 44.9178 25.9478 44.4748 26.3608 44.0331L27.1269 43.2767C27.5187 42.89 28.0612 42.9002 28.4402 43.2992L28.8578 43.7389L28.8623 43.7434C29.242 44.1275 30.0583 44.9534 31.6193 44.9534C32.7465 44.9534 33.7622 44.1318 34.4222 43.3749C34.7517 42.9971 35.3979 42.8979 35.7741 43.2299C35.9558 43.3903 36.1713 43.5839 36.4225 43.8163C37.5082 44.8206 39.586 45.5983 41.3671 43.8163C42.9249 42.2577 42.2404 40.1249 41.5795 39.0467L31.1417 18.1301C31.1162 18.0791 31.0637 18.0467 31.0063 18.0467L24.0712 17.5049L17.1741 18.0467C17.1166 18.0467 17.0642 18.0791 17.0387 18.1301Z" fill="url(#paint40_radial_14794_30941)" fill-opacity="0.3"/>
<path d="M17.0387 18.1301L6.60088 39.0467C5.93996 40.1249 5.2555 42.2577 6.81328 43.8163C8.59435 45.5983 10.6722 44.8206 11.7579 43.8163C12.0091 43.5839 12.2246 43.3903 12.4063 43.2299C12.7825 42.8979 13.4286 42.9971 13.7581 43.3749C14.4182 44.1318 15.4339 44.9534 16.5611 44.9534C18.1221 44.9534 18.9384 44.1275 19.318 43.7434L19.3225 43.7389L19.7402 43.2992C20.1192 42.9002 20.6546 42.89 21.0463 43.2767L21.8125 44.0331C22.2255 44.4748 22.9808 44.9178 24.0902 44.9178C25.1995 44.9178 25.9478 44.4748 26.3608 44.0331L27.1269 43.2767C27.5187 42.89 28.0612 42.9002 28.4402 43.2992L28.8578 43.7389L28.8623 43.7434C29.242 44.1275 30.0583 44.9534 31.6193 44.9534C32.7465 44.9534 33.7622 44.1318 34.4222 43.3749C34.7517 42.9971 35.3979 42.8979 35.7741 43.2299C35.9558 43.3903 36.1713 43.5839 36.4225 43.8163C37.5082 44.8206 39.586 45.5983 41.3671 43.8163C42.9249 42.2577 42.2404 40.1249 41.5795 39.0467L31.1417 18.1301C31.1162 18.0791 31.0637 18.0467 31.0063 18.0467L24.0712 17.5049L17.1741 18.0467C17.1166 18.0467 17.0642 18.0791 17.0387 18.1301Z" fill="url(#paint41_radial_14794_30941)" fill-opacity="0.3"/>
<path d="M17.0387 18.1301L6.60088 39.0467C5.93996 40.1249 5.2555 42.2577 6.81328 43.8163C8.59435 45.5983 10.6722 44.8206 11.7579 43.8163C12.0091 43.5839 12.2246 43.3903 12.4063 43.2299C12.7825 42.8979 13.4286 42.9971 13.7581 43.3749C14.4182 44.1318 15.4339 44.9534 16.5611 44.9534C18.1221 44.9534 18.9384 44.1275 19.318 43.7434L19.3225 43.7389L19.7402 43.2992C20.1192 42.9002 20.6546 42.89 21.0463 43.2767L21.8125 44.0331C22.2255 44.4748 22.9808 44.9178 24.0902 44.9178C25.1995 44.9178 25.9478 44.4748 26.3608 44.0331L27.1269 43.2767C27.5187 42.89 28.0612 42.9002 28.4402 43.2992L28.8578 43.7389L28.8623 43.7434C29.242 44.1275 30.0583 44.9534 31.6193 44.9534C32.7465 44.9534 33.7622 44.1318 34.4222 43.3749C34.7517 42.9971 35.3979 42.8979 35.7741 43.2299C35.9558 43.3903 36.1713 43.5839 36.4225 43.8163C37.5082 44.8206 39.586 45.5983 41.3671 43.8163C42.9249 42.2577 42.2404 40.1249 41.5795 39.0467L31.1417 18.1301C31.1162 18.0791 31.0637 18.0467 31.0063 18.0467L24.0712 17.5049L17.1741 18.0467C17.1166 18.0467 17.0642 18.0791 17.0387 18.1301Z" fill="url(#paint42_radial_14794_30941)" fill-opacity="0.3"/>
<path d="M17.0387 18.1301L6.60088 39.0467C5.93996 40.1249 5.2555 42.2577 6.81328 43.8163C8.59435 45.5983 10.6722 44.8206 11.7579 43.8163C12.0091 43.5839 12.2246 43.3903 12.4063 43.2299C12.7825 42.8979 13.4286 42.9971 13.7581 43.3749C14.4182 44.1318 15.4339 44.9534 16.5611 44.9534C18.1221 44.9534 18.9384 44.1275 19.318 43.7434L19.3225 43.7389L19.7402 43.2992C20.1192 42.9002 20.6546 42.89 21.0463 43.2767L21.8125 44.0331C22.2255 44.4748 22.9808 44.9178 24.0902 44.9178C25.1995 44.9178 25.9478 44.4748 26.3608 44.0331L27.1269 43.2767C27.5187 42.89 28.0612 42.9002 28.4402 43.2992L28.8578 43.7389L28.8623 43.7434C29.242 44.1275 30.0583 44.9534 31.6193 44.9534C32.7465 44.9534 33.7622 44.1318 34.4222 43.3749C34.7517 42.9971 35.3979 42.8979 35.7741 43.2299C35.9558 43.3903 36.1713 43.5839 36.4225 43.8163C37.5082 44.8206 39.586 45.5983 41.3671 43.8163C42.9249 42.2577 42.2404 40.1249 41.5795 39.0467L31.1417 18.1301C31.1162 18.0791 31.0637 18.0467 31.0063 18.0467L24.0712 17.5049L17.1741 18.0467C17.1166 18.0467 17.0642 18.0791 17.0387 18.1301Z" fill="url(#paint43_radial_14794_30941)" fill-opacity="0.15"/>
</g>
<g id="Rectangle 26">
<rect x="16.8962" y="16.5469" width="14.3555" height="1.5" rx="0.1" fill="url(#paint44_linear_14794_30941)"/>
<rect x="16.8962" y="16.5469" width="14.3555" height="1.5" rx="0.1" fill="url(#paint45_radial_14794_30941)"/>
<rect x="16.8962" y="16.5469" width="14.3555" height="1.5" rx="0.1" fill="url(#paint46_linear_14794_30941)"/>
<rect x="16.8962" y="16.5469" width="14.3555" height="1.5" rx="0.1" fill="url(#paint47_linear_14794_30941)"/>
</g>
</g>
<defs>
<linearGradient id="paint0_linear_14794_30941" x1="16.2047" y1="6.5625" x2="17.2646" y2="6.5625" gradientUnits="userSpaceOnUse">
<stop stop-color="#2A5FA6"/>
<stop offset="1" stop-color="#2A5FA6" stop-opacity="0"/>
</linearGradient>
<radialGradient id="paint1_radial_14794_30941" cx="0" cy="0" r="1" gradientUnits="userSpaceOnUse" gradientTransform="translate(18.1032 6.76758) rotate(-89.1175) scale(4.14307 0.587486)">
<stop offset="0.165152" stop-color="#5D9CDB"/>
<stop offset="1" stop-color="#2E84CC" stop-opacity="0"/>
</radialGradient>
<linearGradient id="paint2_linear_14794_30941" x1="29.8219" y1="6.5625" x2="30.8818" y2="6.5625" gradientUnits="userSpaceOnUse">
<stop stop-color="#2A5FA6"/>
<stop offset="1" stop-color="#2A5FA6" stop-opacity="0"/>
</linearGradient>
<radialGradient id="paint3_radial_14794_30941" cx="0" cy="0" r="1" gradientUnits="userSpaceOnUse" gradientTransform="translate(31.7204 6.76758) rotate(-89.1175) scale(4.14307 0.587486)">
<stop offset="0.165152" stop-color="#5D9CDB"/>
<stop offset="1" stop-color="#2E84CC" stop-opacity="0"/>
</radialGradient>
<linearGradient id="paint4_linear_14794_30941" x1="18.7828" y1="15.8906" x2="28.1578" y2="15.8906" gradientUnits="userSpaceOnUse">
<stop stop-color="#2E71E2"/>
<stop offset="1" stop-color="#418FFB"/>
</linearGradient>
<linearGradient id="paint5_linear_14794_30941" x1="31.7672" y1="14.8594" x2="28.9078" y2="14.5313" gradientUnits="userSpaceOnUse">
<stop stop-color="#3E8DED"/>
<stop offset="1" stop-color="#3F8CE3" stop-opacity="0"/>
</linearGradient>
<linearGradient id="paint6_linear_14794_30941" x1="32.3723" y1="13.5317" x2="30.6021" y2="13.0946" gradientUnits="userSpaceOnUse">
<stop stop-color="#385BAA"/>
<stop offset="0.446058" stop-color="#2A6DDD" stop-opacity="0"/>
</linearGradient>
<linearGradient id="paint7_linear_14794_30941" x1="27.1694" y1="5.90289" x2="27.1694" y2="7.46556" gradientUnits="userSpaceOnUse">
<stop offset="0.262728" stop-color="#385BAA"/>
<stop offset="0.650221" stop-color="#76ACF5" stop-opacity="0.28"/>
<stop offset="0.790695" stop-color="#76ACF5" stop-opacity="0"/>
</linearGradient>
<radialGradient id="paint8_radial_14794_30941" cx="0" cy="0" r="1" gradientUnits="userSpaceOnUse" gradientTransform="translate(28.2019 7.15169) rotate(74.2489) scale(0.428637 1.31029)">
<stop offset="0.0699978" stop-color="#4490FB" stop-opacity="0.97"/>
<stop offset="1" stop-color="#4390FC" stop-opacity="0"/>
</radialGradient>
<linearGradient id="paint9_linear_14794_30941" x1="33.6829" y1="6.32812" x2="32.4545" y2="7.66544" gradientUnits="userSpaceOnUse">
<stop offset="0.72633" stop-color="#5197F8"/>
<stop offset="0.93203" stop-color="#5197F8" stop-opacity="0"/>
</linearGradient>
<linearGradient id="paint10_linear_14794_30941" x1="33.79" y1="5.80314" x2="33.0441" y2="7.85794" gradientUnits="userSpaceOnUse">
<stop offset="0.599866" stop-color="#1C5DB8" stop-opacity="0.77"/>
<stop offset="0.88194" stop-color="#408EEE" stop-opacity="0"/>
</linearGradient>
<radialGradient id="paint11_radial_14794_30941" cx="0" cy="0" r="1" gradientUnits="userSpaceOnUse" gradientTransform="translate(25.6096 6.54258) rotate(26.0955) scale(1.19623 4.94754)">
<stop offset="0.305005" stop-color="#1C5DB8"/>
<stop offset="0.810837" stop-color="#385BAA" stop-opacity="0"/>
</radialGradient>
<radialGradient id="paint12_radial_14794_30941" cx="0" cy="0" r="1" gradientUnits="userSpaceOnUse" gradientTransform="translate(26.4026 6.32813) rotate(58.9004) scale(1.35115 5.58825)">
<stop offset="0.305005" stop-color="#1C5DB8"/>
<stop offset="0.810837" stop-color="#385BAA" stop-opacity="0"/>
</radialGradient>
<radialGradient id="paint13_radial_14794_30941" cx="0" cy="0" r="1" gradientUnits="userSpaceOnUse" gradientTransform="translate(26.7442 8.02677) rotate(-124.916) scale(1.55117 3.69676)">
<stop offset="0.443643" stop-color="#428FFB"/>
<stop offset="0.710649" stop-color="#428FFB" stop-opacity="0"/>
</radialGradient>
<radialGradient id="paint14_radial_14794_30941" cx="0" cy="0" r="1" gradientUnits="userSpaceOnUse" gradientTransform="translate(27.9265 10.075) rotate(-124.271) scale(2.66773 5.26432)">
<stop offset="0.443643" stop-color="#428FFB"/>
<stop offset="0.710649" stop-color="#428FFB" stop-opacity="0"/>
</radialGradient>
<radialGradient id="paint15_radial_14794_30941" cx="0" cy="0" r="1" gradientUnits="userSpaceOnUse" gradientTransform="translate(17.2013 4.96828) rotate(50.284) scale(8.05236 15.89)">
<stop offset="0.443643" stop-color="#306FDA"/>
<stop offset="0.710649" stop-color="#306FDA" stop-opacity="0"/>
</radialGradient>
<linearGradient id="paint16_linear_14794_30941" x1="33.8111" y1="6.92695" x2="32.81" y2="7.62267" gradientUnits="userSpaceOnUse">
<stop offset="0.530414" stop-color="#1C5DB8"/>
<stop offset="1" stop-color="#385BAA" stop-opacity="0"/>
</linearGradient>
<linearGradient id="paint17_linear_14794_30941" x1="16.1578" y1="15.0937" x2="23.0953" y2="14.1094" gradientUnits="userSpaceOnUse">
<stop stop-color="#385BAA"/>
<stop offset="1" stop-color="#2A6DDD" stop-opacity="0"/>
</linearGradient>
<radialGradient id="paint18_radial_14794_30941" cx="0" cy="0" r="1" gradientUnits="userSpaceOnUse" gradientTransform="translate(22.5371 6.00562) rotate(-17.8787) scale(1.21478 5.40865)">
<stop offset="0.575365" stop-color="#3777D3"/>
<stop offset="0.850179" stop-color="#3777D3" stop-opacity="0"/>
</radialGradient>
<radialGradient id="paint19_radial_14794_30941" cx="0" cy="0" r="1" gradientUnits="userSpaceOnUse" gradientTransform="translate(21.0803 6.14933) rotate(-43.9155) scale(0.986846 4.80089)">
<stop offset="0.495226" stop-color="#2E71D1"/>
<stop offset="0.850179" stop-color="#3777D3" stop-opacity="0"/>
</radialGradient>
<radialGradient id="paint20_radial_14794_30941" cx="0" cy="0" r="1" gradientUnits="userSpaceOnUse" gradientTransform="translate(23.1425 9.14987) rotate(-27.7731) scale(0.399296 2.01971)">
<stop offset="0.221208" stop-color="#5D92EB"/>
<stop offset="0.792276" stop-color="#5D92EB" stop-opacity="0"/>
</radialGradient>
<radialGradient id="paint21_radial_14794_30941" cx="0" cy="0" r="1" gradientUnits="userSpaceOnUse" gradientTransform="translate(22.1131 7.85742) rotate(-50.6307) scale(0.295594 1.19661)">
<stop offset="0.284217" stop-color="#5D92EB" stop-opacity="0.78"/>
<stop offset="0.771444" stop-color="#5D92EB" stop-opacity="0"/>
</radialGradient>
<radialGradient id="paint22_radial_14794_30941" cx="0" cy="0" r="1" gradientUnits="userSpaceOnUse" gradientTransform="translate(22.5772 8.41119) rotate(-32.3745) scale(0.343355 1.76821)">
<stop offset="0.284217" stop-color="#5D92EB" stop-opacity="0.78"/>
<stop offset="0.771444" stop-color="#5D92EB" stop-opacity="0"/>
</radialGradient>
<radialGradient id="paint23_radial_14794_30941" cx="0" cy="0" r="1" gradientUnits="userSpaceOnUse" gradientTransform="translate(23.7189 10.1156) rotate(-110.186) scale(0.487248 0.377399)">
<stop offset="0.284217" stop-color="#5D92EB" stop-opacity="0.78"/>
<stop offset="0.943539" stop-color="#5D92EB" stop-opacity="0"/>
</radialGradient>
<radialGradient id="paint24_radial_14794_30941" cx="0" cy="0" r="1" gradientUnits="userSpaceOnUse" gradientTransform="translate(20.575 5.90765) rotate(-77.0672) scale(1.12925 5.49367)">
<stop offset="0.810238" stop-color="#3471C5"/>
<stop offset="1" stop-color="#3471C5" stop-opacity="0"/>
</radialGradient>
<radialGradient id="paint25_radial_14794_30941" cx="0" cy="0" r="1" gradientUnits="userSpaceOnUse" gradientTransform="translate(18.4734 5.91833) rotate(-96.3402) scale(0.709238 3.45036)">
<stop offset="0.658297" stop-color="#3471C5"/>
<stop offset="1" stop-color="#3471C5" stop-opacity="0"/>
</radialGradient>
<radialGradient id="paint26_radial_14794_30941" cx="0" cy="0" r="1" gradientUnits="userSpaceOnUse" gradientTransform="translate(15.3937 6.61122) rotate(-111.251) scale(0.559197 2.72043)">
<stop offset="0.318182" stop-color="#3471C5"/>
<stop offset="1" stop-color="#3471C5" stop-opacity="0"/>
</radialGradient>
<linearGradient id="paint27_linear_14794_30941" x1="34.4863" y1="28.6874" x2="22.2051" y2="32.1561" gradientUnits="userSpaceOnUse">
<stop stop-color="#59A4FE"/>
<stop offset="1" stop-color="#2B7EE5"/>
</linearGradient>
<linearGradient id="paint28_linear_14794_30941" x1="34.6259" y1="45.2602" x2="34.6259" y2="40.5216" gradientUnits="userSpaceOnUse">
<stop offset="0.0661632" stop-color="#4C5EFF"/>
<stop offset="0.913104" stop-color="#2B7EE5" stop-opacity="0"/>
</linearGradient>
<linearGradient id="paint29_linear_14794_30941" x1="9.54881" y1="30.3749" x2="24.6426" y2="34.2186" gradientUnits="userSpaceOnUse">
<stop offset="0.144679" stop-color="#3E639C"/>
<stop offset="1" stop-color="#2979DA" stop-opacity="0"/>
</linearGradient>
<linearGradient id="paint30_linear_14794_30941" x1="38.5598" y1="30.1989" x2="34.2035" y2="32.3771" gradientUnits="userSpaceOnUse">
<stop offset="0.144679" stop-color="#4E6BFF"/>
<stop offset="0.408266" stop-color="#4C63FF" stop-opacity="0"/>
</linearGradient>
<radialGradient id="paint31_radial_14794_30941" cx="0" cy="0" r="1" gradientUnits="userSpaceOnUse" gradientTransform="translate(40.6831 44.9534) rotate(64.9682) scale(4.86828 14.5248)">
<stop offset="0.335348" stop-color="#4B5DFF"/>
<stop offset="0.45787" stop-color="#4C63FF" stop-opacity="0"/>
</radialGradient>
<radialGradient id="paint32_radial_14794_30941" cx="0" cy="0" r="1" gradientUnits="userSpaceOnUse" gradientTransform="translate(43.9819 42.1327) rotate(11.1935) scale(3.59739 10.733)">
<stop offset="0.511205" stop-color="#4B5DFF"/>
<stop offset="0.820748" stop-color="#4C63FF" stop-opacity="0"/>
</radialGradient>
<radialGradient id="paint33_radial_14794_30941" cx="0" cy="0" r="1" gradientUnits="userSpaceOnUse" gradientTransform="translate(35.2414 45.6382) rotate(179.356) scale(6.61467 9.14047)">
<stop offset="0.335348" stop-color="#4B5DFF"/>
<stop offset="0.45787" stop-color="#4C63FF" stop-opacity="0"/>
</radialGradient>
<radialGradient id="paint34_radial_14794_30941" cx="0" cy="0" r="1" gradientUnits="userSpaceOnUse" gradientTransform="translate(27.7914 45.4237) rotate(176.82) scale(6.18866 8.55179)">
<stop offset="0.335348" stop-color="#4B5DFF"/>
<stop offset="0.45787" stop-color="#4C63FF" stop-opacity="0"/>
</radialGradient>
<radialGradient id="paint35_radial_14794_30941" cx="0" cy="0" r="1" gradientUnits="userSpaceOnUse" gradientTransform="translate(20.2882 44.9534) rotate(180) scale(5.24736 7.25105)">
<stop offset="0.335348" stop-color="#4B5DFF"/>
<stop offset="0.45787" stop-color="#4C63FF" stop-opacity="0"/>
</radialGradient>
<radialGradient id="paint36_radial_14794_30941" cx="0" cy="0" r="1" gradientUnits="userSpaceOnUse" gradientTransform="translate(13.0137 43.8005) rotate(170.117) scale(4.31409 5.39785)">
<stop offset="0.240624" stop-color="#3E5ABC"/>
<stop offset="0.550936" stop-color="#3E68BC" stop-opacity="0"/>
</radialGradient>
<radialGradient id="paint37_radial_14794_30941" cx="0" cy="0" r="1" gradientUnits="userSpaceOnUse" gradientTransform="translate(15.9944 44.9534) rotate(100.765) scale(3.47622 8.3379)">
<stop stop-color="#3E5ABC"/>
<stop offset="0.550936" stop-color="#3E68BC" stop-opacity="0"/>
</radialGradient>
<radialGradient id="paint38_radial_14794_30941" cx="0" cy="0" r="1" gradientUnits="userSpaceOnUse" gradientTransform="translate(38.6318 41.375) rotate(138.683) scale(5.41993 6.92962)">
<stop offset="0.195061" stop-color="#5AA5FF"/>
<stop offset="0.45787" stop-color="#5AA5FF" stop-opacity="0"/>
</radialGradient>
<radialGradient id="paint39_radial_14794_30941" cx="0" cy="0" r="1" gradientUnits="userSpaceOnUse" gradientTransform="translate(39.0718 41.6885) rotate(144.103) scale(5.56833 7.11935)">
<stop offset="0.160367" stop-color="#5AA5FF"/>
<stop offset="0.558735" stop-color="#5AA5FF" stop-opacity="0"/>
</radialGradient>
<radialGradient id="paint40_radial_14794_30941" cx="0" cy="0" r="1" gradientUnits="userSpaceOnUse" gradientTransform="translate(25.6719 42.8369) rotate(47.7264) scale(1.05057 4.1675)">
<stop stop-color="#85BAFB"/>
<stop offset="0.60178" stop-color="#85BAFB" stop-opacity="0"/>
</radialGradient>
<radialGradient id="paint41_radial_14794_30941" cx="0" cy="0" r="1" gradientUnits="userSpaceOnUse" gradientTransform="translate(33.0869 42.4146) rotate(51.7254) scale(1.48874 5.27988)">
<stop stop-color="#85BAFB"/>
<stop offset="0.487377" stop-color="#85BAFB" stop-opacity="0"/>
</radialGradient>
<radialGradient id="paint42_radial_14794_30941" cx="0" cy="0" r="1" gradientUnits="userSpaceOnUse" gradientTransform="translate(18.3457 42.925) rotate(47.7373) scale(1.17835 3.61721)">
<stop stop-color="#85BAFB"/>
<stop offset="0.487377" stop-color="#85BAFB" stop-opacity="0"/>
</radialGradient>
<radialGradient id="paint43_radial_14794_30941" cx="0" cy="0" r="1" gradientUnits="userSpaceOnUse" gradientTransform="translate(11.0394 42.8512) rotate(49.1446) scale(1.51482 4.44194)">
<stop stop-color="#85BAFB"/>
<stop offset="0.487377" stop-color="#85BAFB" stop-opacity="0"/>
</radialGradient>
<linearGradient id="paint44_linear_14794_30941" x1="18.2673" y1="18.0469" x2="28.4392" y2="18.0469" gradientUnits="userSpaceOnUse">
<stop stop-color="#3E2242"/>
<stop offset="1" stop-color="#642F67"/>
</linearGradient>
<radialGradient id="paint45_radial_14794_30941" cx="0" cy="0" r="1" gradientUnits="userSpaceOnUse" gradientTransform="translate(28.6736 16.5469) rotate(90) scale(0.492187 9.17578)">
<stop offset="0.238095" stop-color="#673C6A"/>
<stop offset="1" stop-color="#673C6A" stop-opacity="0"/>
</radialGradient>
<linearGradient id="paint46_linear_14794_30941" x1="24.074" y1="16.5469" x2="24.074" y2="16.6934" gradientUnits="userSpaceOnUse">
<stop stop-color="#331B3B"/>
<stop offset="1" stop-color="#331B3B" stop-opacity="0"/>
</linearGradient>
<linearGradient id="paint47_linear_14794_30941" x1="24.074" y1="18.1406" x2="24.074" y2="17.7773" gradientUnits="userSpaceOnUse">
<stop stop-color="#331B3B"/>
<stop offset="1" stop-color="#331B3B" stop-opacity="0"/>
</linearGradient>
</defs>
</svg>
