<svg width="48" height="48" viewBox="0 0 48 48" fill="none" xmlns="http://www.w3.org/2000/svg">
<g id="Fork and knife with plate">
<g id="Vector">
<path d="M25.0514 42.0119C34.1622 42.0119 41.548 34.6261 41.548 25.5152C41.548 16.4044 34.1622 9.01855 25.0514 9.01855C15.9405 9.01855 8.55469 16.4044 8.55469 25.5152C8.55469 34.6261 15.9405 42.0119 25.0514 42.0119Z" fill="url(#paint0_linear_14794_31102)"/>
<path d="M25.0514 42.0119C34.1622 42.0119 41.548 34.6261 41.548 25.5152C41.548 16.4044 34.1622 9.01855 25.0514 9.01855C15.9405 9.01855 8.55469 16.4044 8.55469 25.5152C8.55469 34.6261 15.9405 42.0119 25.0514 42.0119Z" fill="url(#paint1_radial_14794_31102)"/>
<path d="M25.0514 42.0119C34.1622 42.0119 41.548 34.6261 41.548 25.5152C41.548 16.4044 34.1622 9.01855 25.0514 9.01855C15.9405 9.01855 8.55469 16.4044 8.55469 25.5152C8.55469 34.6261 15.9405 42.0119 25.0514 42.0119Z" fill="url(#paint2_radial_14794_31102)"/>
<path d="M25.0514 42.0119C34.1622 42.0119 41.548 34.6261 41.548 25.5152C41.548 16.4044 34.1622 9.01855 25.0514 9.01855C15.9405 9.01855 8.55469 16.4044 8.55469 25.5152C8.55469 34.6261 15.9405 42.0119 25.0514 42.0119Z" fill="url(#paint3_radial_14794_31102)"/>
<path d="M25.0514 42.0119C34.1622 42.0119 41.548 34.6261 41.548 25.5152C41.548 16.4044 34.1622 9.01855 25.0514 9.01855C15.9405 9.01855 8.55469 16.4044 8.55469 25.5152C8.55469 34.6261 15.9405 42.0119 25.0514 42.0119Z" fill="url(#paint4_radial_14794_31102)"/>
<path d="M25.0514 42.0119C34.1622 42.0119 41.548 34.6261 41.548 25.5152C41.548 16.4044 34.1622 9.01855 25.0514 9.01855C15.9405 9.01855 8.55469 16.4044 8.55469 25.5152C8.55469 34.6261 15.9405 42.0119 25.0514 42.0119Z" fill="url(#paint5_radial_14794_31102)"/>
</g>
<g id="Vector_2">
<path d="M25.0512 36.8656C31.3199 36.8656 36.4017 31.7838 36.4017 25.5151C36.4017 19.2463 31.3199 14.1646 25.0512 14.1646C18.7825 14.1646 13.7007 19.2463 13.7007 25.5151C13.7007 31.7838 18.7825 36.8656 25.0512 36.8656Z" fill="#D8CBF0"/>
<path d="M25.0512 36.8656C31.3199 36.8656 36.4017 31.7838 36.4017 25.5151C36.4017 19.2463 31.3199 14.1646 25.0512 14.1646C18.7825 14.1646 13.7007 19.2463 13.7007 25.5151C13.7007 31.7838 18.7825 36.8656 25.0512 36.8656Z" fill="url(#paint6_radial_14794_31102)"/>
<path d="M25.0512 36.8656C31.3199 36.8656 36.4017 31.7838 36.4017 25.5151C36.4017 19.2463 31.3199 14.1646 25.0512 14.1646C18.7825 14.1646 13.7007 19.2463 13.7007 25.5151C13.7007 31.7838 18.7825 36.8656 25.0512 36.8656Z" fill="url(#paint7_radial_14794_31102)"/>
<path d="M25.0512 36.8656C31.3199 36.8656 36.4017 31.7838 36.4017 25.5151C36.4017 19.2463 31.3199 14.1646 25.0512 14.1646C18.7825 14.1646 13.7007 19.2463 13.7007 25.5151C13.7007 31.7838 18.7825 36.8656 25.0512 36.8656Z" fill="url(#paint8_radial_14794_31102)"/>
</g>
<g id="Vector_3">
<path d="M11.9957 7.56336C11.29 7.56336 10.733 8.05753 10.733 8.64736V13.6239C10.733 13.9427 10.4358 14.1818 10.083 14.1818C9.71161 14.1818 9.43308 13.9267 9.43308 13.6239V8.69518C9.43308 8.10535 8.89455 7.5793 8.20746 7.56336C7.48324 7.54742 6.88899 8.04159 6.88899 8.64736V13.6239C6.88899 13.9427 6.59189 14.1818 6.23906 14.1818C5.86766 14.1818 5.58911 13.9267 5.58911 13.6239V8.69518C5.58911 8.10535 5.05057 7.5793 4.36349 7.56336C3.63926 7.54742 3.04504 8.04159 3.04504 8.64736V13.4935V14.3384V17.3938C3.04504 20.4775 6.22047 21.3132 6.22047 23.4936C6.22047 25.6741 6.22047 43.008 6.22047 43.008C6.22047 44.0676 7.11281 45.0009 8.17959 45.0009C9.24638 45.0009 10.1387 44.0676 10.1387 43.008C10.1387 43.008 10.1387 25.7516 10.1387 23.4936C10.1387 21.2357 13.3142 20.5011 13.3142 17.3938V14.3384V13.4935V8.64736C13.277 8.05753 12.7014 7.56336 11.9957 7.56336Z" fill="url(#paint9_linear_14794_31102)"/>
<path d="M11.9957 7.56336C11.29 7.56336 10.733 8.05753 10.733 8.64736V13.6239C10.733 13.9427 10.4358 14.1818 10.083 14.1818C9.71161 14.1818 9.43308 13.9267 9.43308 13.6239V8.69518C9.43308 8.10535 8.89455 7.5793 8.20746 7.56336C7.48324 7.54742 6.88899 8.04159 6.88899 8.64736V13.6239C6.88899 13.9427 6.59189 14.1818 6.23906 14.1818C5.86766 14.1818 5.58911 13.9267 5.58911 13.6239V8.69518C5.58911 8.10535 5.05057 7.5793 4.36349 7.56336C3.63926 7.54742 3.04504 8.04159 3.04504 8.64736V13.4935V14.3384V17.3938C3.04504 20.4775 6.22047 21.3132 6.22047 23.4936C6.22047 25.6741 6.22047 43.008 6.22047 43.008C6.22047 44.0676 7.11281 45.0009 8.17959 45.0009C9.24638 45.0009 10.1387 44.0676 10.1387 43.008C10.1387 43.008 10.1387 25.7516 10.1387 23.4936C10.1387 21.2357 13.3142 20.5011 13.3142 17.3938V14.3384V13.4935V8.64736C13.277 8.05753 12.7014 7.56336 11.9957 7.56336Z" fill="url(#paint10_linear_14794_31102)"/>
<path d="M11.9957 7.56336C11.29 7.56336 10.733 8.05753 10.733 8.64736V13.6239C10.733 13.9427 10.4358 14.1818 10.083 14.1818C9.71161 14.1818 9.43308 13.9267 9.43308 13.6239V8.69518C9.43308 8.10535 8.89455 7.5793 8.20746 7.56336C7.48324 7.54742 6.88899 8.04159 6.88899 8.64736V13.6239C6.88899 13.9427 6.59189 14.1818 6.23906 14.1818C5.86766 14.1818 5.58911 13.9267 5.58911 13.6239V8.69518C5.58911 8.10535 5.05057 7.5793 4.36349 7.56336C3.63926 7.54742 3.04504 8.04159 3.04504 8.64736V13.4935V14.3384V17.3938C3.04504 20.4775 6.22047 21.3132 6.22047 23.4936C6.22047 25.6741 6.22047 43.008 6.22047 43.008C6.22047 44.0676 7.11281 45.0009 8.17959 45.0009C9.24638 45.0009 10.1387 44.0676 10.1387 43.008C10.1387 43.008 10.1387 25.7516 10.1387 23.4936C10.1387 21.2357 13.3142 20.5011 13.3142 17.3938V14.3384V13.4935V8.64736C13.277 8.05753 12.7014 7.56336 11.9957 7.56336Z" fill="black" fill-opacity="0.05"/>
<path d="M11.9957 7.56336C11.29 7.56336 10.733 8.05753 10.733 8.64736V13.6239C10.733 13.9427 10.4358 14.1818 10.083 14.1818C9.71161 14.1818 9.43308 13.9267 9.43308 13.6239V8.69518C9.43308 8.10535 8.89455 7.5793 8.20746 7.56336C7.48324 7.54742 6.88899 8.04159 6.88899 8.64736V13.6239C6.88899 13.9427 6.59189 14.1818 6.23906 14.1818C5.86766 14.1818 5.58911 13.9267 5.58911 13.6239V8.69518C5.58911 8.10535 5.05057 7.5793 4.36349 7.56336C3.63926 7.54742 3.04504 8.04159 3.04504 8.64736V13.4935V14.3384V17.3938C3.04504 20.4775 6.22047 21.3132 6.22047 23.4936C6.22047 25.6741 6.22047 43.008 6.22047 43.008C6.22047 44.0676 7.11281 45.0009 8.17959 45.0009C9.24638 45.0009 10.1387 44.0676 10.1387 43.008C10.1387 43.008 10.1387 25.7516 10.1387 23.4936C10.1387 21.2357 13.3142 20.5011 13.3142 17.3938V14.3384V13.4935V8.64736C13.277 8.05753 12.7014 7.56336 11.9957 7.56336Z" fill="url(#paint11_linear_14794_31102)"/>
<path d="M11.9957 7.56336C11.29 7.56336 10.733 8.05753 10.733 8.64736V13.6239C10.733 13.9427 10.4358 14.1818 10.083 14.1818C9.71161 14.1818 9.43308 13.9267 9.43308 13.6239V8.69518C9.43308 8.10535 8.89455 7.5793 8.20746 7.56336C7.48324 7.54742 6.88899 8.04159 6.88899 8.64736V13.6239C6.88899 13.9427 6.59189 14.1818 6.23906 14.1818C5.86766 14.1818 5.58911 13.9267 5.58911 13.6239V8.69518C5.58911 8.10535 5.05057 7.5793 4.36349 7.56336C3.63926 7.54742 3.04504 8.04159 3.04504 8.64736V13.4935V14.3384V17.3938C3.04504 20.4775 6.22047 21.3132 6.22047 23.4936C6.22047 25.6741 6.22047 43.008 6.22047 43.008C6.22047 44.0676 7.11281 45.0009 8.17959 45.0009C9.24638 45.0009 10.1387 44.0676 10.1387 43.008C10.1387 43.008 10.1387 25.7516 10.1387 23.4936C10.1387 21.2357 13.3142 20.5011 13.3142 17.3938V14.3384V13.4935V8.64736C13.277 8.05753 12.7014 7.56336 11.9957 7.56336Z" fill="url(#paint12_linear_14794_31102)"/>
<path d="M11.9957 7.56336C11.29 7.56336 10.733 8.05753 10.733 8.64736V13.6239C10.733 13.9427 10.4358 14.1818 10.083 14.1818C9.71161 14.1818 9.43308 13.9267 9.43308 13.6239V8.69518C9.43308 8.10535 8.89455 7.5793 8.20746 7.56336C7.48324 7.54742 6.88899 8.04159 6.88899 8.64736V13.6239C6.88899 13.9427 6.59189 14.1818 6.23906 14.1818C5.86766 14.1818 5.58911 13.9267 5.58911 13.6239V8.69518C5.58911 8.10535 5.05057 7.5793 4.36349 7.56336C3.63926 7.54742 3.04504 8.04159 3.04504 8.64736V13.4935V14.3384V17.3938C3.04504 20.4775 6.22047 21.3132 6.22047 23.4936C6.22047 25.6741 6.22047 43.008 6.22047 43.008C6.22047 44.0676 7.11281 45.0009 8.17959 45.0009C9.24638 45.0009 10.1387 44.0676 10.1387 43.008C10.1387 43.008 10.1387 25.7516 10.1387 23.4936C10.1387 21.2357 13.3142 20.5011 13.3142 17.3938V14.3384V13.4935V8.64736C13.277 8.05753 12.7014 7.56336 11.9957 7.56336Z" fill="url(#paint13_radial_14794_31102)"/>
<path d="M11.9957 7.56336C11.29 7.56336 10.733 8.05753 10.733 8.64736V13.6239C10.733 13.9427 10.4358 14.1818 10.083 14.1818C9.71161 14.1818 9.43308 13.9267 9.43308 13.6239V8.69518C9.43308 8.10535 8.89455 7.5793 8.20746 7.56336C7.48324 7.54742 6.88899 8.04159 6.88899 8.64736V13.6239C6.88899 13.9427 6.59189 14.1818 6.23906 14.1818C5.86766 14.1818 5.58911 13.9267 5.58911 13.6239V8.69518C5.58911 8.10535 5.05057 7.5793 4.36349 7.56336C3.63926 7.54742 3.04504 8.04159 3.04504 8.64736V13.4935V14.3384V17.3938C3.04504 20.4775 6.22047 21.3132 6.22047 23.4936C6.22047 25.6741 6.22047 43.008 6.22047 43.008C6.22047 44.0676 7.11281 45.0009 8.17959 45.0009C9.24638 45.0009 10.1387 44.0676 10.1387 43.008C10.1387 43.008 10.1387 25.7516 10.1387 23.4936C10.1387 21.2357 13.3142 20.5011 13.3142 17.3938V14.3384V13.4935V8.64736C13.277 8.05753 12.7014 7.56336 11.9957 7.56336Z" fill="url(#paint14_radial_14794_31102)"/>
<path d="M11.9957 7.56336C11.29 7.56336 10.733 8.05753 10.733 8.64736V13.6239C10.733 13.9427 10.4358 14.1818 10.083 14.1818C9.71161 14.1818 9.43308 13.9267 9.43308 13.6239V8.69518C9.43308 8.10535 8.89455 7.5793 8.20746 7.56336C7.48324 7.54742 6.88899 8.04159 6.88899 8.64736V13.6239C6.88899 13.9427 6.59189 14.1818 6.23906 14.1818C5.86766 14.1818 5.58911 13.9267 5.58911 13.6239V8.69518C5.58911 8.10535 5.05057 7.5793 4.36349 7.56336C3.63926 7.54742 3.04504 8.04159 3.04504 8.64736V13.4935V14.3384V17.3938C3.04504 20.4775 6.22047 21.3132 6.22047 23.4936C6.22047 25.6741 6.22047 43.008 6.22047 43.008C6.22047 44.0676 7.11281 45.0009 8.17959 45.0009C9.24638 45.0009 10.1387 44.0676 10.1387 43.008C10.1387 43.008 10.1387 25.7516 10.1387 23.4936C10.1387 21.2357 13.3142 20.5011 13.3142 17.3938V14.3384V13.4935V8.64736C13.277 8.05753 12.7014 7.56336 11.9957 7.56336Z" fill="url(#paint15_radial_14794_31102)"/>
<path d="M11.9957 7.56336C11.29 7.56336 10.733 8.05753 10.733 8.64736V13.6239C10.733 13.9427 10.4358 14.1818 10.083 14.1818C9.71161 14.1818 9.43308 13.9267 9.43308 13.6239V8.69518C9.43308 8.10535 8.89455 7.5793 8.20746 7.56336C7.48324 7.54742 6.88899 8.04159 6.88899 8.64736V13.6239C6.88899 13.9427 6.59189 14.1818 6.23906 14.1818C5.86766 14.1818 5.58911 13.9267 5.58911 13.6239V8.69518C5.58911 8.10535 5.05057 7.5793 4.36349 7.56336C3.63926 7.54742 3.04504 8.04159 3.04504 8.64736V13.4935V14.3384V17.3938C3.04504 20.4775 6.22047 21.3132 6.22047 23.4936C6.22047 25.6741 6.22047 43.008 6.22047 43.008C6.22047 44.0676 7.11281 45.0009 8.17959 45.0009C9.24638 45.0009 10.1387 44.0676 10.1387 43.008C10.1387 43.008 10.1387 25.7516 10.1387 23.4936C10.1387 21.2357 13.3142 20.5011 13.3142 17.3938V14.3384V13.4935V8.64736C13.277 8.05753 12.7014 7.56336 11.9957 7.56336Z" fill="url(#paint16_radial_14794_31102)"/>
<path d="M11.9957 7.56336C11.29 7.56336 10.733 8.05753 10.733 8.64736V13.6239C10.733 13.9427 10.4358 14.1818 10.083 14.1818C9.71161 14.1818 9.43308 13.9267 9.43308 13.6239V8.69518C9.43308 8.10535 8.89455 7.5793 8.20746 7.56336C7.48324 7.54742 6.88899 8.04159 6.88899 8.64736V13.6239C6.88899 13.9427 6.59189 14.1818 6.23906 14.1818C5.86766 14.1818 5.58911 13.9267 5.58911 13.6239V8.69518C5.58911 8.10535 5.05057 7.5793 4.36349 7.56336C3.63926 7.54742 3.04504 8.04159 3.04504 8.64736V13.4935V14.3384V17.3938C3.04504 20.4775 6.22047 21.3132 6.22047 23.4936C6.22047 25.6741 6.22047 43.008 6.22047 43.008C6.22047 44.0676 7.11281 45.0009 8.17959 45.0009C9.24638 45.0009 10.1387 44.0676 10.1387 43.008C10.1387 43.008 10.1387 25.7516 10.1387 23.4936C10.1387 21.2357 13.3142 20.5011 13.3142 17.3938V14.3384V13.4935V8.64736C13.277 8.05753 12.7014 7.56336 11.9957 7.56336Z" fill="url(#paint17_radial_14794_31102)"/>
<path d="M11.9957 7.56336C11.29 7.56336 10.733 8.05753 10.733 8.64736V13.6239C10.733 13.9427 10.4358 14.1818 10.083 14.1818C9.71161 14.1818 9.43308 13.9267 9.43308 13.6239V8.69518C9.43308 8.10535 8.89455 7.5793 8.20746 7.56336C7.48324 7.54742 6.88899 8.04159 6.88899 8.64736V13.6239C6.88899 13.9427 6.59189 14.1818 6.23906 14.1818C5.86766 14.1818 5.58911 13.9267 5.58911 13.6239V8.69518C5.58911 8.10535 5.05057 7.5793 4.36349 7.56336C3.63926 7.54742 3.04504 8.04159 3.04504 8.64736V13.4935V14.3384V17.3938C3.04504 20.4775 6.22047 21.3132 6.22047 23.4936C6.22047 25.6741 6.22047 43.008 6.22047 43.008C6.22047 44.0676 7.11281 45.0009 8.17959 45.0009C9.24638 45.0009 10.1387 44.0676 10.1387 43.008C10.1387 43.008 10.1387 25.7516 10.1387 23.4936C10.1387 21.2357 13.3142 20.5011 13.3142 17.3938V14.3384V13.4935V8.64736C13.277 8.05753 12.7014 7.56336 11.9957 7.56336Z" fill="url(#paint18_radial_14794_31102)"/>
<path d="M11.9957 7.56336C11.29 7.56336 10.733 8.05753 10.733 8.64736V13.6239C10.733 13.9427 10.4358 14.1818 10.083 14.1818C9.71161 14.1818 9.43308 13.9267 9.43308 13.6239V8.69518C9.43308 8.10535 8.89455 7.5793 8.20746 7.56336C7.48324 7.54742 6.88899 8.04159 6.88899 8.64736V13.6239C6.88899 13.9427 6.59189 14.1818 6.23906 14.1818C5.86766 14.1818 5.58911 13.9267 5.58911 13.6239V8.69518C5.58911 8.10535 5.05057 7.5793 4.36349 7.56336C3.63926 7.54742 3.04504 8.04159 3.04504 8.64736V13.4935V14.3384V17.3938C3.04504 20.4775 6.22047 21.3132 6.22047 23.4936C6.22047 25.6741 6.22047 43.008 6.22047 43.008C6.22047 44.0676 7.11281 45.0009 8.17959 45.0009C9.24638 45.0009 10.1387 44.0676 10.1387 43.008C10.1387 43.008 10.1387 25.7516 10.1387 23.4936C10.1387 21.2357 13.3142 20.5011 13.3142 17.3938V14.3384V13.4935V8.64736C13.277 8.05753 12.7014 7.56336 11.9957 7.56336Z" fill="url(#paint19_radial_14794_31102)"/>
<path d="M11.9957 7.56336C11.29 7.56336 10.733 8.05753 10.733 8.64736V13.6239C10.733 13.9427 10.4358 14.1818 10.083 14.1818C9.71161 14.1818 9.43308 13.9267 9.43308 13.6239V8.69518C9.43308 8.10535 8.89455 7.5793 8.20746 7.56336C7.48324 7.54742 6.88899 8.04159 6.88899 8.64736V13.6239C6.88899 13.9427 6.59189 14.1818 6.23906 14.1818C5.86766 14.1818 5.58911 13.9267 5.58911 13.6239V8.69518C5.58911 8.10535 5.05057 7.5793 4.36349 7.56336C3.63926 7.54742 3.04504 8.04159 3.04504 8.64736V13.4935V14.3384V17.3938C3.04504 20.4775 6.22047 21.3132 6.22047 23.4936C6.22047 25.6741 6.22047 43.008 6.22047 43.008C6.22047 44.0676 7.11281 45.0009 8.17959 45.0009C9.24638 45.0009 10.1387 44.0676 10.1387 43.008C10.1387 43.008 10.1387 25.7516 10.1387 23.4936C10.1387 21.2357 13.3142 20.5011 13.3142 17.3938V14.3384V13.4935V8.64736C13.277 8.05753 12.7014 7.56336 11.9957 7.56336Z" fill="url(#paint20_radial_14794_31102)"/>
<path d="M11.9957 7.56336C11.29 7.56336 10.733 8.05753 10.733 8.64736V13.6239C10.733 13.9427 10.4358 14.1818 10.083 14.1818C9.71161 14.1818 9.43308 13.9267 9.43308 13.6239V8.69518C9.43308 8.10535 8.89455 7.5793 8.20746 7.56336C7.48324 7.54742 6.88899 8.04159 6.88899 8.64736V13.6239C6.88899 13.9427 6.59189 14.1818 6.23906 14.1818C5.86766 14.1818 5.58911 13.9267 5.58911 13.6239V8.69518C5.58911 8.10535 5.05057 7.5793 4.36349 7.56336C3.63926 7.54742 3.04504 8.04159 3.04504 8.64736V13.4935V14.3384V17.3938C3.04504 20.4775 6.22047 21.3132 6.22047 23.4936C6.22047 25.6741 6.22047 43.008 6.22047 43.008C6.22047 44.0676 7.11281 45.0009 8.17959 45.0009C9.24638 45.0009 10.1387 44.0676 10.1387 43.008C10.1387 43.008 10.1387 25.7516 10.1387 23.4936C10.1387 21.2357 13.3142 20.5011 13.3142 17.3938V14.3384V13.4935V8.64736C13.277 8.05753 12.7014 7.56336 11.9957 7.56336Z" fill="url(#paint21_radial_14794_31102)"/>
<path d="M11.9957 7.56336C11.29 7.56336 10.733 8.05753 10.733 8.64736V13.6239C10.733 13.9427 10.4358 14.1818 10.083 14.1818C9.71161 14.1818 9.43308 13.9267 9.43308 13.6239V8.69518C9.43308 8.10535 8.89455 7.5793 8.20746 7.56336C7.48324 7.54742 6.88899 8.04159 6.88899 8.64736V13.6239C6.88899 13.9427 6.59189 14.1818 6.23906 14.1818C5.86766 14.1818 5.58911 13.9267 5.58911 13.6239V8.69518C5.58911 8.10535 5.05057 7.5793 4.36349 7.56336C3.63926 7.54742 3.04504 8.04159 3.04504 8.64736V13.4935V14.3384V17.3938C3.04504 20.4775 6.22047 21.3132 6.22047 23.4936C6.22047 25.6741 6.22047 43.008 6.22047 43.008C6.22047 44.0676 7.11281 45.0009 8.17959 45.0009C9.24638 45.0009 10.1387 44.0676 10.1387 43.008C10.1387 43.008 10.1387 25.7516 10.1387 23.4936C10.1387 21.2357 13.3142 20.5011 13.3142 17.3938V14.3384V13.4935V8.64736C13.277 8.05753 12.7014 7.56336 11.9957 7.56336Z" fill="url(#paint22_radial_14794_31102)"/>
<path d="M11.9957 7.56336C11.29 7.56336 10.733 8.05753 10.733 8.64736V13.6239C10.733 13.9427 10.4358 14.1818 10.083 14.1818C9.71161 14.1818 9.43308 13.9267 9.43308 13.6239V8.69518C9.43308 8.10535 8.89455 7.5793 8.20746 7.56336C7.48324 7.54742 6.88899 8.04159 6.88899 8.64736V13.6239C6.88899 13.9427 6.59189 14.1818 6.23906 14.1818C5.86766 14.1818 5.58911 13.9267 5.58911 13.6239V8.69518C5.58911 8.10535 5.05057 7.5793 4.36349 7.56336C3.63926 7.54742 3.04504 8.04159 3.04504 8.64736V13.4935V14.3384V17.3938C3.04504 20.4775 6.22047 21.3132 6.22047 23.4936C6.22047 25.6741 6.22047 43.008 6.22047 43.008C6.22047 44.0676 7.11281 45.0009 8.17959 45.0009C9.24638 45.0009 10.1387 44.0676 10.1387 43.008C10.1387 43.008 10.1387 25.7516 10.1387 23.4936C10.1387 21.2357 13.3142 20.5011 13.3142 17.3938V14.3384V13.4935V8.64736C13.277 8.05753 12.7014 7.56336 11.9957 7.56336Z" fill="url(#paint23_radial_14794_31102)"/>
<path d="M11.9957 7.56336C11.29 7.56336 10.733 8.05753 10.733 8.64736V13.6239C10.733 13.9427 10.4358 14.1818 10.083 14.1818C9.71161 14.1818 9.43308 13.9267 9.43308 13.6239V8.69518C9.43308 8.10535 8.89455 7.5793 8.20746 7.56336C7.48324 7.54742 6.88899 8.04159 6.88899 8.64736V13.6239C6.88899 13.9427 6.59189 14.1818 6.23906 14.1818C5.86766 14.1818 5.58911 13.9267 5.58911 13.6239V8.69518C5.58911 8.10535 5.05057 7.5793 4.36349 7.56336C3.63926 7.54742 3.04504 8.04159 3.04504 8.64736V13.4935V14.3384V17.3938C3.04504 20.4775 6.22047 21.3132 6.22047 23.4936C6.22047 25.6741 6.22047 43.008 6.22047 43.008C6.22047 44.0676 7.11281 45.0009 8.17959 45.0009C9.24638 45.0009 10.1387 44.0676 10.1387 43.008C10.1387 43.008 10.1387 25.7516 10.1387 23.4936C10.1387 21.2357 13.3142 20.5011 13.3142 17.3938V14.3384V13.4935V8.64736C13.277 8.05753 12.7014 7.56336 11.9957 7.56336Z" fill="url(#paint24_radial_14794_31102)"/>
<path d="M11.9957 7.56336C11.29 7.56336 10.733 8.05753 10.733 8.64736V13.6239C10.733 13.9427 10.4358 14.1818 10.083 14.1818C9.71161 14.1818 9.43308 13.9267 9.43308 13.6239V8.69518C9.43308 8.10535 8.89455 7.5793 8.20746 7.56336C7.48324 7.54742 6.88899 8.04159 6.88899 8.64736V13.6239C6.88899 13.9427 6.59189 14.1818 6.23906 14.1818C5.86766 14.1818 5.58911 13.9267 5.58911 13.6239V8.69518C5.58911 8.10535 5.05057 7.5793 4.36349 7.56336C3.63926 7.54742 3.04504 8.04159 3.04504 8.64736V13.4935V14.3384V17.3938C3.04504 20.4775 6.22047 21.3132 6.22047 23.4936C6.22047 25.6741 6.22047 43.008 6.22047 43.008C6.22047 44.0676 7.11281 45.0009 8.17959 45.0009C9.24638 45.0009 10.1387 44.0676 10.1387 43.008C10.1387 43.008 10.1387 25.7516 10.1387 23.4936C10.1387 21.2357 13.3142 20.5011 13.3142 17.3938V14.3384V13.4935V8.64736C13.277 8.05753 12.7014 7.56336 11.9957 7.56336Z" fill="url(#paint25_radial_14794_31102)"/>
<path d="M11.9957 7.56336C11.29 7.56336 10.733 8.05753 10.733 8.64736V13.6239C10.733 13.9427 10.4358 14.1818 10.083 14.1818C9.71161 14.1818 9.43308 13.9267 9.43308 13.6239V8.69518C9.43308 8.10535 8.89455 7.5793 8.20746 7.56336C7.48324 7.54742 6.88899 8.04159 6.88899 8.64736V13.6239C6.88899 13.9427 6.59189 14.1818 6.23906 14.1818C5.86766 14.1818 5.58911 13.9267 5.58911 13.6239V8.69518C5.58911 8.10535 5.05057 7.5793 4.36349 7.56336C3.63926 7.54742 3.04504 8.04159 3.04504 8.64736V13.4935V14.3384V17.3938C3.04504 20.4775 6.22047 21.3132 6.22047 23.4936C6.22047 25.6741 6.22047 43.008 6.22047 43.008C6.22047 44.0676 7.11281 45.0009 8.17959 45.0009C9.24638 45.0009 10.1387 44.0676 10.1387 43.008C10.1387 43.008 10.1387 25.7516 10.1387 23.4936C10.1387 21.2357 13.3142 20.5011 13.3142 17.3938V14.3384V13.4935V8.64736C13.277 8.05753 12.7014 7.56336 11.9957 7.56336Z" fill="url(#paint26_radial_14794_31102)"/>
<path d="M11.9957 7.56336C11.29 7.56336 10.733 8.05753 10.733 8.64736V13.6239C10.733 13.9427 10.4358 14.1818 10.083 14.1818C9.71161 14.1818 9.43308 13.9267 9.43308 13.6239V8.69518C9.43308 8.10535 8.89455 7.5793 8.20746 7.56336C7.48324 7.54742 6.88899 8.04159 6.88899 8.64736V13.6239C6.88899 13.9427 6.59189 14.1818 6.23906 14.1818C5.86766 14.1818 5.58911 13.9267 5.58911 13.6239V8.69518C5.58911 8.10535 5.05057 7.5793 4.36349 7.56336C3.63926 7.54742 3.04504 8.04159 3.04504 8.64736V13.4935V14.3384V17.3938C3.04504 20.4775 6.22047 21.3132 6.22047 23.4936C6.22047 25.6741 6.22047 43.008 6.22047 43.008C6.22047 44.0676 7.11281 45.0009 8.17959 45.0009C9.24638 45.0009 10.1387 44.0676 10.1387 43.008C10.1387 43.008 10.1387 25.7516 10.1387 23.4936C10.1387 21.2357 13.3142 20.5011 13.3142 17.3938V14.3384V13.4935V8.64736C13.277 8.05753 12.7014 7.56336 11.9957 7.56336Z" fill="url(#paint27_radial_14794_31102)"/>
<path d="M11.9957 7.56336C11.29 7.56336 10.733 8.05753 10.733 8.64736V13.6239C10.733 13.9427 10.4358 14.1818 10.083 14.1818C9.71161 14.1818 9.43308 13.9267 9.43308 13.6239V8.69518C9.43308 8.10535 8.89455 7.5793 8.20746 7.56336C7.48324 7.54742 6.88899 8.04159 6.88899 8.64736V13.6239C6.88899 13.9427 6.59189 14.1818 6.23906 14.1818C5.86766 14.1818 5.58911 13.9267 5.58911 13.6239V8.69518C5.58911 8.10535 5.05057 7.5793 4.36349 7.56336C3.63926 7.54742 3.04504 8.04159 3.04504 8.64736V13.4935V14.3384V17.3938C3.04504 20.4775 6.22047 21.3132 6.22047 23.4936C6.22047 25.6741 6.22047 43.008 6.22047 43.008C6.22047 44.0676 7.11281 45.0009 8.17959 45.0009C9.24638 45.0009 10.1387 44.0676 10.1387 43.008C10.1387 43.008 10.1387 25.7516 10.1387 23.4936C10.1387 21.2357 13.3142 20.5011 13.3142 17.3938V14.3384V13.4935V8.64736C13.277 8.05753 12.7014 7.56336 11.9957 7.56336Z" fill="url(#paint28_radial_14794_31102)"/>
<path d="M11.9957 7.56336C11.29 7.56336 10.733 8.05753 10.733 8.64736V13.6239C10.733 13.9427 10.4358 14.1818 10.083 14.1818C9.71161 14.1818 9.43308 13.9267 9.43308 13.6239V8.69518C9.43308 8.10535 8.89455 7.5793 8.20746 7.56336C7.48324 7.54742 6.88899 8.04159 6.88899 8.64736V13.6239C6.88899 13.9427 6.59189 14.1818 6.23906 14.1818C5.86766 14.1818 5.58911 13.9267 5.58911 13.6239V8.69518C5.58911 8.10535 5.05057 7.5793 4.36349 7.56336C3.63926 7.54742 3.04504 8.04159 3.04504 8.64736V13.4935V14.3384V17.3938C3.04504 20.4775 6.22047 21.3132 6.22047 23.4936C6.22047 25.6741 6.22047 43.008 6.22047 43.008C6.22047 44.0676 7.11281 45.0009 8.17959 45.0009C9.24638 45.0009 10.1387 44.0676 10.1387 43.008C10.1387 43.008 10.1387 25.7516 10.1387 23.4936C10.1387 21.2357 13.3142 20.5011 13.3142 17.3938V14.3384V13.4935V8.64736C13.277 8.05753 12.7014 7.56336 11.9957 7.56336Z" fill="url(#paint29_radial_14794_31102)"/>
</g>
<g id="Union">
<path d="M44.7407 10.56C44.7407 8.90516 43.3696 7.56299 41.6791 7.56299C39.2374 7.56299 37.284 9.49357 37.3027 11.8654V22.07C37.3027 24.3905 38.6394 26.4665 40.7773 27.3913V43.2124C40.7773 44.1947 41.5662 44.9881 42.5429 44.9881H42.9749C43.9516 44.9881 44.7405 44.1947 44.7405 43.2124L44.7407 10.56Z" fill="url(#paint30_linear_14794_31102)"/>
<path d="M44.7407 10.56C44.7407 8.90516 43.3696 7.56299 41.6791 7.56299C39.2374 7.56299 37.284 9.49357 37.3027 11.8654V22.07C37.3027 24.3905 38.6394 26.4665 40.7773 27.3913V43.2124C40.7773 44.1947 41.5662 44.9881 42.5429 44.9881H42.9749C43.9516 44.9881 44.7405 44.1947 44.7405 43.2124L44.7407 10.56Z" fill="url(#paint31_radial_14794_31102)"/>
<path d="M44.7407 10.56C44.7407 8.90516 43.3696 7.56299 41.6791 7.56299C39.2374 7.56299 37.284 9.49357 37.3027 11.8654V22.07C37.3027 24.3905 38.6394 26.4665 40.7773 27.3913V43.2124C40.7773 44.1947 41.5662 44.9881 42.5429 44.9881H42.9749C43.9516 44.9881 44.7405 44.1947 44.7405 43.2124L44.7407 10.56Z" fill="url(#paint32_radial_14794_31102)"/>
<path d="M44.7407 10.56C44.7407 8.90516 43.3696 7.56299 41.6791 7.56299C39.2374 7.56299 37.284 9.49357 37.3027 11.8654V22.07C37.3027 24.3905 38.6394 26.4665 40.7773 27.3913V43.2124C40.7773 44.1947 41.5662 44.9881 42.5429 44.9881H42.9749C43.9516 44.9881 44.7405 44.1947 44.7405 43.2124L44.7407 10.56Z" fill="url(#paint33_radial_14794_31102)"/>
<path d="M44.7407 10.56C44.7407 8.90516 43.3696 7.56299 41.6791 7.56299C39.2374 7.56299 37.284 9.49357 37.3027 11.8654V22.07C37.3027 24.3905 38.6394 26.4665 40.7773 27.3913V43.2124C40.7773 44.1947 41.5662 44.9881 42.5429 44.9881H42.9749C43.9516 44.9881 44.7405 44.1947 44.7405 43.2124L44.7407 10.56Z" fill="url(#paint34_radial_14794_31102)"/>
<path d="M44.7407 10.56C44.7407 8.90516 43.3696 7.56299 41.6791 7.56299C39.2374 7.56299 37.284 9.49357 37.3027 11.8654V22.07C37.3027 24.3905 38.6394 26.4665 40.7773 27.3913V43.2124C40.7773 44.1947 41.5662 44.9881 42.5429 44.9881H42.9749C43.9516 44.9881 44.7405 44.1947 44.7405 43.2124L44.7407 10.56Z" fill="url(#paint35_radial_14794_31102)"/>
<path d="M44.7407 10.56C44.7407 8.90516 43.3696 7.56299 41.6791 7.56299C39.2374 7.56299 37.284 9.49357 37.3027 11.8654V22.07C37.3027 24.3905 38.6394 26.4665 40.7773 27.3913V43.2124C40.7773 44.1947 41.5662 44.9881 42.5429 44.9881H42.9749C43.9516 44.9881 44.7405 44.1947 44.7405 43.2124L44.7407 10.56Z" fill="url(#paint36_radial_14794_31102)"/>
<path d="M44.7407 10.56C44.7407 8.90516 43.3696 7.56299 41.6791 7.56299C39.2374 7.56299 37.284 9.49357 37.3027 11.8654V22.07C37.3027 24.3905 38.6394 26.4665 40.7773 27.3913V43.2124C40.7773 44.1947 41.5662 44.9881 42.5429 44.9881H42.9749C43.9516 44.9881 44.7405 44.1947 44.7405 43.2124L44.7407 10.56Z" fill="url(#paint37_radial_14794_31102)"/>
<path d="M44.7407 10.56C44.7407 8.90516 43.3696 7.56299 41.6791 7.56299C39.2374 7.56299 37.284 9.49357 37.3027 11.8654V22.07C37.3027 24.3905 38.6394 26.4665 40.7773 27.3913V43.2124C40.7773 44.1947 41.5662 44.9881 42.5429 44.9881H42.9749C43.9516 44.9881 44.7405 44.1947 44.7405 43.2124L44.7407 10.56Z" fill="url(#paint38_radial_14794_31102)"/>
</g>
</g>
<defs>
<linearGradient id="paint0_linear_14794_31102" x1="23.1705" y1="9.01855" x2="25.0514" y2="42.0119" gradientUnits="userSpaceOnUse">
<stop offset="0.115334" stop-color="#BCBBC4"/>
<stop offset="0.227922" stop-color="#8F8D9B"/>
<stop offset="0.689257" stop-color="#A8A0BC"/>
<stop offset="0.766146" stop-color="#BFA1E2"/>
</linearGradient>
<radialGradient id="paint1_radial_14794_31102" cx="0" cy="0" r="1" gradientUnits="userSpaceOnUse" gradientTransform="translate(25.0514 25.5152) rotate(90) scale(16.4967 16.4967)">
<stop offset="0.943572" stop-color="#DDCEF5"/>
<stop offset="1" stop-color="#DDCEF5" stop-opacity="0"/>
</radialGradient>
<radialGradient id="paint2_radial_14794_31102" cx="0" cy="0" r="1" gradientUnits="userSpaceOnUse" gradientTransform="translate(18.7779 27.0002) rotate(-36.6264) scale(15.5683 15.5683)">
<stop offset="0.324467" stop-color="#EAE0FD"/>
<stop offset="0.633232" stop-color="#E7DDF9" stop-opacity="0"/>
</radialGradient>
<radialGradient id="paint3_radial_14794_31102" cx="0" cy="0" r="1" gradientUnits="userSpaceOnUse" gradientTransform="translate(26.1244 29.4491) rotate(144.796) scale(19.7686 24.7231)">
<stop offset="0.856316" stop-color="white" stop-opacity="0"/>
<stop offset="0.890511" stop-color="white" stop-opacity="0.3"/>
<stop offset="0.956564" stop-color="white" stop-opacity="0"/>
</radialGradient>
<radialGradient id="paint4_radial_14794_31102" cx="0" cy="0" r="1" gradientUnits="userSpaceOnUse" gradientTransform="translate(39.7031 20.7659) rotate(88.5024) scale(7.17433 3.63564)">
<stop offset="0.675676" stop-color="#C2B2DB"/>
<stop offset="1" stop-color="#C2B2DB" stop-opacity="0"/>
</radialGradient>
<radialGradient id="paint5_radial_14794_31102" cx="0" cy="0" r="1" gradientUnits="userSpaceOnUse" gradientTransform="translate(41.0625 19.8284) rotate(82.7368) scale(9.63985 4.88506)">
<stop offset="0.675676" stop-color="#C2B2DB"/>
<stop offset="1" stop-color="#C2B2DB" stop-opacity="0"/>
</radialGradient>
<radialGradient id="paint6_radial_14794_31102" cx="0" cy="0" r="1" gradientUnits="userSpaceOnUse" gradientTransform="translate(23.1705 27.6822) rotate(82.9973) scale(15.4267 17.6665)">
<stop offset="0.596424" stop-color="#DACEF3"/>
<stop offset="0.754428" stop-color="#CCB9EB"/>
<stop offset="0.962131" stop-color="#BCA7DC"/>
</radialGradient>
<radialGradient id="paint7_radial_14794_31102" cx="0" cy="0" r="1" gradientUnits="userSpaceOnUse" gradientTransform="translate(30.781 17.5348) rotate(142.239) scale(27.9629 26.6893)">
<stop offset="0.476664" stop-color="#DACEF3" stop-opacity="0"/>
<stop offset="0.693657" stop-color="#E9E2FD"/>
<stop offset="0.816307" stop-color="#EBE8FB"/>
<stop offset="0.962131" stop-color="#EAE7F9"/>
</radialGradient>
<radialGradient id="paint8_radial_14794_31102" cx="0" cy="0" r="1" gradientUnits="userSpaceOnUse" gradientTransform="translate(18.4592 18.7127) rotate(56.149) scale(26.8371 30.7335)">
<stop offset="0.536739" stop-color="#DACEF3" stop-opacity="0"/>
<stop offset="0.754428" stop-color="#B9B5CA"/>
<stop offset="0.962131" stop-color="#B2AEC4"/>
</radialGradient>
<linearGradient id="paint9_linear_14794_31102" x1="6.17731" y1="34.0579" x2="10.1448" y2="34.0579" gradientUnits="userSpaceOnUse">
<stop stop-color="#A29CAE"/>
<stop offset="0.2" stop-color="#AFA5C1"/>
<stop offset="0.789474" stop-color="#C9C1D9"/>
<stop offset="1" stop-color="#BFBACB"/>
</linearGradient>
<linearGradient id="paint10_linear_14794_31102" x1="8.17961" y1="7.56299" x2="8.17961" y2="45.0009" gradientUnits="userSpaceOnUse">
<stop offset="0.389773" stop-color="#BBB2CC"/>
<stop offset="0.432164" stop-color="#BEB5CE" stop-opacity="0"/>
</linearGradient>
<linearGradient id="paint11_linear_14794_31102" x1="8.17961" y1="7.56299" x2="8.17961" y2="45.0009" gradientUnits="userSpaceOnUse">
<stop offset="0.001543" stop-color="#9F9BA9"/>
<stop offset="0.0266132" stop-color="#9F9BA9" stop-opacity="0"/>
</linearGradient>
<linearGradient id="paint12_linear_14794_31102" x1="3.04504" y1="34.0579" x2="13.3143" y2="34.0579" gradientUnits="userSpaceOnUse">
<stop stop-color="#A29CAE"/>
<stop offset="0.0631842" stop-color="#A29CAE" stop-opacity="0"/>
<stop offset="0.934443" stop-color="#A29CAE" stop-opacity="0"/>
<stop offset="1" stop-color="#A29CAE"/>
</linearGradient>
<radialGradient id="paint13_radial_14794_31102" cx="0" cy="0" r="1" gradientUnits="userSpaceOnUse" gradientTransform="translate(5.88497 13.6773) rotate(90) scale(1.19026)">
<stop stop-color="white"/>
<stop offset="1" stop-color="white" stop-opacity="0"/>
</radialGradient>
<radialGradient id="paint14_radial_14794_31102" cx="0" cy="0" r="1" gradientUnits="userSpaceOnUse" gradientTransform="translate(6.19819 9.89767) rotate(90) scale(5.53367 1.36116)">
<stop offset="0.37766" stop-color="#A29CAE"/>
<stop offset="1" stop-color="#A29CAE" stop-opacity="0"/>
</radialGradient>
<radialGradient id="paint15_radial_14794_31102" cx="0" cy="0" r="1" gradientUnits="userSpaceOnUse" gradientTransform="translate(6.19819 13.4893) rotate(90) scale(1.25291)">
<stop stop-color="#A29CAE"/>
<stop offset="1" stop-color="#A29CAE" stop-opacity="0"/>
</radialGradient>
<radialGradient id="paint16_radial_14794_31102" cx="0" cy="0" r="1" gradientUnits="userSpaceOnUse" gradientTransform="translate(10.1031 10.0856) rotate(90) scale(5.34573 1.31494)">
<stop offset="0.37766" stop-color="#A29CAE"/>
<stop offset="1" stop-color="#A29CAE" stop-opacity="0"/>
</radialGradient>
<radialGradient id="paint17_radial_14794_31102" cx="0" cy="0" r="1" gradientUnits="userSpaceOnUse" gradientTransform="translate(9.7597 13.7237) rotate(90) scale(1.06729)">
<stop stop-color="white"/>
<stop offset="1" stop-color="white" stop-opacity="0"/>
</radialGradient>
<radialGradient id="paint18_radial_14794_31102" cx="0" cy="0" r="1" gradientUnits="userSpaceOnUse" gradientTransform="translate(10.1031 13.4685) rotate(90) scale(1.27379)">
<stop offset="0.477231" stop-color="#A29CAE"/>
<stop offset="1" stop-color="#A29CAE" stop-opacity="0"/>
</radialGradient>
<radialGradient id="paint19_radial_14794_31102" cx="0" cy="0" r="1" gradientUnits="userSpaceOnUse" gradientTransform="translate(4.96758 8.25005) rotate(41.4237) scale(1.06309 1.29855)">
<stop stop-color="#C9C7D0"/>
<stop offset="1" stop-color="#CDCAD5" stop-opacity="0"/>
</radialGradient>
<radialGradient id="paint20_radial_14794_31102" cx="0" cy="0" r="1" gradientUnits="userSpaceOnUse" gradientTransform="translate(8.71886 7.99215) rotate(39.2072) scale(1.14979 1.40445)">
<stop stop-color="#C9C7D0"/>
<stop offset="1" stop-color="#CDCAD5" stop-opacity="0"/>
</radialGradient>
<radialGradient id="paint21_radial_14794_31102" cx="0" cy="0" r="1" gradientUnits="userSpaceOnUse" gradientTransform="translate(12.6343 7.96871) rotate(48.6914) scale(1.03 1.25814)">
<stop stop-color="#C9C7D0"/>
<stop offset="1" stop-color="#CDCAD5" stop-opacity="0"/>
</radialGradient>
<radialGradient id="paint22_radial_14794_31102" cx="0" cy="0" r="1" gradientUnits="userSpaceOnUse" gradientTransform="translate(8.17968 1.23174) rotate(90) scale(43.7692 10.8562)">
<stop offset="0.961641" stop-color="#9883B3" stop-opacity="0"/>
<stop offset="1" stop-color="#8F78AB"/>
</radialGradient>
<radialGradient id="paint23_radial_14794_31102" cx="0" cy="0" r="1" gradientUnits="userSpaceOnUse" gradientTransform="translate(3.99633 20.6286) rotate(46.106) scale(3.74001 1.02588)">
<stop stop-color="#A19CAB"/>
<stop offset="1" stop-color="#A19CAB" stop-opacity="0"/>
</radialGradient>
<radialGradient id="paint24_radial_14794_31102" cx="0" cy="0" r="1" gradientUnits="userSpaceOnUse" gradientTransform="translate(2.51902 19.5793) rotate(60.6758) scale(4.19815 1.78687)">
<stop stop-color="#A19CAB"/>
<stop offset="1" stop-color="#A19CAB" stop-opacity="0"/>
</radialGradient>
<radialGradient id="paint25_radial_14794_31102" cx="0" cy="0" r="1" gradientUnits="userSpaceOnUse" gradientTransform="translate(12.9012 19.6912) rotate(103.241) scale(2.18811 0.931331)">
<stop stop-color="#A19CAB"/>
<stop offset="1" stop-color="#A19CAB" stop-opacity="0"/>
</radialGradient>
<radialGradient id="paint26_radial_14794_31102" cx="0" cy="0" r="1" gradientUnits="userSpaceOnUse" gradientTransform="translate(12.1913 20.7144) rotate(133.091) scale(3.54572 0.972584)">
<stop stop-color="#A19CAB"/>
<stop offset="1" stop-color="#A19CAB" stop-opacity="0"/>
</radialGradient>
<radialGradient id="paint27_radial_14794_31102" cx="0" cy="0" r="1" gradientUnits="userSpaceOnUse" gradientTransform="translate(12.6715 12.8002) rotate(90) scale(5.47103 0.563807)">
<stop offset="0.37766" stop-color="white" stop-opacity="0.15"/>
<stop offset="1" stop-color="white" stop-opacity="0"/>
</radialGradient>
<radialGradient id="paint28_radial_14794_31102" cx="0" cy="0" r="1" gradientUnits="userSpaceOnUse" gradientTransform="translate(8.95227 10.9302) rotate(90) scale(3.21115 0.409828)">
<stop offset="0.37766" stop-color="white" stop-opacity="0.17"/>
<stop offset="1" stop-color="white" stop-opacity="0"/>
</radialGradient>
<radialGradient id="paint29_radial_14794_31102" cx="0" cy="0" r="1" gradientUnits="userSpaceOnUse" gradientTransform="translate(5.04969 11.2967) rotate(90) scale(2.96521 0.37844)">
<stop offset="0.37766" stop-color="white" stop-opacity="0.18"/>
<stop offset="1" stop-color="white" stop-opacity="0"/>
</radialGradient>
<linearGradient id="paint30_linear_14794_31102" x1="44.7407" y1="18.0936" x2="40.5913" y2="18.0936" gradientUnits="userSpaceOnUse">
<stop stop-color="#C4C2CB"/>
<stop offset="0.514744" stop-color="#B2A8C2"/>
<stop offset="1" stop-color="#948CA2"/>
</linearGradient>
<radialGradient id="paint31_radial_14794_31102" cx="0" cy="0" r="1" gradientUnits="userSpaceOnUse" gradientTransform="translate(37.3026 26.2835) rotate(35.4843) scale(6.75314 2.25923)">
<stop stop-color="#9B89B3"/>
<stop offset="1" stop-color="#A28EBB" stop-opacity="0"/>
</radialGradient>
<radialGradient id="paint32_radial_14794_31102" cx="0" cy="0" r="1" gradientUnits="userSpaceOnUse" gradientTransform="translate(40.3322 16.9903) rotate(0.616057) scale(3.45357 13.5184)">
<stop offset="0.682353" stop-color="#B1A8C0"/>
<stop offset="1" stop-color="#BBB4C8" stop-opacity="0"/>
</radialGradient>
<radialGradient id="paint33_radial_14794_31102" cx="0" cy="0" r="1" gradientUnits="userSpaceOnUse" gradientTransform="translate(43.6127 25.6389) rotate(-157.62) scale(0.539091 1.98911)">
<stop stop-color="#D7D2E0" stop-opacity="0.8"/>
<stop offset="1" stop-color="#E1DEE8" stop-opacity="0"/>
</radialGradient>
<radialGradient id="paint34_radial_14794_31102" cx="0" cy="0" r="1" gradientUnits="userSpaceOnUse" gradientTransform="translate(41.8094 26.5333) rotate(-71.9657) scale(0.663009 1.59511)">
<stop stop-color="#D7D2E0" stop-opacity="0.5"/>
<stop offset="1" stop-color="#E1DEE8" stop-opacity="0"/>
</radialGradient>
<radialGradient id="paint35_radial_14794_31102" cx="0" cy="0" r="1" gradientUnits="userSpaceOnUse" gradientTransform="translate(43.2315 25.5216) rotate(-152.354) scale(0.695138 2.56488)">
<stop stop-color="#BAB2C7"/>
<stop offset="1" stop-color="#BAB2C7" stop-opacity="0"/>
</radialGradient>
<radialGradient id="paint36_radial_14794_31102" cx="0" cy="0" r="1" gradientUnits="userSpaceOnUse" gradientTransform="translate(41.3383 25.831) rotate(-65.4623) scale(0.696022 2.56815)">
<stop stop-color="#BAB2C7"/>
<stop offset="1" stop-color="#BAB2C7" stop-opacity="0"/>
</radialGradient>
<radialGradient id="paint37_radial_14794_31102" cx="0" cy="0" r="1" gradientUnits="userSpaceOnUse" gradientTransform="translate(43.7245 9.60919) rotate(136.219) scale(1.5582 2.43632)">
<stop stop-color="#D7D2E0"/>
<stop offset="1" stop-color="#E1DEE8" stop-opacity="0"/>
</radialGradient>
<radialGradient id="paint38_radial_14794_31102" cx="0" cy="0" r="1" gradientUnits="userSpaceOnUse" gradientTransform="translate(42.7458 9.82362) rotate(135) scale(1.78548 2.79169)">
<stop stop-color="#BAB3C8"/>
<stop offset="1" stop-color="#BAB3C8" stop-opacity="0"/>
</radialGradient>
</defs>
</svg>
