<svg width="48" height="48" viewBox="0 0 48 48" fill="none" xmlns="http://www.w3.org/2000/svg">
<g id="Headphone">
<g id="Union">
<path d="M13.4564 10.8677C9.44308 13.9622 8.91346 17.3755 8.98095 19.4993C9.08986 21.4176 9.33064 22.751 9.52141 23.8075L9.54133 23.9179C9.76551 25.1613 9.26639 26.3725 8.34083 27.1393L7.37762 27.9372C7.31145 27.992 7.29101 28.0848 7.32801 28.1624L9.14489 31.9705L6.77573 33.1008L4.95884 29.2927C4.40388 28.1295 4.71052 26.738 5.70296 25.9158L6.66618 25.1178C6.91024 24.9156 7.0033 24.635 6.95798 24.3836L6.93679 24.2662C6.84676 23.7678 6.40571 20.7266 6.3787 19.5872C6.33921 17.9211 6.44554 13.218 9.88218 9.23877C13.89 4.59814 20.2298 3.12158 23.933 3.12158C27.8822 3.12158 34.1104 4.59814 38.1182 9.23877C41.5548 13.218 41.6611 17.9211 41.6217 19.5872C41.6784 20.6488 41.1536 23.7678 41.0636 24.2662L41.0424 24.3836C40.9971 24.635 41.0901 24.9156 41.3342 25.1178L42.2974 25.9158C43.2898 26.738 43.5965 28.1295 43.0415 29.2927L41.2246 33.1008L38.8555 31.9705L40.6723 28.1624C40.7093 28.0848 40.6889 27.992 40.6227 27.9372L39.6595 27.1393C38.734 26.3725 38.2348 25.1613 38.459 23.9179L38.4789 23.8075C38.6697 22.7511 38.9105 21.4178 39.0194 19.4995C39.0869 17.3757 38.5573 13.9622 34.5439 10.8677C30.3285 7.61728 25.7494 7.35205 23.933 7.35205C22.1166 7.35205 17.6719 7.61728 13.4564 10.8677Z" fill="url(#paint0_radial_14794_31454)"/>
<path d="M13.4564 10.8677C9.44308 13.9622 8.91346 17.3755 8.98095 19.4993C9.08986 21.4176 9.33064 22.751 9.52141 23.8075L9.54133 23.9179C9.76551 25.1613 9.26639 26.3725 8.34083 27.1393L7.37762 27.9372C7.31145 27.992 7.29101 28.0848 7.32801 28.1624L9.14489 31.9705L6.77573 33.1008L4.95884 29.2927C4.40388 28.1295 4.71052 26.738 5.70296 25.9158L6.66618 25.1178C6.91024 24.9156 7.0033 24.635 6.95798 24.3836L6.93679 24.2662C6.84676 23.7678 6.40571 20.7266 6.3787 19.5872C6.33921 17.9211 6.44554 13.218 9.88218 9.23877C13.89 4.59814 20.2298 3.12158 23.933 3.12158C27.8822 3.12158 34.1104 4.59814 38.1182 9.23877C41.5548 13.218 41.6611 17.9211 41.6217 19.5872C41.6784 20.6488 41.1536 23.7678 41.0636 24.2662L41.0424 24.3836C40.9971 24.635 41.0901 24.9156 41.3342 25.1178L42.2974 25.9158C43.2898 26.738 43.5965 28.1295 43.0415 29.2927L41.2246 33.1008L38.8555 31.9705L40.6723 28.1624C40.7093 28.0848 40.6889 27.992 40.6227 27.9372L39.6595 27.1393C38.734 26.3725 38.2348 25.1613 38.459 23.9179L38.4789 23.8075C38.6697 22.7511 38.9105 21.4178 39.0194 19.4995C39.0869 17.3757 38.5573 13.9622 34.5439 10.8677C30.3285 7.61728 25.7494 7.35205 23.933 7.35205C22.1166 7.35205 17.6719 7.61728 13.4564 10.8677Z" fill="url(#paint1_radial_14794_31454)"/>
<path d="M13.4564 10.8677C9.44308 13.9622 8.91346 17.3755 8.98095 19.4993C9.08986 21.4176 9.33064 22.751 9.52141 23.8075L9.54133 23.9179C9.76551 25.1613 9.26639 26.3725 8.34083 27.1393L7.37762 27.9372C7.31145 27.992 7.29101 28.0848 7.32801 28.1624L9.14489 31.9705L6.77573 33.1008L4.95884 29.2927C4.40388 28.1295 4.71052 26.738 5.70296 25.9158L6.66618 25.1178C6.91024 24.9156 7.0033 24.635 6.95798 24.3836L6.93679 24.2662C6.84676 23.7678 6.40571 20.7266 6.3787 19.5872C6.33921 17.9211 6.44554 13.218 9.88218 9.23877C13.89 4.59814 20.2298 3.12158 23.933 3.12158C27.8822 3.12158 34.1104 4.59814 38.1182 9.23877C41.5548 13.218 41.6611 17.9211 41.6217 19.5872C41.6784 20.6488 41.1536 23.7678 41.0636 24.2662L41.0424 24.3836C40.9971 24.635 41.0901 24.9156 41.3342 25.1178L42.2974 25.9158C43.2898 26.738 43.5965 28.1295 43.0415 29.2927L41.2246 33.1008L38.8555 31.9705L40.6723 28.1624C40.7093 28.0848 40.6889 27.992 40.6227 27.9372L39.6595 27.1393C38.734 26.3725 38.2348 25.1613 38.459 23.9179L38.4789 23.8075C38.6697 22.7511 38.9105 21.4178 39.0194 19.4995C39.0869 17.3757 38.5573 13.9622 34.5439 10.8677C30.3285 7.61728 25.7494 7.35205 23.933 7.35205C22.1166 7.35205 17.6719 7.61728 13.4564 10.8677Z" fill="url(#paint2_radial_14794_31454)"/>
<path d="M13.4564 10.8677C9.44308 13.9622 8.91346 17.3755 8.98095 19.4993C9.08986 21.4176 9.33064 22.751 9.52141 23.8075L9.54133 23.9179C9.76551 25.1613 9.26639 26.3725 8.34083 27.1393L7.37762 27.9372C7.31145 27.992 7.29101 28.0848 7.32801 28.1624L9.14489 31.9705L6.77573 33.1008L4.95884 29.2927C4.40388 28.1295 4.71052 26.738 5.70296 25.9158L6.66618 25.1178C6.91024 24.9156 7.0033 24.635 6.95798 24.3836L6.93679 24.2662C6.84676 23.7678 6.40571 20.7266 6.3787 19.5872C6.33921 17.9211 6.44554 13.218 9.88218 9.23877C13.89 4.59814 20.2298 3.12158 23.933 3.12158C27.8822 3.12158 34.1104 4.59814 38.1182 9.23877C41.5548 13.218 41.6611 17.9211 41.6217 19.5872C41.6784 20.6488 41.1536 23.7678 41.0636 24.2662L41.0424 24.3836C40.9971 24.635 41.0901 24.9156 41.3342 25.1178L42.2974 25.9158C43.2898 26.738 43.5965 28.1295 43.0415 29.2927L41.2246 33.1008L38.8555 31.9705L40.6723 28.1624C40.7093 28.0848 40.6889 27.992 40.6227 27.9372L39.6595 27.1393C38.734 26.3725 38.2348 25.1613 38.459 23.9179L38.4789 23.8075C38.6697 22.7511 38.9105 21.4178 39.0194 19.4995C39.0869 17.3757 38.5573 13.9622 34.5439 10.8677C30.3285 7.61728 25.7494 7.35205 23.933 7.35205C22.1166 7.35205 17.6719 7.61728 13.4564 10.8677Z" fill="url(#paint3_radial_14794_31454)"/>
<path d="M13.4564 10.8677C9.44308 13.9622 8.91346 17.3755 8.98095 19.4993C9.08986 21.4176 9.33064 22.751 9.52141 23.8075L9.54133 23.9179C9.76551 25.1613 9.26639 26.3725 8.34083 27.1393L7.37762 27.9372C7.31145 27.992 7.29101 28.0848 7.32801 28.1624L9.14489 31.9705L6.77573 33.1008L4.95884 29.2927C4.40388 28.1295 4.71052 26.738 5.70296 25.9158L6.66618 25.1178C6.91024 24.9156 7.0033 24.635 6.95798 24.3836L6.93679 24.2662C6.84676 23.7678 6.40571 20.7266 6.3787 19.5872C6.33921 17.9211 6.44554 13.218 9.88218 9.23877C13.89 4.59814 20.2298 3.12158 23.933 3.12158C27.8822 3.12158 34.1104 4.59814 38.1182 9.23877C41.5548 13.218 41.6611 17.9211 41.6217 19.5872C41.6784 20.6488 41.1536 23.7678 41.0636 24.2662L41.0424 24.3836C40.9971 24.635 41.0901 24.9156 41.3342 25.1178L42.2974 25.9158C43.2898 26.738 43.5965 28.1295 43.0415 29.2927L41.2246 33.1008L38.8555 31.9705L40.6723 28.1624C40.7093 28.0848 40.6889 27.992 40.6227 27.9372L39.6595 27.1393C38.734 26.3725 38.2348 25.1613 38.459 23.9179L38.4789 23.8075C38.6697 22.7511 38.9105 21.4178 39.0194 19.4995C39.0869 17.3757 38.5573 13.9622 34.5439 10.8677C30.3285 7.61728 25.7494 7.35205 23.933 7.35205C22.1166 7.35205 17.6719 7.61728 13.4564 10.8677Z" fill="url(#paint4_radial_14794_31454)"/>
<path d="M13.4564 10.8677C9.44308 13.9622 8.91346 17.3755 8.98095 19.4993C9.08986 21.4176 9.33064 22.751 9.52141 23.8075L9.54133 23.9179C9.76551 25.1613 9.26639 26.3725 8.34083 27.1393L7.37762 27.9372C7.31145 27.992 7.29101 28.0848 7.32801 28.1624L9.14489 31.9705L6.77573 33.1008L4.95884 29.2927C4.40388 28.1295 4.71052 26.738 5.70296 25.9158L6.66618 25.1178C6.91024 24.9156 7.0033 24.635 6.95798 24.3836L6.93679 24.2662C6.84676 23.7678 6.40571 20.7266 6.3787 19.5872C6.33921 17.9211 6.44554 13.218 9.88218 9.23877C13.89 4.59814 20.2298 3.12158 23.933 3.12158C27.8822 3.12158 34.1104 4.59814 38.1182 9.23877C41.5548 13.218 41.6611 17.9211 41.6217 19.5872C41.6784 20.6488 41.1536 23.7678 41.0636 24.2662L41.0424 24.3836C40.9971 24.635 41.0901 24.9156 41.3342 25.1178L42.2974 25.9158C43.2898 26.738 43.5965 28.1295 43.0415 29.2927L41.2246 33.1008L38.8555 31.9705L40.6723 28.1624C40.7093 28.0848 40.6889 27.992 40.6227 27.9372L39.6595 27.1393C38.734 26.3725 38.2348 25.1613 38.459 23.9179L38.4789 23.8075C38.6697 22.7511 38.9105 21.4178 39.0194 19.4995C39.0869 17.3757 38.5573 13.9622 34.5439 10.8677C30.3285 7.61728 25.7494 7.35205 23.933 7.35205C22.1166 7.35205 17.6719 7.61728 13.4564 10.8677Z" fill="url(#paint5_radial_14794_31454)"/>
<path d="M13.4564 10.8677C9.44308 13.9622 8.91346 17.3755 8.98095 19.4993C9.08986 21.4176 9.33064 22.751 9.52141 23.8075L9.54133 23.9179C9.76551 25.1613 9.26639 26.3725 8.34083 27.1393L7.37762 27.9372C7.31145 27.992 7.29101 28.0848 7.32801 28.1624L9.14489 31.9705L6.77573 33.1008L4.95884 29.2927C4.40388 28.1295 4.71052 26.738 5.70296 25.9158L6.66618 25.1178C6.91024 24.9156 7.0033 24.635 6.95798 24.3836L6.93679 24.2662C6.84676 23.7678 6.40571 20.7266 6.3787 19.5872C6.33921 17.9211 6.44554 13.218 9.88218 9.23877C13.89 4.59814 20.2298 3.12158 23.933 3.12158C27.8822 3.12158 34.1104 4.59814 38.1182 9.23877C41.5548 13.218 41.6611 17.9211 41.6217 19.5872C41.6784 20.6488 41.1536 23.7678 41.0636 24.2662L41.0424 24.3836C40.9971 24.635 41.0901 24.9156 41.3342 25.1178L42.2974 25.9158C43.2898 26.738 43.5965 28.1295 43.0415 29.2927L41.2246 33.1008L38.8555 31.9705L40.6723 28.1624C40.7093 28.0848 40.6889 27.992 40.6227 27.9372L39.6595 27.1393C38.734 26.3725 38.2348 25.1613 38.459 23.9179L38.4789 23.8075C38.6697 22.7511 38.9105 21.4178 39.0194 19.4995C39.0869 17.3757 38.5573 13.9622 34.5439 10.8677C30.3285 7.61728 25.7494 7.35205 23.933 7.35205C22.1166 7.35205 17.6719 7.61728 13.4564 10.8677Z" fill="url(#paint6_linear_14794_31454)"/>
<path d="M13.4564 10.8677C9.44308 13.9622 8.91346 17.3755 8.98095 19.4993C9.08986 21.4176 9.33064 22.751 9.52141 23.8075L9.54133 23.9179C9.76551 25.1613 9.26639 26.3725 8.34083 27.1393L7.37762 27.9372C7.31145 27.992 7.29101 28.0848 7.32801 28.1624L9.14489 31.9705L6.77573 33.1008L4.95884 29.2927C4.40388 28.1295 4.71052 26.738 5.70296 25.9158L6.66618 25.1178C6.91024 24.9156 7.0033 24.635 6.95798 24.3836L6.93679 24.2662C6.84676 23.7678 6.40571 20.7266 6.3787 19.5872C6.33921 17.9211 6.44554 13.218 9.88218 9.23877C13.89 4.59814 20.2298 3.12158 23.933 3.12158C27.8822 3.12158 34.1104 4.59814 38.1182 9.23877C41.5548 13.218 41.6611 17.9211 41.6217 19.5872C41.6784 20.6488 41.1536 23.7678 41.0636 24.2662L41.0424 24.3836C40.9971 24.635 41.0901 24.9156 41.3342 25.1178L42.2974 25.9158C43.2898 26.738 43.5965 28.1295 43.0415 29.2927L41.2246 33.1008L38.8555 31.9705L40.6723 28.1624C40.7093 28.0848 40.6889 27.992 40.6227 27.9372L39.6595 27.1393C38.734 26.3725 38.2348 25.1613 38.459 23.9179L38.4789 23.8075C38.6697 22.7511 38.9105 21.4178 39.0194 19.4995C39.0869 17.3757 38.5573 13.9622 34.5439 10.8677C30.3285 7.61728 25.7494 7.35205 23.933 7.35205C22.1166 7.35205 17.6719 7.61728 13.4564 10.8677Z" fill="url(#paint7_linear_14794_31454)"/>
<path d="M13.4564 10.8677C9.44308 13.9622 8.91346 17.3755 8.98095 19.4993C9.08986 21.4176 9.33064 22.751 9.52141 23.8075L9.54133 23.9179C9.76551 25.1613 9.26639 26.3725 8.34083 27.1393L7.37762 27.9372C7.31145 27.992 7.29101 28.0848 7.32801 28.1624L9.14489 31.9705L6.77573 33.1008L4.95884 29.2927C4.40388 28.1295 4.71052 26.738 5.70296 25.9158L6.66618 25.1178C6.91024 24.9156 7.0033 24.635 6.95798 24.3836L6.93679 24.2662C6.84676 23.7678 6.40571 20.7266 6.3787 19.5872C6.33921 17.9211 6.44554 13.218 9.88218 9.23877C13.89 4.59814 20.2298 3.12158 23.933 3.12158C27.8822 3.12158 34.1104 4.59814 38.1182 9.23877C41.5548 13.218 41.6611 17.9211 41.6217 19.5872C41.6784 20.6488 41.1536 23.7678 41.0636 24.2662L41.0424 24.3836C40.9971 24.635 41.0901 24.9156 41.3342 25.1178L42.2974 25.9158C43.2898 26.738 43.5965 28.1295 43.0415 29.2927L41.2246 33.1008L38.8555 31.9705L40.6723 28.1624C40.7093 28.0848 40.6889 27.992 40.6227 27.9372L39.6595 27.1393C38.734 26.3725 38.2348 25.1613 38.459 23.9179L38.4789 23.8075C38.6697 22.7511 38.9105 21.4178 39.0194 19.4995C39.0869 17.3757 38.5573 13.9622 34.5439 10.8677C30.3285 7.61728 25.7494 7.35205 23.933 7.35205C22.1166 7.35205 17.6719 7.61728 13.4564 10.8677Z" fill="url(#paint8_linear_14794_31454)"/>
<path d="M13.4564 10.8677C9.44308 13.9622 8.91346 17.3755 8.98095 19.4993C9.08986 21.4176 9.33064 22.751 9.52141 23.8075L9.54133 23.9179C9.76551 25.1613 9.26639 26.3725 8.34083 27.1393L7.37762 27.9372C7.31145 27.992 7.29101 28.0848 7.32801 28.1624L9.14489 31.9705L6.77573 33.1008L4.95884 29.2927C4.40388 28.1295 4.71052 26.738 5.70296 25.9158L6.66618 25.1178C6.91024 24.9156 7.0033 24.635 6.95798 24.3836L6.93679 24.2662C6.84676 23.7678 6.40571 20.7266 6.3787 19.5872C6.33921 17.9211 6.44554 13.218 9.88218 9.23877C13.89 4.59814 20.2298 3.12158 23.933 3.12158C27.8822 3.12158 34.1104 4.59814 38.1182 9.23877C41.5548 13.218 41.6611 17.9211 41.6217 19.5872C41.6784 20.6488 41.1536 23.7678 41.0636 24.2662L41.0424 24.3836C40.9971 24.635 41.0901 24.9156 41.3342 25.1178L42.2974 25.9158C43.2898 26.738 43.5965 28.1295 43.0415 29.2927L41.2246 33.1008L38.8555 31.9705L40.6723 28.1624C40.7093 28.0848 40.6889 27.992 40.6227 27.9372L39.6595 27.1393C38.734 26.3725 38.2348 25.1613 38.459 23.9179L38.4789 23.8075C38.6697 22.7511 38.9105 21.4178 39.0194 19.4995C39.0869 17.3757 38.5573 13.9622 34.5439 10.8677C30.3285 7.61728 25.7494 7.35205 23.933 7.35205C22.1166 7.35205 17.6719 7.61728 13.4564 10.8677Z" fill="url(#paint9_linear_14794_31454)"/>
<path d="M13.4564 10.8677C9.44308 13.9622 8.91346 17.3755 8.98095 19.4993C9.08986 21.4176 9.33064 22.751 9.52141 23.8075L9.54133 23.9179C9.76551 25.1613 9.26639 26.3725 8.34083 27.1393L7.37762 27.9372C7.31145 27.992 7.29101 28.0848 7.32801 28.1624L9.14489 31.9705L6.77573 33.1008L4.95884 29.2927C4.40388 28.1295 4.71052 26.738 5.70296 25.9158L6.66618 25.1178C6.91024 24.9156 7.0033 24.635 6.95798 24.3836L6.93679 24.2662C6.84676 23.7678 6.40571 20.7266 6.3787 19.5872C6.33921 17.9211 6.44554 13.218 9.88218 9.23877C13.89 4.59814 20.2298 3.12158 23.933 3.12158C27.8822 3.12158 34.1104 4.59814 38.1182 9.23877C41.5548 13.218 41.6611 17.9211 41.6217 19.5872C41.6784 20.6488 41.1536 23.7678 41.0636 24.2662L41.0424 24.3836C40.9971 24.635 41.0901 24.9156 41.3342 25.1178L42.2974 25.9158C43.2898 26.738 43.5965 28.1295 43.0415 29.2927L41.2246 33.1008L38.8555 31.9705L40.6723 28.1624C40.7093 28.0848 40.6889 27.992 40.6227 27.9372L39.6595 27.1393C38.734 26.3725 38.2348 25.1613 38.459 23.9179L38.4789 23.8075C38.6697 22.7511 38.9105 21.4178 39.0194 19.4995C39.0869 17.3757 38.5573 13.9622 34.5439 10.8677C30.3285 7.61728 25.7494 7.35205 23.933 7.35205C22.1166 7.35205 17.6719 7.61728 13.4564 10.8677Z" fill="url(#paint10_radial_14794_31454)"/>
<path d="M13.4564 10.8677C9.44308 13.9622 8.91346 17.3755 8.98095 19.4993C9.08986 21.4176 9.33064 22.751 9.52141 23.8075L9.54133 23.9179C9.76551 25.1613 9.26639 26.3725 8.34083 27.1393L7.37762 27.9372C7.31145 27.992 7.29101 28.0848 7.32801 28.1624L9.14489 31.9705L6.77573 33.1008L4.95884 29.2927C4.40388 28.1295 4.71052 26.738 5.70296 25.9158L6.66618 25.1178C6.91024 24.9156 7.0033 24.635 6.95798 24.3836L6.93679 24.2662C6.84676 23.7678 6.40571 20.7266 6.3787 19.5872C6.33921 17.9211 6.44554 13.218 9.88218 9.23877C13.89 4.59814 20.2298 3.12158 23.933 3.12158C27.8822 3.12158 34.1104 4.59814 38.1182 9.23877C41.5548 13.218 41.6611 17.9211 41.6217 19.5872C41.6784 20.6488 41.1536 23.7678 41.0636 24.2662L41.0424 24.3836C40.9971 24.635 41.0901 24.9156 41.3342 25.1178L42.2974 25.9158C43.2898 26.738 43.5965 28.1295 43.0415 29.2927L41.2246 33.1008L38.8555 31.9705L40.6723 28.1624C40.7093 28.0848 40.6889 27.992 40.6227 27.9372L39.6595 27.1393C38.734 26.3725 38.2348 25.1613 38.459 23.9179L38.4789 23.8075C38.6697 22.7511 38.9105 21.4178 39.0194 19.4995C39.0869 17.3757 38.5573 13.9622 34.5439 10.8677C30.3285 7.61728 25.7494 7.35205 23.933 7.35205C22.1166 7.35205 17.6719 7.61728 13.4564 10.8677Z" fill="url(#paint11_radial_14794_31454)"/>
<path d="M13.4564 10.8677C9.44308 13.9622 8.91346 17.3755 8.98095 19.4993C9.08986 21.4176 9.33064 22.751 9.52141 23.8075L9.54133 23.9179C9.76551 25.1613 9.26639 26.3725 8.34083 27.1393L7.37762 27.9372C7.31145 27.992 7.29101 28.0848 7.32801 28.1624L9.14489 31.9705L6.77573 33.1008L4.95884 29.2927C4.40388 28.1295 4.71052 26.738 5.70296 25.9158L6.66618 25.1178C6.91024 24.9156 7.0033 24.635 6.95798 24.3836L6.93679 24.2662C6.84676 23.7678 6.40571 20.7266 6.3787 19.5872C6.33921 17.9211 6.44554 13.218 9.88218 9.23877C13.89 4.59814 20.2298 3.12158 23.933 3.12158C27.8822 3.12158 34.1104 4.59814 38.1182 9.23877C41.5548 13.218 41.6611 17.9211 41.6217 19.5872C41.6784 20.6488 41.1536 23.7678 41.0636 24.2662L41.0424 24.3836C40.9971 24.635 41.0901 24.9156 41.3342 25.1178L42.2974 25.9158C43.2898 26.738 43.5965 28.1295 43.0415 29.2927L41.2246 33.1008L38.8555 31.9705L40.6723 28.1624C40.7093 28.0848 40.6889 27.992 40.6227 27.9372L39.6595 27.1393C38.734 26.3725 38.2348 25.1613 38.459 23.9179L38.4789 23.8075C38.6697 22.7511 38.9105 21.4178 39.0194 19.4995C39.0869 17.3757 38.5573 13.9622 34.5439 10.8677C30.3285 7.61728 25.7494 7.35205 23.933 7.35205C22.1166 7.35205 17.6719 7.61728 13.4564 10.8677Z" fill="url(#paint12_radial_14794_31454)" fill-opacity="0.4"/>
<path d="M13.4564 10.8677C9.44308 13.9622 8.91346 17.3755 8.98095 19.4993C9.08986 21.4176 9.33064 22.751 9.52141 23.8075L9.54133 23.9179C9.76551 25.1613 9.26639 26.3725 8.34083 27.1393L7.37762 27.9372C7.31145 27.992 7.29101 28.0848 7.32801 28.1624L9.14489 31.9705L6.77573 33.1008L4.95884 29.2927C4.40388 28.1295 4.71052 26.738 5.70296 25.9158L6.66618 25.1178C6.91024 24.9156 7.0033 24.635 6.95798 24.3836L6.93679 24.2662C6.84676 23.7678 6.40571 20.7266 6.3787 19.5872C6.33921 17.9211 6.44554 13.218 9.88218 9.23877C13.89 4.59814 20.2298 3.12158 23.933 3.12158C27.8822 3.12158 34.1104 4.59814 38.1182 9.23877C41.5548 13.218 41.6611 17.9211 41.6217 19.5872C41.6784 20.6488 41.1536 23.7678 41.0636 24.2662L41.0424 24.3836C40.9971 24.635 41.0901 24.9156 41.3342 25.1178L42.2974 25.9158C43.2898 26.738 43.5965 28.1295 43.0415 29.2927L41.2246 33.1008L38.8555 31.9705L40.6723 28.1624C40.7093 28.0848 40.6889 27.992 40.6227 27.9372L39.6595 27.1393C38.734 26.3725 38.2348 25.1613 38.459 23.9179L38.4789 23.8075C38.6697 22.7511 38.9105 21.4178 39.0194 19.4995C39.0869 17.3757 38.5573 13.9622 34.5439 10.8677C30.3285 7.61728 25.7494 7.35205 23.933 7.35205C22.1166 7.35205 17.6719 7.61728 13.4564 10.8677Z" fill="url(#paint13_radial_14794_31454)" fill-opacity="0.7"/>
<path d="M13.4564 10.8677C9.44308 13.9622 8.91346 17.3755 8.98095 19.4993C9.08986 21.4176 9.33064 22.751 9.52141 23.8075L9.54133 23.9179C9.76551 25.1613 9.26639 26.3725 8.34083 27.1393L7.37762 27.9372C7.31145 27.992 7.29101 28.0848 7.32801 28.1624L9.14489 31.9705L6.77573 33.1008L4.95884 29.2927C4.40388 28.1295 4.71052 26.738 5.70296 25.9158L6.66618 25.1178C6.91024 24.9156 7.0033 24.635 6.95798 24.3836L6.93679 24.2662C6.84676 23.7678 6.40571 20.7266 6.3787 19.5872C6.33921 17.9211 6.44554 13.218 9.88218 9.23877C13.89 4.59814 20.2298 3.12158 23.933 3.12158C27.8822 3.12158 34.1104 4.59814 38.1182 9.23877C41.5548 13.218 41.6611 17.9211 41.6217 19.5872C41.6784 20.6488 41.1536 23.7678 41.0636 24.2662L41.0424 24.3836C40.9971 24.635 41.0901 24.9156 41.3342 25.1178L42.2974 25.9158C43.2898 26.738 43.5965 28.1295 43.0415 29.2927L41.2246 33.1008L38.8555 31.9705L40.6723 28.1624C40.7093 28.0848 40.6889 27.992 40.6227 27.9372L39.6595 27.1393C38.734 26.3725 38.2348 25.1613 38.459 23.9179L38.4789 23.8075C38.6697 22.7511 38.9105 21.4178 39.0194 19.4995C39.0869 17.3757 38.5573 13.9622 34.5439 10.8677C30.3285 7.61728 25.7494 7.35205 23.933 7.35205C22.1166 7.35205 17.6719 7.61728 13.4564 10.8677Z" fill="url(#paint14_radial_14794_31454)" fill-opacity="0.7"/>
<path d="M13.4564 10.8677C9.44308 13.9622 8.91346 17.3755 8.98095 19.4993C9.08986 21.4176 9.33064 22.751 9.52141 23.8075L9.54133 23.9179C9.76551 25.1613 9.26639 26.3725 8.34083 27.1393L7.37762 27.9372C7.31145 27.992 7.29101 28.0848 7.32801 28.1624L9.14489 31.9705L6.77573 33.1008L4.95884 29.2927C4.40388 28.1295 4.71052 26.738 5.70296 25.9158L6.66618 25.1178C6.91024 24.9156 7.0033 24.635 6.95798 24.3836L6.93679 24.2662C6.84676 23.7678 6.40571 20.7266 6.3787 19.5872C6.33921 17.9211 6.44554 13.218 9.88218 9.23877C13.89 4.59814 20.2298 3.12158 23.933 3.12158C27.8822 3.12158 34.1104 4.59814 38.1182 9.23877C41.5548 13.218 41.6611 17.9211 41.6217 19.5872C41.6784 20.6488 41.1536 23.7678 41.0636 24.2662L41.0424 24.3836C40.9971 24.635 41.0901 24.9156 41.3342 25.1178L42.2974 25.9158C43.2898 26.738 43.5965 28.1295 43.0415 29.2927L41.2246 33.1008L38.8555 31.9705L40.6723 28.1624C40.7093 28.0848 40.6889 27.992 40.6227 27.9372L39.6595 27.1393C38.734 26.3725 38.2348 25.1613 38.459 23.9179L38.4789 23.8075C38.6697 22.7511 38.9105 21.4178 39.0194 19.4995C39.0869 17.3757 38.5573 13.9622 34.5439 10.8677C30.3285 7.61728 25.7494 7.35205 23.933 7.35205C22.1166 7.35205 17.6719 7.61728 13.4564 10.8677Z" fill="url(#paint15_radial_14794_31454)" fill-opacity="0.7"/>
</g>
<g id="Rectangle 430">
<path d="M5.58085 33.6354C5.37067 32.9437 5.68383 32.2004 6.32566 31.8677L11.2523 29.3134C11.9137 28.9705 12.7244 29.3068 12.9489 30.0172L16.7147 41.9342C16.9402 42.6481 16.4642 43.3919 15.7215 43.4862L10.0953 44.2004C9.36991 44.2925 8.6838 43.8481 8.47122 43.1484L5.58085 33.6354Z" fill="url(#paint16_linear_14794_31454)"/>
<path d="M5.58085 33.6354C5.37067 32.9437 5.68383 32.2004 6.32566 31.8677L11.2523 29.3134C11.9137 28.9705 12.7244 29.3068 12.9489 30.0172L16.7147 41.9342C16.9402 42.6481 16.4642 43.3919 15.7215 43.4862L10.0953 44.2004C9.36991 44.2925 8.6838 43.8481 8.47122 43.1484L5.58085 33.6354Z" fill="url(#paint17_linear_14794_31454)"/>
<path d="M5.58085 33.6354C5.37067 32.9437 5.68383 32.2004 6.32566 31.8677L11.2523 29.3134C11.9137 28.9705 12.7244 29.3068 12.9489 30.0172L16.7147 41.9342C16.9402 42.6481 16.4642 43.3919 15.7215 43.4862L10.0953 44.2004C9.36991 44.2925 8.6838 43.8481 8.47122 43.1484L5.58085 33.6354Z" fill="url(#paint18_radial_14794_31454)"/>
<path d="M5.58085 33.6354C5.37067 32.9437 5.68383 32.2004 6.32566 31.8677L11.2523 29.3134C11.9137 28.9705 12.7244 29.3068 12.9489 30.0172L16.7147 41.9342C16.9402 42.6481 16.4642 43.3919 15.7215 43.4862L10.0953 44.2004C9.36991 44.2925 8.6838 43.8481 8.47122 43.1484L5.58085 33.6354Z" fill="url(#paint19_linear_14794_31454)"/>
<path d="M5.58085 33.6354C5.37067 32.9437 5.68383 32.2004 6.32566 31.8677L11.2523 29.3134C11.9137 28.9705 12.7244 29.3068 12.9489 30.0172L16.7147 41.9342C16.9402 42.6481 16.4642 43.3919 15.7215 43.4862L10.0953 44.2004C9.36991 44.2925 8.6838 43.8481 8.47122 43.1484L5.58085 33.6354Z" fill="url(#paint20_linear_14794_31454)"/>
</g>
<g id="Rectangle 431">
<path d="M42.3943 33.6354C42.6044 32.9437 42.2913 32.2004 41.6494 31.8677L36.7228 29.3134C36.0614 28.9705 35.2507 29.3068 35.0262 30.0172L31.2604 41.9342C31.0349 42.6481 31.5109 43.3919 32.2536 43.4862L37.8798 44.2004C38.6052 44.2925 39.2913 43.8481 39.5039 43.1484L42.3943 33.6354Z" fill="url(#paint21_linear_14794_31454)"/>
<path d="M42.3943 33.6354C42.6044 32.9437 42.2913 32.2004 41.6494 31.8677L36.7228 29.3134C36.0614 28.9705 35.2507 29.3068 35.0262 30.0172L31.2604 41.9342C31.0349 42.6481 31.5109 43.3919 32.2536 43.4862L37.8798 44.2004C38.6052 44.2925 39.2913 43.8481 39.5039 43.1484L42.3943 33.6354Z" fill="url(#paint22_linear_14794_31454)"/>
<path d="M42.3943 33.6354C42.6044 32.9437 42.2913 32.2004 41.6494 31.8677L36.7228 29.3134C36.0614 28.9705 35.2507 29.3068 35.0262 30.0172L31.2604 41.9342C31.0349 42.6481 31.5109 43.3919 32.2536 43.4862L37.8798 44.2004C38.6052 44.2925 39.2913 43.8481 39.5039 43.1484L42.3943 33.6354Z" fill="url(#paint23_radial_14794_31454)"/>
<path d="M42.3943 33.6354C42.6044 32.9437 42.2913 32.2004 41.6494 31.8677L36.7228 29.3134C36.0614 28.9705 35.2507 29.3068 35.0262 30.0172L31.2604 41.9342C31.0349 42.6481 31.5109 43.3919 32.2536 43.4862L37.8798 44.2004C38.6052 44.2925 39.2913 43.8481 39.5039 43.1484L42.3943 33.6354Z" fill="url(#paint24_radial_14794_31454)"/>
<path d="M42.3943 33.6354C42.6044 32.9437 42.2913 32.2004 41.6494 31.8677L36.7228 29.3134C36.0614 28.9705 35.2507 29.3068 35.0262 30.0172L31.2604 41.9342C31.0349 42.6481 31.5109 43.3919 32.2536 43.4862L37.8798 44.2004C38.6052 44.2925 39.2913 43.8481 39.5039 43.1484L42.3943 33.6354Z" fill="url(#paint25_linear_14794_31454)" fill-opacity="0.8"/>
</g>
<g id="Rectangle 429">
<path d="M9.70164 29.5527C9.51061 28.9181 9.8702 28.2488 10.5048 28.0578L14.0074 27.0034C14.642 26.8124 15.3113 27.172 15.5023 27.8066L19.8733 42.3268C20.0643 42.9614 19.7047 43.6307 19.0701 43.8218L15.5676 44.8761C14.9329 45.0671 14.2636 44.7076 14.0726 44.0729L9.70164 29.5527Z" fill="url(#paint26_linear_14794_31454)"/>
<path d="M9.70164 29.5527C9.51061 28.9181 9.8702 28.2488 10.5048 28.0578L14.0074 27.0034C14.642 26.8124 15.3113 27.172 15.5023 27.8066L19.8733 42.3268C20.0643 42.9614 19.7047 43.6307 19.0701 43.8218L15.5676 44.8761C14.9329 45.0671 14.2636 44.7076 14.0726 44.0729L9.70164 29.5527Z" fill="url(#paint27_radial_14794_31454)"/>
<path d="M9.70164 29.5527C9.51061 28.9181 9.8702 28.2488 10.5048 28.0578L14.0074 27.0034C14.642 26.8124 15.3113 27.172 15.5023 27.8066L19.8733 42.3268C20.0643 42.9614 19.7047 43.6307 19.0701 43.8218L15.5676 44.8761C14.9329 45.0671 14.2636 44.7076 14.0726 44.0729L9.70164 29.5527Z" fill="url(#paint28_radial_14794_31454)"/>
<path d="M9.70164 29.5527C9.51061 28.9181 9.8702 28.2488 10.5048 28.0578L14.0074 27.0034C14.642 26.8124 15.3113 27.172 15.5023 27.8066L19.8733 42.3268C20.0643 42.9614 19.7047 43.6307 19.0701 43.8218L15.5676 44.8761C14.9329 45.0671 14.2636 44.7076 14.0726 44.0729L9.70164 29.5527Z" fill="url(#paint29_linear_14794_31454)"/>
</g>
<g id="Rectangle 432">
<path d="M37.9922 29.5527C38.1832 28.9181 37.8237 28.2488 37.189 28.0578L33.6865 27.0034C33.0519 26.8124 32.3825 27.172 32.1915 27.8066L27.8206 42.3268C27.6295 42.9614 27.9891 43.6307 28.6237 43.8218L32.1263 44.8761C32.7609 45.0671 33.4302 44.7076 33.6213 44.0729L37.9922 29.5527Z" fill="url(#paint30_linear_14794_31454)"/>
<path d="M37.9922 29.5527C38.1832 28.9181 37.8237 28.2488 37.189 28.0578L33.6865 27.0034C33.0519 26.8124 32.3825 27.172 32.1915 27.8066L27.8206 42.3268C27.6295 42.9614 27.9891 43.6307 28.6237 43.8218L32.1263 44.8761C32.7609 45.0671 33.4302 44.7076 33.6213 44.0729L37.9922 29.5527Z" fill="url(#paint31_linear_14794_31454)"/>
<path d="M37.9922 29.5527C38.1832 28.9181 37.8237 28.2488 37.189 28.0578L33.6865 27.0034C33.0519 26.8124 32.3825 27.172 32.1915 27.8066L27.8206 42.3268C27.6295 42.9614 27.9891 43.6307 28.6237 43.8218L32.1263 44.8761C32.7609 45.0671 33.4302 44.7076 33.6213 44.0729L37.9922 29.5527Z" fill="url(#paint32_radial_14794_31454)"/>
<path d="M37.9922 29.5527C38.1832 28.9181 37.8237 28.2488 37.189 28.0578L33.6865 27.0034C33.0519 26.8124 32.3825 27.172 32.1915 27.8066L27.8206 42.3268C27.6295 42.9614 27.9891 43.6307 28.6237 43.8218L32.1263 44.8761C32.7609 45.0671 33.4302 44.7076 33.6213 44.0729L37.9922 29.5527Z" fill="url(#paint33_radial_14794_31454)"/>
</g>
<g id="Intersect">
<path d="M8.98077 19.4993C8.91328 17.3755 9.4429 13.9622 13.4562 10.8677C17.6717 7.61728 22.1164 7.35205 23.9328 7.35205C25.7492 7.35205 30.3283 7.61728 34.5438 10.8677C38.5571 13.9622 39.0867 17.3757 39.0192 19.4995C38.9103 21.4178 38.6695 22.7511 38.4788 23.8075L38.4588 23.9179C38.2792 24.914 38.5639 25.8895 39.1602 26.6324L40.1596 21.1087C40.1854 20.9789 40.2091 20.8482 40.2305 20.7173C40.3309 20.1024 40.3828 19.4745 40.3828 18.8364C40.3828 11.2511 33.048 5.10205 24 5.10205C14.952 5.10205 7.61719 11.2511 7.61719 18.8364C7.61719 19.4825 7.6704 20.1182 7.77337 20.7406L7.76953 20.7407L8.84537 26.6255C9.43786 25.8835 9.72021 24.9109 9.54116 23.9179L9.52123 23.8075C9.33046 22.751 9.08969 21.4176 8.98077 19.4993Z" fill="url(#paint34_linear_14794_31454)"/>
<path d="M8.98077 19.4993C8.91328 17.3755 9.4429 13.9622 13.4562 10.8677C17.6717 7.61728 22.1164 7.35205 23.9328 7.35205C25.7492 7.35205 30.3283 7.61728 34.5438 10.8677C38.5571 13.9622 39.0867 17.3757 39.0192 19.4995C38.9103 21.4178 38.6695 22.7511 38.4788 23.8075L38.4588 23.9179C38.2792 24.914 38.5639 25.8895 39.1602 26.6324L40.1596 21.1087C40.1854 20.9789 40.2091 20.8482 40.2305 20.7173C40.3309 20.1024 40.3828 19.4745 40.3828 18.8364C40.3828 11.2511 33.048 5.10205 24 5.10205C14.952 5.10205 7.61719 11.2511 7.61719 18.8364C7.61719 19.4825 7.6704 20.1182 7.77337 20.7406L7.76953 20.7407L8.84537 26.6255C9.43786 25.8835 9.72021 24.9109 9.54116 23.9179L9.52123 23.8075C9.33046 22.751 9.08969 21.4176 8.98077 19.4993Z" fill="url(#paint35_radial_14794_31454)"/>
<path d="M8.98077 19.4993C8.91328 17.3755 9.4429 13.9622 13.4562 10.8677C17.6717 7.61728 22.1164 7.35205 23.9328 7.35205C25.7492 7.35205 30.3283 7.61728 34.5438 10.8677C38.5571 13.9622 39.0867 17.3757 39.0192 19.4995C38.9103 21.4178 38.6695 22.7511 38.4788 23.8075L38.4588 23.9179C38.2792 24.914 38.5639 25.8895 39.1602 26.6324L40.1596 21.1087C40.1854 20.9789 40.2091 20.8482 40.2305 20.7173C40.3309 20.1024 40.3828 19.4745 40.3828 18.8364C40.3828 11.2511 33.048 5.10205 24 5.10205C14.952 5.10205 7.61719 11.2511 7.61719 18.8364C7.61719 19.4825 7.6704 20.1182 7.77337 20.7406L7.76953 20.7407L8.84537 26.6255C9.43786 25.8835 9.72021 24.9109 9.54116 23.9179L9.52123 23.8075C9.33046 22.751 9.08969 21.4176 8.98077 19.4993Z" fill="url(#paint36_linear_14794_31454)"/>
<path d="M8.98077 19.4993C8.91328 17.3755 9.4429 13.9622 13.4562 10.8677C17.6717 7.61728 22.1164 7.35205 23.9328 7.35205C25.7492 7.35205 30.3283 7.61728 34.5438 10.8677C38.5571 13.9622 39.0867 17.3757 39.0192 19.4995C38.9103 21.4178 38.6695 22.7511 38.4788 23.8075L38.4588 23.9179C38.2792 24.914 38.5639 25.8895 39.1602 26.6324L40.1596 21.1087C40.1854 20.9789 40.2091 20.8482 40.2305 20.7173C40.3309 20.1024 40.3828 19.4745 40.3828 18.8364C40.3828 11.2511 33.048 5.10205 24 5.10205C14.952 5.10205 7.61719 11.2511 7.61719 18.8364C7.61719 19.4825 7.6704 20.1182 7.77337 20.7406L7.76953 20.7407L8.84537 26.6255C9.43786 25.8835 9.72021 24.9109 9.54116 23.9179L9.52123 23.8075C9.33046 22.751 9.08969 21.4176 8.98077 19.4993Z" fill="url(#paint37_radial_14794_31454)"/>
<path d="M8.98077 19.4993C8.91328 17.3755 9.4429 13.9622 13.4562 10.8677C17.6717 7.61728 22.1164 7.35205 23.9328 7.35205C25.7492 7.35205 30.3283 7.61728 34.5438 10.8677C38.5571 13.9622 39.0867 17.3757 39.0192 19.4995C38.9103 21.4178 38.6695 22.7511 38.4788 23.8075L38.4588 23.9179C38.2792 24.914 38.5639 25.8895 39.1602 26.6324L40.1596 21.1087C40.1854 20.9789 40.2091 20.8482 40.2305 20.7173C40.3309 20.1024 40.3828 19.4745 40.3828 18.8364C40.3828 11.2511 33.048 5.10205 24 5.10205C14.952 5.10205 7.61719 11.2511 7.61719 18.8364C7.61719 19.4825 7.6704 20.1182 7.77337 20.7406L7.76953 20.7407L8.84537 26.6255C9.43786 25.8835 9.72021 24.9109 9.54116 23.9179L9.52123 23.8075C9.33046 22.751 9.08969 21.4176 8.98077 19.4993Z" fill="url(#paint38_radial_14794_31454)" fill-opacity="0.6"/>
<path d="M8.98077 19.4993C8.91328 17.3755 9.4429 13.9622 13.4562 10.8677C17.6717 7.61728 22.1164 7.35205 23.9328 7.35205C25.7492 7.35205 30.3283 7.61728 34.5438 10.8677C38.5571 13.9622 39.0867 17.3757 39.0192 19.4995C38.9103 21.4178 38.6695 22.7511 38.4788 23.8075L38.4588 23.9179C38.2792 24.914 38.5639 25.8895 39.1602 26.6324L40.1596 21.1087C40.1854 20.9789 40.2091 20.8482 40.2305 20.7173C40.3309 20.1024 40.3828 19.4745 40.3828 18.8364C40.3828 11.2511 33.048 5.10205 24 5.10205C14.952 5.10205 7.61719 11.2511 7.61719 18.8364C7.61719 19.4825 7.6704 20.1182 7.77337 20.7406L7.76953 20.7407L8.84537 26.6255C9.43786 25.8835 9.72021 24.9109 9.54116 23.9179L9.52123 23.8075C9.33046 22.751 9.08969 21.4176 8.98077 19.4993Z" fill="url(#paint39_radial_14794_31454)" fill-opacity="0.6"/>
</g>
</g>
<defs>
<radialGradient id="paint0_radial_14794_31454" cx="0" cy="0" r="1" gradientUnits="userSpaceOnUse" gradientTransform="translate(35.4282 6.72276) rotate(114.311) scale(25.403 35.1368)">
<stop stop-color="#DADADB"/>
<stop offset="1" stop-color="#B9B5BD"/>
</radialGradient>
<radialGradient id="paint1_radial_14794_31454" cx="0" cy="0" r="1" gradientUnits="userSpaceOnUse" gradientTransform="translate(4.68457 16.2102) rotate(19.2062) scale(14.4174 48.1173)">
<stop offset="0.095751" stop-color="#969499"/>
<stop offset="1" stop-color="#969499" stop-opacity="0"/>
</radialGradient>
<radialGradient id="paint2_radial_14794_31454" cx="0" cy="0" r="1" gradientUnits="userSpaceOnUse" gradientTransform="translate(8.93859 30.8445) rotate(-117.087) scale(4.59121 1.53556)">
<stop offset="0.256074" stop-color="#C6C4C9"/>
<stop offset="1" stop-color="#C6C4C9" stop-opacity="0"/>
</radialGradient>
<radialGradient id="paint3_radial_14794_31454" cx="0" cy="0" r="1" gradientUnits="userSpaceOnUse" gradientTransform="translate(8.75138 31.0941) rotate(-117.35) scale(3.05631 0.879238)">
<stop offset="0.166979" stop-color="#8D8D8F"/>
<stop offset="1" stop-color="#8D8D8F" stop-opacity="0"/>
</radialGradient>
<radialGradient id="paint4_radial_14794_31454" cx="0" cy="0" r="1" gradientUnits="userSpaceOnUse" gradientTransform="translate(9.19066 26.47) rotate(140.43) scale(2.53064 0.728013)">
<stop offset="0.166979" stop-color="#8D8D8F"/>
<stop offset="1" stop-color="#8D8D8F" stop-opacity="0"/>
</radialGradient>
<radialGradient id="paint5_radial_14794_31454" cx="0" cy="0" r="1" gradientUnits="userSpaceOnUse" gradientTransform="translate(33.5266 12.2162) rotate(-54.3815) scale(5.1435 10.0171)">
<stop offset="0.56676" stop-color="#EBEBED"/>
<stop offset="1" stop-color="#EBEBED" stop-opacity="0"/>
</radialGradient>
<linearGradient id="paint6_linear_14794_31454" x1="41.8266" y1="32.1238" x2="40.6409" y2="28.005" gradientUnits="userSpaceOnUse">
<stop offset="0.326903" stop-color="#B1B0B4"/>
<stop offset="1" stop-color="#B1B0B4" stop-opacity="0"/>
</linearGradient>
<linearGradient id="paint7_linear_14794_31454" x1="1.0369" y1="30.2234" x2="5.99311" y2="26.3496" gradientUnits="userSpaceOnUse">
<stop offset="0.425383" stop-color="#807D84"/>
<stop offset="0.760683" stop-color="#807D84" stop-opacity="0"/>
</linearGradient>
<linearGradient id="paint8_linear_14794_31454" x1="2.00415" y1="26.3544" x2="7.3892" y2="26.1769" gradientUnits="userSpaceOnUse">
<stop offset="0.425383" stop-color="#807D84"/>
<stop offset="0.698452" stop-color="#868389" stop-opacity="0"/>
</linearGradient>
<linearGradient id="paint9_linear_14794_31454" x1="44.2035" y1="32.0006" x2="40.4335" y2="30.2337" gradientUnits="userSpaceOnUse">
<stop offset="0.425383" stop-color="#807D84"/>
<stop offset="0.698452" stop-color="#868389" stop-opacity="0"/>
</linearGradient>
<radialGradient id="paint10_radial_14794_31454" cx="0" cy="0" r="1" gradientUnits="userSpaceOnUse" gradientTransform="translate(39.9009 29.7786) rotate(115.894) scale(1.98396 0.672585)">
<stop offset="0.166979" stop-color="#8D8D8F"/>
<stop offset="1" stop-color="#8D8D8F" stop-opacity="0"/>
</radialGradient>
<radialGradient id="paint11_radial_14794_31454" cx="0" cy="0" r="1" gradientUnits="userSpaceOnUse" gradientTransform="translate(39.779 27.5287) rotate(-122.969) scale(1.90003 1.09811)">
<stop offset="0.166979" stop-color="#8D8D8F"/>
<stop offset="1" stop-color="#8D8D8F" stop-opacity="0"/>
</radialGradient>
<radialGradient id="paint12_radial_14794_31454" cx="0" cy="0" r="1" gradientUnits="userSpaceOnUse" gradientTransform="translate(37.9411 22.167) rotate(12.8474) scale(8.5521 4.9426)">
<stop offset="0.166979" stop-color="#8D8D8F" stop-opacity="0.65"/>
<stop offset="1" stop-color="#8D8D8F" stop-opacity="0"/>
</radialGradient>
<radialGradient id="paint13_radial_14794_31454" cx="0" cy="0" r="1" gradientUnits="userSpaceOnUse" gradientTransform="translate(42.3533 27.3499) rotate(74.1855) scale(2.46105 0.816845)">
<stop stop-color="white" stop-opacity="0.39"/>
<stop offset="0.662201" stop-color="#BAB8BC" stop-opacity="0"/>
</radialGradient>
<radialGradient id="paint14_radial_14794_31454" cx="0" cy="0" r="1" gradientUnits="userSpaceOnUse" gradientTransform="translate(41.494 26.1304) rotate(47.5018) scale(2.69671 1.04378)">
<stop stop-color="white" stop-opacity="0.39"/>
<stop offset="0.662201" stop-color="#BAB8BC" stop-opacity="0"/>
</radialGradient>
<radialGradient id="paint15_radial_14794_31454" cx="0" cy="0" r="1" gradientUnits="userSpaceOnUse" gradientTransform="translate(40.685 24.9536) rotate(70.8294) scale(2.29303 0.775782)">
<stop stop-color="white" stop-opacity="0.39"/>
<stop offset="0.662201" stop-color="#BAB8BC" stop-opacity="0"/>
</radialGradient>
<linearGradient id="paint16_linear_14794_31454" x1="7.5971" y1="32.1489" x2="11.1434" y2="44.2124" gradientUnits="userSpaceOnUse">
<stop stop-color="#A6A0AA"/>
<stop offset="1" stop-color="#9D94A2"/>
</linearGradient>
<linearGradient id="paint17_linear_14794_31454" x1="12.2271" y1="44.2124" x2="11.1434" y2="40.4328" gradientUnits="userSpaceOnUse">
<stop stop-color="#998E9E"/>
<stop offset="1" stop-color="#998E9E" stop-opacity="0"/>
</linearGradient>
<radialGradient id="paint18_radial_14794_31454" cx="0" cy="0" r="1" gradientUnits="userSpaceOnUse" gradientTransform="translate(5.51587 33.0864) rotate(75.1074) scale(13.3872 1.59428)">
<stop stop-color="#817F83"/>
<stop offset="1" stop-color="#817F83" stop-opacity="0"/>
</radialGradient>
<linearGradient id="paint19_linear_14794_31454" x1="6.80023" y1="29.9926" x2="8.81585" y2="34.727" gradientUnits="userSpaceOnUse">
<stop stop-color="#7F7E80"/>
<stop offset="1" stop-color="#7F7E80" stop-opacity="0"/>
</linearGradient>
<linearGradient id="paint20_linear_14794_31454" x1="12.8364" y1="36.2191" x2="10.501" y2="36.9806" gradientUnits="userSpaceOnUse">
<stop offset="0.181858" stop-color="#807D84"/>
<stop offset="1" stop-color="#807D84" stop-opacity="0"/>
</linearGradient>
<linearGradient id="paint21_linear_14794_31454" x1="40.7372" y1="31.2114" x2="36.8317" y2="44.2124" gradientUnits="userSpaceOnUse">
<stop stop-color="#BAB9BC"/>
<stop offset="1" stop-color="#9F96A4"/>
</linearGradient>
<linearGradient id="paint22_linear_14794_31454" x1="34.8778" y1="44.2124" x2="37.7372" y2="39.602" gradientUnits="userSpaceOnUse">
<stop stop-color="#9A8F9F"/>
<stop offset="1" stop-color="#9A8F9F" stop-opacity="0"/>
</linearGradient>
<radialGradient id="paint23_radial_14794_31454" cx="0" cy="0" r="1" gradientUnits="userSpaceOnUse" gradientTransform="translate(41.5106 34.0942) rotate(106.376) scale(5.5697 1.02196)">
<stop stop-color="#C7C6C8"/>
<stop offset="1" stop-color="#BAB8BC" stop-opacity="0"/>
</radialGradient>
<radialGradient id="paint24_radial_14794_31454" cx="0" cy="0" r="1" gradientUnits="userSpaceOnUse" gradientTransform="translate(35.5341 34.0239) rotate(19.7468) scale(5.82704 3.84051)">
<stop stop-color="#C1BFC3"/>
<stop offset="1" stop-color="#C1BFC3" stop-opacity="0"/>
</radialGradient>
<linearGradient id="paint25_linear_14794_31454" x1="41.7517" y1="30.3915" x2="36.8317" y2="40.4328" gradientUnits="userSpaceOnUse">
<stop stop-color="#9B999F"/>
<stop offset="0.226369" stop-color="#998E9E" stop-opacity="0"/>
</linearGradient>
<linearGradient id="paint26_linear_14794_31454" x1="11.9564" y1="27.6021" x2="17.5814" y2="46.3521" gradientUnits="userSpaceOnUse">
<stop stop-color="#B7B6B8"/>
<stop offset="0.321101" stop-color="#D9D5DD"/>
<stop offset="0.681651" stop-color="#D9D5DD"/>
<stop offset="1" stop-color="#CDC1D4"/>
</linearGradient>
<radialGradient id="paint27_radial_14794_31454" cx="0" cy="0" r="1" gradientUnits="userSpaceOnUse" gradientTransform="translate(9.28455 28.3053) rotate(72.755) scale(24.9824 2.06967)">
<stop stop-color="#A4A2A6"/>
<stop offset="1" stop-color="#C5BACF" stop-opacity="0"/>
</radialGradient>
<radialGradient id="paint28_radial_14794_31454" cx="0" cy="0" r="1" gradientUnits="userSpaceOnUse" gradientTransform="translate(17.3002 33.9303) rotate(162.646) scale(1.57154 14.4864)">
<stop offset="0.261566" stop-color="#F6F4F7"/>
<stop offset="1" stop-color="#E6E1EA" stop-opacity="0"/>
</radialGradient>
<linearGradient id="paint29_linear_14794_31454" x1="18.2142" y1="36.1803" x2="17.4174" y2="36.3912" gradientUnits="userSpaceOnUse">
<stop offset="0.133145" stop-color="#DBD9DE"/>
<stop offset="1" stop-color="#DBD9DE" stop-opacity="0"/>
</linearGradient>
<linearGradient id="paint30_linear_14794_31454" x1="36.5654" y1="27.4615" x2="30.1435" y2="46.6803" gradientUnits="userSpaceOnUse">
<stop stop-color="#DAD9DB"/>
<stop offset="0.399322" stop-color="#DEDDE1"/>
<stop offset="0.961979" stop-color="#C7B9CF"/>
</linearGradient>
<linearGradient id="paint31_linear_14794_31454" x1="35.9091" y1="27.274" x2="34.9248" y2="30.4146" gradientUnits="userSpaceOnUse">
<stop offset="0.10868" stop-color="#C9C9CA"/>
<stop offset="1" stop-color="#C9C9CA" stop-opacity="0"/>
</linearGradient>
<radialGradient id="paint32_radial_14794_31454" cx="0" cy="0" r="1" gradientUnits="userSpaceOnUse" gradientTransform="translate(30.5654 32.4771) rotate(15.7807) scale(2.2407 23.9365)">
<stop offset="0.205252" stop-color="#A4A3A6"/>
<stop offset="1" stop-color="#CECAD3" stop-opacity="0"/>
</radialGradient>
<radialGradient id="paint33_radial_14794_31454" cx="0" cy="0" r="1" gradientUnits="userSpaceOnUse" gradientTransform="translate(36.3544 32.6646) rotate(105.977) scale(5.87538 0.936909)">
<stop offset="0.151268" stop-color="#F5F3F7"/>
<stop offset="1" stop-color="#E8E4EC" stop-opacity="0"/>
</radialGradient>
<linearGradient id="paint34_linear_14794_31454" x1="9.14373" y1="25.4927" x2="26.1125" y2="3.74267" gradientUnits="userSpaceOnUse">
<stop stop-color="#CDCBCF"/>
<stop offset="1" stop-color="#BEB5C7"/>
</linearGradient>
<radialGradient id="paint35_radial_14794_31454" cx="0" cy="0" r="1" gradientUnits="userSpaceOnUse" gradientTransform="translate(33.9406 12.8833) rotate(-88.0363) scale(8.20794 25.2521)">
<stop offset="0.172043" stop-color="#AFA7B6"/>
<stop offset="1" stop-color="#AFA7B6" stop-opacity="0"/>
</radialGradient>
<linearGradient id="paint36_linear_14794_31454" x1="39.4719" y1="26.6324" x2="34.3156" y2="14.0083" gradientUnits="userSpaceOnUse">
<stop stop-color="#9B99A0"/>
<stop offset="1" stop-color="#9B99A0" stop-opacity="0"/>
</linearGradient>
<radialGradient id="paint37_radial_14794_31454" cx="0" cy="0" r="1" gradientUnits="userSpaceOnUse" gradientTransform="translate(9.4052 26.6324) rotate(-88.4467) scale(4.18811 6.37362)">
<stop stop-color="#A5A2A9"/>
<stop offset="1" stop-color="#A5A2A9" stop-opacity="0"/>
</radialGradient>
<radialGradient id="paint38_radial_14794_31454" cx="0" cy="0" r="1" gradientUnits="userSpaceOnUse" gradientTransform="translate(23.4633 17.5944) rotate(85.479) scale(15.2528 19.7488)">
<stop offset="0.725954" stop-color="#BBB2C2" stop-opacity="0"/>
<stop offset="0.817984" stop-color="white" stop-opacity="0.4"/>
</radialGradient>
<radialGradient id="paint39_radial_14794_31454" cx="0" cy="0" r="1" gradientUnits="userSpaceOnUse" gradientTransform="translate(37.4538 23.823) rotate(-61.9589) scale(14.8583 7.37431)">
<stop offset="0.166979" stop-color="#8D8E8F" stop-opacity="0.94"/>
<stop offset="1" stop-color="#8D8D8F" stop-opacity="0"/>
</radialGradient>
</defs>
</svg>
