<svg width="48" height="48" viewBox="0 0 48 48" fill="none" xmlns="http://www.w3.org/2000/svg">
<g id="Laptop">
<g id="Rectangle 643">
<path d="M6.0161 29.8594V29.3403L41.9558 29.3403V29.8594L44.7607 42.2951C45.0086 43.125 44.2616 44.0025 43.1443 44.0025H4.51344C3.21852 44.0025 3.14062 42.9492 3.24111 42.2975L6.0161 29.8594Z" fill="url(#paint0_linear_14794_10623)"/>
<path d="M6.0161 29.8594V29.3403L41.9558 29.3403V29.8594L44.7607 42.2951C45.0086 43.125 44.2616 44.0025 43.1443 44.0025H4.51344C3.21852 44.0025 3.14062 42.9492 3.24111 42.2975L6.0161 29.8594Z" fill="url(#paint1_linear_14794_10623)"/>
<path d="M6.0161 29.8594V29.3403L41.9558 29.3403V29.8594L44.7607 42.2951C45.0086 43.125 44.2616 44.0025 43.1443 44.0025H4.51344C3.21852 44.0025 3.14062 42.9492 3.24111 42.2975L6.0161 29.8594Z" fill="url(#paint2_linear_14794_10623)"/>
<path d="M6.0161 29.8594V29.3403L41.9558 29.3403V29.8594L44.7607 42.2951C45.0086 43.125 44.2616 44.0025 43.1443 44.0025H4.51344C3.21852 44.0025 3.14062 42.9492 3.24111 42.2975L6.0161 29.8594Z" fill="url(#paint3_linear_14794_10623)"/>
<path d="M6.0161 29.8594V29.3403L41.9558 29.3403V29.8594L44.7607 42.2951C45.0086 43.125 44.2616 44.0025 43.1443 44.0025H4.51344C3.21852 44.0025 3.14062 42.9492 3.24111 42.2975L6.0161 29.8594Z" fill="url(#paint4_linear_14794_10623)"/>
<path d="M6.0161 29.8594V29.3403L41.9558 29.3403V29.8594L44.7607 42.2951C45.0086 43.125 44.2616 44.0025 43.1443 44.0025H4.51344C3.21852 44.0025 3.14062 42.9492 3.24111 42.2975L6.0161 29.8594Z" fill="url(#paint5_linear_14794_10623)"/>
</g>
<g id="Rectangle 641">
<path d="M6.01611 4.64063C6.01611 3.8122 6.68769 3.14062 7.51611 3.14062H40.4559C41.2843 3.14062 41.9558 3.8122 41.9558 4.64062V29.8594H6.01611V4.64063Z" fill="url(#paint6_linear_14794_10623)"/>
<path d="M6.01611 4.64063C6.01611 3.8122 6.68769 3.14062 7.51611 3.14062H40.4559C41.2843 3.14062 41.9558 3.8122 41.9558 4.64062V29.8594H6.01611V4.64063Z" fill="url(#paint7_linear_14794_10623)"/>
<path d="M6.01611 4.64063C6.01611 3.8122 6.68769 3.14062 7.51611 3.14062H40.4559C41.2843 3.14062 41.9558 3.8122 41.9558 4.64062V29.8594H6.01611V4.64063Z" fill="url(#paint8_linear_14794_10623)"/>
<path d="M6.01611 4.64063C6.01611 3.8122 6.68769 3.14062 7.51611 3.14062H40.4559C41.2843 3.14062 41.9558 3.8122 41.9558 4.64062V29.8594H6.01611V4.64063Z" fill="url(#paint9_linear_14794_10623)"/>
</g>
<path id="Rectangle 642" d="M7.49268 4.94531C7.49268 4.73821 7.66057 4.57031 7.86768 4.57031H40.1043C40.3114 4.57031 40.4793 4.73821 40.4793 4.94531V28.0547C40.4793 28.2618 40.3114 28.4297 40.1043 28.4297H7.86767C7.66057 28.4297 7.49268 28.2618 7.49268 28.0547V4.94531Z" fill="url(#paint10_linear_14794_10623)"/>
<g id="Subtract">
<path d="M3.21215 42.6094L3.21094 43.8926C3.2338 44.4237 3.66994 44.8652 4.76035 44.8652H43.3912C44.0983 44.8652 44.7966 44.5252 44.8063 43.8926V42.6094C44.7924 43.2383 44.0961 43.5762 43.3912 43.5762H4.76035C3.67394 43.5762 3.23797 43.1379 3.21215 42.6094Z" fill="url(#paint11_linear_14794_10623)"/>
<path d="M3.21215 42.6094L3.21094 43.8926C3.2338 44.4237 3.66994 44.8652 4.76035 44.8652H43.3912C44.0983 44.8652 44.7966 44.5252 44.8063 43.8926V42.6094C44.7924 43.2383 44.0961 43.5762 43.3912 43.5762H4.76035C3.67394 43.5762 3.23797 43.1379 3.21215 42.6094Z" fill="url(#paint12_linear_14794_10623)"/>
<path d="M3.21215 42.6094L3.21094 43.8926C3.2338 44.4237 3.66994 44.8652 4.76035 44.8652H43.3912C44.0983 44.8652 44.7966 44.5252 44.8063 43.8926V42.6094C44.7924 43.2383 44.0961 43.5762 43.3912 43.5762H4.76035C3.67394 43.5762 3.23797 43.1379 3.21215 42.6094Z" fill="url(#paint13_linear_14794_10623)"/>
<path d="M3.21215 42.6094L3.21094 43.8926C3.2338 44.4237 3.66994 44.8652 4.76035 44.8652H43.3912C44.0983 44.8652 44.7966 44.5252 44.8063 43.8926V42.6094C44.7924 43.2383 44.0961 43.5762 43.3912 43.5762H4.76035C3.67394 43.5762 3.23797 43.1379 3.21215 42.6094Z" fill="url(#paint14_linear_14794_10623)"/>
</g>
<path id="Rectangle 644" d="M16.4285 39.4415C16.4638 39.2665 16.6176 39.1406 16.7961 39.1406H31.1951C31.3731 39.1406 31.5266 39.2658 31.5624 39.4402L32.0294 41.7136C32.0772 41.9462 31.8995 42.1641 31.6621 42.1641H16.3379C16.101 42.1641 15.9235 41.9472 15.9703 41.715L16.4285 39.4415Z" fill="url(#paint15_linear_14794_10623)"/>
<path id="Rectangle 681" d="M7.32295 31.8711C7.38588 31.599 7.62824 31.4062 7.90753 31.4062H40.149C40.4299 31.4062 40.6732 31.6012 40.7345 31.8753L41.8986 37.0813C41.951 37.3156 41.702 37.5381 41.2332 37.5381H6.8035C6.18832 37.5381 6.06947 37.2897 6.12382 37.0547L7.32295 31.8711Z" stroke="url(#paint16_linear_14794_10623)" stroke-width="0.15"/>
<g id="Rectangle 645">
<path d="M7.32295 31.8711C7.38588 31.599 7.62824 31.4062 7.90753 31.4062H40.149C40.4299 31.4062 40.6732 31.6012 40.7345 31.8753L41.8986 37.0813C41.951 37.3156 41.702 37.5381 41.2332 37.5381H6.8035C6.18832 37.5381 6.06947 37.2897 6.12382 37.0547L7.32295 31.8711Z" fill="url(#paint17_linear_14794_10623)"/>
<path d="M7.32295 31.8711C7.38588 31.599 7.62824 31.4062 7.90753 31.4062H40.149C40.4299 31.4062 40.6732 31.6012 40.7345 31.8753L41.8986 37.0813C41.951 37.3156 41.702 37.5381 41.2332 37.5381H6.8035C6.18832 37.5381 6.06947 37.2897 6.12382 37.0547L7.32295 31.8711Z" fill="url(#paint18_linear_14794_10623)"/>
<path d="M7.32295 31.8711C7.38588 31.599 7.62824 31.4062 7.90753 31.4062H40.149C40.4299 31.4062 40.6732 31.6012 40.7345 31.8753L41.8986 37.0813C41.951 37.3156 41.702 37.5381 41.2332 37.5381H6.8035C6.18832 37.5381 6.06947 37.2897 6.12382 37.0547L7.32295 31.8711Z" fill="url(#paint19_linear_14794_10623)"/>
</g>
<g id="Rectangle 646">
<path d="M8.62672 32.1085C8.63472 32.0747 8.66494 32.0508 8.69971 32.0508H10.1915C10.2382 32.0508 10.2735 32.0929 10.2654 32.1389L10.0986 33.0787C10.0923 33.1145 10.0611 33.1406 10.0248 33.1406H8.47738C8.42898 33.1406 8.39325 33.0955 8.40439 33.0484L8.62672 32.1085Z" fill="#D7D3E6"/>
<path d="M8.62672 32.1085C8.63472 32.0747 8.66494 32.0508 8.69971 32.0508H10.1915C10.2382 32.0508 10.2735 32.0929 10.2654 32.1389L10.0986 33.0787C10.0923 33.1145 10.0611 33.1406 10.0248 33.1406H8.47738C8.42898 33.1406 8.39325 33.0955 8.40439 33.0484L8.62672 32.1085Z" fill="url(#paint20_linear_14794_10623)"/>
<path d="M8.62672 32.1085C8.63472 32.0747 8.66494 32.0508 8.69971 32.0508H10.1915C10.2382 32.0508 10.2735 32.0929 10.2654 32.1389L10.0986 33.0787C10.0923 33.1145 10.0611 33.1406 10.0248 33.1406H8.47738C8.42898 33.1406 8.39325 33.0955 8.40439 33.0484L8.62672 32.1085Z" fill="url(#paint21_linear_14794_10623)" fill-opacity="0.8"/>
<path d="M8.62672 32.1085C8.63472 32.0747 8.66494 32.0508 8.69971 32.0508H10.1915C10.2382 32.0508 10.2735 32.0929 10.2654 32.1389L10.0986 33.0787C10.0923 33.1145 10.0611 33.1406 10.0248 33.1406H8.47738C8.42898 33.1406 8.39325 33.0955 8.40439 33.0484L8.62672 32.1085Z" fill="url(#paint22_linear_14794_10623)" fill-opacity="0.8"/>
</g>
<g id="Rectangle 662">
<path d="M39.3453 32.1085C39.3373 32.0747 39.3071 32.0508 39.2723 32.0508H37.7805C37.7338 32.0508 37.6985 32.0929 37.7066 32.1389L37.8734 33.0787C37.8797 33.1145 37.9108 33.1406 37.9472 33.1406H39.4946C39.543 33.1406 39.5787 33.0955 39.5676 33.0484L39.3453 32.1085Z" fill="#D7D3E6"/>
<path d="M39.3453 32.1085C39.3373 32.0747 39.3071 32.0508 39.2723 32.0508H37.7805C37.7338 32.0508 37.6985 32.0929 37.7066 32.1389L37.8734 33.0787C37.8797 33.1145 37.9108 33.1406 37.9472 33.1406H39.4946C39.543 33.1406 39.5787 33.0955 39.5676 33.0484L39.3453 32.1085Z" fill="url(#paint23_linear_14794_10623)"/>
<path d="M39.3453 32.1085C39.3373 32.0747 39.3071 32.0508 39.2723 32.0508H37.7805C37.7338 32.0508 37.6985 32.0929 37.7066 32.1389L37.8734 33.0787C37.8797 33.1145 37.9108 33.1406 37.9472 33.1406H39.4946C39.543 33.1406 39.5787 33.0955 39.5676 33.0484L39.3453 32.1085Z" fill="url(#paint24_linear_14794_10623)" fill-opacity="0.8"/>
<path d="M39.3453 32.1085C39.3373 32.0747 39.3071 32.0508 39.2723 32.0508H37.7805C37.7338 32.0508 37.6985 32.0929 37.7066 32.1389L37.8734 33.0787C37.8797 33.1145 37.9108 33.1406 37.9472 33.1406H39.4946C39.543 33.1406 39.5787 33.0955 39.5676 33.0484L39.3453 32.1085Z" fill="url(#paint25_linear_14794_10623)" fill-opacity="0.8"/>
</g>
<g id="Rectangle 647">
<path d="M8.28757 33.8147C8.29515 33.7803 8.32561 33.7559 8.36081 33.7559H9.8531C9.89929 33.7559 9.9345 33.7972 9.92715 33.8428L9.77556 34.7826C9.7697 34.819 9.73833 34.8457 9.70152 34.8457H8.15364C8.10571 34.8457 8.07008 34.8014 8.0804 34.7546L8.28757 33.8147Z" fill="#D7D3E6"/>
<path d="M8.28757 33.8147C8.29515 33.7803 8.32561 33.7559 8.36081 33.7559H9.8531C9.89929 33.7559 9.9345 33.7972 9.92715 33.8428L9.77556 34.7826C9.7697 34.819 9.73833 34.8457 9.70152 34.8457H8.15364C8.10571 34.8457 8.07008 34.8014 8.0804 34.7546L8.28757 33.8147Z" fill="url(#paint26_linear_14794_10623)"/>
<path d="M8.28757 33.8147C8.29515 33.7803 8.32561 33.7559 8.36081 33.7559H9.8531C9.89929 33.7559 9.9345 33.7972 9.92715 33.8428L9.77556 34.7826C9.7697 34.819 9.73833 34.8457 9.70152 34.8457H8.15364C8.10571 34.8457 8.07008 34.8014 8.0804 34.7546L8.28757 33.8147Z" fill="url(#paint27_linear_14794_10623)" fill-opacity="0.8"/>
<path d="M8.28757 33.8147C8.29515 33.7803 8.32561 33.7559 8.36081 33.7559H9.8531C9.89929 33.7559 9.9345 33.7972 9.92715 33.8428L9.77556 34.7826C9.7697 34.819 9.73833 34.8457 9.70152 34.8457H8.15364C8.10571 34.8457 8.07008 34.8014 8.0804 34.7546L8.28757 33.8147Z" fill="url(#paint28_linear_14794_10623)" fill-opacity="0.8"/>
</g>
<g id="Rectangle 663">
<path d="M39.6844 33.8147C39.6768 33.7803 39.6463 33.7559 39.6111 33.7559H38.1188C38.0727 33.7559 38.0374 33.7972 38.0448 33.8428L38.1964 34.7826C38.2022 34.819 38.2336 34.8457 38.2704 34.8457H39.8183C39.8662 34.8457 39.9019 34.8014 39.8915 34.7546L39.6844 33.8147Z" fill="#D7D3E6"/>
<path d="M39.6844 33.8147C39.6768 33.7803 39.6463 33.7559 39.6111 33.7559H38.1188C38.0727 33.7559 38.0374 33.7972 38.0448 33.8428L38.1964 34.7826C38.2022 34.819 38.2336 34.8457 38.2704 34.8457H39.8183C39.8662 34.8457 39.9019 34.8014 39.8915 34.7546L39.6844 33.8147Z" fill="url(#paint29_linear_14794_10623)"/>
<path d="M39.6844 33.8147C39.6768 33.7803 39.6463 33.7559 39.6111 33.7559H38.1188C38.0727 33.7559 38.0374 33.7972 38.0448 33.8428L38.1964 34.7826C38.2022 34.819 38.2336 34.8457 38.2704 34.8457H39.8183C39.8662 34.8457 39.9019 34.8014 39.8915 34.7546L39.6844 33.8147Z" fill="url(#paint30_linear_14794_10623)" fill-opacity="0.8"/>
<path d="M39.6844 33.8147C39.6768 33.7803 39.6463 33.7559 39.6111 33.7559H38.1188C38.0727 33.7559 38.0374 33.7972 38.0448 33.8428L38.1964 34.7826C38.2022 34.819 38.2336 34.8457 38.2704 34.8457H39.8183C39.8662 34.8457 39.9019 34.8014 39.8915 34.7546L39.6844 33.8147Z" fill="url(#paint31_linear_14794_10623)" fill-opacity="0.8"/>
</g>
<g id="Rectangle 648">
<path d="M7.91292 35.5496C7.92027 35.515 7.95086 35.4902 7.98628 35.4902H9.53134C9.57735 35.4902 9.61252 35.5313 9.60545 35.5768L9.45298 36.5576C9.4473 36.5941 9.41585 36.6211 9.37887 36.6211H7.77791C7.73022 36.6211 7.69464 36.5772 7.70455 36.5305L7.91292 35.5496Z" fill="#D7D3E6"/>
<path d="M7.91292 35.5496C7.92027 35.515 7.95086 35.4902 7.98628 35.4902H9.53134C9.57735 35.4902 9.61252 35.5313 9.60545 35.5768L9.45298 36.5576C9.4473 36.5941 9.41585 36.6211 9.37887 36.6211H7.77791C7.73022 36.6211 7.69464 36.5772 7.70455 36.5305L7.91292 35.5496Z" fill="url(#paint32_linear_14794_10623)"/>
<path d="M7.91292 35.5496C7.92027 35.515 7.95086 35.4902 7.98628 35.4902H9.53134C9.57735 35.4902 9.61252 35.5313 9.60545 35.5768L9.45298 36.5576C9.4473 36.5941 9.41585 36.6211 9.37887 36.6211H7.77791C7.73022 36.6211 7.69464 36.5772 7.70455 36.5305L7.91292 35.5496Z" fill="url(#paint33_linear_14794_10623)" fill-opacity="0.8"/>
<path d="M7.91292 35.5496C7.92027 35.515 7.95086 35.4902 7.98628 35.4902H9.53134C9.57735 35.4902 9.61252 35.5313 9.60545 35.5768L9.45298 36.5576C9.4473 36.5941 9.41585 36.6211 9.37887 36.6211H7.77791C7.73022 36.6211 7.69464 36.5772 7.70455 36.5305L7.91292 35.5496Z" fill="url(#paint34_linear_14794_10623)" fill-opacity="0.8"/>
</g>
<g id="Rectangle 664">
<path d="M40.0592 35.5496C40.0518 35.515 40.0212 35.4902 39.9858 35.4902H38.4407C38.3947 35.4902 38.3596 35.5313 38.3666 35.5768L38.5191 36.5576C38.5248 36.5941 38.5562 36.6211 38.5932 36.6211H40.1942C40.2419 36.6211 40.2774 36.5772 40.2675 36.5305L40.0592 35.5496Z" fill="#D7D3E6"/>
<path d="M40.0592 35.5496C40.0518 35.515 40.0212 35.4902 39.9858 35.4902H38.4407C38.3947 35.4902 38.3596 35.5313 38.3666 35.5768L38.5191 36.5576C38.5248 36.5941 38.5562 36.6211 38.5932 36.6211H40.1942C40.2419 36.6211 40.2774 36.5772 40.2675 36.5305L40.0592 35.5496Z" fill="url(#paint35_linear_14794_10623)"/>
<path d="M40.0592 35.5496C40.0518 35.515 40.0212 35.4902 39.9858 35.4902H38.4407C38.3947 35.4902 38.3596 35.5313 38.3666 35.5768L38.5191 36.5576C38.5248 36.5941 38.5562 36.6211 38.5932 36.6211H40.1942C40.2419 36.6211 40.2774 36.5772 40.2675 36.5305L40.0592 35.5496Z" fill="url(#paint36_linear_14794_10623)" fill-opacity="0.8"/>
<path d="M40.0592 35.5496C40.0518 35.515 40.0212 35.4902 39.9858 35.4902H38.4407C38.3947 35.4902 38.3596 35.5313 38.3666 35.5768L38.5191 36.5576C38.5248 36.5941 38.5562 36.6211 38.5932 36.6211H40.1942C40.2419 36.6211 40.2774 36.5772 40.2675 36.5305L40.0592 35.5496Z" fill="url(#paint37_linear_14794_10623)" fill-opacity="0.8"/>
</g>
<g id="Rectangle 649">
<path d="M11.2758 32.11C11.2833 32.0755 11.3138 32.0508 11.3492 32.0508H12.8416C12.8876 32.0508 12.9228 32.0919 12.9157 32.1373L12.7692 33.0772C12.7635 33.1137 12.732 33.1406 12.6951 33.1406H11.1471C11.0993 33.1406 11.0637 33.0966 11.0737 33.0499L11.2758 32.11Z" fill="#D7D3E6"/>
<path d="M11.2758 32.11C11.2833 32.0755 11.3138 32.0508 11.3492 32.0508H12.8416C12.8876 32.0508 12.9228 32.0919 12.9157 32.1373L12.7692 33.0772C12.7635 33.1137 12.732 33.1406 12.6951 33.1406H11.1471C11.0993 33.1406 11.0637 33.0966 11.0737 33.0499L11.2758 32.11Z" fill="url(#paint38_linear_14794_10623)"/>
<path d="M11.2758 32.11C11.2833 32.0755 11.3138 32.0508 11.3492 32.0508H12.8416C12.8876 32.0508 12.9228 32.0919 12.9157 32.1373L12.7692 33.0772C12.7635 33.1137 12.732 33.1406 12.6951 33.1406H11.1471C11.0993 33.1406 11.0637 33.0966 11.0737 33.0499L11.2758 32.11Z" fill="url(#paint39_linear_14794_10623)" fill-opacity="0.8"/>
<path d="M11.2758 32.11C11.2833 32.0755 11.3138 32.0508 11.3492 32.0508H12.8416C12.8876 32.0508 12.9228 32.0919 12.9157 32.1373L12.7692 33.0772C12.7635 33.1137 12.732 33.1406 12.6951 33.1406H11.1471C11.0993 33.1406 11.0637 33.0966 11.0737 33.0499L11.2758 32.11Z" fill="url(#paint40_linear_14794_10623)" fill-opacity="0.8"/>
</g>
<g id="Rectangle 665">
<path d="M36.696 32.11C36.6885 32.0755 36.658 32.0508 36.6226 32.0508H35.1302C35.0842 32.0508 35.049 32.0919 35.0561 32.1373L35.2026 33.0772C35.2083 33.1137 35.2398 33.1406 35.2767 33.1406H36.8247C36.8725 33.1406 36.9081 33.0966 36.8981 33.0499L36.696 32.11Z" fill="#D7D3E6"/>
<path d="M36.696 32.11C36.6885 32.0755 36.658 32.0508 36.6226 32.0508H35.1302C35.0842 32.0508 35.049 32.0919 35.0561 32.1373L35.2026 33.0772C35.2083 33.1137 35.2398 33.1406 35.2767 33.1406H36.8247C36.8725 33.1406 36.9081 33.0966 36.8981 33.0499L36.696 32.11Z" fill="url(#paint41_linear_14794_10623)"/>
<path d="M36.696 32.11C36.6885 32.0755 36.658 32.0508 36.6226 32.0508H35.1302C35.0842 32.0508 35.049 32.0919 35.0561 32.1373L35.2026 33.0772C35.2083 33.1137 35.2398 33.1406 35.2767 33.1406H36.8247C36.8725 33.1406 36.9081 33.0966 36.8981 33.0499L36.696 32.11Z" fill="url(#paint42_linear_14794_10623)" fill-opacity="0.8"/>
<path d="M36.696 32.11C36.6885 32.0755 36.658 32.0508 36.6226 32.0508H35.1302C35.0842 32.0508 35.049 32.0919 35.0561 32.1373L35.2026 33.0772C35.2083 33.1137 35.2398 33.1406 35.2767 33.1406H36.8247C36.8725 33.1406 36.9081 33.0966 36.8981 33.0499L36.696 32.11Z" fill="url(#paint43_linear_14794_10623)" fill-opacity="0.8"/>
</g>
<g id="Rectangle 650">
<path d="M10.9895 33.8161C10.9966 33.7811 11.0273 33.7559 11.063 33.7559H12.556C12.6016 33.7559 12.6366 33.7962 12.6303 33.8413L12.5019 34.7548C12.4967 34.7918 12.465 34.8193 12.4276 34.8193H10.8793C10.832 34.8193 10.7965 34.776 10.8058 34.7295L10.9895 33.8161Z" fill="#D7D3E6"/>
<path d="M10.9895 33.8161C10.9966 33.7811 11.0273 33.7559 11.063 33.7559H12.556C12.6016 33.7559 12.6366 33.7962 12.6303 33.8413L12.5019 34.7548C12.4967 34.7918 12.465 34.8193 12.4276 34.8193H10.8793C10.832 34.8193 10.7965 34.776 10.8058 34.7295L10.9895 33.8161Z" fill="url(#paint44_linear_14794_10623)"/>
<path d="M10.9895 33.8161C10.9966 33.7811 11.0273 33.7559 11.063 33.7559H12.556C12.6016 33.7559 12.6366 33.7962 12.6303 33.8413L12.5019 34.7548C12.4967 34.7918 12.465 34.8193 12.4276 34.8193H10.8793C10.832 34.8193 10.7965 34.776 10.8058 34.7295L10.9895 33.8161Z" fill="url(#paint45_linear_14794_10623)" fill-opacity="0.8"/>
<path d="M10.9895 33.8161C10.9966 33.7811 11.0273 33.7559 11.063 33.7559H12.556C12.6016 33.7559 12.6366 33.7962 12.6303 33.8413L12.5019 34.7548C12.4967 34.7918 12.465 34.8193 12.4276 34.8193H10.8793C10.832 34.8193 10.7965 34.776 10.8058 34.7295L10.9895 33.8161Z" fill="url(#paint46_linear_14794_10623)" fill-opacity="0.8"/>
</g>
<g id="Rectangle 666">
<path d="M36.9827 33.8161C36.9756 33.7811 36.9449 33.7559 36.9091 33.7559H35.4162C35.3706 33.7559 35.3356 33.7962 35.3419 33.8413L35.4703 34.7548C35.4755 34.7918 35.5072 34.8193 35.5445 34.8193H37.0928C37.1402 34.8193 37.1757 34.776 37.1664 34.7295L36.9827 33.8161Z" fill="#D7D3E6"/>
<path d="M36.9827 33.8161C36.9756 33.7811 36.9449 33.7559 36.9091 33.7559H35.4162C35.3706 33.7559 35.3356 33.7962 35.3419 33.8413L35.4703 34.7548C35.4755 34.7918 35.5072 34.8193 35.5445 34.8193H37.0928C37.1402 34.8193 37.1757 34.776 37.1664 34.7295L36.9827 33.8161Z" fill="url(#paint47_linear_14794_10623)"/>
<path d="M36.9827 33.8161C36.9756 33.7811 36.9449 33.7559 36.9091 33.7559H35.4162C35.3706 33.7559 35.3356 33.7962 35.3419 33.8413L35.4703 34.7548C35.4755 34.7918 35.5072 34.8193 35.5445 34.8193H37.0928C37.1402 34.8193 37.1757 34.776 37.1664 34.7295L36.9827 33.8161Z" fill="url(#paint48_linear_14794_10623)" fill-opacity="0.8"/>
<path d="M36.9827 33.8161C36.9756 33.7811 36.9449 33.7559 36.9091 33.7559H35.4162C35.3706 33.7559 35.3356 33.7962 35.3419 33.8413L35.4703 34.7548C35.4755 34.7918 35.5072 34.8193 35.5445 34.8193H37.0928C37.1402 34.8193 37.1757 34.776 37.1664 34.7295L36.9827 33.8161Z" fill="url(#paint49_linear_14794_10623)" fill-opacity="0.8"/>
</g>
<g id="Rectangle 651">
<path d="M10.6693 35.5532C10.6752 35.5169 10.7065 35.4902 10.7433 35.4902H12.2896C12.3341 35.4902 12.3688 35.5288 12.3642 35.573L12.2627 36.5422C12.2587 36.5804 12.2265 36.6094 12.1881 36.6094H10.586C10.5398 36.6094 10.5046 36.568 10.512 36.5224L10.6693 35.5532Z" fill="#D7D3E6"/>
<path d="M10.6693 35.5532C10.6752 35.5169 10.7065 35.4902 10.7433 35.4902H12.2896C12.3341 35.4902 12.3688 35.5288 12.3642 35.573L12.2627 36.5422C12.2587 36.5804 12.2265 36.6094 12.1881 36.6094H10.586C10.5398 36.6094 10.5046 36.568 10.512 36.5224L10.6693 35.5532Z" fill="url(#paint50_linear_14794_10623)"/>
<path d="M10.6693 35.5532C10.6752 35.5169 10.7065 35.4902 10.7433 35.4902H12.2896C12.3341 35.4902 12.3688 35.5288 12.3642 35.573L12.2627 36.5422C12.2587 36.5804 12.2265 36.6094 12.1881 36.6094H10.586C10.5398 36.6094 10.5046 36.568 10.512 36.5224L10.6693 35.5532Z" fill="url(#paint51_linear_14794_10623)" fill-opacity="0.8"/>
<path d="M10.6693 35.5532C10.6752 35.5169 10.7065 35.4902 10.7433 35.4902H12.2896C12.3341 35.4902 12.3688 35.5288 12.3642 35.573L12.2627 36.5422C12.2587 36.5804 12.2265 36.6094 12.1881 36.6094H10.586C10.5398 36.6094 10.5046 36.568 10.512 36.5224L10.6693 35.5532Z" fill="url(#paint52_linear_14794_10623)" fill-opacity="0.8"/>
</g>
<g id="Rectangle 667">
<path d="M37.3027 35.5532C37.2969 35.5169 37.2655 35.4902 37.2287 35.4902H35.6824C35.6379 35.4902 35.6032 35.5288 35.6078 35.573L35.7093 36.5422C35.7133 36.5804 35.7455 36.6094 35.7839 36.6094H37.386C37.4322 36.6094 37.4674 36.568 37.46 36.5224L37.3027 35.5532Z" fill="#D7D3E6"/>
<path d="M37.3027 35.5532C37.2969 35.5169 37.2655 35.4902 37.2287 35.4902H35.6824C35.6379 35.4902 35.6032 35.5288 35.6078 35.573L35.7093 36.5422C35.7133 36.5804 35.7455 36.6094 35.7839 36.6094H37.386C37.4322 36.6094 37.4674 36.568 37.46 36.5224L37.3027 35.5532Z" fill="url(#paint53_linear_14794_10623)"/>
<path d="M37.3027 35.5532C37.2969 35.5169 37.2655 35.4902 37.2287 35.4902H35.6824C35.6379 35.4902 35.6032 35.5288 35.6078 35.573L35.7093 36.5422C35.7133 36.5804 35.7455 36.6094 35.7839 36.6094H37.386C37.4322 36.6094 37.4674 36.568 37.46 36.5224L37.3027 35.5532Z" fill="url(#paint54_linear_14794_10623)" fill-opacity="0.8"/>
<path d="M37.3027 35.5532C37.2969 35.5169 37.2655 35.4902 37.2287 35.4902H35.6824C35.6379 35.4902 35.6032 35.5288 35.6078 35.573L35.7093 36.5422C35.7133 36.5804 35.7455 36.6094 35.7839 36.6094H37.386C37.4322 36.6094 37.4674 36.568 37.46 36.5224L37.3027 35.5532Z" fill="url(#paint55_linear_14794_10623)" fill-opacity="0.8"/>
</g>
<g id="Rectangle 652">
<path d="M13.8989 32.1146C13.9045 32.0779 13.936 32.0508 13.9731 32.0508H15.467C15.5111 32.0508 15.5457 32.0887 15.5417 32.1327L15.4552 33.0725C15.4516 33.1111 15.4192 33.1406 15.3805 33.1406H13.831C13.7851 33.1406 13.75 33.0998 13.7568 33.0544L13.8989 32.1146Z" fill="#D7D3E6"/>
<path d="M13.8989 32.1146C13.9045 32.0779 13.936 32.0508 13.9731 32.0508H15.467C15.5111 32.0508 15.5457 32.0887 15.5417 32.1327L15.4552 33.0725C15.4516 33.1111 15.4192 33.1406 15.3805 33.1406H13.831C13.7851 33.1406 13.75 33.0998 13.7568 33.0544L13.8989 32.1146Z" fill="url(#paint56_linear_14794_10623)"/>
<path d="M13.8989 32.1146C13.9045 32.0779 13.936 32.0508 13.9731 32.0508H15.467C15.5111 32.0508 15.5457 32.0887 15.5417 32.1327L15.4552 33.0725C15.4516 33.1111 15.4192 33.1406 15.3805 33.1406H13.831C13.7851 33.1406 13.75 33.0998 13.7568 33.0544L13.8989 32.1146Z" fill="url(#paint57_linear_14794_10623)" fill-opacity="0.8"/>
<path d="M13.8989 32.1146C13.9045 32.0779 13.936 32.0508 13.9731 32.0508H15.467C15.5111 32.0508 15.5457 32.0887 15.5417 32.1327L15.4552 33.0725C15.4516 33.1111 15.4192 33.1406 15.3805 33.1406H13.831C13.7851 33.1406 13.75 33.0998 13.7568 33.0544L13.8989 32.1146Z" fill="url(#paint58_linear_14794_10623)" fill-opacity="0.8"/>
</g>
<g id="Rectangle 668">
<path d="M34.0732 32.1146C34.0677 32.0779 34.0362 32.0508 33.9991 32.0508H32.5052C32.461 32.0508 32.4265 32.0887 32.4305 32.1327L32.517 33.0725C32.5206 33.1111 32.5529 33.1406 32.5917 33.1406H34.1412C34.1871 33.1406 34.2222 33.0998 34.2153 33.0544L34.0732 32.1146Z" fill="#D7D3E6"/>
<path d="M34.0732 32.1146C34.0677 32.0779 34.0362 32.0508 33.9991 32.0508H32.5052C32.461 32.0508 32.4265 32.0887 32.4305 32.1327L32.517 33.0725C32.5206 33.1111 32.5529 33.1406 32.5917 33.1406H34.1412C34.1871 33.1406 34.2222 33.0998 34.2153 33.0544L34.0732 32.1146Z" fill="url(#paint59_linear_14794_10623)"/>
<path d="M34.0732 32.1146C34.0677 32.0779 34.0362 32.0508 33.9991 32.0508H32.5052C32.461 32.0508 32.4265 32.0887 32.4305 32.1327L32.517 33.0725C32.5206 33.1111 32.5529 33.1406 32.5917 33.1406H34.1412C34.1871 33.1406 34.2222 33.0998 34.2153 33.0544L34.0732 32.1146Z" fill="url(#paint60_linear_14794_10623)" fill-opacity="0.8"/>
<path d="M34.0732 32.1146C34.0677 32.0779 34.0362 32.0508 33.9991 32.0508H32.5052C32.461 32.0508 32.4265 32.0887 32.4305 32.1327L32.517 33.0725C32.5206 33.1111 32.5529 33.1406 32.5917 33.1406H34.1412C34.1871 33.1406 34.2222 33.0998 34.2153 33.0544L34.0732 32.1146Z" fill="url(#paint61_linear_14794_10623)" fill-opacity="0.8"/>
</g>
<g id="Rectangle 655">
<path d="M16.5204 32.1185C16.5242 32.0801 16.5565 32.0508 16.5951 32.0508H18.0898C18.1323 32.0508 18.1663 32.0861 18.1647 32.1287L18.1287 33.0627C18.1272 33.1029 18.0941 33.1348 18.0538 33.1348H16.5036C16.4593 33.1348 16.4246 33.0966 16.429 33.0525L16.5204 32.1185Z" fill="#D7D3E6"/>
<path d="M16.5204 32.1185C16.5242 32.0801 16.5565 32.0508 16.5951 32.0508H18.0898C18.1323 32.0508 18.1663 32.0861 18.1647 32.1287L18.1287 33.0627C18.1272 33.1029 18.0941 33.1348 18.0538 33.1348H16.5036C16.4593 33.1348 16.4246 33.0966 16.429 33.0525L16.5204 32.1185Z" fill="url(#paint62_linear_14794_10623)"/>
<path d="M16.5204 32.1185C16.5242 32.0801 16.5565 32.0508 16.5951 32.0508H18.0898C18.1323 32.0508 18.1663 32.0861 18.1647 32.1287L18.1287 33.0627C18.1272 33.1029 18.0941 33.1348 18.0538 33.1348H16.5036C16.4593 33.1348 16.4246 33.0966 16.429 33.0525L16.5204 32.1185Z" fill="url(#paint63_linear_14794_10623)" fill-opacity="0.8"/>
<path d="M16.5204 32.1185C16.5242 32.0801 16.5565 32.0508 16.5951 32.0508H18.0898C18.1323 32.0508 18.1663 32.0861 18.1647 32.1287L18.1287 33.0627C18.1272 33.1029 18.0941 33.1348 18.0538 33.1348H16.5036C16.4593 33.1348 16.4246 33.0966 16.429 33.0525L16.5204 32.1185Z" fill="url(#paint64_linear_14794_10623)" fill-opacity="0.8"/>
</g>
<g id="Rectangle 669">
<path d="M31.4517 32.1185C31.4479 32.0801 31.4156 32.0508 31.377 32.0508H29.8824C29.8398 32.0508 29.8058 32.0861 29.8074 32.1287L29.8434 33.0627C29.8449 33.1029 29.878 33.1348 29.9183 33.1348H31.4685C31.5128 33.1348 31.5475 33.0966 31.5432 33.0525L31.4517 32.1185Z" fill="#D7D3E6"/>
<path d="M31.4517 32.1185C31.4479 32.0801 31.4156 32.0508 31.377 32.0508H29.8824C29.8398 32.0508 29.8058 32.0861 29.8074 32.1287L29.8434 33.0627C29.8449 33.1029 29.878 33.1348 29.9183 33.1348H31.4685C31.5128 33.1348 31.5475 33.0966 31.5432 33.0525L31.4517 32.1185Z" fill="url(#paint65_linear_14794_10623)"/>
<path d="M31.4517 32.1185C31.4479 32.0801 31.4156 32.0508 31.377 32.0508H29.8824C29.8398 32.0508 29.8058 32.0861 29.8074 32.1287L29.8434 33.0627C29.8449 33.1029 29.878 33.1348 29.9183 33.1348H31.4685C31.5128 33.1348 31.5475 33.0966 31.5432 33.0525L31.4517 32.1185Z" fill="url(#paint66_linear_14794_10623)" fill-opacity="0.8"/>
<path d="M31.4517 32.1185C31.4479 32.0801 31.4156 32.0508 31.377 32.0508H29.8824C29.8398 32.0508 29.8058 32.0861 29.8074 32.1287L29.8434 33.0627C29.8449 33.1029 29.878 33.1348 29.9183 33.1348H31.4685C31.5128 33.1348 31.5475 33.0966 31.5432 33.0525L31.4517 32.1185Z" fill="url(#paint67_linear_14794_10623)" fill-opacity="0.8"/>
</g>
<g id="Rectangle 658">
<path d="M19.182 32.1205C19.1848 32.0812 19.2175 32.0508 19.2568 32.0508H20.7517C20.7935 32.0508 20.8272 32.0849 20.8267 32.1266L20.8166 33.0606C20.8162 33.1017 20.7828 33.1348 20.7416 33.1348H19.1912C19.1477 33.1348 19.1134 33.0979 19.1164 33.0545L19.182 32.1205Z" fill="#D7D3E6"/>
<path d="M19.182 32.1205C19.1848 32.0812 19.2175 32.0508 19.2568 32.0508H20.7517C20.7935 32.0508 20.8272 32.0849 20.8267 32.1266L20.8166 33.0606C20.8162 33.1017 20.7828 33.1348 20.7416 33.1348H19.1912C19.1477 33.1348 19.1134 33.0979 19.1164 33.0545L19.182 32.1205Z" fill="url(#paint68_linear_14794_10623)"/>
<path d="M19.182 32.1205C19.1848 32.0812 19.2175 32.0508 19.2568 32.0508H20.7517C20.7935 32.0508 20.8272 32.0849 20.8267 32.1266L20.8166 33.0606C20.8162 33.1017 20.7828 33.1348 20.7416 33.1348H19.1912C19.1477 33.1348 19.1134 33.0979 19.1164 33.0545L19.182 32.1205Z" fill="url(#paint69_linear_14794_10623)" fill-opacity="0.8"/>
<path d="M19.182 32.1205C19.1848 32.0812 19.2175 32.0508 19.2568 32.0508H20.7517C20.7935 32.0508 20.8272 32.0849 20.8267 32.1266L20.8166 33.0606C20.8162 33.1017 20.7828 33.1348 20.7416 33.1348H19.1912C19.1477 33.1348 19.1134 33.0979 19.1164 33.0545L19.182 32.1205Z" fill="url(#paint70_linear_14794_10623)" fill-opacity="0.8"/>
</g>
<g id="Rectangle 670">
<path d="M28.7897 32.1205C28.787 32.0812 28.7543 32.0508 28.7149 32.0508H27.22C27.1783 32.0508 27.1446 32.0849 27.145 32.1266L27.1551 33.0606C27.1556 33.1017 27.189 33.1348 27.2301 33.1348H28.7805C28.824 33.1348 28.8584 33.0979 28.8554 33.0545L28.7897 32.1205Z" fill="#D7D3E6"/>
<path d="M28.7897 32.1205C28.787 32.0812 28.7543 32.0508 28.7149 32.0508H27.22C27.1783 32.0508 27.1446 32.0849 27.145 32.1266L27.1551 33.0606C27.1556 33.1017 27.189 33.1348 27.2301 33.1348H28.7805C28.824 33.1348 28.8584 33.0979 28.8554 33.0545L28.7897 32.1205Z" fill="url(#paint71_linear_14794_10623)"/>
<path d="M28.7897 32.1205C28.787 32.0812 28.7543 32.0508 28.7149 32.0508H27.22C27.1783 32.0508 27.1446 32.0849 27.145 32.1266L27.1551 33.0606C27.1556 33.1017 27.189 33.1348 27.2301 33.1348H28.7805C28.824 33.1348 28.8584 33.0979 28.8554 33.0545L28.7897 32.1205Z" fill="url(#paint72_linear_14794_10623)" fill-opacity="0.8"/>
<path d="M28.7897 32.1205C28.787 32.0812 28.7543 32.0508 28.7149 32.0508H27.22C27.1783 32.0508 27.1446 32.0849 27.145 32.1266L27.1551 33.0606C27.1556 33.1017 27.189 33.1348 27.2301 33.1348H28.7805C28.824 33.1348 28.8584 33.0979 28.8554 33.0545L28.7897 32.1205Z" fill="url(#paint73_linear_14794_10623)" fill-opacity="0.8"/>
</g>
<g id="Rectangle 660">
<path d="M21.8474 32.1258C21.8474 32.0844 21.881 32.0508 21.9224 32.0508H23.413C23.4545 32.0508 23.488 32.0844 23.488 32.1258V33.0598C23.488 33.1012 23.4545 33.1348 23.413 33.1348H21.9224C21.881 33.1348 21.8474 33.1012 21.8474 33.0598V32.1258Z" fill="#D7D3E6"/>
<path d="M21.8474 32.1258C21.8474 32.0844 21.881 32.0508 21.9224 32.0508H23.413C23.4545 32.0508 23.488 32.0844 23.488 32.1258V33.0598C23.488 33.1012 23.4545 33.1348 23.413 33.1348H21.9224C21.881 33.1348 21.8474 33.1012 21.8474 33.0598V32.1258Z" fill="url(#paint74_linear_14794_10623)"/>
<path d="M21.8474 32.1258C21.8474 32.0844 21.881 32.0508 21.9224 32.0508H23.413C23.4545 32.0508 23.488 32.0844 23.488 32.1258V33.0598C23.488 33.1012 23.4545 33.1348 23.413 33.1348H21.9224C21.881 33.1348 21.8474 33.1012 21.8474 33.0598V32.1258Z" fill="url(#paint75_linear_14794_10623)" fill-opacity="0.8"/>
<path d="M21.8474 32.1258C21.8474 32.0844 21.881 32.0508 21.9224 32.0508H23.413C23.4545 32.0508 23.488 32.0844 23.488 32.1258V33.0598C23.488 33.1012 23.4545 33.1348 23.413 33.1348H21.9224C21.881 33.1348 21.8474 33.1012 21.8474 33.0598V32.1258Z" fill="url(#paint76_linear_14794_10623)" fill-opacity="0.8"/>
</g>
<g id="Rectangle 661">
<path d="M21.8474 33.8221C21.8474 33.7806 21.881 33.7471 21.9224 33.7471H23.413C23.4545 33.7471 23.488 33.7806 23.488 33.8221V34.7561C23.488 34.7975 23.4545 34.8311 23.413 34.8311H21.9224C21.881 34.8311 21.8474 34.7975 21.8474 34.7561V33.8221Z" fill="#D7D3E6"/>
<path d="M21.8474 33.8221C21.8474 33.7806 21.881 33.7471 21.9224 33.7471H23.413C23.4545 33.7471 23.488 33.7806 23.488 33.8221V34.7561C23.488 34.7975 23.4545 34.8311 23.413 34.8311H21.9224C21.881 34.8311 21.8474 34.7975 21.8474 34.7561V33.8221Z" fill="url(#paint77_linear_14794_10623)"/>
<path d="M21.8474 33.8221C21.8474 33.7806 21.881 33.7471 21.9224 33.7471H23.413C23.4545 33.7471 23.488 33.7806 23.488 33.8221V34.7561C23.488 34.7975 23.4545 34.8311 23.413 34.8311H21.9224C21.881 34.8311 21.8474 34.7975 21.8474 34.7561V33.8221Z" fill="url(#paint78_linear_14794_10623)" fill-opacity="0.8"/>
<path d="M21.8474 33.8221C21.8474 33.7806 21.881 33.7471 21.9224 33.7471H23.413C23.4545 33.7471 23.488 33.7806 23.488 33.8221V34.7561C23.488 34.7975 23.4545 34.8311 23.413 34.8311H21.9224C21.881 34.8311 21.8474 34.7975 21.8474 34.7561V33.8221Z" fill="url(#paint79_linear_14794_10623)" fill-opacity="0.8"/>
</g>
<g id="Rectangle 676">
<path d="M24.4958 32.1258C24.4958 32.0844 24.5294 32.0508 24.5708 32.0508H26.0615C26.1029 32.0508 26.1365 32.0844 26.1365 32.1258V33.0598C26.1365 33.1012 26.1029 33.1348 26.0615 33.1348H24.5708C24.5294 33.1348 24.4958 33.1012 24.4958 33.0598V32.1258Z" fill="#D7D3E6"/>
<path d="M24.4958 32.1258C24.4958 32.0844 24.5294 32.0508 24.5708 32.0508H26.0615C26.1029 32.0508 26.1365 32.0844 26.1365 32.1258V33.0598C26.1365 33.1012 26.1029 33.1348 26.0615 33.1348H24.5708C24.5294 33.1348 24.4958 33.1012 24.4958 33.0598V32.1258Z" fill="url(#paint80_linear_14794_10623)"/>
<path d="M24.4958 32.1258C24.4958 32.0844 24.5294 32.0508 24.5708 32.0508H26.0615C26.1029 32.0508 26.1365 32.0844 26.1365 32.1258V33.0598C26.1365 33.1012 26.1029 33.1348 26.0615 33.1348H24.5708C24.5294 33.1348 24.4958 33.1012 24.4958 33.0598V32.1258Z" fill="url(#paint81_linear_14794_10623)" fill-opacity="0.8"/>
<path d="M24.4958 32.1258C24.4958 32.0844 24.5294 32.0508 24.5708 32.0508H26.0615C26.1029 32.0508 26.1365 32.0844 26.1365 32.1258V33.0598C26.1365 33.1012 26.1029 33.1348 26.0615 33.1348H24.5708C24.5294 33.1348 24.4958 33.1012 24.4958 33.0598V32.1258Z" fill="url(#paint82_linear_14794_10623)" fill-opacity="0.8"/>
</g>
<g id="Rectangle 677">
<path d="M24.4958 33.8221C24.4958 33.7806 24.5294 33.7471 24.5708 33.7471H26.0615C26.1029 33.7471 26.1365 33.7806 26.1365 33.8221V34.7561C26.1365 34.7975 26.1029 34.8311 26.0615 34.8311H24.5708C24.5294 34.8311 24.4958 34.7975 24.4958 34.7561V33.8221Z" fill="#D7D3E6"/>
<path d="M24.4958 33.8221C24.4958 33.7806 24.5294 33.7471 24.5708 33.7471H26.0615C26.1029 33.7471 26.1365 33.7806 26.1365 33.8221V34.7561C26.1365 34.7975 26.1029 34.8311 26.0615 34.8311H24.5708C24.5294 34.8311 24.4958 34.7975 24.4958 34.7561V33.8221Z" fill="url(#paint83_linear_14794_10623)"/>
<path d="M24.4958 33.8221C24.4958 33.7806 24.5294 33.7471 24.5708 33.7471H26.0615C26.1029 33.7471 26.1365 33.7806 26.1365 33.8221V34.7561C26.1365 34.7975 26.1029 34.8311 26.0615 34.8311H24.5708C24.5294 34.8311 24.4958 34.7975 24.4958 34.7561V33.8221Z" fill="url(#paint84_linear_14794_10623)" fill-opacity="0.8"/>
<path d="M24.4958 33.8221C24.4958 33.7806 24.5294 33.7471 24.5708 33.7471H26.0615C26.1029 33.7471 26.1365 33.7806 26.1365 33.8221V34.7561C26.1365 34.7975 26.1029 34.8311 26.0615 34.8311H24.5708C24.5294 34.8311 24.4958 34.7975 24.4958 34.7561V33.8221Z" fill="url(#paint85_linear_14794_10623)" fill-opacity="0.8"/>
</g>
<g id="Rectangle 656">
<path d="M16.3912 33.8239C16.3948 33.7854 16.4272 33.7559 16.4659 33.7559H17.9607C18.0031 33.7559 18.037 33.7909 18.0357 33.8333L18.0061 34.7497C18.0048 34.7901 17.9716 34.8223 17.9311 34.8223H16.3809C16.3368 34.8223 16.3022 34.7843 16.3062 34.7403L16.3912 33.8239Z" fill="#D7D3E6"/>
<path d="M16.3912 33.8239C16.3948 33.7854 16.4272 33.7559 16.4659 33.7559H17.9607C18.0031 33.7559 18.037 33.7909 18.0357 33.8333L18.0061 34.7497C18.0048 34.7901 17.9716 34.8223 17.9311 34.8223H16.3809C16.3368 34.8223 16.3022 34.7843 16.3062 34.7403L16.3912 33.8239Z" fill="url(#paint86_linear_14794_10623)"/>
<path d="M16.3912 33.8239C16.3948 33.7854 16.4272 33.7559 16.4659 33.7559H17.9607C18.0031 33.7559 18.037 33.7909 18.0357 33.8333L18.0061 34.7497C18.0048 34.7901 17.9716 34.8223 17.9311 34.8223H16.3809C16.3368 34.8223 16.3022 34.7843 16.3062 34.7403L16.3912 33.8239Z" fill="url(#paint87_linear_14794_10623)" fill-opacity="0.8"/>
<path d="M16.3912 33.8239C16.3948 33.7854 16.4272 33.7559 16.4659 33.7559H17.9607C18.0031 33.7559 18.037 33.7909 18.0357 33.8333L18.0061 34.7497C18.0048 34.7901 17.9716 34.8223 17.9311 34.8223H16.3809C16.3368 34.8223 16.3022 34.7843 16.3062 34.7403L16.3912 33.8239Z" fill="url(#paint88_linear_14794_10623)" fill-opacity="0.8"/>
</g>
<g id="Rectangle 671">
<path d="M31.5808 33.8239C31.5772 33.7854 31.5448 33.7559 31.5061 33.7559H30.0113C29.9689 33.7559 29.935 33.7909 29.9363 33.8333L29.9659 34.7497C29.9672 34.7901 30.0004 34.8223 30.0409 34.8223H31.5911C31.6352 34.8223 31.6698 34.7843 31.6658 34.7403L31.5808 33.8239Z" fill="#D7D3E6"/>
<path d="M31.5808 33.8239C31.5772 33.7854 31.5448 33.7559 31.5061 33.7559H30.0113C29.9689 33.7559 29.935 33.7909 29.9363 33.8333L29.9659 34.7497C29.9672 34.7901 30.0004 34.8223 30.0409 34.8223H31.5911C31.6352 34.8223 31.6698 34.7843 31.6658 34.7403L31.5808 33.8239Z" fill="url(#paint89_linear_14794_10623)"/>
<path d="M31.5808 33.8239C31.5772 33.7854 31.5448 33.7559 31.5061 33.7559H30.0113C29.9689 33.7559 29.935 33.7909 29.9363 33.8333L29.9659 34.7497C29.9672 34.7901 30.0004 34.8223 30.0409 34.8223H31.5911C31.6352 34.8223 31.6698 34.7843 31.6658 34.7403L31.5808 33.8239Z" fill="url(#paint90_linear_14794_10623)" fill-opacity="0.8"/>
<path d="M31.5808 33.8239C31.5772 33.7854 31.5448 33.7559 31.5061 33.7559H30.0113C29.9689 33.7559 29.935 33.7909 29.9363 33.8333L29.9659 34.7497C29.9672 34.7901 30.0004 34.8223 30.0409 34.8223H31.5911C31.6352 34.8223 31.6698 34.7843 31.6658 34.7403L31.5808 33.8239Z" fill="url(#paint91_linear_14794_10623)" fill-opacity="0.8"/>
</g>
<g id="Rectangle 653">
<path d="M13.6934 33.8211C13.6983 33.7838 13.7301 33.7559 13.7677 33.7559H15.2621C15.3056 33.7559 15.3399 33.7928 15.3369 33.8362L15.272 34.7496C15.2692 34.7889 15.2366 34.8193 15.1972 34.8193H13.6475C13.6022 34.8193 13.5673 34.7795 13.5732 34.7346L13.6934 33.8211Z" fill="#D7D3E6"/>
<path d="M13.6934 33.8211C13.6983 33.7838 13.7301 33.7559 13.7677 33.7559H15.2621C15.3056 33.7559 15.3399 33.7928 15.3369 33.8362L15.272 34.7496C15.2692 34.7889 15.2366 34.8193 15.1972 34.8193H13.6475C13.6022 34.8193 13.5673 34.7795 13.5732 34.7346L13.6934 33.8211Z" fill="url(#paint92_linear_14794_10623)"/>
<path d="M13.6934 33.8211C13.6983 33.7838 13.7301 33.7559 13.7677 33.7559H15.2621C15.3056 33.7559 15.3399 33.7928 15.3369 33.8362L15.272 34.7496C15.2692 34.7889 15.2366 34.8193 15.1972 34.8193H13.6475C13.6022 34.8193 13.5673 34.7795 13.5732 34.7346L13.6934 33.8211Z" fill="url(#paint93_linear_14794_10623)" fill-opacity="0.8"/>
<path d="M13.6934 33.8211C13.6983 33.7838 13.7301 33.7559 13.7677 33.7559H15.2621C15.3056 33.7559 15.3399 33.7928 15.3369 33.8362L15.272 34.7496C15.2692 34.7889 15.2366 34.8193 15.1972 34.8193H13.6475C13.6022 34.8193 13.5673 34.7795 13.5732 34.7346L13.6934 33.8211Z" fill="url(#paint94_linear_14794_10623)" fill-opacity="0.8"/>
</g>
<g id="Rectangle 672">
<path d="M34.2786 33.8211C34.2737 33.7838 34.2419 33.7559 34.2042 33.7559H32.7099C32.6664 33.7559 32.632 33.7928 32.6351 33.8362L32.6999 34.7496C32.7027 34.7889 32.7354 34.8193 32.7747 34.8193H34.3244C34.3697 34.8193 34.4047 34.7795 34.3988 34.7346L34.2786 33.8211Z" fill="#D7D3E6"/>
<path d="M34.2786 33.8211C34.2737 33.7838 34.2419 33.7559 34.2042 33.7559H32.7099C32.6664 33.7559 32.632 33.7928 32.6351 33.8362L32.6999 34.7496C32.7027 34.7889 32.7354 34.8193 32.7747 34.8193H34.3244C34.3697 34.8193 34.4047 34.7795 34.3988 34.7346L34.2786 33.8211Z" fill="url(#paint95_linear_14794_10623)"/>
<path d="M34.2786 33.8211C34.2737 33.7838 34.2419 33.7559 34.2042 33.7559H32.7099C32.6664 33.7559 32.632 33.7928 32.6351 33.8362L32.6999 34.7496C32.7027 34.7889 32.7354 34.8193 32.7747 34.8193H34.3244C34.3697 34.8193 34.4047 34.7795 34.3988 34.7346L34.2786 33.8211Z" fill="url(#paint96_linear_14794_10623)" fill-opacity="0.8"/>
<path d="M34.2786 33.8211C34.2737 33.7838 34.2419 33.7559 34.2042 33.7559H32.7099C32.6664 33.7559 32.632 33.7928 32.6351 33.8362L32.6999 34.7496C32.7027 34.7889 32.7354 34.8193 32.7747 34.8193H34.3244C34.3697 34.8193 34.4047 34.7795 34.3988 34.7346L34.2786 33.8211Z" fill="url(#paint97_linear_14794_10623)" fill-opacity="0.8"/>
</g>
<g id="Rectangle 659">
<path d="M19.1058 33.8263C19.1082 33.7867 19.141 33.7559 19.1807 33.7559H20.6757C20.7171 33.7559 20.7507 33.7894 20.7507 33.8309V34.7473C20.7507 34.7887 20.7171 34.8223 20.6757 34.8223H19.1253C19.0821 34.8223 19.0478 34.7859 19.0504 34.7427L19.1058 33.8263Z" fill="#D7D3E6"/>
<path d="M19.1058 33.8263C19.1082 33.7867 19.141 33.7559 19.1807 33.7559H20.6757C20.7171 33.7559 20.7507 33.7894 20.7507 33.8309V34.7473C20.7507 34.7887 20.7171 34.8223 20.6757 34.8223H19.1253C19.0821 34.8223 19.0478 34.7859 19.0504 34.7427L19.1058 33.8263Z" fill="url(#paint98_linear_14794_10623)"/>
<path d="M19.1058 33.8263C19.1082 33.7867 19.141 33.7559 19.1807 33.7559H20.6757C20.7171 33.7559 20.7507 33.7894 20.7507 33.8309V34.7473C20.7507 34.7887 20.7171 34.8223 20.6757 34.8223H19.1253C19.0821 34.8223 19.0478 34.7859 19.0504 34.7427L19.1058 33.8263Z" fill="url(#paint99_linear_14794_10623)" fill-opacity="0.8"/>
<path d="M19.1058 33.8263C19.1082 33.7867 19.141 33.7559 19.1807 33.7559H20.6757C20.7171 33.7559 20.7507 33.7894 20.7507 33.8309V34.7473C20.7507 34.7887 20.7171 34.8223 20.6757 34.8223H19.1253C19.0821 34.8223 19.0478 34.7859 19.0504 34.7427L19.1058 33.8263Z" fill="url(#paint100_linear_14794_10623)" fill-opacity="0.8"/>
</g>
<g id="Rectangle 673">
<path d="M28.8661 33.8263C28.8637 33.7867 28.8309 33.7559 28.7912 33.7559H27.2962C27.2548 33.7559 27.2212 33.7894 27.2212 33.8309V34.7473C27.2212 34.7887 27.2548 34.8223 27.2962 34.8223H28.8466C28.8898 34.8223 28.9241 34.7859 28.9215 34.7427L28.8661 33.8263Z" fill="#D7D3E6"/>
<path d="M28.8661 33.8263C28.8637 33.7867 28.8309 33.7559 28.7912 33.7559H27.2962C27.2548 33.7559 27.2212 33.7894 27.2212 33.8309V34.7473C27.2212 34.7887 27.2548 34.8223 27.2962 34.8223H28.8466C28.8898 34.8223 28.9241 34.7859 28.9215 34.7427L28.8661 33.8263Z" fill="url(#paint101_linear_14794_10623)"/>
<path d="M28.8661 33.8263C28.8637 33.7867 28.8309 33.7559 28.7912 33.7559H27.2962C27.2548 33.7559 27.2212 33.7894 27.2212 33.8309V34.7473C27.2212 34.7887 27.2548 34.8223 27.2962 34.8223H28.8466C28.8898 34.8223 28.9241 34.7859 28.9215 34.7427L28.8661 33.8263Z" fill="url(#paint102_linear_14794_10623)" fill-opacity="0.8"/>
<path d="M28.8661 33.8263C28.8637 33.7867 28.8309 33.7559 28.7912 33.7559H27.2962C27.2548 33.7559 27.2212 33.7894 27.2212 33.8309V34.7473C27.2212 34.7887 27.2548 34.8223 27.2962 34.8223H28.8466C28.8898 34.8223 28.9241 34.7859 28.9215 34.7427L28.8661 33.8263Z" fill="url(#paint103_linear_14794_10623)" fill-opacity="0.8"/>
</g>
<g id="Rectangle 654">
<path d="M13.4251 35.5559C13.4298 35.5184 13.4617 35.4902 13.4995 35.4902H15.0464C15.0898 35.4902 15.1242 35.527 15.1212 35.5703L15.0552 36.5395C15.0525 36.5788 15.0198 36.6094 14.9804 36.6094H13.3776C13.3325 36.6094 13.2976 36.5698 13.3032 36.525L13.4251 35.5559Z" fill="#D7D3E6"/>
<path d="M13.4251 35.5559C13.4298 35.5184 13.4617 35.4902 13.4995 35.4902H15.0464C15.0898 35.4902 15.1242 35.527 15.1212 35.5703L15.0552 36.5395C15.0525 36.5788 15.0198 36.6094 14.9804 36.6094H13.3776C13.3325 36.6094 13.2976 36.5698 13.3032 36.525L13.4251 35.5559Z" fill="url(#paint104_linear_14794_10623)"/>
<path d="M13.4251 35.5559C13.4298 35.5184 13.4617 35.4902 13.4995 35.4902H15.0464C15.0898 35.4902 15.1242 35.527 15.1212 35.5703L15.0552 36.5395C15.0525 36.5788 15.0198 36.6094 14.9804 36.6094H13.3776C13.3325 36.6094 13.2976 36.5698 13.3032 36.525L13.4251 35.5559Z" fill="url(#paint105_linear_14794_10623)" fill-opacity="0.8"/>
<path d="M13.4251 35.5559C13.4298 35.5184 13.4617 35.4902 13.4995 35.4902H15.0464C15.0898 35.4902 15.1242 35.527 15.1212 35.5703L15.0552 36.5395C15.0525 36.5788 15.0198 36.6094 14.9804 36.6094H13.3776C13.3325 36.6094 13.2976 36.5698 13.3032 36.525L13.4251 35.5559Z" fill="url(#paint106_linear_14794_10623)" fill-opacity="0.8"/>
</g>
<g id="Rectangle 674">
<path d="M34.5469 35.5559C34.5422 35.5184 34.5103 35.4902 34.4725 35.4902H32.9256C32.8822 35.4902 32.8478 35.527 32.8508 35.5703L32.9168 36.5395C32.9195 36.5788 32.9522 36.6094 32.9916 36.6094H34.5944C34.6395 36.6094 34.6744 36.5698 34.6688 36.525L34.5469 35.5559Z" fill="#D7D3E6"/>
<path d="M34.5469 35.5559C34.5422 35.5184 34.5103 35.4902 34.4725 35.4902H32.9256C32.8822 35.4902 32.8478 35.527 32.8508 35.5703L32.9168 36.5395C32.9195 36.5788 32.9522 36.6094 32.9916 36.6094H34.5944C34.6395 36.6094 34.6744 36.5698 34.6688 36.525L34.5469 35.5559Z" fill="url(#paint107_linear_14794_10623)"/>
<path d="M34.5469 35.5559C34.5422 35.5184 34.5103 35.4902 34.4725 35.4902H32.9256C32.8822 35.4902 32.8478 35.527 32.8508 35.5703L32.9168 36.5395C32.9195 36.5788 32.9522 36.6094 32.9916 36.6094H34.5944C34.6395 36.6094 34.6744 36.5698 34.6688 36.525L34.5469 35.5559Z" fill="url(#paint108_linear_14794_10623)" fill-opacity="0.8"/>
<path d="M34.5469 35.5559C34.5422 35.5184 34.5103 35.4902 34.4725 35.4902H32.9256C32.8822 35.4902 32.8478 35.527 32.8508 35.5703L32.9168 36.5395C32.9195 36.5788 32.9522 36.6094 32.9916 36.6094H34.5944C34.6395 36.6094 34.6744 36.5698 34.6688 36.525L34.5469 35.5559Z" fill="url(#paint109_linear_14794_10623)" fill-opacity="0.8"/>
</g>
<g id="Rectangle 657">
<path d="M16.2226 35.559C16.2259 35.5201 16.2584 35.4902 16.2974 35.4902H17.8448C17.887 35.4902 17.9209 35.525 17.9197 35.5672L17.8943 36.5363C17.8932 36.577 17.86 36.6094 17.8193 36.6094H16.2161C16.1722 36.6094 16.1377 36.5718 16.1414 36.5281L16.2226 35.559Z" fill="#D7D3E6"/>
<path d="M16.2226 35.559C16.2259 35.5201 16.2584 35.4902 16.2974 35.4902H17.8448C17.887 35.4902 17.9209 35.525 17.9197 35.5672L17.8943 36.5363C17.8932 36.577 17.86 36.6094 17.8193 36.6094H16.2161C16.1722 36.6094 16.1377 36.5718 16.1414 36.5281L16.2226 35.559Z" fill="url(#paint110_linear_14794_10623)"/>
<path d="M16.2226 35.559C16.2259 35.5201 16.2584 35.4902 16.2974 35.4902H17.8448C17.887 35.4902 17.9209 35.525 17.9197 35.5672L17.8943 36.5363C17.8932 36.577 17.86 36.6094 17.8193 36.6094H16.2161C16.1722 36.6094 16.1377 36.5718 16.1414 36.5281L16.2226 35.559Z" fill="url(#paint111_linear_14794_10623)" fill-opacity="0.8"/>
<path d="M16.2226 35.559C16.2259 35.5201 16.2584 35.4902 16.2974 35.4902H17.8448C17.887 35.4902 17.9209 35.525 17.9197 35.5672L17.8943 36.5363C17.8932 36.577 17.86 36.6094 17.8193 36.6094H16.2161C16.1722 36.6094 16.1377 36.5718 16.1414 36.5281L16.2226 35.559Z" fill="url(#paint112_linear_14794_10623)" fill-opacity="0.8"/>
</g>
<g id="Rectangle 675">
<path d="M31.7495 35.559C31.7462 35.5201 31.7138 35.4902 31.6748 35.4902H30.1274C30.0852 35.4902 30.0513 35.525 30.0524 35.5672L30.0778 36.5363C30.0789 36.577 30.1122 36.6094 30.1528 36.6094H31.756C31.7999 36.6094 31.8344 36.5718 31.8308 36.5281L31.7495 35.559Z" fill="#D7D3E6"/>
<path d="M31.7495 35.559C31.7462 35.5201 31.7138 35.4902 31.6748 35.4902H30.1274C30.0852 35.4902 30.0513 35.525 30.0524 35.5672L30.0778 36.5363C30.0789 36.577 30.1122 36.6094 30.1528 36.6094H31.756C31.7999 36.6094 31.8344 36.5718 31.8308 36.5281L31.7495 35.559Z" fill="url(#paint113_linear_14794_10623)"/>
<path d="M31.7495 35.559C31.7462 35.5201 31.7138 35.4902 31.6748 35.4902H30.1274C30.0852 35.4902 30.0513 35.525 30.0524 35.5672L30.0778 36.5363C30.0789 36.577 30.1122 36.6094 30.1528 36.6094H31.756C31.7999 36.6094 31.8344 36.5718 31.8308 36.5281L31.7495 35.559Z" fill="url(#paint114_linear_14794_10623)" fill-opacity="0.8"/>
<path d="M31.7495 35.559C31.7462 35.5201 31.7138 35.4902 31.6748 35.4902H30.1274C30.0852 35.4902 30.0513 35.525 30.0524 35.5672L30.0778 36.5363C30.0789 36.577 30.1122 36.6094 30.1528 36.6094H31.756C31.7999 36.6094 31.8344 36.5718 31.8308 36.5281L31.7495 35.559Z" fill="url(#paint115_linear_14794_10623)" fill-opacity="0.8"/>
</g>
<g id="Rectangle 678">
<path d="M19.099 35.55C19.1009 35.51 19.1339 35.4785 19.174 35.4785H28.7804C28.8206 35.4785 28.8537 35.5102 28.8554 35.5504L28.896 36.5313C28.8978 36.5739 28.8637 36.6094 28.8211 36.6094H19.1282C19.0854 36.6094 19.0513 36.5736 19.0533 36.5309L19.099 35.55Z" fill="#D7D3E6"/>
<path d="M19.099 35.55C19.1009 35.51 19.1339 35.4785 19.174 35.4785H28.7804C28.8206 35.4785 28.8537 35.5102 28.8554 35.5504L28.896 36.5313C28.8978 36.5739 28.8637 36.6094 28.8211 36.6094H19.1282C19.0854 36.6094 19.0513 36.5736 19.0533 36.5309L19.099 35.55Z" fill="url(#paint116_linear_14794_10623)"/>
<path d="M19.099 35.55C19.1009 35.51 19.1339 35.4785 19.174 35.4785H28.7804C28.8206 35.4785 28.8537 35.5102 28.8554 35.5504L28.896 36.5313C28.8978 36.5739 28.8637 36.6094 28.8211 36.6094H19.1282C19.0854 36.6094 19.0513 36.5736 19.0533 36.5309L19.099 35.55Z" fill="url(#paint117_linear_14794_10623)" fill-opacity="0.8"/>
<path d="M19.099 35.55C19.1009 35.51 19.1339 35.4785 19.174 35.4785H28.7804C28.8206 35.4785 28.8537 35.5102 28.8554 35.5504L28.896 36.5313C28.8978 36.5739 28.8637 36.6094 28.8211 36.6094H19.1282C19.0854 36.6094 19.0513 36.5736 19.0533 36.5309L19.099 35.55Z" fill="url(#paint118_linear_14794_10623)" fill-opacity="0.8"/>
</g>
</g>
<defs>
<linearGradient id="paint0_linear_14794_10623" x1="24.0086" y1="29.8593" x2="24.0086" y2="43.5761" gradientUnits="userSpaceOnUse">
<stop stop-color="#C9C6DA"/>
<stop offset="1" stop-color="#DAD5E4"/>
</linearGradient>
<linearGradient id="paint1_linear_14794_10623" x1="24.0086" y1="42.7573" x2="24.0086" y2="44.0025" gradientUnits="userSpaceOnUse">
<stop offset="0.404707" stop-color="#C9C6DA" stop-opacity="0"/>
<stop offset="0.551408" stop-color="#D1CBDB"/>
<stop offset="0.699958" stop-color="#C9C3D2"/>
</linearGradient>
<linearGradient id="paint2_linear_14794_10623" x1="41.1827" y1="37.7753" x2="44.9997" y2="36.9479" gradientUnits="userSpaceOnUse">
<stop offset="0.533384" stop-color="#C9C6DA" stop-opacity="0"/>
<stop offset="0.620254" stop-color="#D1CBDB"/>
<stop offset="0.699958" stop-color="#C9C3D2"/>
</linearGradient>
<linearGradient id="paint3_linear_14794_10623" x1="6.48666" y1="36.9594" x2="3.46995" y2="36.3493" gradientUnits="userSpaceOnUse">
<stop offset="0.533384" stop-color="#C9C6DA" stop-opacity="0"/>
<stop offset="0.620254" stop-color="#D1CBDB"/>
<stop offset="0.699958" stop-color="#C9C3D2"/>
</linearGradient>
<linearGradient id="paint4_linear_14794_10623" x1="4.82553" y1="41.7896" x2="2.56704" y2="43.5986" gradientUnits="userSpaceOnUse">
<stop offset="0.530554" stop-color="#C9C6DA" stop-opacity="0"/>
<stop offset="0.667944" stop-color="#BEB7CB"/>
</linearGradient>
<linearGradient id="paint5_linear_14794_10623" x1="43.541" y1="42.4277" x2="44.69" y2="44.0612" gradientUnits="userSpaceOnUse">
<stop offset="0.452035" stop-color="#C9C6DA" stop-opacity="0"/>
<stop offset="0.667944" stop-color="#BEB7CB"/>
</linearGradient>
<linearGradient id="paint6_linear_14794_10623" x1="38.0652" y1="3.79687" x2="23.4402" y2="28.7812" gradientUnits="userSpaceOnUse">
<stop offset="0.411199" stop-color="#6863AC"/>
<stop offset="1" stop-color="#574974"/>
</linearGradient>
<linearGradient id="paint7_linear_14794_10623" x1="23.986" y1="29.2969" x2="23.986" y2="29.8594" gradientUnits="userSpaceOnUse">
<stop stop-color="#534370" stop-opacity="0"/>
<stop offset="1" stop-color="#483E5B"/>
</linearGradient>
<linearGradient id="paint8_linear_14794_10623" x1="41.2641" y1="18.3087" x2="42.7659" y2="18.3087" gradientUnits="userSpaceOnUse">
<stop offset="0.16906" stop-color="#7B76BB" stop-opacity="0"/>
<stop offset="0.492458" stop-color="#7B76BB"/>
</linearGradient>
<linearGradient id="paint9_linear_14794_10623" x1="23.9859" y1="3.54912" x2="23.9859" y2="2.31889" gradientUnits="userSpaceOnUse">
<stop offset="0.057627" stop-color="#7B76BB" stop-opacity="0"/>
<stop offset="0.380338" stop-color="#7B76BB"/>
</linearGradient>
<linearGradient id="paint10_linear_14794_10623" x1="37.2215" y1="6.75" x2="13.5027" y2="30.8437" gradientUnits="userSpaceOnUse">
<stop offset="0.373087" stop-color="#59E8FF"/>
<stop offset="0.933488" stop-color="#2DB3FF"/>
</linearGradient>
<linearGradient id="paint11_linear_14794_10623" x1="24.0086" y1="43.7344" x2="24.0086" y2="44.8652" gradientUnits="userSpaceOnUse">
<stop stop-color="#8C8396"/>
<stop offset="1" stop-color="#998AA9"/>
</linearGradient>
<linearGradient id="paint12_linear_14794_10623" x1="45.19" y1="44.1094" x2="43.0807" y2="44.1094" gradientUnits="userSpaceOnUse">
<stop stop-color="#B0A8B8"/>
<stop offset="1" stop-color="#B0A8B8" stop-opacity="0"/>
</linearGradient>
<linearGradient id="paint13_linear_14794_10623" x1="3.65879" y1="43.7373" x2="5.11192" y2="43.7373" gradientUnits="userSpaceOnUse">
<stop stop-color="#81778C"/>
<stop offset="1" stop-color="#81778C" stop-opacity="0"/>
</linearGradient>
<linearGradient id="paint14_linear_14794_10623" x1="5.11192" y1="45.5187" x2="5.11192" y2="43.7373" gradientUnits="userSpaceOnUse">
<stop offset="0.312143" stop-color="#B3A8BE" stop-opacity="0.34"/>
<stop offset="0.42806" stop-color="#B3A8BE" stop-opacity="0"/>
</linearGradient>
<linearGradient id="paint15_linear_14794_10623" x1="24" y1="39.1406" x2="24" y2="42.1641" gradientUnits="userSpaceOnUse">
<stop stop-color="#A9A7B8"/>
<stop offset="1" stop-color="#838191"/>
</linearGradient>
<linearGradient id="paint16_linear_14794_10623" x1="24.0088" y1="31.4062" x2="24.0088" y2="37.5381" gradientUnits="userSpaceOnUse">
<stop stop-color="#C9C7DA"/>
<stop offset="1" stop-color="#C9C7DA" stop-opacity="0"/>
</linearGradient>
<linearGradient id="paint17_linear_14794_10623" x1="24.0088" y1="31.4062" x2="24.0088" y2="37.5381" gradientUnits="userSpaceOnUse">
<stop stop-color="#A9A8BD"/>
<stop offset="1" stop-color="#8A8999"/>
</linearGradient>
<linearGradient id="paint18_linear_14794_10623" x1="24.0088" y1="31.0237" x2="24.0088" y2="37.5381" gradientUnits="userSpaceOnUse">
<stop offset="0.554687" stop-color="#A9A8BD" stop-opacity="0"/>
<stop offset="1" stop-color="#7E7D8D"/>
</linearGradient>
<linearGradient id="paint19_linear_14794_10623" x1="24.0088" y1="33.2972" x2="24.0088" y2="37.6988" gradientUnits="userSpaceOnUse">
<stop offset="0.917297" stop-color="#8A8999" stop-opacity="0"/>
<stop offset="0.971034" stop-color="#8A8999"/>
</linearGradient>
<linearGradient id="paint20_linear_14794_10623" x1="9.33446" y1="32.8439" x2="9.33446" y2="33.329" gradientUnits="userSpaceOnUse">
<stop stop-color="#D7D3E6" stop-opacity="0"/>
<stop offset="0.704832" stop-color="#8D8C9D" stop-opacity="0.75"/>
</linearGradient>
<linearGradient id="paint21_linear_14794_10623" x1="10.0006" y1="32.7526" x2="10.3191" y2="32.7598" gradientUnits="userSpaceOnUse">
<stop offset="0.0805605" stop-color="#D7D3E6" stop-opacity="0"/>
<stop offset="0.859137" stop-color="#8D8C9D" stop-opacity="0.75"/>
</linearGradient>
<linearGradient id="paint22_linear_14794_10623" x1="8.7048" y1="32.7298" x2="8.36824" y2="32.7049" gradientUnits="userSpaceOnUse">
<stop offset="0.0805605" stop-color="#D7D3E6" stop-opacity="0"/>
<stop offset="0.961457" stop-color="#8D8C9D" stop-opacity="0.75"/>
</linearGradient>
<linearGradient id="paint23_linear_14794_10623" x1="38.6376" y1="32.8439" x2="38.6376" y2="33.329" gradientUnits="userSpaceOnUse">
<stop stop-color="#D7D3E6" stop-opacity="0"/>
<stop offset="0.704832" stop-color="#8D8C9D" stop-opacity="0.75"/>
</linearGradient>
<linearGradient id="paint24_linear_14794_10623" x1="39.3037" y1="32.7526" x2="39.6222" y2="32.7598" gradientUnits="userSpaceOnUse">
<stop offset="0.0805605" stop-color="#D7D3E6" stop-opacity="0"/>
<stop offset="0.859137" stop-color="#8D8C9D" stop-opacity="0.75"/>
</linearGradient>
<linearGradient id="paint25_linear_14794_10623" x1="38.0079" y1="32.7298" x2="37.6713" y2="32.7049" gradientUnits="userSpaceOnUse">
<stop offset="0.0805605" stop-color="#D7D3E6" stop-opacity="0"/>
<stop offset="0.961457" stop-color="#8D8C9D" stop-opacity="0.75"/>
</linearGradient>
<linearGradient id="paint26_linear_14794_10623" x1="9.00338" y1="34.549" x2="9.00338" y2="35.0341" gradientUnits="userSpaceOnUse">
<stop stop-color="#D7D3E6" stop-opacity="0"/>
<stop offset="0.704832" stop-color="#8D8C9D" stop-opacity="0.75"/>
</linearGradient>
<linearGradient id="paint27_linear_14794_10623" x1="9.66426" y1="34.4577" x2="9.98029" y2="34.4648" gradientUnits="userSpaceOnUse">
<stop offset="0.0805605" stop-color="#D7D3E6" stop-opacity="0"/>
<stop offset="0.859137" stop-color="#8D8C9D" stop-opacity="0.75"/>
</linearGradient>
<linearGradient id="paint28_linear_14794_10623" x1="8.37868" y1="34.4349" x2="8.04475" y2="34.4103" gradientUnits="userSpaceOnUse">
<stop offset="0.0805605" stop-color="#D7D3E6" stop-opacity="0"/>
<stop offset="0.961457" stop-color="#8D8C9D" stop-opacity="0.75"/>
</linearGradient>
<linearGradient id="paint29_linear_14794_10623" x1="38.9686" y1="34.549" x2="38.9686" y2="35.0341" gradientUnits="userSpaceOnUse">
<stop stop-color="#D7D3E6" stop-opacity="0"/>
<stop offset="0.704832" stop-color="#8D8C9D" stop-opacity="0.75"/>
</linearGradient>
<linearGradient id="paint30_linear_14794_10623" x1="39.6295" y1="34.4577" x2="39.9455" y2="34.4648" gradientUnits="userSpaceOnUse">
<stop offset="0.0805605" stop-color="#D7D3E6" stop-opacity="0"/>
<stop offset="0.859137" stop-color="#8D8C9D" stop-opacity="0.75"/>
</linearGradient>
<linearGradient id="paint31_linear_14794_10623" x1="38.3439" y1="34.4349" x2="38.01" y2="34.4103" gradientUnits="userSpaceOnUse">
<stop offset="0.0805605" stop-color="#D7D3E6" stop-opacity="0"/>
<stop offset="0.961457" stop-color="#8D8C9D" stop-opacity="0.75"/>
</linearGradient>
<linearGradient id="paint32_linear_14794_10623" x1="8.65463" y1="36.3132" x2="8.65463" y2="36.8165" gradientUnits="userSpaceOnUse">
<stop stop-color="#D7D3E6" stop-opacity="0"/>
<stop offset="0.704832" stop-color="#8D8C9D" stop-opacity="0.75"/>
</linearGradient>
<linearGradient id="paint33_linear_14794_10623" x1="9.33479" y1="36.2185" x2="9.66005" y2="36.2257" gradientUnits="userSpaceOnUse">
<stop offset="0.0805605" stop-color="#D7D3E6" stop-opacity="0"/>
<stop offset="0.859137" stop-color="#8D8C9D" stop-opacity="0.75"/>
</linearGradient>
<linearGradient id="paint34_linear_14794_10623" x1="8.01171" y1="36.1948" x2="7.668" y2="36.1697" gradientUnits="userSpaceOnUse">
<stop offset="0.0805605" stop-color="#D7D3E6" stop-opacity="0"/>
<stop offset="0.961457" stop-color="#8D8C9D" stop-opacity="0.75"/>
</linearGradient>
<linearGradient id="paint35_linear_14794_10623" x1="39.3175" y1="36.3132" x2="39.3175" y2="36.8165" gradientUnits="userSpaceOnUse">
<stop stop-color="#D7D3E6" stop-opacity="0"/>
<stop offset="0.704832" stop-color="#8D8C9D" stop-opacity="0.75"/>
</linearGradient>
<linearGradient id="paint36_linear_14794_10623" x1="39.9976" y1="36.2185" x2="40.3229" y2="36.2257" gradientUnits="userSpaceOnUse">
<stop offset="0.0805605" stop-color="#D7D3E6" stop-opacity="0"/>
<stop offset="0.859137" stop-color="#8D8C9D" stop-opacity="0.75"/>
</linearGradient>
<linearGradient id="paint37_linear_14794_10623" x1="38.6745" y1="36.1948" x2="38.3308" y2="36.1697" gradientUnits="userSpaceOnUse">
<stop offset="0.0805605" stop-color="#D7D3E6" stop-opacity="0"/>
<stop offset="0.961457" stop-color="#8D8C9D" stop-opacity="0.75"/>
</linearGradient>
<linearGradient id="paint38_linear_14794_10623" x1="11.9943" y1="32.8439" x2="11.9943" y2="33.329" gradientUnits="userSpaceOnUse">
<stop stop-color="#D7D3E6" stop-opacity="0"/>
<stop offset="0.704832" stop-color="#8D8C9D" stop-opacity="0.75"/>
</linearGradient>
<linearGradient id="paint39_linear_14794_10623" x1="12.6535" y1="32.7526" x2="12.9687" y2="32.7596" gradientUnits="userSpaceOnUse">
<stop offset="0.0805605" stop-color="#D7D3E6" stop-opacity="0"/>
<stop offset="0.859137" stop-color="#8D8C9D" stop-opacity="0.75"/>
</linearGradient>
<linearGradient id="paint40_linear_14794_10623" x1="11.3713" y1="32.7298" x2="11.0382" y2="32.7054" gradientUnits="userSpaceOnUse">
<stop offset="0.0805605" stop-color="#D7D3E6" stop-opacity="0"/>
<stop offset="0.961457" stop-color="#8D8C9D" stop-opacity="0.75"/>
</linearGradient>
<linearGradient id="paint41_linear_14794_10623" x1="35.9775" y1="32.8439" x2="35.9775" y2="33.329" gradientUnits="userSpaceOnUse">
<stop stop-color="#D7D3E6" stop-opacity="0"/>
<stop offset="0.704832" stop-color="#8D8C9D" stop-opacity="0.75"/>
</linearGradient>
<linearGradient id="paint42_linear_14794_10623" x1="36.6366" y1="32.7526" x2="36.9518" y2="32.7596" gradientUnits="userSpaceOnUse">
<stop offset="0.0805605" stop-color="#D7D3E6" stop-opacity="0"/>
<stop offset="0.859137" stop-color="#8D8C9D" stop-opacity="0.75"/>
</linearGradient>
<linearGradient id="paint43_linear_14794_10623" x1="35.3544" y1="32.7298" x2="35.0214" y2="32.7054" gradientUnits="userSpaceOnUse">
<stop offset="0.0805605" stop-color="#D7D3E6" stop-opacity="0"/>
<stop offset="0.961457" stop-color="#8D8C9D" stop-opacity="0.75"/>
</linearGradient>
<linearGradient id="paint44_linear_14794_10623" x1="11.7177" y1="34.5298" x2="11.7177" y2="35.0031" gradientUnits="userSpaceOnUse">
<stop stop-color="#D7D3E6" stop-opacity="0"/>
<stop offset="0.704832" stop-color="#8D8C9D" stop-opacity="0.75"/>
</linearGradient>
<linearGradient id="paint45_linear_14794_10623" x1="12.3704" y1="34.4407" x2="12.6825" y2="34.4478" gradientUnits="userSpaceOnUse">
<stop offset="0.0805605" stop-color="#D7D3E6" stop-opacity="0"/>
<stop offset="0.859137" stop-color="#8D8C9D" stop-opacity="0.75"/>
</linearGradient>
<linearGradient id="paint46_linear_14794_10623" x1="11.1007" y1="34.4184" x2="10.7709" y2="34.3939" gradientUnits="userSpaceOnUse">
<stop offset="0.0805605" stop-color="#D7D3E6" stop-opacity="0"/>
<stop offset="0.961457" stop-color="#8D8C9D" stop-opacity="0.75"/>
</linearGradient>
<linearGradient id="paint47_linear_14794_10623" x1="36.2545" y1="34.5298" x2="36.2545" y2="35.0031" gradientUnits="userSpaceOnUse">
<stop stop-color="#D7D3E6" stop-opacity="0"/>
<stop offset="0.704832" stop-color="#8D8C9D" stop-opacity="0.75"/>
</linearGradient>
<linearGradient id="paint48_linear_14794_10623" x1="36.9073" y1="34.4407" x2="37.2194" y2="34.4478" gradientUnits="userSpaceOnUse">
<stop offset="0.0805605" stop-color="#D7D3E6" stop-opacity="0"/>
<stop offset="0.859137" stop-color="#8D8C9D" stop-opacity="0.75"/>
</linearGradient>
<linearGradient id="paint49_linear_14794_10623" x1="35.6376" y1="34.4184" x2="35.3078" y2="34.3939" gradientUnits="userSpaceOnUse">
<stop offset="0.0805605" stop-color="#D7D3E6" stop-opacity="0"/>
<stop offset="0.961457" stop-color="#8D8C9D" stop-opacity="0.75"/>
</linearGradient>
<linearGradient id="paint50_linear_14794_10623" x1="11.4378" y1="36.3047" x2="11.4378" y2="36.8028" gradientUnits="userSpaceOnUse">
<stop stop-color="#D7D3E6" stop-opacity="0"/>
<stop offset="0.704832" stop-color="#8D8C9D" stop-opacity="0.75"/>
</linearGradient>
<linearGradient id="paint51_linear_14794_10623" x1="12.1001" y1="36.2109" x2="12.4169" y2="36.2178" gradientUnits="userSpaceOnUse">
<stop offset="0.0805605" stop-color="#D7D3E6" stop-opacity="0"/>
<stop offset="0.859137" stop-color="#8D8C9D" stop-opacity="0.75"/>
</linearGradient>
<linearGradient id="paint52_linear_14794_10623" x1="10.8117" y1="36.1875" x2="10.477" y2="36.1635" gradientUnits="userSpaceOnUse">
<stop offset="0.0805605" stop-color="#D7D3E6" stop-opacity="0"/>
<stop offset="0.961457" stop-color="#8D8C9D" stop-opacity="0.75"/>
</linearGradient>
<linearGradient id="paint53_linear_14794_10623" x1="36.5342" y1="36.3047" x2="36.5342" y2="36.8028" gradientUnits="userSpaceOnUse">
<stop stop-color="#D7D3E6" stop-opacity="0"/>
<stop offset="0.704832" stop-color="#8D8C9D" stop-opacity="0.75"/>
</linearGradient>
<linearGradient id="paint54_linear_14794_10623" x1="37.1966" y1="36.2109" x2="37.5133" y2="36.2178" gradientUnits="userSpaceOnUse">
<stop offset="0.0805605" stop-color="#D7D3E6" stop-opacity="0"/>
<stop offset="0.859137" stop-color="#8D8C9D" stop-opacity="0.75"/>
</linearGradient>
<linearGradient id="paint55_linear_14794_10623" x1="35.9082" y1="36.1875" x2="35.5734" y2="36.1635" gradientUnits="userSpaceOnUse">
<stop offset="0.0805605" stop-color="#D7D3E6" stop-opacity="0"/>
<stop offset="0.961457" stop-color="#8D8C9D" stop-opacity="0.75"/>
</linearGradient>
<linearGradient id="paint56_linear_14794_10623" x1="14.649" y1="32.8439" x2="14.649" y2="33.329" gradientUnits="userSpaceOnUse">
<stop stop-color="#D7D3E6" stop-opacity="0"/>
<stop offset="0.704832" stop-color="#8D8C9D" stop-opacity="0.75"/>
</linearGradient>
<linearGradient id="paint57_linear_14794_10623" x1="15.2872" y1="32.7526" x2="15.5924" y2="32.7592" gradientUnits="userSpaceOnUse">
<stop offset="0.0805605" stop-color="#D7D3E6" stop-opacity="0"/>
<stop offset="0.859137" stop-color="#8D8C9D" stop-opacity="0.75"/>
</linearGradient>
<linearGradient id="paint58_linear_14794_10623" x1="14.0457" y1="32.7298" x2="13.7232" y2="32.7069" gradientUnits="userSpaceOnUse">
<stop offset="0.0805605" stop-color="#D7D3E6" stop-opacity="0"/>
<stop offset="0.961457" stop-color="#8D8C9D" stop-opacity="0.75"/>
</linearGradient>
<linearGradient id="paint59_linear_14794_10623" x1="33.3232" y1="32.8439" x2="33.3232" y2="33.329" gradientUnits="userSpaceOnUse">
<stop stop-color="#D7D3E6" stop-opacity="0"/>
<stop offset="0.704832" stop-color="#8D8C9D" stop-opacity="0.75"/>
</linearGradient>
<linearGradient id="paint60_linear_14794_10623" x1="33.9614" y1="32.7526" x2="34.2666" y2="32.7592" gradientUnits="userSpaceOnUse">
<stop offset="0.0805605" stop-color="#D7D3E6" stop-opacity="0"/>
<stop offset="0.859137" stop-color="#8D8C9D" stop-opacity="0.75"/>
</linearGradient>
<linearGradient id="paint61_linear_14794_10623" x1="32.7199" y1="32.7298" x2="32.3974" y2="32.7069" gradientUnits="userSpaceOnUse">
<stop offset="0.0805605" stop-color="#D7D3E6" stop-opacity="0"/>
<stop offset="0.961457" stop-color="#8D8C9D" stop-opacity="0.75"/>
</linearGradient>
<linearGradient id="paint62_linear_14794_10623" x1="17.2967" y1="32.8396" x2="17.2967" y2="33.3221" gradientUnits="userSpaceOnUse">
<stop stop-color="#D7D3E6" stop-opacity="0"/>
<stop offset="0.704832" stop-color="#8D8C9D" stop-opacity="0.75"/>
</linearGradient>
<linearGradient id="paint63_linear_14794_10623" x1="17.9171" y1="32.7488" x2="18.2137" y2="32.7551" gradientUnits="userSpaceOnUse">
<stop offset="0.0805605" stop-color="#D7D3E6" stop-opacity="0"/>
<stop offset="0.859137" stop-color="#8D8C9D" stop-opacity="0.75"/>
</linearGradient>
<linearGradient id="paint64_linear_14794_10623" x1="16.7103" y1="32.7261" x2="16.3966" y2="32.7044" gradientUnits="userSpaceOnUse">
<stop offset="0.0805605" stop-color="#D7D3E6" stop-opacity="0"/>
<stop offset="0.961457" stop-color="#8D8C9D" stop-opacity="0.75"/>
</linearGradient>
<linearGradient id="paint65_linear_14794_10623" x1="30.6755" y1="32.8396" x2="30.6755" y2="33.3221" gradientUnits="userSpaceOnUse">
<stop stop-color="#D7D3E6" stop-opacity="0"/>
<stop offset="0.704832" stop-color="#8D8C9D" stop-opacity="0.75"/>
</linearGradient>
<linearGradient id="paint66_linear_14794_10623" x1="31.2958" y1="32.7488" x2="31.5925" y2="32.7551" gradientUnits="userSpaceOnUse">
<stop offset="0.0805605" stop-color="#D7D3E6" stop-opacity="0"/>
<stop offset="0.859137" stop-color="#8D8C9D" stop-opacity="0.75"/>
</linearGradient>
<linearGradient id="paint67_linear_14794_10623" x1="30.0891" y1="32.7261" x2="29.7754" y2="32.7044" gradientUnits="userSpaceOnUse">
<stop offset="0.0805605" stop-color="#D7D3E6" stop-opacity="0"/>
<stop offset="0.961457" stop-color="#8D8C9D" stop-opacity="0.75"/>
</linearGradient>
<linearGradient id="paint68_linear_14794_10623" x1="19.9715" y1="32.8396" x2="19.9715" y2="33.3221" gradientUnits="userSpaceOnUse">
<stop stop-color="#D7D3E6" stop-opacity="0"/>
<stop offset="0.704832" stop-color="#8D8C9D" stop-opacity="0.75"/>
</linearGradient>
<linearGradient id="paint69_linear_14794_10623" x1="20.5827" y1="32.7488" x2="20.875" y2="32.7549" gradientUnits="userSpaceOnUse">
<stop offset="0.0805605" stop-color="#D7D3E6" stop-opacity="0"/>
<stop offset="0.859137" stop-color="#8D8C9D" stop-opacity="0.75"/>
</linearGradient>
<linearGradient id="paint70_linear_14794_10623" x1="19.3937" y1="32.7261" x2="19.0847" y2="32.705" gradientUnits="userSpaceOnUse">
<stop offset="0.0805605" stop-color="#D7D3E6" stop-opacity="0"/>
<stop offset="0.961457" stop-color="#8D8C9D" stop-opacity="0.75"/>
</linearGradient>
<linearGradient id="paint71_linear_14794_10623" x1="28.0003" y1="32.8396" x2="28.0003" y2="33.3221" gradientUnits="userSpaceOnUse">
<stop stop-color="#D7D3E6" stop-opacity="0"/>
<stop offset="0.704832" stop-color="#8D8C9D" stop-opacity="0.75"/>
</linearGradient>
<linearGradient id="paint72_linear_14794_10623" x1="28.6115" y1="32.7488" x2="28.9038" y2="32.7549" gradientUnits="userSpaceOnUse">
<stop offset="0.0805605" stop-color="#D7D3E6" stop-opacity="0"/>
<stop offset="0.859137" stop-color="#8D8C9D" stop-opacity="0.75"/>
</linearGradient>
<linearGradient id="paint73_linear_14794_10623" x1="27.4225" y1="32.7261" x2="27.1135" y2="32.705" gradientUnits="userSpaceOnUse">
<stop offset="0.0805605" stop-color="#D7D3E6" stop-opacity="0"/>
<stop offset="0.961457" stop-color="#8D8C9D" stop-opacity="0.75"/>
</linearGradient>
<linearGradient id="paint74_linear_14794_10623" x1="22.6677" y1="32.8396" x2="22.6677" y2="33.3221" gradientUnits="userSpaceOnUse">
<stop stop-color="#D7D3E6" stop-opacity="0"/>
<stop offset="0.704832" stop-color="#8D8C9D" stop-opacity="0.75"/>
</linearGradient>
<linearGradient id="paint75_linear_14794_10623" x1="23.254" y1="32.7488" x2="23.5343" y2="32.7544" gradientUnits="userSpaceOnUse">
<stop offset="0.0805605" stop-color="#D7D3E6" stop-opacity="0"/>
<stop offset="0.859137" stop-color="#8D8C9D" stop-opacity="0.75"/>
</linearGradient>
<linearGradient id="paint76_linear_14794_10623" x1="22.1136" y1="32.7261" x2="21.817" y2="32.7067" gradientUnits="userSpaceOnUse">
<stop offset="0.0805605" stop-color="#D7D3E6" stop-opacity="0"/>
<stop offset="0.961457" stop-color="#8D8C9D" stop-opacity="0.75"/>
</linearGradient>
<linearGradient id="paint77_linear_14794_10623" x1="22.6677" y1="34.5359" x2="22.6677" y2="35.0184" gradientUnits="userSpaceOnUse">
<stop stop-color="#D7D3E6" stop-opacity="0"/>
<stop offset="0.704832" stop-color="#8D8C9D" stop-opacity="0.75"/>
</linearGradient>
<linearGradient id="paint78_linear_14794_10623" x1="23.254" y1="34.4451" x2="23.5343" y2="34.4507" gradientUnits="userSpaceOnUse">
<stop offset="0.0805605" stop-color="#D7D3E6" stop-opacity="0"/>
<stop offset="0.859137" stop-color="#8D8C9D" stop-opacity="0.75"/>
</linearGradient>
<linearGradient id="paint79_linear_14794_10623" x1="22.1136" y1="34.4224" x2="21.817" y2="34.403" gradientUnits="userSpaceOnUse">
<stop offset="0.0805605" stop-color="#D7D3E6" stop-opacity="0"/>
<stop offset="0.961457" stop-color="#8D8C9D" stop-opacity="0.75"/>
</linearGradient>
<linearGradient id="paint80_linear_14794_10623" x1="25.3162" y1="32.8396" x2="25.3162" y2="33.3221" gradientUnits="userSpaceOnUse">
<stop stop-color="#D7D3E6" stop-opacity="0"/>
<stop offset="0.704832" stop-color="#8D8C9D" stop-opacity="0.75"/>
</linearGradient>
<linearGradient id="paint81_linear_14794_10623" x1="25.9024" y1="32.7488" x2="26.1828" y2="32.7544" gradientUnits="userSpaceOnUse">
<stop offset="0.0805605" stop-color="#D7D3E6" stop-opacity="0"/>
<stop offset="0.859137" stop-color="#8D8C9D" stop-opacity="0.75"/>
</linearGradient>
<linearGradient id="paint82_linear_14794_10623" x1="24.762" y1="32.7261" x2="24.4655" y2="32.7067" gradientUnits="userSpaceOnUse">
<stop offset="0.0805605" stop-color="#D7D3E6" stop-opacity="0"/>
<stop offset="0.961457" stop-color="#8D8C9D" stop-opacity="0.75"/>
</linearGradient>
<linearGradient id="paint83_linear_14794_10623" x1="25.3162" y1="34.5359" x2="25.3162" y2="35.0184" gradientUnits="userSpaceOnUse">
<stop stop-color="#D7D3E6" stop-opacity="0"/>
<stop offset="0.704832" stop-color="#8D8C9D" stop-opacity="0.75"/>
</linearGradient>
<linearGradient id="paint84_linear_14794_10623" x1="25.9024" y1="34.4451" x2="26.1828" y2="34.4507" gradientUnits="userSpaceOnUse">
<stop offset="0.0805605" stop-color="#D7D3E6" stop-opacity="0"/>
<stop offset="0.859137" stop-color="#8D8C9D" stop-opacity="0.75"/>
</linearGradient>
<linearGradient id="paint85_linear_14794_10623" x1="24.762" y1="34.4224" x2="24.4655" y2="34.403" gradientUnits="userSpaceOnUse">
<stop offset="0.0805605" stop-color="#D7D3E6" stop-opacity="0"/>
<stop offset="0.961457" stop-color="#8D8C9D" stop-opacity="0.75"/>
</linearGradient>
<linearGradient id="paint86_linear_14794_10623" x1="17.1708" y1="34.5319" x2="17.1708" y2="35.0066" gradientUnits="userSpaceOnUse">
<stop stop-color="#D7D3E6" stop-opacity="0"/>
<stop offset="0.704832" stop-color="#8D8C9D" stop-opacity="0.75"/>
</linearGradient>
<linearGradient id="paint87_linear_14794_10623" x1="17.7889" y1="34.4426" x2="18.0845" y2="34.4489" gradientUnits="userSpaceOnUse">
<stop offset="0.0805605" stop-color="#D7D3E6" stop-opacity="0"/>
<stop offset="0.859137" stop-color="#8D8C9D" stop-opacity="0.75"/>
</linearGradient>
<linearGradient id="paint88_linear_14794_10623" x1="16.5866" y1="34.4203" x2="16.2741" y2="34.3983" gradientUnits="userSpaceOnUse">
<stop offset="0.0805605" stop-color="#D7D3E6" stop-opacity="0"/>
<stop offset="0.961457" stop-color="#8D8C9D" stop-opacity="0.75"/>
</linearGradient>
<linearGradient id="paint89_linear_14794_10623" x1="30.8012" y1="34.5319" x2="30.8012" y2="35.0066" gradientUnits="userSpaceOnUse">
<stop stop-color="#D7D3E6" stop-opacity="0"/>
<stop offset="0.704832" stop-color="#8D8C9D" stop-opacity="0.75"/>
</linearGradient>
<linearGradient id="paint90_linear_14794_10623" x1="31.4193" y1="34.4426" x2="31.7149" y2="34.4489" gradientUnits="userSpaceOnUse">
<stop offset="0.0805605" stop-color="#D7D3E6" stop-opacity="0"/>
<stop offset="0.859137" stop-color="#8D8C9D" stop-opacity="0.75"/>
</linearGradient>
<linearGradient id="paint91_linear_14794_10623" x1="30.2169" y1="34.4203" x2="29.9045" y2="34.3983" gradientUnits="userSpaceOnUse">
<stop offset="0.0805605" stop-color="#D7D3E6" stop-opacity="0"/>
<stop offset="0.961457" stop-color="#8D8C9D" stop-opacity="0.75"/>
</linearGradient>
<linearGradient id="paint92_linear_14794_10623" x1="14.4548" y1="34.5298" x2="14.4548" y2="35.0031" gradientUnits="userSpaceOnUse">
<stop stop-color="#D7D3E6" stop-opacity="0"/>
<stop offset="0.704832" stop-color="#8D8C9D" stop-opacity="0.75"/>
</linearGradient>
<linearGradient id="paint93_linear_14794_10623" x1="15.0853" y1="34.4407" x2="15.3868" y2="34.4473" gradientUnits="userSpaceOnUse">
<stop offset="0.0805605" stop-color="#D7D3E6" stop-opacity="0"/>
<stop offset="0.859137" stop-color="#8D8C9D" stop-opacity="0.75"/>
</linearGradient>
<linearGradient id="paint94_linear_14794_10623" x1="13.8588" y1="34.4184" x2="13.5401" y2="34.3955" gradientUnits="userSpaceOnUse">
<stop offset="0.0805605" stop-color="#D7D3E6" stop-opacity="0"/>
<stop offset="0.961457" stop-color="#8D8C9D" stop-opacity="0.75"/>
</linearGradient>
<linearGradient id="paint95_linear_14794_10623" x1="33.5172" y1="34.5298" x2="33.5172" y2="35.0031" gradientUnits="userSpaceOnUse">
<stop stop-color="#D7D3E6" stop-opacity="0"/>
<stop offset="0.704832" stop-color="#8D8C9D" stop-opacity="0.75"/>
</linearGradient>
<linearGradient id="paint96_linear_14794_10623" x1="34.1477" y1="34.4407" x2="34.4492" y2="34.4473" gradientUnits="userSpaceOnUse">
<stop offset="0.0805605" stop-color="#D7D3E6" stop-opacity="0"/>
<stop offset="0.859137" stop-color="#8D8C9D" stop-opacity="0.75"/>
</linearGradient>
<linearGradient id="paint97_linear_14794_10623" x1="32.9212" y1="34.4184" x2="32.6025" y2="34.3955" gradientUnits="userSpaceOnUse">
<stop offset="0.0805605" stop-color="#D7D3E6" stop-opacity="0"/>
<stop offset="0.961457" stop-color="#8D8C9D" stop-opacity="0.75"/>
</linearGradient>
<linearGradient id="paint98_linear_14794_10623" x1="19.9005" y1="34.5319" x2="19.9005" y2="35.0066" gradientUnits="userSpaceOnUse">
<stop stop-color="#D7D3E6" stop-opacity="0"/>
<stop offset="0.704832" stop-color="#8D8C9D" stop-opacity="0.75"/>
</linearGradient>
<linearGradient id="paint99_linear_14794_10623" x1="20.5081" y1="34.4426" x2="20.7987" y2="34.4487" gradientUnits="userSpaceOnUse">
<stop offset="0.0805605" stop-color="#D7D3E6" stop-opacity="0"/>
<stop offset="0.859137" stop-color="#8D8C9D" stop-opacity="0.75"/>
</linearGradient>
<linearGradient id="paint100_linear_14794_10623" x1="19.3262" y1="34.4203" x2="19.019" y2="34.3991" gradientUnits="userSpaceOnUse">
<stop offset="0.0805605" stop-color="#D7D3E6" stop-opacity="0"/>
<stop offset="0.961457" stop-color="#8D8C9D" stop-opacity="0.75"/>
</linearGradient>
<linearGradient id="paint101_linear_14794_10623" x1="28.0714" y1="34.5319" x2="28.0714" y2="35.0066" gradientUnits="userSpaceOnUse">
<stop stop-color="#D7D3E6" stop-opacity="0"/>
<stop offset="0.704832" stop-color="#8D8C9D" stop-opacity="0.75"/>
</linearGradient>
<linearGradient id="paint102_linear_14794_10623" x1="28.679" y1="34.4426" x2="28.9696" y2="34.4487" gradientUnits="userSpaceOnUse">
<stop offset="0.0805605" stop-color="#D7D3E6" stop-opacity="0"/>
<stop offset="0.859137" stop-color="#8D8C9D" stop-opacity="0.75"/>
</linearGradient>
<linearGradient id="paint103_linear_14794_10623" x1="27.4971" y1="34.4203" x2="27.1899" y2="34.3991" gradientUnits="userSpaceOnUse">
<stop offset="0.0805605" stop-color="#D7D3E6" stop-opacity="0"/>
<stop offset="0.961457" stop-color="#8D8C9D" stop-opacity="0.75"/>
</linearGradient>
<linearGradient id="paint104_linear_14794_10623" x1="14.212" y1="36.3047" x2="14.212" y2="36.8028" gradientUnits="userSpaceOnUse">
<stop stop-color="#D7D3E6" stop-opacity="0"/>
<stop offset="0.704832" stop-color="#8D8C9D" stop-opacity="0.75"/>
</linearGradient>
<linearGradient id="paint105_linear_14794_10623" x1="14.8619" y1="36.2109" x2="15.1727" y2="36.2176" gradientUnits="userSpaceOnUse">
<stop offset="0.0805605" stop-color="#D7D3E6" stop-opacity="0"/>
<stop offset="0.859137" stop-color="#8D8C9D" stop-opacity="0.75"/>
</linearGradient>
<linearGradient id="paint106_linear_14794_10623" x1="13.5977" y1="36.1875" x2="13.2692" y2="36.1644" gradientUnits="userSpaceOnUse">
<stop offset="0.0805605" stop-color="#D7D3E6" stop-opacity="0"/>
<stop offset="0.961457" stop-color="#8D8C9D" stop-opacity="0.75"/>
</linearGradient>
<linearGradient id="paint107_linear_14794_10623" x1="33.76" y1="36.3047" x2="33.76" y2="36.8028" gradientUnits="userSpaceOnUse">
<stop stop-color="#D7D3E6" stop-opacity="0"/>
<stop offset="0.704832" stop-color="#8D8C9D" stop-opacity="0.75"/>
</linearGradient>
<linearGradient id="paint108_linear_14794_10623" x1="34.4099" y1="36.2109" x2="34.7207" y2="36.2176" gradientUnits="userSpaceOnUse">
<stop offset="0.0805605" stop-color="#D7D3E6" stop-opacity="0"/>
<stop offset="0.859137" stop-color="#8D8C9D" stop-opacity="0.75"/>
</linearGradient>
<linearGradient id="paint109_linear_14794_10623" x1="33.1457" y1="36.1875" x2="32.8171" y2="36.1644" gradientUnits="userSpaceOnUse">
<stop offset="0.0805605" stop-color="#D7D3E6" stop-opacity="0"/>
<stop offset="0.961457" stop-color="#8D8C9D" stop-opacity="0.75"/>
</linearGradient>
<linearGradient id="paint110_linear_14794_10623" x1="17.0305" y1="36.3047" x2="17.0305" y2="36.8028" gradientUnits="userSpaceOnUse">
<stop stop-color="#D7D3E6" stop-opacity="0"/>
<stop offset="0.704832" stop-color="#8D8C9D" stop-opacity="0.75"/>
</linearGradient>
<linearGradient id="paint111_linear_14794_10623" x1="17.666" y1="36.2109" x2="17.97" y2="36.2173" gradientUnits="userSpaceOnUse">
<stop offset="0.0805605" stop-color="#D7D3E6" stop-opacity="0"/>
<stop offset="0.859137" stop-color="#8D8C9D" stop-opacity="0.75"/>
</linearGradient>
<linearGradient id="paint112_linear_14794_10623" x1="16.4297" y1="36.1875" x2="16.1083" y2="36.1654" gradientUnits="userSpaceOnUse">
<stop offset="0.0805605" stop-color="#D7D3E6" stop-opacity="0"/>
<stop offset="0.961457" stop-color="#8D8C9D" stop-opacity="0.75"/>
</linearGradient>
<linearGradient id="paint113_linear_14794_10623" x1="30.9417" y1="36.3047" x2="30.9417" y2="36.8028" gradientUnits="userSpaceOnUse">
<stop stop-color="#D7D3E6" stop-opacity="0"/>
<stop offset="0.704832" stop-color="#8D8C9D" stop-opacity="0.75"/>
</linearGradient>
<linearGradient id="paint114_linear_14794_10623" x1="31.5773" y1="36.2109" x2="31.8812" y2="36.2173" gradientUnits="userSpaceOnUse">
<stop offset="0.0805605" stop-color="#D7D3E6" stop-opacity="0"/>
<stop offset="0.859137" stop-color="#8D8C9D" stop-opacity="0.75"/>
</linearGradient>
<linearGradient id="paint115_linear_14794_10623" x1="30.3409" y1="36.1875" x2="30.0196" y2="36.1654" gradientUnits="userSpaceOnUse">
<stop offset="0.0805605" stop-color="#D7D3E6" stop-opacity="0"/>
<stop offset="0.961457" stop-color="#8D8C9D" stop-opacity="0.75"/>
</linearGradient>
<linearGradient id="paint116_linear_14794_10623" x1="23.9747" y1="36.3015" x2="23.9747" y2="36.8048" gradientUnits="userSpaceOnUse">
<stop stop-color="#D7D3E6" stop-opacity="0"/>
<stop offset="0.704832" stop-color="#8D8C9D" stop-opacity="0.75"/>
</linearGradient>
<linearGradient id="paint117_linear_14794_10623" x1="28.45" y1="36.2132" x2="29.1738" y2="36.2132" gradientUnits="userSpaceOnUse">
<stop offset="0.0805605" stop-color="#D7D3E6" stop-opacity="0"/>
<stop offset="0.704832" stop-color="#8D8C9D" stop-opacity="0.75"/>
</linearGradient>
<linearGradient id="paint118_linear_14794_10623" x1="19.4812" y1="36.1607" x2="18.8718" y2="36.1607" gradientUnits="userSpaceOnUse">
<stop offset="0.0805605" stop-color="#D7D3E6" stop-opacity="0"/>
<stop offset="0.704832" stop-color="#8D8C9D" stop-opacity="0.75"/>
</linearGradient>
</defs>
</svg>
