<svg width="48" height="48" viewBox="0 0 48 48" fill="none" xmlns="http://www.w3.org/2000/svg">
<g id="Mobile phone">
<g id="Rectangle 561">
<path d="M9.04688 8.66553L38.9531 8.66553V39.4142H9.04688V8.66553Z" fill="url(#paint0_linear_14794_31728)"/>
<path d="M9.04688 8.66553L38.9531 8.66553V39.4142H9.04688V8.66553Z" fill="url(#paint1_linear_14794_31728)"/>
<path d="M9.04688 8.66553L38.9531 8.66553V39.4142H9.04688V8.66553Z" fill="url(#paint2_linear_14794_31728)" fill-opacity="0.7"/>
</g>
<g id="Rectangle 562">
<path d="M18.7734 13.6197C18.7734 13.1227 18.3705 12.7197 17.8734 12.7197H14.7047C14.2076 12.7197 13.8047 13.1227 13.8047 13.6197V16.7885C13.8047 17.2855 14.2076 17.6885 14.7047 17.6885H17.8734C18.3705 17.6885 18.7734 17.2855 18.7734 16.7885V13.6197Z" fill="#FF9544"/>
<path d="M18.7734 13.6197C18.7734 13.1227 18.3705 12.7197 17.8734 12.7197H14.7047C14.2076 12.7197 13.8047 13.1227 13.8047 13.6197V16.7885C13.8047 17.2855 14.2076 17.6885 14.7047 17.6885H17.8734C18.3705 17.6885 18.7734 17.2855 18.7734 16.7885V13.6197Z" fill="url(#paint3_linear_14794_31728)"/>
<path d="M18.7734 13.6197C18.7734 13.1227 18.3705 12.7197 17.8734 12.7197H14.7047C14.2076 12.7197 13.8047 13.1227 13.8047 13.6197V16.7885C13.8047 17.2855 14.2076 17.6885 14.7047 17.6885H17.8734C18.3705 17.6885 18.7734 17.2855 18.7734 16.7885V13.6197Z" fill="url(#paint4_linear_14794_31728)" fill-opacity="0.8"/>
<path d="M18.7734 13.6197C18.7734 13.1227 18.3705 12.7197 17.8734 12.7197H14.7047C14.2076 12.7197 13.8047 13.1227 13.8047 13.6197V16.7885C13.8047 17.2855 14.2076 17.6885 14.7047 17.6885H17.8734C18.3705 17.6885 18.7734 17.2855 18.7734 16.7885V13.6197Z" fill="url(#paint5_linear_14794_31728)" fill-opacity="0.8"/>
<path d="M18.7734 13.6197C18.7734 13.1227 18.3705 12.7197 17.8734 12.7197H14.7047C14.2076 12.7197 13.8047 13.1227 13.8047 13.6197V16.7885C13.8047 17.2855 14.2076 17.6885 14.7047 17.6885H17.8734C18.3705 17.6885 18.7734 17.2855 18.7734 16.7885V13.6197Z" fill="url(#paint6_linear_14794_31728)" fill-opacity="0.8"/>
<path d="M18.7734 13.6197C18.7734 13.1227 18.3705 12.7197 17.8734 12.7197H14.7047C14.2076 12.7197 13.8047 13.1227 13.8047 13.6197V16.7885C13.8047 17.2855 14.2076 17.6885 14.7047 17.6885H17.8734C18.3705 17.6885 18.7734 17.2855 18.7734 16.7885V13.6197Z" fill="url(#paint7_linear_14794_31728)"/>
</g>
<g id="Rectangle 563">
<path d="M26.4844 13.6197C26.4844 13.1227 26.0814 12.7197 25.5844 12.7197H22.4156C21.9186 12.7197 21.5156 13.1227 21.5156 13.6197V16.7885C21.5156 17.2855 21.9186 17.6885 22.4156 17.6885H25.5844C26.0814 17.6885 26.4844 17.2855 26.4844 16.7885V13.6197Z" fill="#38C6FF"/>
<path d="M26.4844 13.6197C26.4844 13.1227 26.0814 12.7197 25.5844 12.7197H22.4156C21.9186 12.7197 21.5156 13.1227 21.5156 13.6197V16.7885C21.5156 17.2855 21.9186 17.6885 22.4156 17.6885H25.5844C26.0814 17.6885 26.4844 17.2855 26.4844 16.7885V13.6197Z" fill="url(#paint8_linear_14794_31728)" fill-opacity="0.6"/>
<path d="M26.4844 13.6197C26.4844 13.1227 26.0814 12.7197 25.5844 12.7197H22.4156C21.9186 12.7197 21.5156 13.1227 21.5156 13.6197V16.7885C21.5156 17.2855 21.9186 17.6885 22.4156 17.6885H25.5844C26.0814 17.6885 26.4844 17.2855 26.4844 16.7885V13.6197Z" fill="url(#paint9_linear_14794_31728)" fill-opacity="0.6"/>
<path d="M26.4844 13.6197C26.4844 13.1227 26.0814 12.7197 25.5844 12.7197H22.4156C21.9186 12.7197 21.5156 13.1227 21.5156 13.6197V16.7885C21.5156 17.2855 21.9186 17.6885 22.4156 17.6885H25.5844C26.0814 17.6885 26.4844 17.2855 26.4844 16.7885V13.6197Z" fill="url(#paint10_linear_14794_31728)" fill-opacity="0.6"/>
<path d="M26.4844 13.6197C26.4844 13.1227 26.0814 12.7197 25.5844 12.7197H22.4156C21.9186 12.7197 21.5156 13.1227 21.5156 13.6197V16.7885C21.5156 17.2855 21.9186 17.6885 22.4156 17.6885H25.5844C26.0814 17.6885 26.4844 17.2855 26.4844 16.7885V13.6197Z" fill="url(#paint11_linear_14794_31728)" fill-opacity="0.6"/>
</g>
<g id="Rectangle 564">
<path d="M34.1953 13.6197C34.1953 13.1227 33.7924 12.7197 33.2953 12.7197H30.1266C29.6295 12.7197 29.2266 13.1227 29.2266 13.6197V16.7885C29.2266 17.2855 29.6295 17.6885 30.1266 17.6885H33.2953C33.7924 17.6885 34.1953 17.2855 34.1953 16.7885V13.6197Z" fill="#FFEC58"/>
<path d="M34.1953 13.6197C34.1953 13.1227 33.7924 12.7197 33.2953 12.7197H30.1266C29.6295 12.7197 29.2266 13.1227 29.2266 13.6197V16.7885C29.2266 17.2855 29.6295 17.6885 30.1266 17.6885H33.2953C33.7924 17.6885 34.1953 17.2855 34.1953 16.7885V13.6197Z" fill="url(#paint12_linear_14794_31728)" fill-opacity="0.5"/>
<path d="M34.1953 13.6197C34.1953 13.1227 33.7924 12.7197 33.2953 12.7197H30.1266C29.6295 12.7197 29.2266 13.1227 29.2266 13.6197V16.7885C29.2266 17.2855 29.6295 17.6885 30.1266 17.6885H33.2953C33.7924 17.6885 34.1953 17.2855 34.1953 16.7885V13.6197Z" fill="url(#paint13_linear_14794_31728)" fill-opacity="0.6"/>
<path d="M34.1953 13.6197C34.1953 13.1227 33.7924 12.7197 33.2953 12.7197H30.1266C29.6295 12.7197 29.2266 13.1227 29.2266 13.6197V16.7885C29.2266 17.2855 29.6295 17.6885 30.1266 17.6885H33.2953C33.7924 17.6885 34.1953 17.2855 34.1953 16.7885V13.6197Z" fill="url(#paint14_linear_14794_31728)" fill-opacity="0.6"/>
<path d="M34.1953 13.6197C34.1953 13.1227 33.7924 12.7197 33.2953 12.7197H30.1266C29.6295 12.7197 29.2266 13.1227 29.2266 13.6197V16.7885C29.2266 17.2855 29.6295 17.6885 30.1266 17.6885H33.2953C33.7924 17.6885 34.1953 17.2855 34.1953 16.7885V13.6197Z" fill="url(#paint15_linear_14794_31728)" fill-opacity="0.6"/>
</g>
<g id="Rectangle 565">
<path d="M13.8047 22.4088C13.8047 21.9117 14.2076 21.5088 14.7047 21.5088H17.8734C18.3705 21.5088 18.7734 21.9117 18.7734 22.4088V25.5775C18.7734 26.0746 18.3705 26.4775 17.8734 26.4775H14.7047C14.2076 26.4775 13.8047 26.0746 13.8047 25.5775V22.4088Z" fill="#38C6FF"/>
<path d="M13.8047 22.4088C13.8047 21.9117 14.2076 21.5088 14.7047 21.5088H17.8734C18.3705 21.5088 18.7734 21.9117 18.7734 22.4088V25.5775C18.7734 26.0746 18.3705 26.4775 17.8734 26.4775H14.7047C14.2076 26.4775 13.8047 26.0746 13.8047 25.5775V22.4088Z" fill="url(#paint16_linear_14794_31728)" fill-opacity="0.6"/>
<path d="M13.8047 22.4088C13.8047 21.9117 14.2076 21.5088 14.7047 21.5088H17.8734C18.3705 21.5088 18.7734 21.9117 18.7734 22.4088V25.5775C18.7734 26.0746 18.3705 26.4775 17.8734 26.4775H14.7047C14.2076 26.4775 13.8047 26.0746 13.8047 25.5775V22.4088Z" fill="url(#paint17_linear_14794_31728)" fill-opacity="0.6"/>
<path d="M13.8047 22.4088C13.8047 21.9117 14.2076 21.5088 14.7047 21.5088H17.8734C18.3705 21.5088 18.7734 21.9117 18.7734 22.4088V25.5775C18.7734 26.0746 18.3705 26.4775 17.8734 26.4775H14.7047C14.2076 26.4775 13.8047 26.0746 13.8047 25.5775V22.4088Z" fill="url(#paint18_linear_14794_31728)" fill-opacity="0.6"/>
<path d="M13.8047 22.4088C13.8047 21.9117 14.2076 21.5088 14.7047 21.5088H17.8734C18.3705 21.5088 18.7734 21.9117 18.7734 22.4088V25.5775C18.7734 26.0746 18.3705 26.4775 17.8734 26.4775H14.7047C14.2076 26.4775 13.8047 26.0746 13.8047 25.5775V22.4088Z" fill="url(#paint19_linear_14794_31728)" fill-opacity="0.6"/>
</g>
<g id="Rectangle 568">
<path d="M13.8047 31.1979C13.8047 30.7008 14.2076 30.2979 14.7047 30.2979H17.8734C18.3705 30.2979 18.7734 30.7008 18.7734 31.1979V34.3666C18.7734 34.8637 18.3705 35.2666 17.8734 35.2666H14.7047C14.2076 35.2666 13.8047 34.8637 13.8047 34.3666V31.1979Z" fill="#FF9544"/>
<path d="M13.8047 31.1979C13.8047 30.7008 14.2076 30.2979 14.7047 30.2979H17.8734C18.3705 30.2979 18.7734 30.7008 18.7734 31.1979V34.3666C18.7734 34.8637 18.3705 35.2666 17.8734 35.2666H14.7047C14.2076 35.2666 13.8047 34.8637 13.8047 34.3666V31.1979Z" fill="url(#paint20_linear_14794_31728)"/>
<path d="M13.8047 31.1979C13.8047 30.7008 14.2076 30.2979 14.7047 30.2979H17.8734C18.3705 30.2979 18.7734 30.7008 18.7734 31.1979V34.3666C18.7734 34.8637 18.3705 35.2666 17.8734 35.2666H14.7047C14.2076 35.2666 13.8047 34.8637 13.8047 34.3666V31.1979Z" fill="url(#paint21_linear_14794_31728)" fill-opacity="0.8"/>
<path d="M13.8047 31.1979C13.8047 30.7008 14.2076 30.2979 14.7047 30.2979H17.8734C18.3705 30.2979 18.7734 30.7008 18.7734 31.1979V34.3666C18.7734 34.8637 18.3705 35.2666 17.8734 35.2666H14.7047C14.2076 35.2666 13.8047 34.8637 13.8047 34.3666V31.1979Z" fill="url(#paint22_linear_14794_31728)" fill-opacity="0.8"/>
<path d="M13.8047 31.1979C13.8047 30.7008 14.2076 30.2979 14.7047 30.2979H17.8734C18.3705 30.2979 18.7734 30.7008 18.7734 31.1979V34.3666C18.7734 34.8637 18.3705 35.2666 17.8734 35.2666H14.7047C14.2076 35.2666 13.8047 34.8637 13.8047 34.3666V31.1979Z" fill="url(#paint23_linear_14794_31728)" fill-opacity="0.8"/>
<path d="M13.8047 31.1979C13.8047 30.7008 14.2076 30.2979 14.7047 30.2979H17.8734C18.3705 30.2979 18.7734 30.7008 18.7734 31.1979V34.3666C18.7734 34.8637 18.3705 35.2666 17.8734 35.2666H14.7047C14.2076 35.2666 13.8047 34.8637 13.8047 34.3666V31.1979Z" fill="url(#paint24_linear_14794_31728)"/>
</g>
<g id="Rectangle 566">
<path d="M21.5156 22.4088C21.5156 21.9117 21.9186 21.5088 22.4156 21.5088H25.5844C26.0814 21.5088 26.4844 21.9117 26.4844 22.4088V25.5775C26.4844 26.0746 26.0814 26.4775 25.5844 26.4775H22.4156C21.9186 26.4775 21.5156 26.0746 21.5156 25.5775V22.4088Z" fill="#FFEC58"/>
<path d="M21.5156 22.4088C21.5156 21.9117 21.9186 21.5088 22.4156 21.5088H25.5844C26.0814 21.5088 26.4844 21.9117 26.4844 22.4088V25.5775C26.4844 26.0746 26.0814 26.4775 25.5844 26.4775H22.4156C21.9186 26.4775 21.5156 26.0746 21.5156 25.5775V22.4088Z" fill="url(#paint25_linear_14794_31728)" fill-opacity="0.5"/>
<path d="M21.5156 22.4088C21.5156 21.9117 21.9186 21.5088 22.4156 21.5088H25.5844C26.0814 21.5088 26.4844 21.9117 26.4844 22.4088V25.5775C26.4844 26.0746 26.0814 26.4775 25.5844 26.4775H22.4156C21.9186 26.4775 21.5156 26.0746 21.5156 25.5775V22.4088Z" fill="url(#paint26_linear_14794_31728)" fill-opacity="0.6"/>
<path d="M21.5156 22.4088C21.5156 21.9117 21.9186 21.5088 22.4156 21.5088H25.5844C26.0814 21.5088 26.4844 21.9117 26.4844 22.4088V25.5775C26.4844 26.0746 26.0814 26.4775 25.5844 26.4775H22.4156C21.9186 26.4775 21.5156 26.0746 21.5156 25.5775V22.4088Z" fill="url(#paint27_linear_14794_31728)" fill-opacity="0.6"/>
<path d="M21.5156 22.4088C21.5156 21.9117 21.9186 21.5088 22.4156 21.5088H25.5844C26.0814 21.5088 26.4844 21.9117 26.4844 22.4088V25.5775C26.4844 26.0746 26.0814 26.4775 25.5844 26.4775H22.4156C21.9186 26.4775 21.5156 26.0746 21.5156 25.5775V22.4088Z" fill="url(#paint28_linear_14794_31728)" fill-opacity="0.6"/>
</g>
<g id="Rectangle 569">
<path d="M21.5156 31.1979C21.5156 30.7008 21.9186 30.2979 22.4156 30.2979H25.5844C26.0814 30.2979 26.4844 30.7008 26.4844 31.1979V34.3666C26.4844 34.8637 26.0814 35.2666 25.5844 35.2666H22.4156C21.9186 35.2666 21.5156 34.8637 21.5156 34.3666V31.1979Z" fill="#38C6FF"/>
<path d="M21.5156 31.1979C21.5156 30.7008 21.9186 30.2979 22.4156 30.2979H25.5844C26.0814 30.2979 26.4844 30.7008 26.4844 31.1979V34.3666C26.4844 34.8637 26.0814 35.2666 25.5844 35.2666H22.4156C21.9186 35.2666 21.5156 34.8637 21.5156 34.3666V31.1979Z" fill="url(#paint29_linear_14794_31728)" fill-opacity="0.6"/>
<path d="M21.5156 31.1979C21.5156 30.7008 21.9186 30.2979 22.4156 30.2979H25.5844C26.0814 30.2979 26.4844 30.7008 26.4844 31.1979V34.3666C26.4844 34.8637 26.0814 35.2666 25.5844 35.2666H22.4156C21.9186 35.2666 21.5156 34.8637 21.5156 34.3666V31.1979Z" fill="url(#paint30_linear_14794_31728)" fill-opacity="0.6"/>
<path d="M21.5156 31.1979C21.5156 30.7008 21.9186 30.2979 22.4156 30.2979H25.5844C26.0814 30.2979 26.4844 30.7008 26.4844 31.1979V34.3666C26.4844 34.8637 26.0814 35.2666 25.5844 35.2666H22.4156C21.9186 35.2666 21.5156 34.8637 21.5156 34.3666V31.1979Z" fill="url(#paint31_linear_14794_31728)" fill-opacity="0.6"/>
<path d="M21.5156 31.1979C21.5156 30.7008 21.9186 30.2979 22.4156 30.2979H25.5844C26.0814 30.2979 26.4844 30.7008 26.4844 31.1979V34.3666C26.4844 34.8637 26.0814 35.2666 25.5844 35.2666H22.4156C21.9186 35.2666 21.5156 34.8637 21.5156 34.3666V31.1979Z" fill="url(#paint32_linear_14794_31728)" fill-opacity="0.6"/>
</g>
<g id="Rectangle 567">
<path d="M29.2266 22.4088C29.2266 21.9117 29.6295 21.5088 30.1266 21.5088H33.2953C33.7924 21.5088 34.1953 21.9117 34.1953 22.4088V25.5775C34.1953 26.0746 33.7924 26.4775 33.2953 26.4775H30.1266C29.6295 26.4775 29.2266 26.0746 29.2266 25.5775V22.4088Z" fill="#FF9544"/>
<path d="M29.2266 22.4088C29.2266 21.9117 29.6295 21.5088 30.1266 21.5088H33.2953C33.7924 21.5088 34.1953 21.9117 34.1953 22.4088V25.5775C34.1953 26.0746 33.7924 26.4775 33.2953 26.4775H30.1266C29.6295 26.4775 29.2266 26.0746 29.2266 25.5775V22.4088Z" fill="url(#paint33_linear_14794_31728)"/>
<path d="M29.2266 22.4088C29.2266 21.9117 29.6295 21.5088 30.1266 21.5088H33.2953C33.7924 21.5088 34.1953 21.9117 34.1953 22.4088V25.5775C34.1953 26.0746 33.7924 26.4775 33.2953 26.4775H30.1266C29.6295 26.4775 29.2266 26.0746 29.2266 25.5775V22.4088Z" fill="url(#paint34_linear_14794_31728)" fill-opacity="0.8"/>
<path d="M29.2266 22.4088C29.2266 21.9117 29.6295 21.5088 30.1266 21.5088H33.2953C33.7924 21.5088 34.1953 21.9117 34.1953 22.4088V25.5775C34.1953 26.0746 33.7924 26.4775 33.2953 26.4775H30.1266C29.6295 26.4775 29.2266 26.0746 29.2266 25.5775V22.4088Z" fill="url(#paint35_linear_14794_31728)" fill-opacity="0.8"/>
<path d="M29.2266 22.4088C29.2266 21.9117 29.6295 21.5088 30.1266 21.5088H33.2953C33.7924 21.5088 34.1953 21.9117 34.1953 22.4088V25.5775C34.1953 26.0746 33.7924 26.4775 33.2953 26.4775H30.1266C29.6295 26.4775 29.2266 26.0746 29.2266 25.5775V22.4088Z" fill="url(#paint36_linear_14794_31728)" fill-opacity="0.8"/>
<path d="M29.2266 22.4088C29.2266 21.9117 29.6295 21.5088 30.1266 21.5088H33.2953C33.7924 21.5088 34.1953 21.9117 34.1953 22.4088V25.5775C34.1953 26.0746 33.7924 26.4775 33.2953 26.4775H30.1266C29.6295 26.4775 29.2266 26.0746 29.2266 25.5775V22.4088Z" fill="url(#paint37_linear_14794_31728)"/>
</g>
<g id="Rectangle 570">
<path d="M29.2266 31.1979C29.2266 30.7008 29.6295 30.2979 30.1266 30.2979H33.2953C33.7924 30.2979 34.1953 30.7008 34.1953 31.1979V34.3666C34.1953 34.8637 33.7924 35.2666 33.2953 35.2666H30.1266C29.6295 35.2666 29.2266 34.8637 29.2266 34.3666V31.1979Z" fill="#FFEC58"/>
<path d="M29.2266 31.1979C29.2266 30.7008 29.6295 30.2979 30.1266 30.2979H33.2953C33.7924 30.2979 34.1953 30.7008 34.1953 31.1979V34.3666C34.1953 34.8637 33.7924 35.2666 33.2953 35.2666H30.1266C29.6295 35.2666 29.2266 34.8637 29.2266 34.3666V31.1979Z" fill="url(#paint38_linear_14794_31728)" fill-opacity="0.5"/>
<path d="M29.2266 31.1979C29.2266 30.7008 29.6295 30.2979 30.1266 30.2979H33.2953C33.7924 30.2979 34.1953 30.7008 34.1953 31.1979V34.3666C34.1953 34.8637 33.7924 35.2666 33.2953 35.2666H30.1266C29.6295 35.2666 29.2266 34.8637 29.2266 34.3666V31.1979Z" fill="url(#paint39_linear_14794_31728)" fill-opacity="0.6"/>
<path d="M29.2266 31.1979C29.2266 30.7008 29.6295 30.2979 30.1266 30.2979H33.2953C33.7924 30.2979 34.1953 30.7008 34.1953 31.1979V34.3666C34.1953 34.8637 33.7924 35.2666 33.2953 35.2666H30.1266C29.6295 35.2666 29.2266 34.8637 29.2266 34.3666V31.1979Z" fill="url(#paint40_linear_14794_31728)" fill-opacity="0.6"/>
<path d="M29.2266 31.1979C29.2266 30.7008 29.6295 30.2979 30.1266 30.2979H33.2953C33.7924 30.2979 34.1953 30.7008 34.1953 31.1979V34.3666C34.1953 34.8637 33.7924 35.2666 33.2953 35.2666H30.1266C29.6295 35.2666 29.2266 34.8637 29.2266 34.3666V31.1979Z" fill="url(#paint41_linear_14794_31728)" fill-opacity="0.6"/>
</g>
<g id="Intersect">
<path d="M38.9531 9.23926H9.04688V6.95177C9.04688 4.79785 10.793 3.05176 12.9469 3.05176H35.0531C37.207 3.05176 38.9531 4.79785 38.9531 6.95177V9.23926Z" fill="url(#paint42_linear_14794_31728)"/>
<path d="M38.9531 9.23926H9.04688V6.95177C9.04688 4.79785 10.793 3.05176 12.9469 3.05176H35.0531C37.207 3.05176 38.9531 4.79785 38.9531 6.95177V9.23926Z" fill="url(#paint43_linear_14794_31728)"/>
<path d="M38.9531 9.23926H9.04688V6.95177C9.04688 4.79785 10.793 3.05176 12.9469 3.05176H35.0531C37.207 3.05176 38.9531 4.79785 38.9531 6.95177V9.23926Z" fill="url(#paint44_linear_14794_31728)"/>
<path d="M38.9531 9.23926H9.04688V6.95177C9.04688 4.79785 10.793 3.05176 12.9469 3.05176H35.0531C37.207 3.05176 38.9531 4.79785 38.9531 6.95177V9.23926Z" fill="url(#paint45_linear_14794_31728)"/>
<path d="M38.9531 9.23926H9.04688V6.95177C9.04688 4.79785 10.793 3.05176 12.9469 3.05176H35.0531C37.207 3.05176 38.9531 4.79785 38.9531 6.95177V9.23926Z" fill="url(#paint46_radial_14794_31728)"/>
<path d="M38.9531 9.23926H9.04688V6.95177C9.04688 4.79785 10.793 3.05176 12.9469 3.05176H35.0531C37.207 3.05176 38.9531 4.79785 38.9531 6.95177V9.23926Z" fill="url(#paint47_linear_14794_31728)" fill-opacity="0.5"/>
<path d="M38.9531 9.23926H9.04688V6.95177C9.04688 4.79785 10.793 3.05176 12.9469 3.05176H35.0531C37.207 3.05176 38.9531 4.79785 38.9531 6.95177V9.23926Z" fill="url(#paint48_linear_14794_31728)"/>
</g>
<g id="Intersect_2">
<path d="M38.9531 38.8174V41.0346C38.9531 43.1885 37.207 44.9346 35.0531 44.9346H12.9469C10.793 44.9346 9.04688 43.1885 9.04688 41.0346V38.8174H38.9531Z" fill="url(#paint49_linear_14794_31728)"/>
<path d="M38.9531 38.8174V41.0346C38.9531 43.1885 37.207 44.9346 35.0531 44.9346H12.9469C10.793 44.9346 9.04688 43.1885 9.04688 41.0346V38.8174H38.9531Z" fill="url(#paint50_linear_14794_31728)"/>
<path d="M38.9531 38.8174V41.0346C38.9531 43.1885 37.207 44.9346 35.0531 44.9346H12.9469C10.793 44.9346 9.04688 43.1885 9.04688 41.0346V38.8174H38.9531Z" fill="url(#paint51_radial_14794_31728)"/>
<path d="M38.9531 38.8174V41.0346C38.9531 43.1885 37.207 44.9346 35.0531 44.9346H12.9469C10.793 44.9346 9.04688 43.1885 9.04688 41.0346V38.8174H38.9531Z" fill="url(#paint52_linear_14794_31728)"/>
<path d="M38.9531 38.8174V41.0346C38.9531 43.1885 37.207 44.9346 35.0531 44.9346H12.9469C10.793 44.9346 9.04688 43.1885 9.04688 41.0346V38.8174H38.9531Z" fill="url(#paint53_linear_14794_31728)" fill-opacity="0.5"/>
<path d="M38.9531 38.8174V41.0346C38.9531 43.1885 37.207 44.9346 35.0531 44.9346H12.9469C10.793 44.9346 9.04688 43.1885 9.04688 41.0346V38.8174H38.9531Z" fill="url(#paint54_linear_14794_31728)"/>
</g>
</g>
<defs>
<linearGradient id="paint0_linear_14794_31728" x1="24" y1="11.1611" x2="24" y2="39.0048" gradientUnits="userSpaceOnUse">
<stop stop-color="#62326D"/>
<stop offset="1" stop-color="#434486"/>
</linearGradient>
<linearGradient id="paint1_linear_14794_31728" x1="9.04687" y1="32.7236" x2="12.5156" y2="32.8173" gradientUnits="userSpaceOnUse">
<stop offset="0.03125" stop-color="#412C4C"/>
<stop offset="1" stop-color="#412C4C" stop-opacity="0"/>
</linearGradient>
<linearGradient id="paint2_linear_14794_31728" x1="41.2032" y1="32.8173" x2="33.8158" y2="32.8241" gradientUnits="userSpaceOnUse">
<stop offset="0.250342" stop-color="#232222" stop-opacity="0.13"/>
<stop offset="0.589857" stop-color="white" stop-opacity="0.13"/>
<stop offset="0.772724" stop-color="white" stop-opacity="0.06"/>
<stop offset="1" stop-color="#503F7E" stop-opacity="0"/>
</linearGradient>
<linearGradient id="paint3_linear_14794_31728" x1="18.5391" y1="16.4346" x2="16.9688" y2="16.4346" gradientUnits="userSpaceOnUse">
<stop offset="0.333333" stop-color="#FF945C"/>
<stop offset="1" stop-color="#FF945C" stop-opacity="0"/>
</linearGradient>
<linearGradient id="paint4_linear_14794_31728" x1="12.9103" y1="15.0347" x2="19.4812" y2="14.9806" gradientUnits="userSpaceOnUse">
<stop offset="0.115577" stop-color="#E05A19"/>
<stop offset="0.212961" stop-color="#EC6926" stop-opacity="0.35"/>
<stop offset="0.282884" stop-color="#FF9544" stop-opacity="0"/>
<stop offset="0.668969" stop-color="#FF9544" stop-opacity="0"/>
<stop offset="0.74008" stop-color="#FF9544" stop-opacity="0.37"/>
<stop offset="0.810742" stop-color="#EC6926" stop-opacity="0.56"/>
<stop offset="0.874984" stop-color="#EC6926"/>
</linearGradient>
<linearGradient id="paint5_linear_14794_31728" x1="12.4483" y1="12.3573" x2="19.653" y2="18.6762" gradientUnits="userSpaceOnUse">
<stop offset="0.143541" stop-color="#EC6926"/>
<stop offset="0.183189" stop-color="#EC6926" stop-opacity="0.56"/>
<stop offset="0.327346" stop-color="#FF9544" stop-opacity="0"/>
<stop offset="0.698376" stop-color="#FF9544" stop-opacity="0"/>
<stop offset="0.835105" stop-color="#EC6926" stop-opacity="0.56"/>
<stop offset="0.89849" stop-color="#EC6926"/>
</linearGradient>
<linearGradient id="paint6_linear_14794_31728" x1="12.4483" y1="12.3573" x2="19.653" y2="18.6762" gradientUnits="userSpaceOnUse">
<stop offset="0.143541" stop-color="#EC6926"/>
<stop offset="0.183189" stop-color="#EC6926" stop-opacity="0.56"/>
<stop offset="0.327346" stop-color="#FF9544" stop-opacity="0"/>
<stop offset="0.698376" stop-color="#FF9544" stop-opacity="0"/>
<stop offset="0.835105" stop-color="#EC6926" stop-opacity="0.56"/>
<stop offset="0.89849" stop-color="#EC6926"/>
</linearGradient>
<linearGradient id="paint7_linear_14794_31728" x1="16.2891" y1="11.6156" x2="16.2891" y2="18.3255" gradientUnits="userSpaceOnUse">
<stop offset="0.0737136" stop-color="#EC6926"/>
<stop offset="0.183189" stop-color="#EC6926" stop-opacity="0.56"/>
<stop offset="0.3403" stop-color="#FF9544" stop-opacity="0"/>
<stop offset="0.74008" stop-color="#FF9544" stop-opacity="0"/>
<stop offset="0.843047" stop-color="#EC6926" stop-opacity="0.56"/>
<stop offset="0.89849" stop-color="#EC6926"/>
</linearGradient>
<linearGradient id="paint8_linear_14794_31728" x1="24" y1="11.6156" x2="24" y2="18.6833" gradientUnits="userSpaceOnUse">
<stop offset="0.143541" stop-color="#1B94DF"/>
<stop offset="0.183189" stop-color="#056EAD" stop-opacity="0.56"/>
<stop offset="0.266068" stop-color="#1B95DF" stop-opacity="0"/>
<stop offset="0.74008" stop-color="#056EAD" stop-opacity="0"/>
<stop offset="0.843047" stop-color="#056EAD" stop-opacity="0.56"/>
<stop offset="0.89849" stop-color="#056EAD"/>
</linearGradient>
<linearGradient id="paint9_linear_14794_31728" x1="20.4645" y1="15.2041" x2="27.6363" y2="15.2041" gradientUnits="userSpaceOnUse">
<stop offset="0.119886" stop-color="#056EAD"/>
<stop offset="0.183515" stop-color="#056EAD" stop-opacity="0.56"/>
<stop offset="0.319761" stop-color="#31BAF3" stop-opacity="0"/>
<stop offset="0.353268" stop-color="#31BAF3" stop-opacity="0"/>
<stop offset="0.617817" stop-color="#31BAF3" stop-opacity="0"/>
<stop offset="0.685957" stop-color="#31BAF3" stop-opacity="0"/>
<stop offset="0.797458" stop-color="#056EAD" stop-opacity="0.56"/>
<stop offset="0.89849" stop-color="#056EAD"/>
</linearGradient>
<linearGradient id="paint10_linear_14794_31728" x1="21.0554" y1="11.8132" x2="27.1886" y2="18.3531" gradientUnits="userSpaceOnUse">
<stop offset="0.133992" stop-color="#056EAD" stop-opacity="0.56"/>
<stop offset="0.220366" stop-color="#31BAF3" stop-opacity="0"/>
<stop offset="0.353268" stop-color="#31BAF3" stop-opacity="0"/>
<stop offset="0.689154" stop-color="#31BAF3" stop-opacity="0"/>
<stop offset="0.798359" stop-color="#31BAF3" stop-opacity="0"/>
<stop offset="0.899472" stop-color="#056EAD" stop-opacity="0.56"/>
</linearGradient>
<linearGradient id="paint11_linear_14794_31728" x1="21.0554" y1="11.8132" x2="27.1886" y2="18.3531" gradientUnits="userSpaceOnUse">
<stop offset="0.133992" stop-color="#056EAD" stop-opacity="0.56"/>
<stop offset="0.220366" stop-color="#31BAF3" stop-opacity="0"/>
<stop offset="0.353268" stop-color="#31BAF3" stop-opacity="0"/>
<stop offset="0.689154" stop-color="#31BAF3" stop-opacity="0"/>
<stop offset="0.798359" stop-color="#31BAF3" stop-opacity="0"/>
<stop offset="0.899472" stop-color="#056EAD" stop-opacity="0.56"/>
</linearGradient>
<linearGradient id="paint12_linear_14794_31728" x1="31.7109" y1="11.6156" x2="31.7109" y2="18.6833" gradientUnits="userSpaceOnUse">
<stop offset="0.155632" stop-color="#CFB217"/>
<stop offset="0.203512" stop-color="#CFB217" stop-opacity="0.36"/>
<stop offset="0.279655" stop-color="#FFEC58" stop-opacity="0"/>
<stop offset="0.69452" stop-color="#DFC434" stop-opacity="0"/>
<stop offset="0.801815" stop-color="#CFB217" stop-opacity="0.75"/>
<stop offset="0.863376" stop-color="#CFB217"/>
</linearGradient>
<linearGradient id="paint13_linear_14794_31728" x1="27.8505" y1="11.5313" x2="35.8106" y2="18.8448" gradientUnits="userSpaceOnUse">
<stop offset="0.143541" stop-color="#CFB217"/>
<stop offset="0.183189" stop-color="#CFB217" stop-opacity="0.83"/>
<stop offset="0.279655" stop-color="#CFB217" stop-opacity="0"/>
<stop offset="0.69452" stop-color="#DFC434" stop-opacity="0"/>
<stop offset="0.801815" stop-color="#CFB217" stop-opacity="0.75"/>
<stop offset="0.863376" stop-color="#CFB217"/>
</linearGradient>
<linearGradient id="paint14_linear_14794_31728" x1="27.8505" y1="11.5313" x2="35.5308" y2="18.518" gradientUnits="userSpaceOnUse">
<stop offset="0.143541" stop-color="#CFB217"/>
<stop offset="0.183189" stop-color="#CFB217" stop-opacity="0.83"/>
<stop offset="0.279655" stop-color="#CFB217" stop-opacity="0"/>
<stop offset="0.69452" stop-color="#DFC434" stop-opacity="0"/>
<stop offset="0.801815" stop-color="#CFB217" stop-opacity="0.75"/>
<stop offset="0.863376" stop-color="#CFB217"/>
</linearGradient>
<linearGradient id="paint15_linear_14794_31728" x1="28.3845" y1="14.922" x2="35.3786" y2="14.922" gradientUnits="userSpaceOnUse">
<stop offset="0.0412901" stop-color="#CFB217"/>
<stop offset="0.165564" stop-color="#CFB217" stop-opacity="0.52"/>
<stop offset="0.260484" stop-color="#CFB217" stop-opacity="0"/>
<stop offset="0.733076" stop-color="#DFC434" stop-opacity="0"/>
<stop offset="0.801815" stop-color="#CFB217" stop-opacity="0.75"/>
<stop offset="0.863376" stop-color="#CFB217"/>
</linearGradient>
<linearGradient id="paint16_linear_14794_31728" x1="16.2891" y1="20.4047" x2="16.2891" y2="27.4724" gradientUnits="userSpaceOnUse">
<stop offset="0.143541" stop-color="#1B94DF"/>
<stop offset="0.183189" stop-color="#056EAD" stop-opacity="0.56"/>
<stop offset="0.266068" stop-color="#1B95DF" stop-opacity="0"/>
<stop offset="0.74008" stop-color="#056EAD" stop-opacity="0"/>
<stop offset="0.843047" stop-color="#056EAD" stop-opacity="0.56"/>
<stop offset="0.89849" stop-color="#056EAD"/>
</linearGradient>
<linearGradient id="paint17_linear_14794_31728" x1="19.8246" y1="23.9932" x2="12.6528" y2="23.9932" gradientUnits="userSpaceOnUse">
<stop offset="0.119886" stop-color="#056EAD"/>
<stop offset="0.183515" stop-color="#056EAD" stop-opacity="0.56"/>
<stop offset="0.319761" stop-color="#31BAF3" stop-opacity="0"/>
<stop offset="0.353268" stop-color="#31BAF3" stop-opacity="0"/>
<stop offset="0.617817" stop-color="#31BAF3" stop-opacity="0"/>
<stop offset="0.685957" stop-color="#31BAF3" stop-opacity="0"/>
<stop offset="0.797458" stop-color="#056EAD" stop-opacity="0.56"/>
<stop offset="0.89849" stop-color="#056EAD"/>
</linearGradient>
<linearGradient id="paint18_linear_14794_31728" x1="19.2337" y1="20.6022" x2="13.1004" y2="27.1421" gradientUnits="userSpaceOnUse">
<stop offset="0.133992" stop-color="#056EAD" stop-opacity="0.56"/>
<stop offset="0.220366" stop-color="#31BAF3" stop-opacity="0"/>
<stop offset="0.353268" stop-color="#31BAF3" stop-opacity="0"/>
<stop offset="0.689154" stop-color="#31BAF3" stop-opacity="0"/>
<stop offset="0.798359" stop-color="#31BAF3" stop-opacity="0"/>
<stop offset="0.899472" stop-color="#056EAD" stop-opacity="0.56"/>
</linearGradient>
<linearGradient id="paint19_linear_14794_31728" x1="19.2337" y1="20.6022" x2="13.1004" y2="27.1421" gradientUnits="userSpaceOnUse">
<stop offset="0.133992" stop-color="#056EAD" stop-opacity="0.56"/>
<stop offset="0.220366" stop-color="#31BAF3" stop-opacity="0"/>
<stop offset="0.353268" stop-color="#31BAF3" stop-opacity="0"/>
<stop offset="0.689154" stop-color="#31BAF3" stop-opacity="0"/>
<stop offset="0.798359" stop-color="#31BAF3" stop-opacity="0"/>
<stop offset="0.899472" stop-color="#056EAD" stop-opacity="0.56"/>
</linearGradient>
<linearGradient id="paint20_linear_14794_31728" x1="14.0391" y1="34.0127" x2="15.6094" y2="34.0127" gradientUnits="userSpaceOnUse">
<stop offset="0.333333" stop-color="#FF945C"/>
<stop offset="1" stop-color="#FF945C" stop-opacity="0"/>
</linearGradient>
<linearGradient id="paint21_linear_14794_31728" x1="19.6678" y1="32.6128" x2="13.097" y2="32.5587" gradientUnits="userSpaceOnUse">
<stop offset="0.115577" stop-color="#E05A19"/>
<stop offset="0.212961" stop-color="#EC6926" stop-opacity="0.35"/>
<stop offset="0.282884" stop-color="#FF9544" stop-opacity="0"/>
<stop offset="0.668969" stop-color="#FF9544" stop-opacity="0"/>
<stop offset="0.74008" stop-color="#FF9544" stop-opacity="0.37"/>
<stop offset="0.810742" stop-color="#EC6926" stop-opacity="0.56"/>
<stop offset="0.874984" stop-color="#EC6926"/>
</linearGradient>
<linearGradient id="paint22_linear_14794_31728" x1="20.1299" y1="29.9354" x2="12.9251" y2="36.2543" gradientUnits="userSpaceOnUse">
<stop offset="0.143541" stop-color="#EC6926"/>
<stop offset="0.183189" stop-color="#EC6926" stop-opacity="0.56"/>
<stop offset="0.327346" stop-color="#FF9544" stop-opacity="0"/>
<stop offset="0.698376" stop-color="#FF9544" stop-opacity="0"/>
<stop offset="0.835105" stop-color="#EC6926" stop-opacity="0.56"/>
<stop offset="0.89849" stop-color="#EC6926"/>
</linearGradient>
<linearGradient id="paint23_linear_14794_31728" x1="20.1299" y1="29.9354" x2="12.9251" y2="36.2543" gradientUnits="userSpaceOnUse">
<stop offset="0.143541" stop-color="#EC6926"/>
<stop offset="0.183189" stop-color="#EC6926" stop-opacity="0.56"/>
<stop offset="0.327346" stop-color="#FF9544" stop-opacity="0"/>
<stop offset="0.698376" stop-color="#FF9544" stop-opacity="0"/>
<stop offset="0.835105" stop-color="#EC6926" stop-opacity="0.56"/>
<stop offset="0.89849" stop-color="#EC6926"/>
</linearGradient>
<linearGradient id="paint24_linear_14794_31728" x1="16.2891" y1="29.1937" x2="16.2891" y2="35.9037" gradientUnits="userSpaceOnUse">
<stop offset="0.0737136" stop-color="#EC6926"/>
<stop offset="0.183189" stop-color="#EC6926" stop-opacity="0.56"/>
<stop offset="0.3403" stop-color="#FF9544" stop-opacity="0"/>
<stop offset="0.74008" stop-color="#FF9544" stop-opacity="0"/>
<stop offset="0.843047" stop-color="#EC6926" stop-opacity="0.56"/>
<stop offset="0.89849" stop-color="#EC6926"/>
</linearGradient>
<linearGradient id="paint25_linear_14794_31728" x1="24" y1="20.4047" x2="24" y2="27.4724" gradientUnits="userSpaceOnUse">
<stop offset="0.155632" stop-color="#CFB217"/>
<stop offset="0.203512" stop-color="#CFB217" stop-opacity="0.36"/>
<stop offset="0.279655" stop-color="#FFEC58" stop-opacity="0"/>
<stop offset="0.69452" stop-color="#DFC434" stop-opacity="0"/>
<stop offset="0.801815" stop-color="#CFB217" stop-opacity="0.75"/>
<stop offset="0.863376" stop-color="#CFB217"/>
</linearGradient>
<linearGradient id="paint26_linear_14794_31728" x1="27.8604" y1="20.3203" x2="19.9003" y2="27.6339" gradientUnits="userSpaceOnUse">
<stop offset="0.143541" stop-color="#CFB217"/>
<stop offset="0.183189" stop-color="#CFB217" stop-opacity="0.83"/>
<stop offset="0.279655" stop-color="#CFB217" stop-opacity="0"/>
<stop offset="0.69452" stop-color="#DFC434" stop-opacity="0"/>
<stop offset="0.801815" stop-color="#CFB217" stop-opacity="0.75"/>
<stop offset="0.863376" stop-color="#CFB217"/>
</linearGradient>
<linearGradient id="paint27_linear_14794_31728" x1="27.8604" y1="20.3203" x2="20.1801" y2="27.3071" gradientUnits="userSpaceOnUse">
<stop offset="0.143541" stop-color="#CFB217"/>
<stop offset="0.183189" stop-color="#CFB217" stop-opacity="0.83"/>
<stop offset="0.279655" stop-color="#CFB217" stop-opacity="0"/>
<stop offset="0.69452" stop-color="#DFC434" stop-opacity="0"/>
<stop offset="0.801815" stop-color="#CFB217" stop-opacity="0.75"/>
<stop offset="0.863376" stop-color="#CFB217"/>
</linearGradient>
<linearGradient id="paint28_linear_14794_31728" x1="27.3265" y1="23.7111" x2="20.3324" y2="23.7111" gradientUnits="userSpaceOnUse">
<stop offset="0.0412901" stop-color="#CFB217"/>
<stop offset="0.165564" stop-color="#CFB217" stop-opacity="0.52"/>
<stop offset="0.260484" stop-color="#CFB217" stop-opacity="0"/>
<stop offset="0.733076" stop-color="#DFC434" stop-opacity="0"/>
<stop offset="0.801815" stop-color="#CFB217" stop-opacity="0.75"/>
<stop offset="0.863376" stop-color="#CFB217"/>
</linearGradient>
<linearGradient id="paint29_linear_14794_31728" x1="24" y1="29.1937" x2="24" y2="36.2614" gradientUnits="userSpaceOnUse">
<stop offset="0.143541" stop-color="#1B94DF"/>
<stop offset="0.183189" stop-color="#056EAD" stop-opacity="0.56"/>
<stop offset="0.266068" stop-color="#1B95DF" stop-opacity="0"/>
<stop offset="0.74008" stop-color="#056EAD" stop-opacity="0"/>
<stop offset="0.843047" stop-color="#056EAD" stop-opacity="0.56"/>
<stop offset="0.89849" stop-color="#056EAD"/>
</linearGradient>
<linearGradient id="paint30_linear_14794_31728" x1="27.5355" y1="32.7822" x2="20.3637" y2="32.7822" gradientUnits="userSpaceOnUse">
<stop offset="0.119886" stop-color="#056EAD"/>
<stop offset="0.183515" stop-color="#056EAD" stop-opacity="0.56"/>
<stop offset="0.319761" stop-color="#31BAF3" stop-opacity="0"/>
<stop offset="0.353268" stop-color="#31BAF3" stop-opacity="0"/>
<stop offset="0.617817" stop-color="#31BAF3" stop-opacity="0"/>
<stop offset="0.685957" stop-color="#31BAF3" stop-opacity="0"/>
<stop offset="0.797458" stop-color="#056EAD" stop-opacity="0.56"/>
<stop offset="0.89849" stop-color="#056EAD"/>
</linearGradient>
<linearGradient id="paint31_linear_14794_31728" x1="26.9446" y1="29.3913" x2="20.8114" y2="35.9312" gradientUnits="userSpaceOnUse">
<stop offset="0.133992" stop-color="#056EAD" stop-opacity="0.56"/>
<stop offset="0.220366" stop-color="#31BAF3" stop-opacity="0"/>
<stop offset="0.353268" stop-color="#31BAF3" stop-opacity="0"/>
<stop offset="0.689154" stop-color="#31BAF3" stop-opacity="0"/>
<stop offset="0.798359" stop-color="#31BAF3" stop-opacity="0"/>
<stop offset="0.899472" stop-color="#056EAD" stop-opacity="0.56"/>
</linearGradient>
<linearGradient id="paint32_linear_14794_31728" x1="26.9446" y1="29.3913" x2="20.8114" y2="35.9312" gradientUnits="userSpaceOnUse">
<stop offset="0.133992" stop-color="#056EAD" stop-opacity="0.56"/>
<stop offset="0.220366" stop-color="#31BAF3" stop-opacity="0"/>
<stop offset="0.353268" stop-color="#31BAF3" stop-opacity="0"/>
<stop offset="0.689154" stop-color="#31BAF3" stop-opacity="0"/>
<stop offset="0.798359" stop-color="#31BAF3" stop-opacity="0"/>
<stop offset="0.899472" stop-color="#056EAD" stop-opacity="0.56"/>
</linearGradient>
<linearGradient id="paint33_linear_14794_31728" x1="29.4609" y1="25.2236" x2="31.0312" y2="25.2236" gradientUnits="userSpaceOnUse">
<stop offset="0.333333" stop-color="#FF945C"/>
<stop offset="1" stop-color="#FF945C" stop-opacity="0"/>
</linearGradient>
<linearGradient id="paint34_linear_14794_31728" x1="35.0897" y1="23.8238" x2="28.5188" y2="23.7697" gradientUnits="userSpaceOnUse">
<stop offset="0.115577" stop-color="#E05A19"/>
<stop offset="0.212961" stop-color="#EC6926" stop-opacity="0.35"/>
<stop offset="0.282884" stop-color="#FF9544" stop-opacity="0"/>
<stop offset="0.668969" stop-color="#FF9544" stop-opacity="0"/>
<stop offset="0.74008" stop-color="#FF9544" stop-opacity="0.37"/>
<stop offset="0.810742" stop-color="#EC6926" stop-opacity="0.56"/>
<stop offset="0.874984" stop-color="#EC6926"/>
</linearGradient>
<linearGradient id="paint35_linear_14794_31728" x1="35.5517" y1="21.1464" x2="28.347" y2="27.4653" gradientUnits="userSpaceOnUse">
<stop offset="0.143541" stop-color="#EC6926"/>
<stop offset="0.183189" stop-color="#EC6926" stop-opacity="0.56"/>
<stop offset="0.327346" stop-color="#FF9544" stop-opacity="0"/>
<stop offset="0.698376" stop-color="#FF9544" stop-opacity="0"/>
<stop offset="0.835105" stop-color="#EC6926" stop-opacity="0.56"/>
<stop offset="0.89849" stop-color="#EC6926"/>
</linearGradient>
<linearGradient id="paint36_linear_14794_31728" x1="35.5517" y1="21.1464" x2="28.347" y2="27.4653" gradientUnits="userSpaceOnUse">
<stop offset="0.143541" stop-color="#EC6926"/>
<stop offset="0.183189" stop-color="#EC6926" stop-opacity="0.56"/>
<stop offset="0.327346" stop-color="#FF9544" stop-opacity="0"/>
<stop offset="0.698376" stop-color="#FF9544" stop-opacity="0"/>
<stop offset="0.835105" stop-color="#EC6926" stop-opacity="0.56"/>
<stop offset="0.89849" stop-color="#EC6926"/>
</linearGradient>
<linearGradient id="paint37_linear_14794_31728" x1="31.7109" y1="20.4047" x2="31.7109" y2="27.1146" gradientUnits="userSpaceOnUse">
<stop offset="0.0737136" stop-color="#EC6926"/>
<stop offset="0.183189" stop-color="#EC6926" stop-opacity="0.56"/>
<stop offset="0.3403" stop-color="#FF9544" stop-opacity="0"/>
<stop offset="0.74008" stop-color="#FF9544" stop-opacity="0"/>
<stop offset="0.843047" stop-color="#EC6926" stop-opacity="0.56"/>
<stop offset="0.89849" stop-color="#EC6926"/>
</linearGradient>
<linearGradient id="paint38_linear_14794_31728" x1="31.7109" y1="29.1937" x2="31.7109" y2="36.2614" gradientUnits="userSpaceOnUse">
<stop offset="0.155632" stop-color="#CFB217"/>
<stop offset="0.203512" stop-color="#CFB217" stop-opacity="0.36"/>
<stop offset="0.279655" stop-color="#FFEC58" stop-opacity="0"/>
<stop offset="0.69452" stop-color="#DFC434" stop-opacity="0"/>
<stop offset="0.801815" stop-color="#CFB217" stop-opacity="0.75"/>
<stop offset="0.863376" stop-color="#CFB217"/>
</linearGradient>
<linearGradient id="paint39_linear_14794_31728" x1="35.5713" y1="29.1094" x2="27.6112" y2="36.4229" gradientUnits="userSpaceOnUse">
<stop offset="0.143541" stop-color="#CFB217"/>
<stop offset="0.183189" stop-color="#CFB217" stop-opacity="0.83"/>
<stop offset="0.279655" stop-color="#CFB217" stop-opacity="0"/>
<stop offset="0.69452" stop-color="#DFC434" stop-opacity="0"/>
<stop offset="0.801815" stop-color="#CFB217" stop-opacity="0.75"/>
<stop offset="0.863376" stop-color="#CFB217"/>
</linearGradient>
<linearGradient id="paint40_linear_14794_31728" x1="35.5713" y1="29.1094" x2="27.8911" y2="36.0962" gradientUnits="userSpaceOnUse">
<stop offset="0.143541" stop-color="#CFB217"/>
<stop offset="0.183189" stop-color="#CFB217" stop-opacity="0.83"/>
<stop offset="0.279655" stop-color="#CFB217" stop-opacity="0"/>
<stop offset="0.69452" stop-color="#DFC434" stop-opacity="0"/>
<stop offset="0.801815" stop-color="#CFB217" stop-opacity="0.75"/>
<stop offset="0.863376" stop-color="#CFB217"/>
</linearGradient>
<linearGradient id="paint41_linear_14794_31728" x1="35.0374" y1="32.5002" x2="28.0433" y2="32.5002" gradientUnits="userSpaceOnUse">
<stop offset="0.0412901" stop-color="#CFB217"/>
<stop offset="0.165564" stop-color="#CFB217" stop-opacity="0.52"/>
<stop offset="0.260484" stop-color="#CFB217" stop-opacity="0"/>
<stop offset="0.733076" stop-color="#DFC434" stop-opacity="0"/>
<stop offset="0.801815" stop-color="#CFB217" stop-opacity="0.75"/>
<stop offset="0.863376" stop-color="#CFB217"/>
</linearGradient>
<linearGradient id="paint42_linear_14794_31728" x1="24" y1="3.05176" x2="24" y2="9.23926" gradientUnits="userSpaceOnUse">
<stop stop-color="#636AB6"/>
<stop offset="1" stop-color="#6C6EBE"/>
</linearGradient>
<linearGradient id="paint43_linear_14794_31728" x1="25.7344" y1="9.47363" x2="25.7344" y2="8.44238" gradientUnits="userSpaceOnUse">
<stop stop-color="#6062B1"/>
<stop offset="1" stop-color="#6062B1" stop-opacity="0"/>
</linearGradient>
<linearGradient id="paint44_linear_14794_31728" x1="9.04688" y1="9.23926" x2="13.875" y2="9.23926" gradientUnits="userSpaceOnUse">
<stop offset="0.135922" stop-color="#484B86"/>
<stop offset="1" stop-color="#5E61AD" stop-opacity="0"/>
</linearGradient>
<linearGradient id="paint45_linear_14794_31728" x1="38.9531" y1="9.23926" x2="34.5469" y2="9.23926" gradientUnits="userSpaceOnUse">
<stop offset="0.12766" stop-color="#7277C8"/>
<stop offset="1" stop-color="#7277C8" stop-opacity="0"/>
</linearGradient>
<radialGradient id="paint46_radial_14794_31728" cx="0" cy="0" r="1" gradientUnits="userSpaceOnUse" gradientTransform="translate(38.9531 8.81738) rotate(-180) scale(0.984374 4.75781)">
<stop stop-color="#6C6FB4"/>
<stop offset="1" stop-color="#6C6FB4" stop-opacity="0"/>
</radialGradient>
<linearGradient id="paint47_linear_14794_31728" x1="41.2032" y1="7.44914" x2="33.816" y2="7.49515" gradientUnits="userSpaceOnUse">
<stop offset="0.250342" stop-color="#232222" stop-opacity="0.13"/>
<stop offset="0.589857" stop-color="white" stop-opacity="0.13"/>
<stop offset="0.772724" stop-color="white" stop-opacity="0.06"/>
<stop offset="1" stop-color="#503F7E" stop-opacity="0"/>
</linearGradient>
<linearGradient id="paint48_linear_14794_31728" x1="38.9531" y1="1.22909" x2="35.1393" y2="6.14551" gradientUnits="userSpaceOnUse">
<stop offset="0.135922" stop-color="#484B86"/>
<stop offset="1" stop-color="#5E61AD" stop-opacity="0"/>
</linearGradient>
<linearGradient id="paint49_linear_14794_31728" x1="24" y1="38.8174" x2="24" y2="44.9346" gradientUnits="userSpaceOnUse">
<stop stop-color="#6B4390"/>
<stop offset="1" stop-color="#76509E"/>
</linearGradient>
<linearGradient id="paint50_linear_14794_31728" x1="9.04688" y1="40.6924" x2="12.6563" y2="40.6924" gradientUnits="userSpaceOnUse">
<stop offset="0.164179" stop-color="#4F3D6C"/>
<stop offset="1" stop-color="#6E4693" stop-opacity="0"/>
</linearGradient>
<radialGradient id="paint51_radial_14794_31728" cx="0" cy="0" r="1" gradientUnits="userSpaceOnUse" gradientTransform="translate(36.4688 38.3018) rotate(90) scale(4.64063 2.4375)">
<stop stop-color="#6B5094"/>
<stop offset="1" stop-color="#6B5094" stop-opacity="0"/>
</radialGradient>
<linearGradient id="paint52_linear_14794_31728" x1="23.5312" y1="38.3955" x2="23.5312" y2="39.2861" gradientUnits="userSpaceOnUse">
<stop offset="0.157895" stop-color="#5E3D7F"/>
<stop offset="1" stop-color="#5E3D7F" stop-opacity="0"/>
</linearGradient>
<linearGradient id="paint53_linear_14794_31728" x1="41.2032" y1="43.1648" x2="33.816" y2="43.2113" gradientUnits="userSpaceOnUse">
<stop offset="0.250342" stop-color="#232222" stop-opacity="0.13"/>
<stop offset="0.589857" stop-color="white" stop-opacity="0.13"/>
<stop offset="0.772724" stop-color="white" stop-opacity="0.06"/>
<stop offset="1" stop-color="#503F7E" stop-opacity="0"/>
</linearGradient>
<linearGradient id="paint54_linear_14794_31728" x1="39.3428" y1="46.43" x2="34.0541" y2="41.228" gradientUnits="userSpaceOnUse">
<stop offset="0.195124" stop-color="#5E3D7F"/>
<stop offset="0.629149" stop-color="#5E3D7F" stop-opacity="0"/>
</linearGradient>
</defs>
</svg>
