<svg width="48" height="48" viewBox="0 0 48 48" fill="none" xmlns="http://www.w3.org/2000/svg">
<g id="Ring">
<g id="Union">
<path fill-rule="evenodd" clip-rule="evenodd" d="M17.7656 12.3517C17.918 13.6673 17.4141 14.4024 16.7754 14.672H16.7853C11.2953 17.1609 7.47656 22.6892 7.47656 29.1095C7.47656 37.8597 14.5701 44.9532 23.3203 44.9532C32.0706 44.9532 39.1641 37.8597 39.1641 29.1095C39.1641 22.6616 35.3123 17.1133 29.7842 14.64C29.2125 14.3842 28.6997 13.6128 28.8457 12.3517L23.3203 11.5092L17.7656 12.3517ZM34.1391 29.1095C34.1391 35.0845 29.2953 39.9282 23.3203 39.9282C17.3453 39.9282 12.5016 35.0845 12.5016 29.1095C12.5016 23.1344 17.3453 18.2907 23.3203 18.2907C29.2953 18.2907 34.1391 23.1344 34.1391 29.1095Z" fill="#C4AFD9"/>
<path fill-rule="evenodd" clip-rule="evenodd" d="M17.7656 12.3517C17.918 13.6673 17.4141 14.4024 16.7754 14.672H16.7853C11.2953 17.1609 7.47656 22.6892 7.47656 29.1095C7.47656 37.8597 14.5701 44.9532 23.3203 44.9532C32.0706 44.9532 39.1641 37.8597 39.1641 29.1095C39.1641 22.6616 35.3123 17.1133 29.7842 14.64C29.2125 14.3842 28.6997 13.6128 28.8457 12.3517L23.3203 11.5092L17.7656 12.3517ZM34.1391 29.1095C34.1391 35.0845 29.2953 39.9282 23.3203 39.9282C17.3453 39.9282 12.5016 35.0845 12.5016 29.1095C12.5016 23.1344 17.3453 18.2907 23.3203 18.2907C29.2953 18.2907 34.1391 23.1344 34.1391 29.1095Z" fill="url(#paint0_radial_14794_1258)"/>
<path fill-rule="evenodd" clip-rule="evenodd" d="M17.7656 12.3517C17.918 13.6673 17.4141 14.4024 16.7754 14.672H16.7853C11.2953 17.1609 7.47656 22.6892 7.47656 29.1095C7.47656 37.8597 14.5701 44.9532 23.3203 44.9532C32.0706 44.9532 39.1641 37.8597 39.1641 29.1095C39.1641 22.6616 35.3123 17.1133 29.7842 14.64C29.2125 14.3842 28.6997 13.6128 28.8457 12.3517L23.3203 11.5092L17.7656 12.3517ZM34.1391 29.1095C34.1391 35.0845 29.2953 39.9282 23.3203 39.9282C17.3453 39.9282 12.5016 35.0845 12.5016 29.1095C12.5016 23.1344 17.3453 18.2907 23.3203 18.2907C29.2953 18.2907 34.1391 23.1344 34.1391 29.1095Z" fill="url(#paint1_radial_14794_1258)"/>
<path fill-rule="evenodd" clip-rule="evenodd" d="M17.7656 12.3517C17.918 13.6673 17.4141 14.4024 16.7754 14.672H16.7853C11.2953 17.1609 7.47656 22.6892 7.47656 29.1095C7.47656 37.8597 14.5701 44.9532 23.3203 44.9532C32.0706 44.9532 39.1641 37.8597 39.1641 29.1095C39.1641 22.6616 35.3123 17.1133 29.7842 14.64C29.2125 14.3842 28.6997 13.6128 28.8457 12.3517L23.3203 11.5092L17.7656 12.3517ZM34.1391 29.1095C34.1391 35.0845 29.2953 39.9282 23.3203 39.9282C17.3453 39.9282 12.5016 35.0845 12.5016 29.1095C12.5016 23.1344 17.3453 18.2907 23.3203 18.2907C29.2953 18.2907 34.1391 23.1344 34.1391 29.1095Z" fill="url(#paint2_radial_14794_1258)"/>
<path fill-rule="evenodd" clip-rule="evenodd" d="M17.7656 12.3517C17.918 13.6673 17.4141 14.4024 16.7754 14.672H16.7853C11.2953 17.1609 7.47656 22.6892 7.47656 29.1095C7.47656 37.8597 14.5701 44.9532 23.3203 44.9532C32.0706 44.9532 39.1641 37.8597 39.1641 29.1095C39.1641 22.6616 35.3123 17.1133 29.7842 14.64C29.2125 14.3842 28.6997 13.6128 28.8457 12.3517L23.3203 11.5092L17.7656 12.3517ZM34.1391 29.1095C34.1391 35.0845 29.2953 39.9282 23.3203 39.9282C17.3453 39.9282 12.5016 35.0845 12.5016 29.1095C12.5016 23.1344 17.3453 18.2907 23.3203 18.2907C29.2953 18.2907 34.1391 23.1344 34.1391 29.1095Z" fill="url(#paint3_radial_14794_1258)"/>
<path fill-rule="evenodd" clip-rule="evenodd" d="M17.7656 12.3517C17.918 13.6673 17.4141 14.4024 16.7754 14.672H16.7853C11.2953 17.1609 7.47656 22.6892 7.47656 29.1095C7.47656 37.8597 14.5701 44.9532 23.3203 44.9532C32.0706 44.9532 39.1641 37.8597 39.1641 29.1095C39.1641 22.6616 35.3123 17.1133 29.7842 14.64C29.2125 14.3842 28.6997 13.6128 28.8457 12.3517L23.3203 11.5092L17.7656 12.3517ZM34.1391 29.1095C34.1391 35.0845 29.2953 39.9282 23.3203 39.9282C17.3453 39.9282 12.5016 35.0845 12.5016 29.1095C12.5016 23.1344 17.3453 18.2907 23.3203 18.2907C29.2953 18.2907 34.1391 23.1344 34.1391 29.1095Z" fill="url(#paint4_radial_14794_1258)"/>
<path fill-rule="evenodd" clip-rule="evenodd" d="M17.7656 12.3517C17.918 13.6673 17.4141 14.4024 16.7754 14.672H16.7853C11.2953 17.1609 7.47656 22.6892 7.47656 29.1095C7.47656 37.8597 14.5701 44.9532 23.3203 44.9532C32.0706 44.9532 39.1641 37.8597 39.1641 29.1095C39.1641 22.6616 35.3123 17.1133 29.7842 14.64C29.2125 14.3842 28.6997 13.6128 28.8457 12.3517L23.3203 11.5092L17.7656 12.3517ZM34.1391 29.1095C34.1391 35.0845 29.2953 39.9282 23.3203 39.9282C17.3453 39.9282 12.5016 35.0845 12.5016 29.1095C12.5016 23.1344 17.3453 18.2907 23.3203 18.2907C29.2953 18.2907 34.1391 23.1344 34.1391 29.1095Z" fill="url(#paint5_radial_14794_1258)"/>
<path fill-rule="evenodd" clip-rule="evenodd" d="M17.7656 12.3517C17.918 13.6673 17.4141 14.4024 16.7754 14.672H16.7853C11.2953 17.1609 7.47656 22.6892 7.47656 29.1095C7.47656 37.8597 14.5701 44.9532 23.3203 44.9532C32.0706 44.9532 39.1641 37.8597 39.1641 29.1095C39.1641 22.6616 35.3123 17.1133 29.7842 14.64C29.2125 14.3842 28.6997 13.6128 28.8457 12.3517L23.3203 11.5092L17.7656 12.3517ZM34.1391 29.1095C34.1391 35.0845 29.2953 39.9282 23.3203 39.9282C17.3453 39.9282 12.5016 35.0845 12.5016 29.1095C12.5016 23.1344 17.3453 18.2907 23.3203 18.2907C29.2953 18.2907 34.1391 23.1344 34.1391 29.1095Z" fill="url(#paint6_radial_14794_1258)" fill-opacity="0.8"/>
<path fill-rule="evenodd" clip-rule="evenodd" d="M17.7656 12.3517C17.918 13.6673 17.4141 14.4024 16.7754 14.672H16.7853C11.2953 17.1609 7.47656 22.6892 7.47656 29.1095C7.47656 37.8597 14.5701 44.9532 23.3203 44.9532C32.0706 44.9532 39.1641 37.8597 39.1641 29.1095C39.1641 22.6616 35.3123 17.1133 29.7842 14.64C29.2125 14.3842 28.6997 13.6128 28.8457 12.3517L23.3203 11.5092L17.7656 12.3517ZM34.1391 29.1095C34.1391 35.0845 29.2953 39.9282 23.3203 39.9282C17.3453 39.9282 12.5016 35.0845 12.5016 29.1095C12.5016 23.1344 17.3453 18.2907 23.3203 18.2907C29.2953 18.2907 34.1391 23.1344 34.1391 29.1095Z" fill="url(#paint7_radial_14794_1258)"/>
<path fill-rule="evenodd" clip-rule="evenodd" d="M17.7656 12.3517C17.918 13.6673 17.4141 14.4024 16.7754 14.672H16.7853C11.2953 17.1609 7.47656 22.6892 7.47656 29.1095C7.47656 37.8597 14.5701 44.9532 23.3203 44.9532C32.0706 44.9532 39.1641 37.8597 39.1641 29.1095C39.1641 22.6616 35.3123 17.1133 29.7842 14.64C29.2125 14.3842 28.6997 13.6128 28.8457 12.3517L23.3203 11.5092L17.7656 12.3517ZM34.1391 29.1095C34.1391 35.0845 29.2953 39.9282 23.3203 39.9282C17.3453 39.9282 12.5016 35.0845 12.5016 29.1095C12.5016 23.1344 17.3453 18.2907 23.3203 18.2907C29.2953 18.2907 34.1391 23.1344 34.1391 29.1095Z" fill="url(#paint8_radial_14794_1258)"/>
<path fill-rule="evenodd" clip-rule="evenodd" d="M17.7656 12.3517C17.918 13.6673 17.4141 14.4024 16.7754 14.672H16.7853C11.2953 17.1609 7.47656 22.6892 7.47656 29.1095C7.47656 37.8597 14.5701 44.9532 23.3203 44.9532C32.0706 44.9532 39.1641 37.8597 39.1641 29.1095C39.1641 22.6616 35.3123 17.1133 29.7842 14.64C29.2125 14.3842 28.6997 13.6128 28.8457 12.3517L23.3203 11.5092L17.7656 12.3517ZM34.1391 29.1095C34.1391 35.0845 29.2953 39.9282 23.3203 39.9282C17.3453 39.9282 12.5016 35.0845 12.5016 29.1095C12.5016 23.1344 17.3453 18.2907 23.3203 18.2907C29.2953 18.2907 34.1391 23.1344 34.1391 29.1095Z" fill="url(#paint9_radial_14794_1258)" fill-opacity="0.6"/>
</g>
<g id="Union_2">
<path d="M17.7891 12.4688L15.6804 7.73794C15.5868 7.52791 15.6214 7.28286 15.7696 7.10703L18.9306 3.35601C19.0018 3.27145 19.1068 3.22266 19.2173 3.22266H27.4467C27.5573 3.22266 27.6622 3.27145 27.7335 3.35601L30.8944 7.10703C31.0426 7.28286 31.0773 7.52791 30.9836 7.73794L28.875 12.4688H17.7891Z" fill="url(#paint10_linear_14794_1258)"/>
<path d="M17.7891 12.4688L15.6804 7.73794C15.5868 7.52791 15.6214 7.28286 15.7696 7.10703L18.9306 3.35601C19.0018 3.27145 19.1068 3.22266 19.2173 3.22266H27.4467C27.5573 3.22266 27.6622 3.27145 27.7335 3.35601L30.8944 7.10703C31.0426 7.28286 31.0773 7.52791 30.9836 7.73794L28.875 12.4688H17.7891Z" fill="url(#paint11_linear_14794_1258)"/>
<path d="M17.7891 12.4688L15.6804 7.73794C15.5868 7.52791 15.6214 7.28286 15.7696 7.10703L18.9306 3.35601C19.0018 3.27145 19.1068 3.22266 19.2173 3.22266H27.4467C27.5573 3.22266 27.6622 3.27145 27.7335 3.35601L30.8944 7.10703C31.0426 7.28286 31.0773 7.52791 30.9836 7.73794L28.875 12.4688H17.7891Z" fill="url(#paint12_linear_14794_1258)"/>
</g>
<g id="Intersect">
<path d="M15.6804 7.73795L17.7891 12.4688H28.875L30.9836 7.73795C31.048 7.59357 31.0517 7.43266 30.9997 7.28906H15.6644C15.6123 7.43266 15.6161 7.59357 15.6804 7.73795Z" fill="url(#paint13_linear_14794_1258)"/>
<path d="M15.6804 7.73795L17.7891 12.4688H28.875L30.9836 7.73795C31.048 7.59357 31.0517 7.43266 30.9997 7.28906H15.6644C15.6123 7.43266 15.6161 7.59357 15.6804 7.73795Z" fill="url(#paint14_linear_14794_1258)"/>
<path d="M15.6804 7.73795L17.7891 12.4688H28.875L30.9836 7.73795C31.048 7.59357 31.0517 7.43266 30.9997 7.28906H15.6644C15.6123 7.43266 15.6161 7.59357 15.6804 7.73795Z" fill="url(#paint15_radial_14794_1258)"/>
</g>
</g>
<defs>
<radialGradient id="paint0_radial_14794_1258" cx="0" cy="0" r="1" gradientUnits="userSpaceOnUse" gradientTransform="translate(23.3203 11.5312) rotate(90) scale(3.375 6.1875)">
<stop offset="0.250001" stop-color="#C0A4D9"/>
<stop offset="1" stop-color="#C0A4D9" stop-opacity="0"/>
</radialGradient>
<radialGradient id="paint1_radial_14794_1258" cx="0" cy="0" r="1" gradientUnits="userSpaceOnUse" gradientTransform="translate(24.2815 28.6523) rotate(-61.0647) scale(18.6259 17.9497)">
<stop offset="0.700117" stop-color="white" stop-opacity="0.38"/>
<stop offset="0.760404" stop-color="white" stop-opacity="0.27"/>
<stop offset="0.963871" stop-color="#CDBCDD" stop-opacity="0"/>
</radialGradient>
<radialGradient id="paint2_radial_14794_1258" cx="0" cy="0" r="1" gradientUnits="userSpaceOnUse" gradientTransform="translate(23.3203 27.2935) rotate(90) scale(19.6176 20.2643)">
<stop offset="0.771219" stop-color="#C0A4D9" stop-opacity="0"/>
<stop offset="0.843374" stop-color="#BE9DD9"/>
</radialGradient>
<radialGradient id="paint3_radial_14794_1258" cx="0" cy="0" r="1" gradientUnits="userSpaceOnUse" gradientTransform="translate(23.3203 26.6228) rotate(-7.08931) scale(19.5621 17.4859)">
<stop offset="0.569863" stop-color="#C0A4D9"/>
<stop offset="0.738482" stop-color="#C0A4D9" stop-opacity="0"/>
<stop offset="1" stop-color="#C0A4D9" stop-opacity="0"/>
</radialGradient>
<radialGradient id="paint4_radial_14794_1258" cx="0" cy="0" r="1" gradientUnits="userSpaceOnUse" gradientTransform="translate(25.1421 30.0573) rotate(-142.492) scale(19.4278 20.0684)">
<stop offset="0.714721" stop-color="#C5AFDB" stop-opacity="0"/>
<stop offset="0.886749" stop-color="#A69CAF"/>
</radialGradient>
<radialGradient id="paint5_radial_14794_1258" cx="0" cy="0" r="1" gradientUnits="userSpaceOnUse" gradientTransform="translate(17.9252 32.6851) rotate(-36.9662) scale(31.4299 31.6765)">
<stop offset="0.507781" stop-color="#C5AFDB" stop-opacity="0"/>
<stop offset="0.639771" stop-color="#EDE7F4" stop-opacity="0.52"/>
<stop offset="0.657918" stop-color="#EDE7F4" stop-opacity="0.52"/>
<stop offset="0.720014" stop-color="#DED7E6" stop-opacity="0"/>
</radialGradient>
<radialGradient id="paint6_radial_14794_1258" cx="0" cy="0" r="1" gradientUnits="userSpaceOnUse" gradientTransform="translate(22.8809 17.3363) rotate(1.62115) scale(6.75198 25.284)">
<stop offset="0.579368" stop-color="#C0A4D9"/>
<stop offset="0.928412" stop-color="#C0A4D9" stop-opacity="0"/>
</radialGradient>
<radialGradient id="paint7_radial_14794_1258" cx="0" cy="0" r="1" gradientUnits="userSpaceOnUse" gradientTransform="translate(31.9412 43.2982) rotate(-34.713) scale(18.3125 14.1278)">
<stop offset="0.429864" stop-color="#C0A4D9" stop-opacity="0.79"/>
<stop offset="1" stop-color="#C0A4D9" stop-opacity="0"/>
</radialGradient>
<radialGradient id="paint8_radial_14794_1258" cx="0" cy="0" r="1" gradientUnits="userSpaceOnUse" gradientTransform="translate(25.8058 31.3272) rotate(26.2883) scale(13.9714 14.3828)">
<stop offset="0.588663" stop-color="#A69CAF" stop-opacity="0.86"/>
<stop offset="0.771917" stop-color="#CDBCDD" stop-opacity="0"/>
</radialGradient>
<radialGradient id="paint9_radial_14794_1258" cx="0" cy="0" r="1" gradientUnits="userSpaceOnUse" gradientTransform="translate(28.3911 13.9471) rotate(86.2595) scale(3.01754 3.07643)">
<stop offset="0.379809" stop-color="white" stop-opacity="0.23"/>
<stop offset="0.771917" stop-color="white" stop-opacity="0"/>
</radialGradient>
<linearGradient id="paint10_linear_14794_1258" x1="20.6953" y1="6.42188" x2="29.8359" y2="6.42188" gradientUnits="userSpaceOnUse">
<stop stop-color="#47CCFF"/>
<stop offset="0.641026" stop-color="#2695DD"/>
<stop offset="1" stop-color="#3576A8"/>
</linearGradient>
<linearGradient id="paint11_linear_14794_1258" x1="23.332" y1="7.45313" x2="23.332" y2="7.00781" gradientUnits="userSpaceOnUse">
<stop offset="0.368421" stop-color="#32A5F6"/>
<stop offset="1" stop-color="#32A5F6" stop-opacity="0"/>
</linearGradient>
<linearGradient id="paint12_linear_14794_1258" x1="23.332" y1="2.90625" x2="23.332" y2="3.46875" gradientUnits="userSpaceOnUse">
<stop stop-color="#2B9FD9"/>
<stop offset="1" stop-color="#2B9FD9" stop-opacity="0"/>
</linearGradient>
<linearGradient id="paint13_linear_14794_1258" x1="17.3203" y1="11.7656" x2="25.4297" y2="9.87891" gradientUnits="userSpaceOnUse">
<stop stop-color="#2C67CA"/>
<stop offset="1" stop-color="#2CB2FF"/>
</linearGradient>
<linearGradient id="paint14_linear_14794_1258" x1="23.332" y1="7.28906" x2="23.332" y2="7.52344" gradientUnits="userSpaceOnUse">
<stop stop-color="#32A5F6"/>
<stop offset="1" stop-color="#32A5F6" stop-opacity="0"/>
</linearGradient>
<radialGradient id="paint15_radial_14794_1258" cx="0" cy="0" r="1" gradientUnits="userSpaceOnUse" gradientTransform="translate(27.8906 7.42969) rotate(180) scale(4.82812 0.375)">
<stop offset="0.286408" stop-color="#51BBFD"/>
<stop offset="1" stop-color="#52B9FC" stop-opacity="0"/>
</radialGradient>
</defs>
</svg>
