<svg width="48" height="48" viewBox="0 0 48 48" fill="none" xmlns="http://www.w3.org/2000/svg">
<g id="Shallow pan of food">
<g id="Vector 222 (Stroke)">
<path fill-rule="evenodd" clip-rule="evenodd" d="M12.5872 8.13421C12.2246 8.08743 11.9046 8.17164 11.6633 8.3929C10.6999 9.27635 9.57727 10.4147 8.74355 11.26C8.49076 11.5163 8.26453 11.7457 8.07736 11.9329C7.51704 12.4932 7.51216 12.914 7.58144 13.1919C7.66837 13.5405 7.92502 13.8441 8.10792 14.0086L8.11656 14.0164L10.4163 16.2184C10.7155 16.5048 10.7258 16.9796 10.4394 17.2788C10.1529 17.578 9.67814 17.5883 9.37896 17.3018L7.09539 15.1153C6.80799 14.8547 6.31421 14.3096 6.126 13.5548C5.91812 12.721 6.11803 11.771 7.01667 10.8723C7.19178 10.6971 7.40839 10.4775 7.65369 10.2287C8.48811 9.38259 9.65461 8.19969 10.6495 7.28737C11.2787 6.71037 12.0689 6.5549 12.7791 6.64655C13.4781 6.73675 14.1478 7.06885 14.6254 7.54238C14.9809 7.89489 15.3922 8.2912 15.7914 8.67545L15.8545 8.73618C16.229 9.09655 16.5908 9.44469 16.8732 9.72471C17.1673 10.0164 17.1694 10.4912 16.8777 10.7854C16.5861 11.0795 16.1112 11.0815 15.8171 10.7899C15.5429 10.5181 15.1887 10.1772 14.8103 9.81307L14.7513 9.75624C14.3534 9.37327 13.934 8.96924 13.5692 8.60756C13.3265 8.36689 12.9609 8.18245 12.5872 8.13421Z" fill="#5F4982"/>
<path fill-rule="evenodd" clip-rule="evenodd" d="M12.5872 8.13421C12.2246 8.08743 11.9046 8.17164 11.6633 8.3929C10.6999 9.27635 9.57727 10.4147 8.74355 11.26C8.49076 11.5163 8.26453 11.7457 8.07736 11.9329C7.51704 12.4932 7.51216 12.914 7.58144 13.1919C7.66837 13.5405 7.92502 13.8441 8.10792 14.0086L8.11656 14.0164L10.4163 16.2184C10.7155 16.5048 10.7258 16.9796 10.4394 17.2788C10.1529 17.578 9.67814 17.5883 9.37896 17.3018L7.09539 15.1153C6.80799 14.8547 6.31421 14.3096 6.126 13.5548C5.91812 12.721 6.11803 11.771 7.01667 10.8723C7.19178 10.6971 7.40839 10.4775 7.65369 10.2287C8.48811 9.38259 9.65461 8.19969 10.6495 7.28737C11.2787 6.71037 12.0689 6.5549 12.7791 6.64655C13.4781 6.73675 14.1478 7.06885 14.6254 7.54238C14.9809 7.89489 15.3922 8.2912 15.7914 8.67545L15.8545 8.73618C16.229 9.09655 16.5908 9.44469 16.8732 9.72471C17.1673 10.0164 17.1694 10.4912 16.8777 10.7854C16.5861 11.0795 16.1112 11.0815 15.8171 10.7899C15.5429 10.5181 15.1887 10.1772 14.8103 9.81307L14.7513 9.75624C14.3534 9.37327 13.934 8.96924 13.5692 8.60756C13.3265 8.36689 12.9609 8.18245 12.5872 8.13421Z" fill="url(#paint0_radial_14794_29425)"/>
</g>
<g id="Vector 232" filter="url(#filter0_f_14794_29425)">
<path d="M8.25003 14.7889C8.25003 14.7889 8.47271 15.0233 7.53517 14.0741C6.59763 13.1249 7.06093 12.3016 7.53518 11.7303C8.05081 11.1092 10.1641 9.09749 11.3672 7.90999C11.7389 7.5431 12.821 6.83913 13.9453 7.78108C14.5957 8.32599 14.9394 8.69711 15.2519 8.994" stroke="url(#paint1_linear_14794_29425)" stroke-width="0.25" stroke-linecap="round"/>
</g>
<path id="Vector 223 (Stroke)" fill-rule="evenodd" clip-rule="evenodd" d="M38.5522 37.0414C38.805 36.785 39.0313 36.5556 39.2184 36.3685C39.7787 35.8081 39.7836 35.3873 39.7144 35.1095C39.6274 34.7609 39.3708 34.4573 39.1879 34.2927L39.1792 34.285L36.8795 32.083C36.5803 31.7965 36.57 31.3218 36.8564 31.0226C37.1429 30.7234 37.6176 30.7131 37.9168 30.9996L40.2004 33.186C40.4878 33.4467 40.9816 33.9918 41.1698 34.7466C41.3777 35.5803 41.1778 36.5304 40.2791 37.4291C40.104 37.6042 39.8874 37.8239 39.6421 38.0726C38.8077 38.9188 37.6412 40.1017 36.6463 41.014C36.0171 41.591 35.2269 41.7465 34.5167 41.6548C33.8177 41.5646 33.148 41.2325 32.6704 40.759C32.3149 40.4065 31.9036 40.0102 31.5044 39.6259L31.4413 39.5652C31.0668 39.2048 30.705 38.8567 30.4226 38.5766C30.1284 38.285 30.1264 37.8101 30.4181 37.516C30.7097 37.2219 31.1846 37.2198 31.4787 37.5115C31.7528 37.7833 32.107 38.1241 32.4853 38.4882L32.5445 38.5451C32.9424 38.9281 33.3618 39.3321 33.7266 39.6938C33.9693 39.9345 34.3349 40.1189 34.7086 40.1671C35.0712 40.2139 35.3912 40.1297 35.6325 39.9085C36.5959 39.025 37.7185 37.8867 38.5522 37.0414Z" fill="#513D75"/>
<g id="Vector 233" filter="url(#filter1_f_14794_29425)">
<path d="M38.6954 32.3905C38.6954 32.3905 39.152 32.7911 40.0895 33.7403C41.0271 34.6895 40.6579 35.6417 40.1836 36.2129C39.668 36.834 37.5547 38.8458 36.3516 40.0333C35.9799 40.4002 34.8037 40.9753 33.6794 40.0333C33.029 39.4884 32.6853 39.1173 32.3728 38.8204" stroke="url(#paint2_linear_14794_29425)" stroke-width="0.25" stroke-linecap="round"/>
</g>
<circle id="Ellipse 111" cx="24.0742" cy="23.6445" r="17.2305" fill="url(#paint3_linear_14794_29425)"/>
<g id="Ellipse 113" filter="url(#filter2_f_14794_29425)">
<circle cx="24.0741" cy="23.6445" r="16.4258" fill="url(#paint4_linear_14794_29425)"/>
<circle cx="24.0741" cy="23.6445" r="16.4258" fill="url(#paint5_radial_14794_29425)"/>
</g>
<g id="Ellipse 112">
<circle cx="24.0741" cy="23.6445" r="13.4258" fill="url(#paint6_radial_14794_29425)"/>
<circle cx="24.0741" cy="23.6445" r="13.4258" fill="url(#paint7_radial_14794_29425)"/>
</g>
<g id="Shape" filter="url(#filter3_f_14794_29425)">
<path d="M23.5347 33.9844C24.6809 33.9844 25.8336 34.6518 26.8862 34.3243C27.9623 33.9734 28.5755 32.6238 29.4878 31.9688C30.4001 31.3138 31.6805 31.1584 32.3472 30.2578C33.1714 29.1444 32.8911 27.5777 33.242 26.5017C33.5812 25.4608 34.5854 24.7243 34.5854 23.5547C34.5854 22.4086 33.4598 21.1333 33.1206 20.0924C32.7697 19.0163 33.1741 17.9016 32.4995 16.9571C31.7283 15.8774 30.3766 15.7487 29.4644 15.0937C28.5755 14.4388 28.1356 13.2086 26.8276 12.7824C25.5197 12.3562 24.5168 13.0782 23.3472 13.0782C22.201 13.0782 21.4227 12.3078 19.9671 12.7824C18.8911 13.1333 18.1891 14.4388 17.2769 15.0937C16.3646 15.7487 15.1016 15.8935 14.435 16.7941C13.6675 17.8309 14.0184 19.1271 13.6675 20.2031C13.3283 21.2441 12.2378 22.3734 12.2378 23.543C12.2378 24.6892 13.2069 25.6309 13.5461 26.6719C13.897 27.7479 13.5461 29.1446 14.4878 30.2812C15.1428 31.1935 16.3646 31.22 17.2769 31.875C18.1657 32.53 18.8727 33.9734 19.9487 34.3243C21.0131 34.6635 22.3885 33.9844 23.5347 33.9844Z" fill="#393138"/>
</g>
<path id="Shape_2" d="M24.1406 33.9844C25.2868 33.9844 26.4396 34.6518 27.4922 34.3243C28.5682 33.9734 29.1815 32.6238 30.0938 31.9688C31.006 31.3138 32.2865 31.1584 32.9531 30.2578C33.7773 29.1444 33.4971 27.5777 33.8479 26.5017C34.1871 25.4608 35.1914 24.7243 35.1914 23.5547C35.1914 22.4086 34.0657 21.1333 33.7266 20.0924C33.3757 19.0163 33.7801 17.9016 33.1055 16.9571C32.3342 15.8774 30.9826 15.7487 30.0703 15.0937C29.1814 14.4388 28.7415 13.2086 27.4336 12.7824C26.1257 12.3562 25.1227 13.0782 23.9531 13.0782C22.8069 13.0782 22.0287 12.3078 20.5731 12.7824C19.4971 13.1333 18.7951 14.4388 17.8828 15.0937C16.9705 15.7487 15.7076 15.8935 15.0409 16.7941C14.2734 17.8309 14.6243 19.1271 14.2734 20.2031C13.9343 21.2441 12.8438 22.3734 12.8438 23.543C12.8438 24.6892 13.8129 25.6309 14.152 26.6719C14.5029 27.7479 14.152 29.1446 15.0938 30.2812C15.7487 31.1935 16.9705 31.22 17.8828 31.875C18.7717 32.53 19.4787 33.9734 20.5547 34.3243C21.619 34.6635 22.9944 33.9844 24.1406 33.9844Z" fill="url(#paint8_linear_14794_29425)"/>
<g id="Shape_3" filter="url(#filter4_f_14794_29425)">
<path d="M24.1339 33.417C25.218 33.417 26.3082 34.0482 27.3037 33.7385C28.3214 33.4066 28.9014 32.1302 29.7642 31.5108C30.627 30.8913 31.838 30.7443 32.4685 29.8925C33.248 28.8395 32.983 27.3578 33.3148 26.3401C33.6356 25.3557 34.5854 24.6592 34.5854 23.553C34.5854 22.469 33.5208 21.2629 33.2 20.2784C32.8682 19.2607 33.2506 18.2064 32.6126 17.3131C31.8832 16.292 30.6049 16.1703 29.7421 15.5508C28.9014 14.9314 28.4853 13.7679 27.2483 13.3649C26.0113 12.9618 25.0628 13.6446 23.9566 13.6446C22.8726 13.6446 22.1365 12.916 20.7599 13.3649C19.7422 13.6967 19.0783 14.9314 18.2155 15.5508C17.3527 16.1703 16.1582 16.3072 15.5277 17.159C14.8019 18.1396 15.1337 19.3655 14.8019 20.3831C14.4811 21.3676 13.4497 22.4358 13.4497 23.5419C13.4497 24.626 14.3663 25.5166 14.687 26.5011C15.0189 27.5187 14.687 28.8397 15.5777 29.9147C16.1971 30.7775 17.3527 30.8026 18.2155 31.422C19.0562 32.0415 19.7248 33.4066 20.7425 33.7385C21.7491 34.0593 23.0499 33.417 24.1339 33.417Z" fill="url(#paint9_linear_14794_29425)"/>
</g>
<g id="Shape_4" filter="url(#filter5_f_14794_29425)">
<path d="M25.3659 18.6491C25.7974 19.0807 26.4971 19.0807 26.9287 18.6491C27.3602 18.2176 27.3602 17.5179 26.9287 17.0864C26.4971 16.6548 25.7974 16.6548 25.3659 17.0864C24.9343 17.5179 24.9344 18.2176 25.3659 18.6491Z" fill="#B36D31"/>
</g>
<g id="Shape_5" filter="url(#filter6_f_14794_29425)">
<path d="M15.3237 26.5007C15.7552 26.9322 16.4549 26.9322 16.8864 26.5007C17.318 26.0691 17.318 25.3695 16.8864 24.9379C16.4549 24.5064 15.7552 24.5064 15.3237 24.9379C14.8921 25.3695 14.8921 26.0691 15.3237 26.5007Z" fill="#B36D31"/>
</g>
<g id="Shape_6" filter="url(#filter7_f_14794_29425)">
<path d="M27.2699 30.9147C27.7015 31.3463 28.4012 31.3463 28.8327 30.9147C29.2643 30.4832 29.2643 29.7835 28.8327 29.352C28.4012 28.9204 27.7015 28.9204 27.2699 29.352C26.8384 29.7835 26.8384 30.4832 27.2699 30.9147Z" fill="#B36D31"/>
</g>
<g id="Shape_7">
<path d="M25.7065 18.4733C26.138 18.9049 26.8377 18.9049 27.2692 18.4733C27.7008 18.0418 27.7008 17.3421 27.2692 16.9106C26.8377 16.479 26.138 16.479 25.7065 16.9106C25.2749 17.3421 25.2749 18.0418 25.7065 18.4733Z" fill="#C9433E"/>
<path d="M25.7065 18.4733C26.138 18.9049 26.8377 18.9049 27.2692 18.4733C27.7008 18.0418 27.7008 17.3421 27.2692 16.9106C26.8377 16.479 26.138 16.479 25.7065 16.9106C25.2749 17.3421 25.2749 18.0418 25.7065 18.4733Z" fill="url(#paint10_radial_14794_29425)"/>
</g>
<g id="Shape_8">
<path d="M27.5761 30.7311C28.0076 31.1627 28.7073 31.1627 29.1389 30.7311C29.5704 30.2996 29.5704 29.5999 29.1389 29.1684C28.7073 28.7368 28.0076 28.7368 27.5761 29.1684C27.1446 29.5999 27.1446 30.2996 27.5761 30.7311Z" fill="#C9433E"/>
<path d="M27.5761 30.7311C28.0076 31.1627 28.7073 31.1627 29.1389 30.7311C29.5704 30.2996 29.5704 29.5999 29.1389 29.1684C28.7073 28.7368 28.0076 28.7368 27.5761 29.1684C27.1446 29.5999 27.1446 30.2996 27.5761 30.7311Z" fill="url(#paint11_radial_14794_29425)"/>
</g>
<g id="Shape_9">
<path d="M15.5994 26.3718C16.031 26.8033 16.7306 26.8033 17.1622 26.3718C17.5937 25.9402 17.5937 25.2406 17.1622 24.809C16.7306 24.3775 16.031 24.3775 15.5994 24.809C15.1679 25.2406 15.1679 25.9402 15.5994 26.3718Z" fill="#C9433E"/>
<path d="M15.5994 26.3718C16.031 26.8033 16.7306 26.8033 17.1622 26.3718C17.5937 25.9402 17.5937 25.2406 17.1622 24.809C16.7306 24.3775 16.031 24.3775 15.5994 24.809C15.1679 25.2406 15.1679 25.9402 15.5994 26.3718Z" fill="url(#paint12_radial_14794_29425)"/>
</g>
<g id="Shape_10" filter="url(#filter8_f_14794_29425)">
<path d="M28.7622 21.2184C29.3106 21.2744 29.7098 21.7644 29.6537 22.3128L29.2673 26.0953C29.2113 26.6437 28.5455 27.0815 27.9971 27.0255C27.4488 26.9695 27.0496 26.4795 27.1056 25.9311L27.492 22.1486C27.5481 21.6002 28.2138 21.1624 28.7622 21.2184Z" fill="#9D7B30"/>
</g>
<g id="Shape_11">
<path d="M29.0145 21.066C29.5629 21.122 29.9621 21.6119 29.906 22.1603L29.5196 25.9429C29.4636 26.4913 28.9737 26.8904 28.4253 26.8344C27.8769 26.7784 27.4777 26.2884 27.5338 25.74L27.9202 21.9575C27.9762 21.4091 28.4661 21.0099 29.0145 21.066Z" fill="url(#paint13_linear_14794_29425)"/>
<path d="M29.0145 21.066C29.5629 21.122 29.9621 21.6119 29.906 22.1603L29.5196 25.9429C29.4636 26.4913 28.9737 26.8904 28.4253 26.8344C27.8769 26.7784 27.4777 26.2884 27.5338 25.74L27.9202 21.9575C27.9762 21.4091 28.4661 21.0099 29.0145 21.066Z" fill="url(#paint14_radial_14794_29425)"/>
</g>
<g id="Shape_12" filter="url(#filter9_f_14794_29425)">
<path d="M22.8409 18.0269C23.0207 18.5574 22.7363 19.1332 22.2058 19.313L18.5463 20.553C18.0158 20.7328 17.44 20.4484 17.2602 19.9179C17.0804 19.3873 17.3648 18.8115 17.8953 18.6317L21.5548 17.3918C22.0853 17.212 22.6611 17.4963 22.8409 18.0269Z" fill="url(#paint15_linear_14794_29425)"/>
</g>
<g id="Shape_13" filter="url(#filter10_f_14794_29425)">
<path d="M22.8764 18.0908C23.0561 18.6213 22.7367 19.1269 22.2062 19.3067L17.4258 20.8828C16.8952 21.0626 16.3545 20.8484 16.1747 20.3179C15.9949 19.7874 16.2793 19.2115 16.8098 19.0318L21.5902 17.4557C22.1208 17.2759 22.6966 17.5602 22.8764 18.0908Z" fill="url(#paint16_linear_14794_29425)"/>
</g>
<g id="Shape_14" filter="url(#filter11_f_14794_29425)">
<path d="M22.8765 17.9674C23.0562 18.4979 22.8112 18.8652 22.2807 19.045L18.6212 20.285C18.0907 20.4648 17.4064 20.4405 17.2266 19.9099C17.0469 19.3794 17.4664 18.986 17.9969 18.8063L21.6563 17.5663C22.1869 17.3865 22.6967 17.4368 22.8765 17.9674Z" fill="#A27932"/>
</g>
<g id="Shape_15">
<path d="M23.2578 17.8516C23.4375 18.3821 23.1532 18.958 22.6226 19.1377L18.9632 20.3777C18.4327 20.5575 17.8568 20.2731 17.6771 19.7426C17.4973 19.212 17.7816 18.6362 18.3122 18.4565L21.9716 17.2165C22.5022 17.0367 23.078 17.321 23.2578 17.8516Z" fill="url(#paint17_linear_14794_29425)"/>
<path d="M23.2578 17.8516C23.4375 18.3821 23.1532 18.958 22.6226 19.1377L18.9632 20.3777C18.4327 20.5575 17.8568 20.2731 17.6771 19.7426C17.4973 19.212 17.7816 18.6362 18.3122 18.4565L21.9716 17.2165C22.5022 17.0367 23.078 17.321 23.2578 17.8516Z" fill="url(#paint18_radial_14794_29425)"/>
<path d="M23.2578 17.8516C23.4375 18.3821 23.1532 18.958 22.6226 19.1377L18.9632 20.3777C18.4327 20.5575 17.8568 20.2731 17.6771 19.7426C17.4973 19.212 17.7816 18.6362 18.3122 18.4565L21.9716 17.2165C22.5022 17.0367 23.078 17.321 23.2578 17.8516Z" fill="url(#paint19_radial_14794_29425)"/>
</g>
<g id="Vector 229" filter="url(#filter12_f_14794_29425)">
<path d="M22.5526 18.0665L18.7067 19.3627" stroke="url(#paint20_linear_14794_29425)" stroke-width="0.25" stroke-linecap="round"/>
</g>
<g id="Shape_16" filter="url(#filter13_f_14794_29425)">
<path d="M23.7031 30.8035C23.305 31.1976 22.6628 31.1945 22.2687 30.7964L19.55 28.0508C19.1559 27.6528 19.1591 27.0106 19.5571 26.6164C19.9552 26.2223 20.5974 26.2255 20.9915 26.6235L23.7101 29.3691C24.1043 29.7671 24.1011 30.4093 23.7031 30.8035Z" fill="#A07A34"/>
</g>
<g id="Shape_17">
<path d="M24.1219 30.5418C23.7238 30.9359 23.0816 30.9327 22.6875 30.5347L19.9689 27.7891C19.5747 27.3911 19.5779 26.7489 19.9759 26.3547C20.374 25.9606 21.0162 25.9637 21.4103 26.3618L24.129 29.1074C24.5231 29.5054 24.5199 30.1476 24.1219 30.5418Z" fill="url(#paint21_linear_14794_29425)"/>
<path d="M24.1219 30.5418C23.7238 30.9359 23.0816 30.9327 22.6875 30.5347L19.9689 27.7891C19.5747 27.3911 19.5779 26.7489 19.9759 26.3547C20.374 25.9606 21.0162 25.9637 21.4103 26.3618L24.129 29.1074C24.5231 29.5054 24.5199 30.1476 24.1219 30.5418Z" fill="url(#paint22_radial_14794_29425)"/>
</g>
<g id="Vector 224" filter="url(#filter14_f_14794_29425)">
<path d="M29.3906 21.9375L28.9219 25.9688" stroke="url(#paint23_linear_14794_29425)" stroke-width="0.25" stroke-linecap="round"/>
</g>
<g id="Vector 226" filter="url(#filter15_f_14794_29425)">
<path d="M22.3595 18.0938L18.3517 19.4533" stroke="url(#paint24_linear_14794_29425)" stroke-width="0.25" stroke-linecap="round"/>
</g>
<g id="Vector 225" filter="url(#filter16_f_14794_29425)">
<path d="M20.8725 26.6956L23.7894 29.5173" stroke="url(#paint25_linear_14794_29425)" stroke-width="0.25" stroke-linecap="round"/>
</g>
<g id="Vector 227" filter="url(#filter17_f_14794_29425)">
<path d="M17.5958 19.6836C17.4397 19.2141 18.1816 18.4629 18.1816 18.4629C18.041 19.5879 18.8964 20.4141 18.8964 20.4141C18.6594 20.4801 17.7519 20.1532 17.5958 19.6836Z" fill="url(#paint26_linear_14794_29425)"/>
</g>
<g id="Vector 230" filter="url(#filter18_f_14794_29425)">
<path d="M19.9439 26.3703C20.2868 26.0135 21.297 26.3202 21.297 26.3202C19.7226 26.5193 19.9033 27.8615 19.9033 27.8615C19.7345 27.6825 19.6011 26.7272 19.9439 26.3703Z" fill="url(#paint27_linear_14794_29425)"/>
</g>
<g id="Vector 231" filter="url(#filter19_f_14794_29425)">
<path d="M28.3734 26.7998C27.8812 26.7483 27.503 25.7626 27.503 25.7626C28.6269 26.883 29.5753 25.9163 29.5753 25.9163C29.5377 26.1594 28.8655 26.8513 28.3734 26.7998Z" fill="url(#paint28_linear_14794_29425)"/>
</g>
<g id="Vector 228" filter="url(#filter20_f_14794_29425)">
<path d="M27.6094 13.5C28.4297 13.875 28.6172 14.8359 29.5078 15.5156C30.3777 16.1795 31.6854 16.3232 32.3203 17.1094C32.8125 17.7188 33.0469 18.3532 33.0469 20.3906C33.0469 21.3047 33.8672 22.0781 34.4062 22.6875" stroke="url(#paint29_linear_14794_29425)" stroke-width="0.25" stroke-linecap="round"/>
</g>
</g>
<defs>
<filter id="filter0_f_14794_29425" x="6.61719" y="6.93604" width="9.00977" height="8.25342" filterUnits="userSpaceOnUse" color-interpolation-filters="sRGB">
<feFlood flood-opacity="0" result="BackgroundImageFix"/>
<feBlend mode="normal" in="SourceGraphic" in2="BackgroundImageFix" result="shape"/>
<feGaussianBlur stdDeviation="0.125" result="effect1_foregroundBlur_14794_29425"/>
</filter>
<filter id="filter1_f_14794_29425" x="31.9978" y="32.0156" width="9.0481" height="8.90527" filterUnits="userSpaceOnUse" color-interpolation-filters="sRGB">
<feFlood flood-opacity="0" result="BackgroundImageFix"/>
<feBlend mode="normal" in="SourceGraphic" in2="BackgroundImageFix" result="shape"/>
<feGaussianBlur stdDeviation="0.125" result="effect1_foregroundBlur_14794_29425"/>
</filter>
<filter id="filter2_f_14794_29425" x="7.14832" y="6.71875" width="33.8517" height="33.8516" filterUnits="userSpaceOnUse" color-interpolation-filters="sRGB">
<feFlood flood-opacity="0" result="BackgroundImageFix"/>
<feBlend mode="normal" in="SourceGraphic" in2="BackgroundImageFix" result="shape"/>
<feGaussianBlur stdDeviation="0.25" result="effect1_foregroundBlur_14794_29425"/>
</filter>
<filter id="filter3_f_14794_29425" x="11.7378" y="12.1279" width="23.3477" height="22.791" filterUnits="userSpaceOnUse" color-interpolation-filters="sRGB">
<feFlood flood-opacity="0" result="BackgroundImageFix"/>
<feBlend mode="normal" in="SourceGraphic" in2="BackgroundImageFix" result="shape"/>
<feGaussianBlur stdDeviation="0.25" result="effect1_foregroundBlur_14794_29425"/>
</filter>
<filter id="filter4_f_14794_29425" x="13.1997" y="12.9688" width="21.6357" height="21.1094" filterUnits="userSpaceOnUse" color-interpolation-filters="sRGB">
<feFlood flood-opacity="0" result="BackgroundImageFix"/>
<feBlend mode="normal" in="SourceGraphic" in2="BackgroundImageFix" result="shape"/>
<feGaussianBlur stdDeviation="0.125" result="effect1_foregroundBlur_14794_29425"/>
</filter>
<filter id="filter5_f_14794_29425" x="24.7922" y="16.5127" width="2.70996" height="2.70996" filterUnits="userSpaceOnUse" color-interpolation-filters="sRGB">
<feFlood flood-opacity="0" result="BackgroundImageFix"/>
<feBlend mode="normal" in="SourceGraphic" in2="BackgroundImageFix" result="shape"/>
<feGaussianBlur stdDeviation="0.125" result="effect1_foregroundBlur_14794_29425"/>
</filter>
<filter id="filter6_f_14794_29425" x="14.75" y="24.3643" width="2.71008" height="2.70996" filterUnits="userSpaceOnUse" color-interpolation-filters="sRGB">
<feFlood flood-opacity="0" result="BackgroundImageFix"/>
<feBlend mode="normal" in="SourceGraphic" in2="BackgroundImageFix" result="shape"/>
<feGaussianBlur stdDeviation="0.125" result="effect1_foregroundBlur_14794_29425"/>
</filter>
<filter id="filter7_f_14794_29425" x="26.6963" y="28.7783" width="2.70996" height="2.70996" filterUnits="userSpaceOnUse" color-interpolation-filters="sRGB">
<feFlood flood-opacity="0" result="BackgroundImageFix"/>
<feBlend mode="normal" in="SourceGraphic" in2="BackgroundImageFix" result="shape"/>
<feGaussianBlur stdDeviation="0.125" result="effect1_foregroundBlur_14794_29425"/>
</filter>
<filter id="filter8_f_14794_29425" x="26.8503" y="20.9634" width="3.05859" height="6.31689" filterUnits="userSpaceOnUse" color-interpolation-filters="sRGB">
<feFlood flood-opacity="0" result="BackgroundImageFix"/>
<feBlend mode="normal" in="SourceGraphic" in2="BackgroundImageFix" result="shape"/>
<feGaussianBlur stdDeviation="0.125" result="effect1_foregroundBlur_14794_29425"/>
</filter>
<filter id="filter9_f_14794_29425" x="16.9563" y="17.0879" width="6.18848" height="3.76904" filterUnits="userSpaceOnUse" color-interpolation-filters="sRGB">
<feFlood flood-opacity="0" result="BackgroundImageFix"/>
<feBlend mode="normal" in="SourceGraphic" in2="BackgroundImageFix" result="shape"/>
<feGaussianBlur stdDeviation="0.125" result="effect1_foregroundBlur_14794_29425"/>
</filter>
<filter id="filter10_f_14794_29425" x="15.8708" y="17.1519" width="7.30591" height="4.04346" filterUnits="userSpaceOnUse" color-interpolation-filters="sRGB">
<feFlood flood-opacity="0" result="BackgroundImageFix"/>
<feBlend mode="normal" in="SourceGraphic" in2="BackgroundImageFix" result="shape"/>
<feGaussianBlur stdDeviation="0.125" result="effect1_foregroundBlur_14794_29425"/>
</filter>
<filter id="filter11_f_14794_29425" x="16.9343" y="17.2227" width="6.25061" height="3.41309" filterUnits="userSpaceOnUse" color-interpolation-filters="sRGB">
<feFlood flood-opacity="0" result="BackgroundImageFix"/>
<feBlend mode="normal" in="SourceGraphic" in2="BackgroundImageFix" result="shape"/>
<feGaussianBlur stdDeviation="0.125" result="effect1_foregroundBlur_14794_29425"/>
</filter>
<filter id="filter12_f_14794_29425" x="18.3317" y="17.6914" width="4.59595" height="2.04639" filterUnits="userSpaceOnUse" color-interpolation-filters="sRGB">
<feFlood flood-opacity="0" result="BackgroundImageFix"/>
<feBlend mode="normal" in="SourceGraphic" in2="BackgroundImageFix" result="shape"/>
<feGaussianBlur stdDeviation="0.125" result="effect1_foregroundBlur_14794_29425"/>
</filter>
<filter id="filter13_f_14794_29425" x="19.0065" y="26.0728" width="5.24719" height="5.27441" filterUnits="userSpaceOnUse" color-interpolation-filters="sRGB">
<feFlood flood-opacity="0" result="BackgroundImageFix"/>
<feBlend mode="normal" in="SourceGraphic" in2="BackgroundImageFix" result="shape"/>
<feGaussianBlur stdDeviation="0.125" result="effect1_foregroundBlur_14794_29425"/>
</filter>
<filter id="filter14_f_14794_29425" x="28.5469" y="21.5625" width="1.21875" height="4.78125" filterUnits="userSpaceOnUse" color-interpolation-filters="sRGB">
<feFlood flood-opacity="0" result="BackgroundImageFix"/>
<feBlend mode="normal" in="SourceGraphic" in2="BackgroundImageFix" result="shape"/>
<feGaussianBlur stdDeviation="0.125" result="effect1_foregroundBlur_14794_29425"/>
</filter>
<filter id="filter15_f_14794_29425" x="17.7266" y="17.4688" width="5.25793" height="2.60938" filterUnits="userSpaceOnUse" color-interpolation-filters="sRGB">
<feFlood flood-opacity="0" result="BackgroundImageFix"/>
<feBlend mode="normal" in="SourceGraphic" in2="BackgroundImageFix" result="shape"/>
<feGaussianBlur stdDeviation="0.25" result="effect1_foregroundBlur_14794_29425"/>
</filter>
<filter id="filter16_f_14794_29425" x="20.4974" y="26.3208" width="3.66699" height="3.57129" filterUnits="userSpaceOnUse" color-interpolation-filters="sRGB">
<feFlood flood-opacity="0" result="BackgroundImageFix"/>
<feBlend mode="normal" in="SourceGraphic" in2="BackgroundImageFix" result="shape"/>
<feGaussianBlur stdDeviation="0.125" result="effect1_foregroundBlur_14794_29425"/>
</filter>
<filter id="filter17_f_14794_29425" x="17.3242" y="18.2129" width="1.82227" height="2.45947" filterUnits="userSpaceOnUse" color-interpolation-filters="sRGB">
<feFlood flood-opacity="0" result="BackgroundImageFix"/>
<feBlend mode="normal" in="SourceGraphic" in2="BackgroundImageFix" result="shape"/>
<feGaussianBlur stdDeviation="0.125" result="effect1_foregroundBlur_14794_29425"/>
</filter>
<filter id="filter18_f_14794_29425" x="19.4802" y="25.9478" width="2.06677" height="2.16357" filterUnits="userSpaceOnUse" color-interpolation-filters="sRGB">
<feFlood flood-opacity="0" result="BackgroundImageFix"/>
<feBlend mode="normal" in="SourceGraphic" in2="BackgroundImageFix" result="shape"/>
<feGaussianBlur stdDeviation="0.125" result="effect1_foregroundBlur_14794_29425"/>
</filter>
<filter id="filter19_f_14794_29425" x="27.2529" y="25.5127" width="2.57227" height="1.54004" filterUnits="userSpaceOnUse" color-interpolation-filters="sRGB">
<feFlood flood-opacity="0" result="BackgroundImageFix"/>
<feBlend mode="normal" in="SourceGraphic" in2="BackgroundImageFix" result="shape"/>
<feGaussianBlur stdDeviation="0.125" result="effect1_foregroundBlur_14794_29425"/>
</filter>
<filter id="filter20_f_14794_29425" x="27.2344" y="13.125" width="7.54688" height="9.9375" filterUnits="userSpaceOnUse" color-interpolation-filters="sRGB">
<feFlood flood-opacity="0" result="BackgroundImageFix"/>
<feBlend mode="normal" in="SourceGraphic" in2="BackgroundImageFix" result="shape"/>
<feGaussianBlur stdDeviation="0.125" result="effect1_foregroundBlur_14794_29425"/>
</filter>
<radialGradient id="paint0_radial_14794_29425" cx="0" cy="0" r="1" gradientUnits="userSpaceOnUse" gradientTransform="translate(12.4455 12.4221) rotate(135.141) scale(6.71201 1.65736)">
<stop stop-color="#3F3749"/>
<stop offset="0.439333" stop-color="#332D3B"/>
<stop offset="1" stop-opacity="0"/>
</radialGradient>
<linearGradient id="paint1_linear_14794_29425" x1="6.99219" y1="13.3123" x2="13.2422" y2="6.79669" gradientUnits="userSpaceOnUse">
<stop stop-color="#7A69A3"/>
<stop offset="0.27686" stop-color="#7456A6"/>
<stop offset="0.831809" stop-color="#654D8D"/>
<stop offset="1" stop-color="#7B69A3"/>
</linearGradient>
<linearGradient id="paint2_linear_14794_29425" x1="40.6325" y1="34.502" x2="34.3825" y2="41.0177" gradientUnits="userSpaceOnUse">
<stop stop-color="#7A69A3"/>
<stop offset="0.27686" stop-color="#7456A6"/>
<stop offset="0.831809" stop-color="#654D8D"/>
<stop offset="1" stop-color="#7B69A3"/>
</linearGradient>
<linearGradient id="paint3_linear_14794_29425" x1="37.211" y1="13.122" x2="10.1977" y2="33.8805" gradientUnits="userSpaceOnUse">
<stop stop-color="#7E75BF"/>
<stop offset="0.506319" stop-color="#58457C"/>
<stop offset="1" stop-color="#4D3966"/>
</linearGradient>
<linearGradient id="paint4_linear_14794_29425" x1="37.7208" y1="13.0086" x2="12.4716" y2="35.2434" gradientUnits="userSpaceOnUse">
<stop stop-color="#5E50A1"/>
<stop offset="0.448599" stop-color="#5C4385"/>
<stop offset="1" stop-color="#5D3F7C"/>
</linearGradient>
<radialGradient id="paint5_radial_14794_29425" cx="0" cy="0" r="1" gradientUnits="userSpaceOnUse" gradientTransform="translate(20.5312 24.75) rotate(82.4465) scale(26.9526)">
<stop offset="0.309957" stop-color="#B5A4CB"/>
<stop offset="0.430675" stop-color="#7E6898" stop-opacity="0"/>
</radialGradient>
<radialGradient id="paint6_radial_14794_29425" cx="0" cy="0" r="1" gradientUnits="userSpaceOnUse" gradientTransform="translate(16.7011 24.4762) rotate(-3.39134) scale(25.2175)">
<stop stop-color="#654B7E"/>
<stop offset="0.465717" stop-color="#4D3A5E"/>
<stop offset="1" stop-color="#1C1C1C"/>
</radialGradient>
<radialGradient id="paint7_radial_14794_29425" cx="0" cy="0" r="1" gradientUnits="userSpaceOnUse" gradientTransform="translate(30.3134 19.255) rotate(111.224) scale(20.6038)">
<stop offset="0.820788" stop-color="#5E3F77" stop-opacity="0"/>
<stop offset="1" stop-color="#60407C"/>
</radialGradient>
<linearGradient id="paint8_linear_14794_29425" x1="32.3437" y1="17.1563" x2="15.5625" y2="28.6876" gradientUnits="userSpaceOnUse">
<stop stop-color="#C6943B"/>
<stop offset="0.159269" stop-color="#DFA930"/>
<stop offset="0.641607" stop-color="#F4C52E"/>
<stop offset="1" stop-color="#E4C03C"/>
</linearGradient>
<linearGradient id="paint9_linear_14794_29425" x1="31.5937" y1="17.3437" x2="16.125" y2="29.7187" gradientUnits="userSpaceOnUse">
<stop stop-color="#F9B93F"/>
<stop offset="0.517369" stop-color="#FFD941"/>
<stop offset="1" stop-color="#FFDE42"/>
</linearGradient>
<radialGradient id="paint10_radial_14794_29425" cx="0" cy="0" r="1" gradientUnits="userSpaceOnUse" gradientTransform="translate(26.9766 17.5078) rotate(110.76) scale(1.37876)">
<stop stop-color="#FF8981"/>
<stop offset="0.471923" stop-color="#FF4E3C"/>
<stop offset="1" stop-color="#C6453D"/>
</radialGradient>
<radialGradient id="paint11_radial_14794_29425" cx="0" cy="0" r="1" gradientUnits="userSpaceOnUse" gradientTransform="translate(28.8462 29.7656) rotate(110.76) scale(1.37876)">
<stop stop-color="#FF8981"/>
<stop offset="0.471923" stop-color="#FF4E3C"/>
<stop offset="1" stop-color="#C6453D"/>
</radialGradient>
<radialGradient id="paint12_radial_14794_29425" cx="0" cy="0" r="1" gradientUnits="userSpaceOnUse" gradientTransform="translate(16.8695 25.4062) rotate(110.76) scale(1.37876)">
<stop stop-color="#FF8981"/>
<stop offset="0.471923" stop-color="#FF4E3C"/>
<stop offset="1" stop-color="#C6453D"/>
</radialGradient>
<linearGradient id="paint13_linear_14794_29425" x1="29.3437" y1="21.004" x2="28.7199" y2="26.8964" gradientUnits="userSpaceOnUse">
<stop stop-color="#539253"/>
<stop offset="1" stop-color="#72AB42"/>
</linearGradient>
<radialGradient id="paint14_radial_14794_29425" cx="0" cy="0" r="1" gradientUnits="userSpaceOnUse" gradientTransform="translate(29.0156 26.25) rotate(94.2947) scale(3.94859 1.62676)">
<stop stop-color="#90E43C"/>
<stop offset="1" stop-color="#96E839" stop-opacity="0"/>
</radialGradient>
<linearGradient id="paint15_linear_14794_29425" x1="24.1051" y1="17.7017" x2="16.3239" y2="19.8579" gradientUnits="userSpaceOnUse">
<stop offset="0.793475" stop-color="#9E7830"/>
<stop offset="1" stop-color="#9E7830" stop-opacity="0"/>
</linearGradient>
<linearGradient id="paint16_linear_14794_29425" x1="24.1406" y1="17.7656" x2="16.3594" y2="19.9218" gradientUnits="userSpaceOnUse">
<stop offset="0.793475" stop-color="#D5AB3E"/>
<stop offset="1" stop-color="#D3AB3E" stop-opacity="0"/>
</linearGradient>
<linearGradient id="paint17_linear_14794_29425" x1="23.454" y1="18.1297" x2="17.7441" y2="20.0411" gradientUnits="userSpaceOnUse">
<stop stop-color="#539253"/>
<stop offset="1" stop-color="#72AB42"/>
</linearGradient>
<radialGradient id="paint18_radial_14794_29425" cx="0" cy="0" r="1" gradientUnits="userSpaceOnUse" gradientTransform="translate(18.4965 19.1071) rotate(162.467) scale(3.87931 1.59822)">
<stop stop-color="#90E43C"/>
<stop offset="1" stop-color="#96E839" stop-opacity="0"/>
</radialGradient>
<radialGradient id="paint19_radial_14794_29425" cx="0" cy="0" r="1" gradientUnits="userSpaceOnUse" gradientTransform="translate(22.6405 18.0821) rotate(154.654) scale(0.492745 0.455203)">
<stop stop-color="#8AD291"/>
<stop offset="1" stop-color="#88CF90" stop-opacity="0"/>
</radialGradient>
<linearGradient id="paint20_linear_14794_29425" x1="22.4525" y1="17.8545" x2="18.5624" y2="19.3123" gradientUnits="userSpaceOnUse">
<stop stop-color="#74AD78"/>
<stop offset="1" stop-color="#B9F270"/>
</linearGradient>
<linearGradient id="paint21_linear_14794_29425" x1="23.9579" y1="30.8401" x2="19.737" y2="26.5458" gradientUnits="userSpaceOnUse">
<stop stop-color="#539253"/>
<stop offset="1" stop-color="#72AB42"/>
</linearGradient>
<radialGradient id="paint22_radial_14794_29425" cx="0" cy="0" r="1" gradientUnits="userSpaceOnUse" gradientTransform="translate(20.9063 26.8127) rotate(-133.531) scale(3.87931 1.59822)">
<stop stop-color="#90E43C"/>
<stop offset="1" stop-color="#96E839" stop-opacity="0"/>
</radialGradient>
<linearGradient id="paint23_linear_14794_29425" x1="29.1562" y1="21.9375" x2="29.1562" y2="25.9688" gradientUnits="userSpaceOnUse">
<stop stop-color="#89D18E"/>
<stop offset="1" stop-color="#B9F270"/>
</linearGradient>
<linearGradient id="paint24_linear_14794_29425" x1="22.2787" y1="17.844" x2="18.6565" y2="19.6133" gradientUnits="userSpaceOnUse">
<stop stop-color="#67B35B"/>
<stop offset="1" stop-color="#7CCD45"/>
</linearGradient>
<linearGradient id="paint25_linear_14794_29425" x1="23.7656" y1="29.5174" x2="21.375" y2="27" gradientUnits="userSpaceOnUse">
<stop stop-color="#89D18E"/>
<stop offset="1" stop-color="#B9F270"/>
</linearGradient>
<linearGradient id="paint26_linear_14794_29425" x1="17.7187" y1="19.7461" x2="18.8964" y2="19.4427" gradientUnits="userSpaceOnUse">
<stop stop-color="#6B9134"/>
<stop offset="1" stop-color="#6B9134" stop-opacity="0"/>
</linearGradient>
<linearGradient id="paint27_linear_14794_29425" x1="19.9459" y1="26.5082" x2="20.7629" y2="27.4091" gradientUnits="userSpaceOnUse">
<stop stop-color="#79A53B"/>
<stop offset="1" stop-color="#6B9134" stop-opacity="0"/>
</linearGradient>
<linearGradient id="paint28_linear_14794_29425" x1="28.481" y1="26.7136" x2="28.6904" y2="25.5156" gradientUnits="userSpaceOnUse">
<stop stop-color="#79A53B"/>
<stop offset="1" stop-color="#6B9134" stop-opacity="0"/>
</linearGradient>
<linearGradient id="paint29_linear_14794_29425" x1="27.6094" y1="13.5" x2="34.7812" y2="23.3906" gradientUnits="userSpaceOnUse">
<stop stop-color="#F8C05B" stop-opacity="0"/>
<stop offset="0.186928" stop-color="#FFD874"/>
<stop offset="0.454689" stop-color="#E7B052"/>
<stop offset="0.727425" stop-color="#FFD07C"/>
<stop offset="1" stop-color="#F5BF5F" stop-opacity="0"/>
</linearGradient>
</defs>
</svg>
