<svg width="48" height="48" viewBox="0 0 48 48" fill="none" xmlns="http://www.w3.org/2000/svg">
<g id="Soccer ball">
<circle id="Ellipse 172" cx="24.0704" cy="23.9998" r="19.1663" fill="#00041D"/>
<g id="Vector 793">
<path d="M22.1782 4.50618C21.5688 4.56243 21.2915 4.73274 21.229 4.81087C21.454 4.97024 21.4399 5.2679 21.4048 5.39681L28.3188 7.03744L34.647 8.18587C34.7056 7.93978 34.6587 7.61166 34.1665 7.3304C28.5415 4.23665 22.9399 4.43587 22.1782 4.50618Z" fill="url(#paint0_linear_14794_31470)"/>
<path d="M22.1782 4.50618C21.5688 4.56243 21.2915 4.73274 21.229 4.81087C21.454 4.97024 21.4399 5.2679 21.4048 5.39681L28.3188 7.03744L34.647 8.18587C34.7056 7.93978 34.6587 7.61166 34.1665 7.3304C28.5415 4.23665 22.9399 4.43587 22.1782 4.50618Z" fill="url(#paint1_radial_14794_31470)"/>
<path d="M22.1782 4.50618C21.5688 4.56243 21.2915 4.73274 21.229 4.81087C21.454 4.97024 21.4399 5.2679 21.4048 5.39681L28.3188 7.03744L34.647 8.18587C34.7056 7.93978 34.6587 7.61166 34.1665 7.3304C28.5415 4.23665 22.9399 4.43587 22.1782 4.50618Z" fill="url(#paint2_radial_14794_31470)"/>
<path d="M22.1782 4.50618C21.5688 4.56243 21.2915 4.73274 21.229 4.81087C21.454 4.97024 21.4399 5.2679 21.4048 5.39681L28.3188 7.03744L34.647 8.18587C34.7056 7.93978 34.6587 7.61166 34.1665 7.3304C28.5415 4.23665 22.9399 4.43587 22.1782 4.50618Z" fill="url(#paint3_radial_14794_31470)"/>
</g>
<g id="Vector 797">
<path d="M5.06302 29.9478C4.96727 29.5958 5.0845 29.354 5.12747 29.2856L5.97123 29.0923C7.17826 30.7134 9.65795 34.0071 9.92045 34.2134C10.1829 34.4196 10.3267 34.7759 10.3658 34.9282L13.7642 39.979C13.6939 40.1978 13.3611 40.5298 12.5923 40.1079C9.0767 38.0923 5.60795 31.9517 5.06302 29.9478Z" fill="url(#paint4_linear_14794_31470)"/>
<path d="M5.06302 29.9478C4.96727 29.5958 5.0845 29.354 5.12747 29.2856L5.97123 29.0923C7.17826 30.7134 9.65795 34.0071 9.92045 34.2134C10.1829 34.4196 10.3267 34.7759 10.3658 34.9282L13.7642 39.979C13.6939 40.1978 13.3611 40.5298 12.5923 40.1079C9.0767 38.0923 5.60795 31.9517 5.06302 29.9478Z" fill="url(#paint5_radial_14794_31470)"/>
</g>
<g id="Vector 782">
<path d="M10.5416 9.62179C10.3166 9.94054 10.3423 10.1159 10.354 10.1667L15.0064 8.65496L21.4283 5.34443C21.5783 4.88505 21.2037 4.71552 21.0591 4.69989C20.1041 4.56513 17.772 5.01043 15.2173 6.26434C12.0181 7.99283 10.8228 9.22335 10.5416 9.62179Z" fill="url(#paint6_linear_14794_31470)"/>
<path d="M10.5416 9.62179C10.3166 9.94054 10.3423 10.1159 10.354 10.1667L15.0064 8.65496L21.4283 5.34443C21.5783 4.88505 21.2037 4.71552 21.0591 4.69989C20.1041 4.56513 17.772 5.01043 15.2173 6.26434C12.0181 7.99283 10.8228 9.22335 10.5416 9.62179Z" fill="url(#paint7_radial_14794_31470)"/>
<path d="M10.5416 9.62179C10.3166 9.94054 10.3423 10.1159 10.354 10.1667L15.0064 8.65496L21.4283 5.34443C21.5783 4.88505 21.2037 4.71552 21.0591 4.69989C20.1041 4.56513 17.772 5.01043 15.2173 6.26434C12.0181 7.99283 10.8228 9.22335 10.5416 9.62179Z" fill="url(#paint8_radial_14794_31470)"/>
</g>
<path id="Vector 795" d="M26.608 43.4713L26.8657 43.0083L37.2251 37.9165C37.3931 38.061 37.5298 38.3384 37.2251 38.7954C33.6509 42.311 28.6704 43.4478 27.8032 43.5767C27.2518 43.6586 26.8663 43.6374 26.6665 43.6037C26.6047 43.5933 26.5775 43.526 26.608 43.4713Z" fill="url(#paint9_radial_14794_31470)"/>
<path id="Vector 798" d="M43.0728 19.3306C42.9321 19.0259 42.731 18.9087 42.6333 18.8853L42.3696 26.0337V31.0024C44.4907 27.1001 43.647 20.3501 43.0728 19.3306Z" fill="url(#paint10_linear_14794_31470)"/>
<g id="Vector 796">
<path d="M35.0688 7.92777C34.7126 7.74027 34.4106 7.88089 34.2778 7.92776L38.3149 13.1426L42.4634 19.4239C42.8009 19.0676 42.7837 18.6699 42.7446 18.4981C41.0806 10.6934 35.5142 8.16214 35.0688 7.92777Z" fill="#EDEDEE"/>
<path d="M35.0688 7.92777C34.7126 7.74027 34.4106 7.88089 34.2778 7.92776L38.3149 13.1426L42.4634 19.4239C42.8009 19.0676 42.7837 18.6699 42.7446 18.4981C41.0806 10.6934 35.5142 8.16214 35.0688 7.92777Z" fill="url(#paint11_radial_14794_31470)"/>
</g>
<path id="Vector 784" d="M4.79823 29.1599C3.34613 24.5795 4.28634 19.8276 5.30826 17.5544C5.3909 17.3705 5.55784 17.2423 5.75441 17.1978L6.40081 21.4238C6.43462 21.6448 6.44361 21.8689 6.42762 22.0919L5.92434 29.1099L5.34298 29.3902C5.12807 29.4938 4.87034 29.3874 4.79823 29.1599Z" fill="#3D5CBC"/>
<g id="Vector 786">
<path d="M21.2013 5.2992C18.5673 6.07955 16.4052 7.37349 15.3294 8.16774C15.0899 8.34454 14.9585 8.62771 14.9636 8.92533C14.9882 10.3642 15.1181 11.8921 15.2354 12.7324C15.277 13.0301 15.5355 13.2356 15.8359 13.244C18.5874 13.3217 20.6674 14.0097 21.7666 14.5381C22.1067 14.7016 22.5096 14.7065 22.8367 14.5184C24.6493 13.476 26.884 12.437 28.1898 11.9001C28.5165 11.7657 28.7157 11.4284 28.6686 11.0783C28.4634 9.5513 28.3657 8.34673 28.346 7.19874C28.3415 6.93179 28.1794 6.69099 27.9286 6.59945C25.6901 5.78242 23.2507 5.39092 21.9241 5.23726C21.6812 5.20913 21.4357 5.22975 21.2013 5.2992Z" fill="url(#paint12_radial_14794_31470)"/>
<path d="M21.2013 5.2992C18.5673 6.07955 16.4052 7.37349 15.3294 8.16774C15.0899 8.34454 14.9585 8.62771 14.9636 8.92533C14.9882 10.3642 15.1181 11.8921 15.2354 12.7324C15.277 13.0301 15.5355 13.2356 15.8359 13.244C18.5874 13.3217 20.6674 14.0097 21.7666 14.5381C22.1067 14.7016 22.5096 14.7065 22.8367 14.5184C24.6493 13.476 26.884 12.437 28.1898 11.9001C28.5165 11.7657 28.7157 11.4284 28.6686 11.0783C28.4634 9.5513 28.3657 8.34673 28.346 7.19874C28.3415 6.93179 28.1794 6.69099 27.9286 6.59945C25.6901 5.78242 23.2507 5.39092 21.9241 5.23726C21.6812 5.20913 21.4357 5.22975 21.2013 5.2992Z" fill="url(#paint13_radial_14794_31470)"/>
<path d="M21.2013 5.2992C18.5673 6.07955 16.4052 7.37349 15.3294 8.16774C15.0899 8.34454 14.9585 8.62771 14.9636 8.92533C14.9882 10.3642 15.1181 11.8921 15.2354 12.7324C15.277 13.0301 15.5355 13.2356 15.8359 13.244C18.5874 13.3217 20.6674 14.0097 21.7666 14.5381C22.1067 14.7016 22.5096 14.7065 22.8367 14.5184C24.6493 13.476 26.884 12.437 28.1898 11.9001C28.5165 11.7657 28.7157 11.4284 28.6686 11.0783C28.4634 9.5513 28.3657 8.34673 28.346 7.19874C28.3415 6.93179 28.1794 6.69099 27.9286 6.59945C25.6901 5.78242 23.2507 5.39092 21.9241 5.23726C21.6812 5.20913 21.4357 5.22975 21.2013 5.2992Z" fill="url(#paint14_radial_14794_31470)"/>
<path d="M21.2013 5.2992C18.5673 6.07955 16.4052 7.37349 15.3294 8.16774C15.0899 8.34454 14.9585 8.62771 14.9636 8.92533C14.9882 10.3642 15.1181 11.8921 15.2354 12.7324C15.277 13.0301 15.5355 13.2356 15.8359 13.244C18.5874 13.3217 20.6674 14.0097 21.7666 14.5381C22.1067 14.7016 22.5096 14.7065 22.8367 14.5184C24.6493 13.476 26.884 12.437 28.1898 11.9001C28.5165 11.7657 28.7157 11.4284 28.6686 11.0783C28.4634 9.5513 28.3657 8.34673 28.346 7.19874C28.3415 6.93179 28.1794 6.69099 27.9286 6.59945C25.6901 5.78242 23.2507 5.39092 21.9241 5.23726C21.6812 5.20913 21.4357 5.22975 21.2013 5.2992Z" fill="url(#paint15_radial_14794_31470)"/>
<path d="M21.2013 5.2992C18.5673 6.07955 16.4052 7.37349 15.3294 8.16774C15.0899 8.34454 14.9585 8.62771 14.9636 8.92533C14.9882 10.3642 15.1181 11.8921 15.2354 12.7324C15.277 13.0301 15.5355 13.2356 15.8359 13.244C18.5874 13.3217 20.6674 14.0097 21.7666 14.5381C22.1067 14.7016 22.5096 14.7065 22.8367 14.5184C24.6493 13.476 26.884 12.437 28.1898 11.9001C28.5165 11.7657 28.7157 11.4284 28.6686 11.0783C28.4634 9.5513 28.3657 8.34673 28.346 7.19874C28.3415 6.93179 28.1794 6.69099 27.9286 6.59945C25.6901 5.78242 23.2507 5.39092 21.9241 5.23726C21.6812 5.20913 21.4357 5.22975 21.2013 5.2992Z" fill="url(#paint16_radial_14794_31470)"/>
<path d="M21.2013 5.2992C18.5673 6.07955 16.4052 7.37349 15.3294 8.16774C15.0899 8.34454 14.9585 8.62771 14.9636 8.92533C14.9882 10.3642 15.1181 11.8921 15.2354 12.7324C15.277 13.0301 15.5355 13.2356 15.8359 13.244C18.5874 13.3217 20.6674 14.0097 21.7666 14.5381C22.1067 14.7016 22.5096 14.7065 22.8367 14.5184C24.6493 13.476 26.884 12.437 28.1898 11.9001C28.5165 11.7657 28.7157 11.4284 28.6686 11.0783C28.4634 9.5513 28.3657 8.34673 28.346 7.19874C28.3415 6.93179 28.1794 6.69099 27.9286 6.59945C25.6901 5.78242 23.2507 5.39092 21.9241 5.23726C21.6812 5.20913 21.4357 5.22975 21.2013 5.2992Z" fill="url(#paint17_radial_14794_31470)"/>
</g>
<g id="Vector 788">
<path d="M5.87072 16.4742C7.69439 12.9683 9.05486 11.3258 9.77977 10.6233C10.823 9.51811 13.3592 8.68606 14.5079 8.60052C14.7333 8.58374 14.9038 8.76405 14.9249 8.98908L15.287 12.8476C15.3168 13.1657 15.1907 13.4771 14.961 13.699C12.9376 15.6537 11.734 18.2106 11.2735 19.3234C11.1284 19.674 10.8492 19.9556 10.492 20.0835L6.69893 21.442C6.42163 21.5413 6.11927 21.381 6.05962 21.0926C5.81799 19.9239 5.64523 18.39 5.61335 17.5108C5.60021 17.1486 5.70346 16.7957 5.87072 16.4742Z" fill="url(#paint18_linear_14794_31470)"/>
<path d="M5.87072 16.4742C7.69439 12.9683 9.05486 11.3258 9.77977 10.6233C10.823 9.51811 13.3592 8.68606 14.5079 8.60052C14.7333 8.58374 14.9038 8.76405 14.9249 8.98908L15.287 12.8476C15.3168 13.1657 15.1907 13.4771 14.961 13.699C12.9376 15.6537 11.734 18.2106 11.2735 19.3234C11.1284 19.674 10.8492 19.9556 10.492 20.0835L6.69893 21.442C6.42163 21.5413 6.11927 21.381 6.05962 21.0926C5.81799 19.9239 5.64523 18.39 5.61335 17.5108C5.60021 17.1486 5.70346 16.7957 5.87072 16.4742Z" fill="url(#paint19_linear_14794_31470)"/>
</g>
<g id="Vector 791">
<path d="M26.022 43.7642C19.2837 43.9399 15.1196 41.8696 13.4243 40.6821C13.2368 40.556 13.1939 40.3718 13.2017 40.3071C13.4642 40.2978 13.6314 40.1841 13.6704 40.1372L20.9243 41.5024L26.8071 42.9673C26.8657 43.186 26.7626 43.6798 26.022 43.7642Z" fill="#867CFF"/>
<path d="M26.022 43.7642C19.2837 43.9399 15.1196 41.8696 13.4243 40.6821C13.2368 40.556 13.1939 40.3718 13.2017 40.3071C13.4642 40.2978 13.6314 40.1841 13.6704 40.1372L20.9243 41.5024L26.8071 42.9673C26.8657 43.186 26.7626 43.6798 26.022 43.7642Z" fill="url(#paint20_radial_14794_31470)"/>
</g>
<g id="Vector 789">
<path d="M35.2707 22.9281L35.3072 16.2847C35.3083 16.0762 35.4399 15.8905 35.6343 15.8152C37.304 15.1682 38.2286 14.5461 38.7107 14.1126C38.8816 13.959 39.1479 13.9429 39.3081 14.1075C40.5517 15.3849 41.7752 17.3095 42.484 18.5825C42.7773 19.1093 42.9413 19.6966 42.9784 20.2984C43.1301 22.7619 42.9804 25.0524 42.8413 26.325C42.8064 26.6435 42.6126 26.9201 42.3302 27.0715L39.3415 28.6729C39.1743 28.7625 38.9671 28.6758 38.9061 28.4963C38.0904 26.0969 36.5622 24.5245 35.6361 23.7175C35.4071 23.5179 35.269 23.2319 35.2707 22.9281Z" fill="url(#paint21_radial_14794_31470)"/>
<path d="M35.2707 22.9281L35.3072 16.2847C35.3083 16.0762 35.4399 15.8905 35.6343 15.8152C37.304 15.1682 38.2286 14.5461 38.7107 14.1126C38.8816 13.959 39.1479 13.9429 39.3081 14.1075C40.5517 15.3849 41.7752 17.3095 42.484 18.5825C42.7773 19.1093 42.9413 19.6966 42.9784 20.2984C43.1301 22.7619 42.9804 25.0524 42.8413 26.325C42.8064 26.6435 42.6126 26.9201 42.3302 27.0715L39.3415 28.6729C39.1743 28.7625 38.9671 28.6758 38.9061 28.4963C38.0904 26.0969 36.5622 24.5245 35.6361 23.7175C35.4071 23.5179 35.269 23.2319 35.2707 22.9281Z" fill="url(#paint22_radial_14794_31470)"/>
<path d="M35.2707 22.9281L35.3072 16.2847C35.3083 16.0762 35.4399 15.8905 35.6343 15.8152C37.304 15.1682 38.2286 14.5461 38.7107 14.1126C38.8816 13.959 39.1479 13.9429 39.3081 14.1075C40.5517 15.3849 41.7752 17.3095 42.484 18.5825C42.7773 19.1093 42.9413 19.6966 42.9784 20.2984C43.1301 22.7619 42.9804 25.0524 42.8413 26.325C42.8064 26.6435 42.6126 26.9201 42.3302 27.0715L39.3415 28.6729C39.1743 28.7625 38.9671 28.6758 38.9061 28.4963C38.0904 26.0969 36.5622 24.5245 35.6361 23.7175C35.4071 23.5179 35.269 23.2319 35.2707 22.9281Z" fill="url(#paint23_radial_14794_31470)"/>
<path d="M35.2707 22.9281L35.3072 16.2847C35.3083 16.0762 35.4399 15.8905 35.6343 15.8152C37.304 15.1682 38.2286 14.5461 38.7107 14.1126C38.8816 13.959 39.1479 13.9429 39.3081 14.1075C40.5517 15.3849 41.7752 17.3095 42.484 18.5825C42.7773 19.1093 42.9413 19.6966 42.9784 20.2984C43.1301 22.7619 42.9804 25.0524 42.8413 26.325C42.8064 26.6435 42.6126 26.9201 42.3302 27.0715L39.3415 28.6729C39.1743 28.7625 38.9671 28.6758 38.9061 28.4963C38.0904 26.0969 36.5622 24.5245 35.6361 23.7175C35.4071 23.5179 35.269 23.2319 35.2707 22.9281Z" fill="url(#paint24_radial_14794_31470)"/>
</g>
<g id="Vector 790">
<path d="M20.9427 41.2747C21.3799 40.0906 21.4758 38.6761 21.4426 37.7324C21.4312 37.4079 21.6047 37.0989 21.9002 36.9644L27.9759 34.1981C28.2911 34.0546 28.6553 34.0895 28.9611 34.2521C30.7187 35.1866 33.1694 35.3985 34.25 35.3329C34.4389 35.3215 34.6119 35.469 34.6094 35.6583C34.5827 37.6547 34.3386 38.8982 34.0612 39.7018C33.9709 39.9635 33.7896 40.1817 33.5592 40.3351C31.279 41.8531 28.6485 42.832 27.2568 43.1154C27.068 43.1539 26.8742 43.1533 26.6836 43.1249C24.1472 42.7475 22.166 42.1647 21.1735 41.8087C20.9592 41.7318 20.8638 41.4883 20.9427 41.2747Z" fill="url(#paint25_radial_14794_31470)"/>
<path d="M20.9427 41.2747C21.3799 40.0906 21.4758 38.6761 21.4426 37.7324C21.4312 37.4079 21.6047 37.0989 21.9002 36.9644L27.9759 34.1981C28.2911 34.0546 28.6553 34.0895 28.9611 34.2521C30.7187 35.1866 33.1694 35.3985 34.25 35.3329C34.4389 35.3215 34.6119 35.469 34.6094 35.6583C34.5827 37.6547 34.3386 38.8982 34.0612 39.7018C33.9709 39.9635 33.7896 40.1817 33.5592 40.3351C31.279 41.8531 28.6485 42.832 27.2568 43.1154C27.068 43.1539 26.8742 43.1533 26.6836 43.1249C24.1472 42.7475 22.166 42.1647 21.1735 41.8087C20.9592 41.7318 20.8638 41.4883 20.9427 41.2747Z" fill="url(#paint26_radial_14794_31470)"/>
<path d="M20.9427 41.2747C21.3799 40.0906 21.4758 38.6761 21.4426 37.7324C21.4312 37.4079 21.6047 37.0989 21.9002 36.9644L27.9759 34.1981C28.2911 34.0546 28.6553 34.0895 28.9611 34.2521C30.7187 35.1866 33.1694 35.3985 34.25 35.3329C34.4389 35.3215 34.6119 35.469 34.6094 35.6583C34.5827 37.6547 34.3386 38.8982 34.0612 39.7018C33.9709 39.9635 33.7896 40.1817 33.5592 40.3351C31.279 41.8531 28.6485 42.832 27.2568 43.1154C27.068 43.1539 26.8742 43.1533 26.6836 43.1249C24.1472 42.7475 22.166 42.1647 21.1735 41.8087C20.9592 41.7318 20.8638 41.4883 20.9427 41.2747Z" fill="url(#paint27_radial_14794_31470)"/>
<path d="M20.9427 41.2747C21.3799 40.0906 21.4758 38.6761 21.4426 37.7324C21.4312 37.4079 21.6047 37.0989 21.9002 36.9644L27.9759 34.1981C28.2911 34.0546 28.6553 34.0895 28.9611 34.2521C30.7187 35.1866 33.1694 35.3985 34.25 35.3329C34.4389 35.3215 34.6119 35.469 34.6094 35.6583C34.5827 37.6547 34.3386 38.8982 34.0612 39.7018C33.9709 39.9635 33.7896 40.1817 33.5592 40.3351C31.279 41.8531 28.6485 42.832 27.2568 43.1154C27.068 43.1539 26.8742 43.1533 26.6836 43.1249C24.1472 42.7475 22.166 42.1647 21.1735 41.8087C20.9592 41.7318 20.8638 41.4883 20.9427 41.2747Z" fill="url(#paint28_radial_14794_31470)"/>
<path d="M20.9427 41.2747C21.3799 40.0906 21.4758 38.6761 21.4426 37.7324C21.4312 37.4079 21.6047 37.0989 21.9002 36.9644L27.9759 34.1981C28.2911 34.0546 28.6553 34.0895 28.9611 34.2521C30.7187 35.1866 33.1694 35.3985 34.25 35.3329C34.4389 35.3215 34.6119 35.469 34.6094 35.6583C34.5827 37.6547 34.3386 38.8982 34.0612 39.7018C33.9709 39.9635 33.7896 40.1817 33.5592 40.3351C31.279 41.8531 28.6485 42.832 27.2568 43.1154C27.068 43.1539 26.8742 43.1533 26.6836 43.1249C24.1472 42.7475 22.166 42.1647 21.1735 41.8087C20.9592 41.7318 20.8638 41.4883 20.9427 41.2747Z" fill="url(#paint29_radial_14794_31470)"/>
</g>
<g id="Vector 792">
<path d="M10.3965 19.9016L6.69815 21.4234C6.43675 21.5309 6.23053 21.7429 6.16258 22.0173C5.82792 23.3684 5.59609 26.0996 5.73232 28.2515C5.75837 28.663 5.84884 29.0681 6.03207 29.4375C6.80657 30.999 8.55078 33.2378 9.66551 34.2866C9.95499 34.559 10.3838 34.568 10.7294 34.3718C11.8491 33.736 12.7627 33.4021 14.443 32.8984C14.7452 32.8078 14.9607 32.5388 14.9802 32.2239L15.3706 25.9179C15.3919 25.5743 15.2327 25.2464 14.9632 25.0323C13.0117 23.4822 11.8666 21.5252 11.2509 20.2389C11.0979 19.9192 10.7242 19.7667 10.3965 19.9016Z" fill="url(#paint30_linear_14794_31470)"/>
<path d="M10.3965 19.9016L6.69815 21.4234C6.43675 21.5309 6.23053 21.7429 6.16258 22.0173C5.82792 23.3684 5.59609 26.0996 5.73232 28.2515C5.75837 28.663 5.84884 29.0681 6.03207 29.4375C6.80657 30.999 8.55078 33.2378 9.66551 34.2866C9.95499 34.559 10.3838 34.568 10.7294 34.3718C11.8491 33.736 12.7627 33.4021 14.443 32.8984C14.7452 32.8078 14.9607 32.5388 14.9802 32.2239L15.3706 25.9179C15.3919 25.5743 15.2327 25.2464 14.9632 25.0323C13.0117 23.4822 11.8666 21.5252 11.2509 20.2389C11.0979 19.9192 10.7242 19.7667 10.3965 19.9016Z" fill="url(#paint31_radial_14794_31470)"/>
<path d="M10.3965 19.9016L6.69815 21.4234C6.43675 21.5309 6.23053 21.7429 6.16258 22.0173C5.82792 23.3684 5.59609 26.0996 5.73232 28.2515C5.75837 28.663 5.84884 29.0681 6.03207 29.4375C6.80657 30.999 8.55078 33.2378 9.66551 34.2866C9.95499 34.559 10.3838 34.568 10.7294 34.3718C11.8491 33.736 12.7627 33.4021 14.443 32.8984C14.7452 32.8078 14.9607 32.5388 14.9802 32.2239L15.3706 25.9179C15.3919 25.5743 15.2327 25.2464 14.9632 25.0323C13.0117 23.4822 11.8666 21.5252 11.2509 20.2389C11.0979 19.9192 10.7242 19.7667 10.3965 19.9016Z" fill="url(#paint32_radial_14794_31470)"/>
<path d="M10.3965 19.9016L6.69815 21.4234C6.43675 21.5309 6.23053 21.7429 6.16258 22.0173C5.82792 23.3684 5.59609 26.0996 5.73232 28.2515C5.75837 28.663 5.84884 29.0681 6.03207 29.4375C6.80657 30.999 8.55078 33.2378 9.66551 34.2866C9.95499 34.559 10.3838 34.568 10.7294 34.3718C11.8491 33.736 12.7627 33.4021 14.443 32.8984C14.7452 32.8078 14.9607 32.5388 14.9802 32.2239L15.3706 25.9179C15.3919 25.5743 15.2327 25.2464 14.9632 25.0323C13.0117 23.4822 11.8666 21.5252 11.2509 20.2389C11.0979 19.9192 10.7242 19.7667 10.3965 19.9016Z" fill="url(#paint33_radial_14794_31470)"/>
<path d="M10.3965 19.9016L6.69815 21.4234C6.43675 21.5309 6.23053 21.7429 6.16258 22.0173C5.82792 23.3684 5.59609 26.0996 5.73232 28.2515C5.75837 28.663 5.84884 29.0681 6.03207 29.4375C6.80657 30.999 8.55078 33.2378 9.66551 34.2866C9.95499 34.559 10.3838 34.568 10.7294 34.3718C11.8491 33.736 12.7627 33.4021 14.443 32.8984C14.7452 32.8078 14.9607 32.5388 14.9802 32.2239L15.3706 25.9179C15.3919 25.5743 15.2327 25.2464 14.9632 25.0323C13.0117 23.4822 11.8666 21.5252 11.2509 20.2389C11.0979 19.9192 10.7242 19.7667 10.3965 19.9016Z" fill="url(#paint34_radial_14794_31470)"/>
</g>
<g id="Vector 794">
<path d="M38.7325 29.0965C37.4881 31.7865 35.7039 34.1349 34.7641 35.2078C34.6211 35.3711 34.5296 35.5724 34.5076 35.7883L34.1272 39.5207C34.1154 39.636 34.1709 39.7526 34.2841 39.7776C34.6797 39.8652 35.5184 39.7079 37.3306 38.5493C39.3579 36.8032 41.5728 32.9712 42.3228 31.2368C42.8259 29.9222 42.8502 28.1936 42.7514 27.2005C42.7313 26.9987 42.5144 26.8905 42.3344 26.9838L39.1898 28.614C38.9876 28.7188 38.8281 28.8898 38.7325 29.0965Z" fill="url(#paint35_radial_14794_31470)"/>
<path d="M38.7325 29.0965C37.4881 31.7865 35.7039 34.1349 34.7641 35.2078C34.6211 35.3711 34.5296 35.5724 34.5076 35.7883L34.1272 39.5207C34.1154 39.636 34.1709 39.7526 34.2841 39.7776C34.6797 39.8652 35.5184 39.7079 37.3306 38.5493C39.3579 36.8032 41.5728 32.9712 42.3228 31.2368C42.8259 29.9222 42.8502 28.1936 42.7514 27.2005C42.7313 26.9987 42.5144 26.8905 42.3344 26.9838L39.1898 28.614C38.9876 28.7188 38.8281 28.8898 38.7325 29.0965Z" fill="url(#paint36_radial_14794_31470)"/>
<path d="M38.7325 29.0965C37.4881 31.7865 35.7039 34.1349 34.7641 35.2078C34.6211 35.3711 34.5296 35.5724 34.5076 35.7883L34.1272 39.5207C34.1154 39.636 34.1709 39.7526 34.2841 39.7776C34.6797 39.8652 35.5184 39.7079 37.3306 38.5493C39.3579 36.8032 41.5728 32.9712 42.3228 31.2368C42.8259 29.9222 42.8502 28.1936 42.7514 27.2005C42.7313 26.9987 42.5144 26.8905 42.3344 26.9838L39.1898 28.614C38.9876 28.7188 38.8281 28.8898 38.7325 29.0965Z" fill="url(#paint37_radial_14794_31470)"/>
</g>
<g id="Vector 780">
<path d="M34.8296 23.5063C33.0471 24.2195 30.3559 25.6006 29.1514 26.3025C28.9017 26.448 28.7397 26.7017 28.7015 26.9882C28.3753 29.4327 28.2508 31.9679 28.3078 33.4315C28.3211 33.7735 28.5263 34.0758 28.8364 34.2206C31.0422 35.2503 32.8455 35.4522 34.0108 35.4502C34.3887 35.4495 34.7555 35.3205 35.0412 35.0731C36.7909 33.5582 38.2489 30.8385 38.8226 29.3967C38.9639 29.0417 38.9667 28.6494 38.837 28.29C38.071 26.1674 36.5592 24.3344 35.621 23.5964C35.396 23.4193 35.0954 23.3999 34.8296 23.5063Z" fill="url(#paint38_radial_14794_31470)"/>
<path d="M34.8296 23.5063C33.0471 24.2195 30.3559 25.6006 29.1514 26.3025C28.9017 26.448 28.7397 26.7017 28.7015 26.9882C28.3753 29.4327 28.2508 31.9679 28.3078 33.4315C28.3211 33.7735 28.5263 34.0758 28.8364 34.2206C31.0422 35.2503 32.8455 35.4522 34.0108 35.4502C34.3887 35.4495 34.7555 35.3205 35.0412 35.0731C36.7909 33.5582 38.2489 30.8385 38.8226 29.3967C38.9639 29.0417 38.9667 28.6494 38.837 28.29C38.071 26.1674 36.5592 24.3344 35.621 23.5964C35.396 23.4193 35.0954 23.3999 34.8296 23.5063Z" fill="url(#paint39_radial_14794_31470)"/>
<path d="M34.8296 23.5063C33.0471 24.2195 30.3559 25.6006 29.1514 26.3025C28.9017 26.448 28.7397 26.7017 28.7015 26.9882C28.3753 29.4327 28.2508 31.9679 28.3078 33.4315C28.3211 33.7735 28.5263 34.0758 28.8364 34.2206C31.0422 35.2503 32.8455 35.4522 34.0108 35.4502C34.3887 35.4495 34.7555 35.3205 35.0412 35.0731C36.7909 33.5582 38.2489 30.8385 38.8226 29.3967C38.9639 29.0417 38.9667 28.6494 38.837 28.29C38.071 26.1674 36.5592 24.3344 35.621 23.5964C35.396 23.4193 35.0954 23.3999 34.8296 23.5063Z" fill="url(#paint40_radial_14794_31470)"/>
<path d="M34.8296 23.5063C33.0471 24.2195 30.3559 25.6006 29.1514 26.3025C28.9017 26.448 28.7397 26.7017 28.7015 26.9882C28.3753 29.4327 28.2508 31.9679 28.3078 33.4315C28.3211 33.7735 28.5263 34.0758 28.8364 34.2206C31.0422 35.2503 32.8455 35.4522 34.0108 35.4502C34.3887 35.4495 34.7555 35.3205 35.0412 35.0731C36.7909 33.5582 38.2489 30.8385 38.8226 29.3967C38.9639 29.0417 38.9667 28.6494 38.837 28.29C38.071 26.1674 36.5592 24.3344 35.621 23.5964C35.396 23.4193 35.0954 23.3999 34.8296 23.5063Z" fill="url(#paint41_radial_14794_31470)"/>
</g>
<g id="Blue 3">
<path d="M14.491 32.8477C13.004 33.3154 11.453 33.9822 10.5489 34.4125C10.2959 34.533 10.1675 34.8166 10.2557 35.0826C10.7771 36.6534 12.1578 39.2998 14.0337 40.4126C16.3861 41.5701 18.915 41.7964 20.2578 41.7504C20.4816 41.7428 20.6994 41.6527 20.8191 41.4635C21.3681 40.5958 21.4906 38.739 21.4384 37.4384C21.4285 37.1923 21.2969 36.9693 21.0922 36.8324L15.3225 32.972C15.0775 32.808 14.7723 32.7593 14.491 32.8477Z" fill="url(#paint42_radial_14794_31470)"/>
<path d="M14.491 32.8477C13.004 33.3154 11.453 33.9822 10.5489 34.4125C10.2959 34.533 10.1675 34.8166 10.2557 35.0826C10.7771 36.6534 12.1578 39.2998 14.0337 40.4126C16.3861 41.5701 18.915 41.7964 20.2578 41.7504C20.4816 41.7428 20.6994 41.6527 20.8191 41.4635C21.3681 40.5958 21.4906 38.739 21.4384 37.4384C21.4285 37.1923 21.2969 36.9693 21.0922 36.8324L15.3225 32.972C15.0775 32.808 14.7723 32.7593 14.491 32.8477Z" fill="url(#paint43_radial_14794_31470)"/>
</g>
<g id="Vector 787">
<path d="M21.6257 22.607C19.968 23.6301 17.4869 24.6195 15.9156 25.1741C15.5536 25.3019 15.2904 25.6192 15.2473 26.0007C14.9751 28.4145 14.9102 30.9657 14.9345 32.3103C14.9397 32.5972 15.0751 32.8641 15.3017 33.04C16.9701 34.3354 19.4143 35.9288 20.9481 36.7836C21.318 36.9898 21.7594 37.0105 22.1519 36.8518C23.934 36.1313 26.2539 35.0698 27.7849 34.2919C28.1276 34.1177 28.331 33.7581 28.3225 33.3737C28.2645 30.7488 28.517 28.3493 28.6665 27.1251C28.7108 26.7626 28.5578 26.4046 28.2561 26.1988C26.9902 25.3349 24.4067 23.6753 22.7781 22.6057C22.4303 22.3773 21.9798 22.3884 21.6257 22.607Z" fill="url(#paint44_linear_14794_31470)"/>
<path d="M21.6257 22.607C19.968 23.6301 17.4869 24.6195 15.9156 25.1741C15.5536 25.3019 15.2904 25.6192 15.2473 26.0007C14.9751 28.4145 14.9102 30.9657 14.9345 32.3103C14.9397 32.5972 15.0751 32.8641 15.3017 33.04C16.9701 34.3354 19.4143 35.9288 20.9481 36.7836C21.318 36.9898 21.7594 37.0105 22.1519 36.8518C23.934 36.1313 26.2539 35.0698 27.7849 34.2919C28.1276 34.1177 28.331 33.7581 28.3225 33.3737C28.2645 30.7488 28.517 28.3493 28.6665 27.1251C28.7108 26.7626 28.5578 26.4046 28.2561 26.1988C26.9902 25.3349 24.4067 23.6753 22.7781 22.6057C22.4303 22.3773 21.9798 22.3884 21.6257 22.607Z" fill="url(#paint45_radial_14794_31470)"/>
<path d="M21.6257 22.607C19.968 23.6301 17.4869 24.6195 15.9156 25.1741C15.5536 25.3019 15.2904 25.6192 15.2473 26.0007C14.9751 28.4145 14.9102 30.9657 14.9345 32.3103C14.9397 32.5972 15.0751 32.8641 15.3017 33.04C16.9701 34.3354 19.4143 35.9288 20.9481 36.7836C21.318 36.9898 21.7594 37.0105 22.1519 36.8518C23.934 36.1313 26.2539 35.0698 27.7849 34.2919C28.1276 34.1177 28.331 33.7581 28.3225 33.3737C28.2645 30.7488 28.517 28.3493 28.6665 27.1251C28.7108 26.7626 28.5578 26.4046 28.2561 26.1988C26.9902 25.3349 24.4067 23.6753 22.7781 22.6057C22.4303 22.3773 21.9798 22.3884 21.6257 22.607Z" fill="url(#paint46_radial_14794_31470)"/>
<path d="M21.6257 22.607C19.968 23.6301 17.4869 24.6195 15.9156 25.1741C15.5536 25.3019 15.2904 25.6192 15.2473 26.0007C14.9751 28.4145 14.9102 30.9657 14.9345 32.3103C14.9397 32.5972 15.0751 32.8641 15.3017 33.04C16.9701 34.3354 19.4143 35.9288 20.9481 36.7836C21.318 36.9898 21.7594 37.0105 22.1519 36.8518C23.934 36.1313 26.2539 35.0698 27.7849 34.2919C28.1276 34.1177 28.331 33.7581 28.3225 33.3737C28.2645 30.7488 28.517 28.3493 28.6665 27.1251C28.7108 26.7626 28.5578 26.4046 28.2561 26.1988C26.9902 25.3349 24.4067 23.6753 22.7781 22.6057C22.4303 22.3773 21.9798 22.3884 21.6257 22.607Z" fill="url(#paint47_radial_14794_31470)"/>
<path d="M21.6257 22.607C19.968 23.6301 17.4869 24.6195 15.9156 25.1741C15.5536 25.3019 15.2904 25.6192 15.2473 26.0007C14.9751 28.4145 14.9102 30.9657 14.9345 32.3103C14.9397 32.5972 15.0751 32.8641 15.3017 33.04C16.9701 34.3354 19.4143 35.9288 20.9481 36.7836C21.318 36.9898 21.7594 37.0105 22.1519 36.8518C23.934 36.1313 26.2539 35.0698 27.7849 34.2919C28.1276 34.1177 28.331 33.7581 28.3225 33.3737C28.2645 30.7488 28.517 28.3493 28.6665 27.1251C28.7108 26.7626 28.5578 26.4046 28.2561 26.1988C26.9902 25.3349 24.4067 23.6753 22.7781 22.6057C22.4303 22.3773 21.9798 22.3884 21.6257 22.607Z" fill="url(#paint48_radial_14794_31470)"/>
<path d="M21.6257 22.607C19.968 23.6301 17.4869 24.6195 15.9156 25.1741C15.5536 25.3019 15.2904 25.6192 15.2473 26.0007C14.9751 28.4145 14.9102 30.9657 14.9345 32.3103C14.9397 32.5972 15.0751 32.8641 15.3017 33.04C16.9701 34.3354 19.4143 35.9288 20.9481 36.7836C21.318 36.9898 21.7594 37.0105 22.1519 36.8518C23.934 36.1313 26.2539 35.0698 27.7849 34.2919C28.1276 34.1177 28.331 33.7581 28.3225 33.3737C28.2645 30.7488 28.517 28.3493 28.6665 27.1251C28.7108 26.7626 28.5578 26.4046 28.2561 26.1988C26.9902 25.3349 24.4067 23.6753 22.7781 22.6057C22.4303 22.3773 21.9798 22.3884 21.6257 22.607Z" fill="url(#paint49_radial_14794_31470)"/>
</g>
<g id="Blue 2">
<path d="M11.1417 19.3533C12.2019 16.547 13.9199 14.478 15.1396 13.4319C15.3091 13.2864 15.5272 13.2124 15.7506 13.2167C18.6406 13.2723 20.666 14.0174 21.7852 14.5239C22.0985 14.6657 22.3061 14.9692 22.338 15.3116C22.6373 18.5218 22.4958 20.3092 22.338 21.6759C22.3062 21.9507 22.1611 22.2006 21.9323 22.3561C20.1164 23.5898 17.8296 24.4784 16.0157 25.1423C15.6861 25.2629 15.3177 25.2439 15.0287 25.0448C13.474 23.9738 11.9329 21.7133 11.1886 20.2596C11.0444 19.9781 11.03 19.6492 11.1417 19.3533Z" fill="url(#paint50_radial_14794_31470)"/>
<path d="M11.1417 19.3533C12.2019 16.547 13.9199 14.478 15.1396 13.4319C15.3091 13.2864 15.5272 13.2124 15.7506 13.2167C18.6406 13.2723 20.666 14.0174 21.7852 14.5239C22.0985 14.6657 22.3061 14.9692 22.338 15.3116C22.6373 18.5218 22.4958 20.3092 22.338 21.6759C22.3062 21.9507 22.1611 22.2006 21.9323 22.3561C20.1164 23.5898 17.8296 24.4784 16.0157 25.1423C15.6861 25.2629 15.3177 25.2439 15.0287 25.0448C13.474 23.9738 11.9329 21.7133 11.1886 20.2596C11.0444 19.9781 11.03 19.6492 11.1417 19.3533Z" fill="url(#paint51_radial_14794_31470)"/>
<path d="M11.1417 19.3533C12.2019 16.547 13.9199 14.478 15.1396 13.4319C15.3091 13.2864 15.5272 13.2124 15.7506 13.2167C18.6406 13.2723 20.666 14.0174 21.7852 14.5239C22.0985 14.6657 22.3061 14.9692 22.338 15.3116C22.6373 18.5218 22.4958 20.3092 22.338 21.6759C22.3062 21.9507 22.1611 22.2006 21.9323 22.3561C20.1164 23.5898 17.8296 24.4784 16.0157 25.1423C15.6861 25.2629 15.3177 25.2439 15.0287 25.0448C13.474 23.9738 11.9329 21.7133 11.1886 20.2596C11.0444 19.9781 11.03 19.6492 11.1417 19.3533Z" fill="url(#paint52_radial_14794_31470)"/>
<path d="M11.1417 19.3533C12.2019 16.547 13.9199 14.478 15.1396 13.4319C15.3091 13.2864 15.5272 13.2124 15.7506 13.2167C18.6406 13.2723 20.666 14.0174 21.7852 14.5239C22.0985 14.6657 22.3061 14.9692 22.338 15.3116C22.6373 18.5218 22.4958 20.3092 22.338 21.6759C22.3062 21.9507 22.1611 22.2006 21.9323 22.3561C20.1164 23.5898 17.8296 24.4784 16.0157 25.1423C15.6861 25.2629 15.3177 25.2439 15.0287 25.0448C13.474 23.9738 11.9329 21.7133 11.1886 20.2596C11.0444 19.9781 11.03 19.6492 11.1417 19.3533Z" fill="url(#paint53_radial_14794_31470)"/>
<path d="M11.1417 19.3533C12.2019 16.547 13.9199 14.478 15.1396 13.4319C15.3091 13.2864 15.5272 13.2124 15.7506 13.2167C18.6406 13.2723 20.666 14.0174 21.7852 14.5239C22.0985 14.6657 22.3061 14.9692 22.338 15.3116C22.6373 18.5218 22.4958 20.3092 22.338 21.6759C22.3062 21.9507 22.1611 22.2006 21.9323 22.3561C20.1164 23.5898 17.8296 24.4784 16.0157 25.1423C15.6861 25.2629 15.3177 25.2439 15.0287 25.0448C13.474 23.9738 11.9329 21.7133 11.1886 20.2596C11.0444 19.9781 11.03 19.6492 11.1417 19.3533Z" fill="url(#paint54_radial_14794_31470)"/>
<path d="M11.1417 19.3533C12.2019 16.547 13.9199 14.478 15.1396 13.4319C15.3091 13.2864 15.5272 13.2124 15.7506 13.2167C18.6406 13.2723 20.666 14.0174 21.7852 14.5239C22.0985 14.6657 22.3061 14.9692 22.338 15.3116C22.6373 18.5218 22.4958 20.3092 22.338 21.6759C22.3062 21.9507 22.1611 22.2006 21.9323 22.3561C20.1164 23.5898 17.8296 24.4784 16.0157 25.1423C15.6861 25.2629 15.3177 25.2439 15.0287 25.0448C13.474 23.9738 11.9329 21.7133 11.1886 20.2596C11.0444 19.9781 11.03 19.6492 11.1417 19.3533Z" fill="url(#paint55_radial_14794_31470)"/>
</g>
<g id="Blue 1">
<path d="M28.6887 11.2235C28.3759 9.3764 28.3756 7.87015 28.4102 7.19145C28.423 6.94052 28.5846 6.77498 28.8352 6.75647C30.2308 6.65342 33.189 6.9932 35.0454 8.31513C37.0056 9.8011 38.3593 12.0737 38.8762 13.3772C38.974 13.6238 38.9222 13.9039 38.7316 14.0885C37.8861 14.9071 36.5563 15.4531 35.714 15.7874C35.4859 15.878 35.2275 15.8525 35.0219 15.7186L29.1211 11.8757C28.893 11.7272 28.7341 11.4918 28.6887 11.2235Z" fill="url(#paint56_radial_14794_31470)"/>
<path d="M28.6887 11.2235C28.3759 9.3764 28.3756 7.87015 28.4102 7.19145C28.423 6.94052 28.5846 6.77498 28.8352 6.75647C30.2308 6.65342 33.189 6.9932 35.0454 8.31513C37.0056 9.8011 38.3593 12.0737 38.8762 13.3772C38.974 13.6238 38.9222 13.9039 38.7316 14.0885C37.8861 14.9071 36.5563 15.4531 35.714 15.7874C35.4859 15.878 35.2275 15.8525 35.0219 15.7186L29.1211 11.8757C28.893 11.7272 28.7341 11.4918 28.6887 11.2235Z" fill="url(#paint57_radial_14794_31470)"/>
<path d="M28.6887 11.2235C28.3759 9.3764 28.3756 7.87015 28.4102 7.19145C28.423 6.94052 28.5846 6.77498 28.8352 6.75647C30.2308 6.65342 33.189 6.9932 35.0454 8.31513C37.0056 9.8011 38.3593 12.0737 38.8762 13.3772C38.974 13.6238 38.9222 13.9039 38.7316 14.0885C37.8861 14.9071 36.5563 15.4531 35.714 15.7874C35.4859 15.878 35.2275 15.8525 35.0219 15.7186L29.1211 11.8757C28.893 11.7272 28.7341 11.4918 28.6887 11.2235Z" fill="url(#paint58_radial_14794_31470)"/>
<path d="M28.6887 11.2235C28.3759 9.3764 28.3756 7.87015 28.4102 7.19145C28.423 6.94052 28.5846 6.77498 28.8352 6.75647C30.2308 6.65342 33.189 6.9932 35.0454 8.31513C37.0056 9.8011 38.3593 12.0737 38.8762 13.3772C38.974 13.6238 38.9222 13.9039 38.7316 14.0885C37.8861 14.9071 36.5563 15.4531 35.714 15.7874C35.4859 15.878 35.2275 15.8525 35.0219 15.7186L29.1211 11.8757C28.893 11.7272 28.7341 11.4918 28.6887 11.2235Z" fill="url(#paint59_radial_14794_31470)"/>
</g>
<g id="Vector 785">
<path d="M22.3659 21.7542C22.5526 19.0963 22.4361 16.7103 22.3561 15.3714C22.3337 14.9957 22.5221 14.6405 22.8529 14.461C24.2657 13.6941 26.7989 12.4617 28.2853 11.7536C28.5719 11.6171 28.9058 11.625 29.1814 11.7825C30.9451 12.7899 33.2274 14.3927 34.8215 15.4397C35.1198 15.6355 35.3264 15.9453 35.3637 16.3001C35.5566 18.1346 35.4669 20.9158 35.3895 22.6423C35.3732 23.0071 35.1578 23.3322 34.8295 23.4921L29.2011 26.2321C28.8863 26.3853 28.5142 26.3627 28.2202 26.1725L22.8239 22.6808C22.5131 22.4797 22.34 22.1234 22.3659 21.7542Z" fill="url(#paint60_radial_14794_31470)"/>
<path d="M22.3659 21.7542C22.5526 19.0963 22.4361 16.7103 22.3561 15.3714C22.3337 14.9957 22.5221 14.6405 22.8529 14.461C24.2657 13.6941 26.7989 12.4617 28.2853 11.7536C28.5719 11.6171 28.9058 11.625 29.1814 11.7825C30.9451 12.7899 33.2274 14.3927 34.8215 15.4397C35.1198 15.6355 35.3264 15.9453 35.3637 16.3001C35.5566 18.1346 35.4669 20.9158 35.3895 22.6423C35.3732 23.0071 35.1578 23.3322 34.8295 23.4921L29.2011 26.2321C28.8863 26.3853 28.5142 26.3627 28.2202 26.1725L22.8239 22.6808C22.5131 22.4797 22.34 22.1234 22.3659 21.7542Z" fill="url(#paint61_radial_14794_31470)"/>
<path d="M22.3659 21.7542C22.5526 19.0963 22.4361 16.7103 22.3561 15.3714C22.3337 14.9957 22.5221 14.6405 22.8529 14.461C24.2657 13.6941 26.7989 12.4617 28.2853 11.7536C28.5719 11.6171 28.9058 11.625 29.1814 11.7825C30.9451 12.7899 33.2274 14.3927 34.8215 15.4397C35.1198 15.6355 35.3264 15.9453 35.3637 16.3001C35.5566 18.1346 35.4669 20.9158 35.3895 22.6423C35.3732 23.0071 35.1578 23.3322 34.8295 23.4921L29.2011 26.2321C28.8863 26.3853 28.5142 26.3627 28.2202 26.1725L22.8239 22.6808C22.5131 22.4797 22.34 22.1234 22.3659 21.7542Z" fill="url(#paint62_radial_14794_31470)"/>
<path d="M22.3659 21.7542C22.5526 19.0963 22.4361 16.7103 22.3561 15.3714C22.3337 14.9957 22.5221 14.6405 22.8529 14.461C24.2657 13.6941 26.7989 12.4617 28.2853 11.7536C28.5719 11.6171 28.9058 11.625 29.1814 11.7825C30.9451 12.7899 33.2274 14.3927 34.8215 15.4397C35.1198 15.6355 35.3264 15.9453 35.3637 16.3001C35.5566 18.1346 35.4669 20.9158 35.3895 22.6423C35.3732 23.0071 35.1578 23.3322 34.8295 23.4921L29.2011 26.2321C28.8863 26.3853 28.5142 26.3627 28.2202 26.1725L22.8239 22.6808C22.5131 22.4797 22.34 22.1234 22.3659 21.7542Z" fill="url(#paint63_radial_14794_31470)"/>
<path d="M22.3659 21.7542C22.5526 19.0963 22.4361 16.7103 22.3561 15.3714C22.3337 14.9957 22.5221 14.6405 22.8529 14.461C24.2657 13.6941 26.7989 12.4617 28.2853 11.7536C28.5719 11.6171 28.9058 11.625 29.1814 11.7825C30.9451 12.7899 33.2274 14.3927 34.8215 15.4397C35.1198 15.6355 35.3264 15.9453 35.3637 16.3001C35.5566 18.1346 35.4669 20.9158 35.3895 22.6423C35.3732 23.0071 35.1578 23.3322 34.8295 23.4921L29.2011 26.2321C28.8863 26.3853 28.5142 26.3627 28.2202 26.1725L22.8239 22.6808C22.5131 22.4797 22.34 22.1234 22.3659 21.7542Z" fill="url(#paint64_radial_14794_31470)"/>
</g>
</g>
<defs>
<linearGradient id="paint0_linear_14794_31470" x1="32.1978" y1="7.26009" x2="23.3384" y2="5.10384" gradientUnits="userSpaceOnUse">
<stop stop-color="#E6E6E6"/>
<stop offset="1" stop-color="#D9D9D9"/>
</linearGradient>
<radialGradient id="paint1_radial_14794_31470" cx="0" cy="0" r="1" gradientUnits="userSpaceOnUse" gradientTransform="translate(34.4946 7.49447) rotate(-165.401) scale(5.20719 18.8592)">
<stop stop-color="#EDEDED"/>
<stop offset="1" stop-color="#EDEDED" stop-opacity="0"/>
</radialGradient>
<radialGradient id="paint2_radial_14794_31470" cx="0" cy="0" r="1" gradientUnits="userSpaceOnUse" gradientTransform="translate(24.9338 7.05034) rotate(103.068) scale(1.66835 6.23722)">
<stop offset="0.0808128" stop-opacity="0.7"/>
<stop offset="1" stop-opacity="0"/>
</radialGradient>
<radialGradient id="paint3_radial_14794_31470" cx="0" cy="0" r="1" gradientUnits="userSpaceOnUse" gradientTransform="translate(19.6406 4.7345) rotate(170.74) scale(2.18472 8.16772)">
<stop offset="0.0808128" stop-opacity="0.7"/>
<stop offset="1" stop-opacity="0"/>
</radialGradient>
<linearGradient id="paint4_linear_14794_31470" x1="12.5247" y1="39.4524" x2="6.09672" y2="29.0923" gradientUnits="userSpaceOnUse">
<stop stop-color="#8078D1"/>
<stop offset="1" stop-color="#807AB0"/>
</linearGradient>
<radialGradient id="paint5_radial_14794_31470" cx="0" cy="0" r="1" gradientUnits="userSpaceOnUse" gradientTransform="translate(11.5312 33.7501) rotate(-36.8699) scale(5.625 22.9302)">
<stop offset="0.240815" stop-color="white" stop-opacity="0.3"/>
<stop offset="0.501754" stop-color="white" stop-opacity="0"/>
</radialGradient>
<linearGradient id="paint6_linear_14794_31470" x1="13.3363" y1="8.91588" x2="20.3998" y2="6.19916" gradientUnits="userSpaceOnUse">
<stop stop-color="#4876CD"/>
<stop offset="1" stop-color="#4386F5"/>
</linearGradient>
<radialGradient id="paint7_radial_14794_31470" cx="0" cy="0" r="1" gradientUnits="userSpaceOnUse" gradientTransform="translate(19.565 6.41669) rotate(-113.199) scale(1.07097 6.26929)">
<stop offset="0.287356" stop-color="#3496FF"/>
<stop offset="1" stop-color="#3496FF" stop-opacity="0"/>
</radialGradient>
<radialGradient id="paint8_radial_14794_31470" cx="0" cy="0" r="1" gradientUnits="userSpaceOnUse" gradientTransform="translate(12.9517 9.72741) rotate(-10.5278) scale(3.51387 1.31378)">
<stop offset="0.21374" stop-color="#084AA0"/>
<stop offset="1" stop-color="#084AA0" stop-opacity="0"/>
</radialGradient>
<radialGradient id="paint9_radial_14794_31470" cx="0" cy="0" r="1" gradientUnits="userSpaceOnUse" gradientTransform="translate(32.7945 40.7751) rotate(58.3629) scale(0.790169 4.56929)">
<stop stop-color="#2C77FF"/>
<stop offset="1" stop-color="#4A67FF"/>
</radialGradient>
<linearGradient id="paint10_linear_14794_31470" x1="44.2446" y1="24.9438" x2="42.3696" y2="24.9438" gradientUnits="userSpaceOnUse">
<stop offset="0.775" stop-color="#5193FF"/>
<stop offset="1" stop-color="#125DCE"/>
</linearGradient>
<radialGradient id="paint11_radial_14794_31470" cx="0" cy="0" r="1" gradientUnits="userSpaceOnUse" gradientTransform="translate(38.9338 14.1826) rotate(-36.4309) scale(0.787872 8.13083)">
<stop stop-color="#A2A4B1"/>
<stop offset="1" stop-color="#A2A4B1" stop-opacity="0"/>
</radialGradient>
<radialGradient id="paint12_radial_14794_31470" cx="0" cy="0" r="1" gradientUnits="userSpaceOnUse" gradientTransform="translate(25.0727 11.9946) rotate(-155.98) scale(9.44272 13.5208)">
<stop stop-color="#DFDFE1"/>
<stop offset="1" stop-color="#BFBEC0"/>
</radialGradient>
<radialGradient id="paint13_radial_14794_31470" cx="0" cy="0" r="1" gradientUnits="userSpaceOnUse" gradientTransform="translate(18.6796 14.6251) rotate(101.659) scale(1.50767 5.41866)">
<stop offset="0.0808128"/>
<stop offset="1" stop-opacity="0"/>
</radialGradient>
<radialGradient id="paint14_radial_14794_31470" cx="0" cy="0" r="1" gradientUnits="userSpaceOnUse" gradientTransform="translate(27 15.0236) rotate(62.6223) scale(2.9561 10.6244)">
<stop offset="0.0808128"/>
<stop offset="1" stop-opacity="0"/>
</radialGradient>
<radialGradient id="paint15_radial_14794_31470" cx="0" cy="0" r="1" gradientUnits="userSpaceOnUse" gradientTransform="translate(13.2421 10.8751) rotate(173.723) scale(2.35789 8.47439)">
<stop offset="0.0808128"/>
<stop offset="1" stop-opacity="0"/>
</radialGradient>
<radialGradient id="paint16_radial_14794_31470" cx="0" cy="0" r="1" gradientUnits="userSpaceOnUse" gradientTransform="translate(17.25 5.4845) rotate(-115.731) scale(2.15943 19.5511)">
<stop offset="0.0808128" stop-color="white"/>
<stop offset="1" stop-color="white" stop-opacity="0"/>
</radialGradient>
<radialGradient id="paint17_radial_14794_31470" cx="0" cy="0" r="1" gradientUnits="userSpaceOnUse" gradientTransform="translate(25.7578 4.50012) rotate(-76.9613) scale(2.28549 21.0539)">
<stop offset="0.380208" stop-color="white" stop-opacity="0.7"/>
<stop offset="0.895833" stop-color="white" stop-opacity="0"/>
</radialGradient>
<linearGradient id="paint18_linear_14794_31470" x1="7.6486" y1="13.0974" x2="14.5786" y2="16.3168" gradientUnits="userSpaceOnUse">
<stop stop-color="#A09FA2"/>
<stop offset="1" stop-color="#B7B6BA"/>
</linearGradient>
<linearGradient id="paint19_linear_14794_31470" x1="8.99461" y1="20.8538" x2="8.64305" y2="19.9632" gradientUnits="userSpaceOnUse">
<stop stop-color="#847D9D"/>
<stop offset="1" stop-color="#847D9D" stop-opacity="0"/>
</linearGradient>
<radialGradient id="paint20_radial_14794_31470" cx="0" cy="0" r="1" gradientUnits="userSpaceOnUse" gradientTransform="translate(24.1118 42.0884) rotate(103.671) scale(0.892473 4.86613)">
<stop offset="0.417241" stop-color="#6C5DBB"/>
<stop offset="1" stop-color="#6C5DBB" stop-opacity="0"/>
</radialGradient>
<radialGradient id="paint21_radial_14794_31470" cx="0" cy="0" r="1" gradientUnits="userSpaceOnUse" gradientTransform="translate(41.084 15.1165) rotate(97.9975) scale(13.8645 7.1686)">
<stop stop-color="#F0EFF3"/>
<stop offset="1" stop-color="#E0DEF0"/>
</radialGradient>
<radialGradient id="paint22_radial_14794_31470" cx="0" cy="0" r="1" gradientUnits="userSpaceOnUse" gradientTransform="translate(36.2226 27.7853) rotate(148.18) scale(2.68934 8.27026)">
<stop offset="0.0808128"/>
<stop offset="1" stop-opacity="0"/>
</radialGradient>
<radialGradient id="paint23_radial_14794_31470" cx="0" cy="0" r="1" gradientUnits="userSpaceOnUse" gradientTransform="translate(41.1797 30.3751) rotate(61.1043) scale(2.9785 10.179)">
<stop offset="0.0808128"/>
<stop offset="1" stop-opacity="0"/>
</radialGradient>
<radialGradient id="paint24_radial_14794_31470" cx="0" cy="0" r="1" gradientUnits="userSpaceOnUse" gradientTransform="translate(34.0613 20.852) rotate(179.762) scale(1.81129 15.4179)">
<stop offset="0.0808128" stop-opacity="0.8"/>
<stop offset="1" stop-opacity="0"/>
</radialGradient>
<radialGradient id="paint25_radial_14794_31470" cx="0" cy="0" r="1" gradientUnits="userSpaceOnUse" gradientTransform="translate(28.2852 34.8135) rotate(90.9002) scale(7.55703 16.6412)">
<stop stop-color="#B4A6F7"/>
<stop stop-color="#B2A8F8"/>
<stop offset="0.0001" stop-color="#B2A8F8"/>
<stop offset="1" stop-color="#8D7FFE"/>
</radialGradient>
<radialGradient id="paint26_radial_14794_31470" cx="0" cy="0" r="1" gradientUnits="userSpaceOnUse" gradientTransform="translate(36.6383 40.0032) rotate(-4.73529) scale(4.76856 10.252)">
<stop offset="0.240815" stop-color="white" stop-opacity="0.7"/>
<stop offset="0.652481" stop-color="white" stop-opacity="0"/>
</radialGradient>
<radialGradient id="paint27_radial_14794_31470" cx="0" cy="0" r="1" gradientUnits="userSpaceOnUse" gradientTransform="translate(31.3594 33.422) rotate(-73.0092) scale(3.52904 7.58711)">
<stop offset="0.240815" stop-color="white" stop-opacity="0.7"/>
<stop offset="0.652481" stop-color="white" stop-opacity="0"/>
</radialGradient>
<radialGradient id="paint28_radial_14794_31470" cx="0" cy="0" r="1" gradientUnits="userSpaceOnUse" gradientTransform="translate(23.5781 33.7032) rotate(-112.533) scale(4.77044 16.6042)">
<stop offset="0.240815" stop-color="white" stop-opacity="0.7"/>
<stop offset="0.652481" stop-color="white" stop-opacity="0"/>
</radialGradient>
<radialGradient id="paint29_radial_14794_31470" cx="0" cy="0" r="1" gradientUnits="userSpaceOnUse" gradientTransform="translate(19.0312 39.2345) rotate(-170.807) scale(4.17867 14.5445)">
<stop offset="0.240815" stop-color="white" stop-opacity="0.7"/>
<stop offset="0.652481" stop-color="white" stop-opacity="0"/>
</radialGradient>
<linearGradient id="paint30_linear_14794_31470" x1="15.4048" y1="25.5884" x2="5.69434" y2="28.9165" gradientUnits="userSpaceOnUse">
<stop stop-color="#A39AC6"/>
<stop offset="1" stop-color="#8A82B2"/>
</linearGradient>
<radialGradient id="paint31_radial_14794_31470" cx="0" cy="0" r="1" gradientUnits="userSpaceOnUse" gradientTransform="translate(7.59374 19.3595) rotate(-111.489) scale(2.3103 11.3548)">
<stop offset="0.240815" stop-color="white" stop-opacity="0.7"/>
<stop offset="1" stop-color="white" stop-opacity="0"/>
</radialGradient>
<radialGradient id="paint32_radial_14794_31470" cx="0" cy="0" r="1" gradientUnits="userSpaceOnUse" gradientTransform="translate(14.2031 21.0939) rotate(-38.211) scale(2.80389 13.7807)">
<stop offset="0.240815" stop-color="white" stop-opacity="0.7"/>
<stop offset="1" stop-color="white" stop-opacity="0"/>
</radialGradient>
<radialGradient id="paint33_radial_14794_31470" cx="0" cy="0" r="1" gradientUnits="userSpaceOnUse" gradientTransform="translate(16.8281 29.5314) rotate(2.97374) scale(3.61424 17.7634)">
<stop offset="0.240815" stop-color="white" stop-opacity="0.7"/>
<stop offset="0.652481" stop-color="white" stop-opacity="0"/>
</radialGradient>
<radialGradient id="paint34_radial_14794_31470" cx="0" cy="0" r="1" gradientUnits="userSpaceOnUse" gradientTransform="translate(13.2656 35.6251) rotate(66.9745) scale(4.07462 20.0261)">
<stop offset="0.240815" stop-color="white" stop-opacity="0.7"/>
<stop offset="0.652481" stop-color="white" stop-opacity="0"/>
</radialGradient>
<radialGradient id="paint35_radial_14794_31470" cx="0" cy="0" r="1" gradientUnits="userSpaceOnUse" gradientTransform="translate(37.0445 38.7292) rotate(-70.0169) scale(11.3055 37.8345)">
<stop offset="0.340844" stop-color="#B3ADEB"/>
<stop offset="1" stop-color="#DBD8F2"/>
</radialGradient>
<radialGradient id="paint36_radial_14794_31470" cx="0" cy="0" r="1" gradientUnits="userSpaceOnUse" gradientTransform="translate(40.9868 27.6274) rotate(64.0934) scale(0.911957 7.77364)">
<stop offset="0.208079" stop-color="#E8E7EE"/>
<stop offset="1" stop-color="#E8E7EE" stop-opacity="0"/>
</radialGradient>
<radialGradient id="paint37_radial_14794_31470" cx="0" cy="0" r="1" gradientUnits="userSpaceOnUse" gradientTransform="translate(32.5312 37.6407) rotate(-174.508) scale(2.44874 14.0413)">
<stop offset="0.0808128" stop-opacity="0.5"/>
<stop offset="1" stop-opacity="0"/>
</radialGradient>
<radialGradient id="paint38_radial_14794_31470" cx="0" cy="0" r="1" gradientUnits="userSpaceOnUse" gradientTransform="translate(32.9253 24.7269) rotate(86.1004) scale(10.7481 9.60928)">
<stop stop-color="#2987FF"/>
<stop offset="1" stop-color="#1473FF"/>
</radialGradient>
<radialGradient id="paint39_radial_14794_31470" cx="0" cy="0" r="1" gradientUnits="userSpaceOnUse" gradientTransform="translate(30.5156 36.0002) rotate(103.627) scale(3.18336 25.4853)">
<stop offset="0.151414" stop-opacity="0.6"/>
<stop offset="0.5451" stop-opacity="0"/>
</radialGradient>
<radialGradient id="paint40_radial_14794_31470" cx="0" cy="0" r="1" gradientUnits="userSpaceOnUse" gradientTransform="translate(26.3906 30.0471) rotate(-173.454) scale(2.87814 13.7272)">
<stop offset="0.0808128" stop-opacity="0.8"/>
<stop offset="1" stop-opacity="0"/>
</radialGradient>
<radialGradient id="paint41_radial_14794_31470" cx="0" cy="0" r="1" gradientUnits="userSpaceOnUse" gradientTransform="translate(39.5624 26.1565) rotate(-30.9638) scale(4.09989 25.7668)">
<stop offset="0.19549" stop-color="white" stop-opacity="0.7"/>
<stop offset="0.561829" stop-color="white" stop-opacity="0"/>
</radialGradient>
<radialGradient id="paint42_radial_14794_31470" cx="0" cy="0" r="1" gradientUnits="userSpaceOnUse" gradientTransform="translate(18.4165 34.6821) rotate(136.032) scale(7.35952 6.71341)">
<stop stop-color="#1153FF"/>
<stop offset="1" stop-color="#254DFF"/>
</radialGradient>
<radialGradient id="paint43_radial_14794_31470" cx="0" cy="0" r="1" gradientUnits="userSpaceOnUse" gradientTransform="translate(18.229 34.9692) rotate(124.472) scale(0.476198 4.72187)">
<stop offset="0.276805" stop-color="#0D44E2"/>
<stop offset="1" stop-color="#0D44E2" stop-opacity="0"/>
</radialGradient>
<linearGradient id="paint44_linear_14794_31470" x1="25.1666" y1="26.7134" x2="18.6978" y2="37.0962" gradientUnits="userSpaceOnUse">
<stop stop-color="#CCC5EB"/>
<stop offset="1" stop-color="#AB9EEA"/>
</linearGradient>
<radialGradient id="paint45_radial_14794_31470" cx="0" cy="0" r="1" gradientUnits="userSpaceOnUse" gradientTransform="translate(17.5577 36.3988) rotate(124.717) scale(2.24079 15.2294)">
<stop stop-opacity="0.6"/>
<stop offset="0.923959" stop-opacity="0"/>
</radialGradient>
<radialGradient id="paint46_radial_14794_31470" cx="0" cy="0" r="1" gradientUnits="userSpaceOnUse" gradientTransform="translate(26.6021 38.0828) rotate(65.9261) scale(3.40065 19.3726)">
<stop offset="0.0808128"/>
<stop offset="1" stop-opacity="0"/>
</radialGradient>
<radialGradient id="paint47_radial_14794_31470" cx="0" cy="0" r="1" gradientUnits="userSpaceOnUse" gradientTransform="translate(12.7858 29.1892) rotate(-180) scale(2.77435 13.1476)">
<stop offset="0.0808128" stop-opacity="0.8"/>
<stop offset="1" stop-opacity="0"/>
</radialGradient>
<radialGradient id="paint48_radial_14794_31470" cx="0" cy="0" r="1" gradientUnits="userSpaceOnUse" gradientTransform="translate(17.5547 22.3595) rotate(-113.767) scale(2.79142 18.8495)">
<stop offset="0.240815" stop-color="white"/>
<stop offset="1" stop-color="white" stop-opacity="0"/>
</radialGradient>
<radialGradient id="paint49_radial_14794_31470" cx="0" cy="0" r="1" gradientUnits="userSpaceOnUse" gradientTransform="translate(26.0472 22.5585) rotate(-54.8464) scale(4.40893 26.396)">
<stop offset="0.45955" stop-color="white" stop-opacity="0.7"/>
<stop offset="0.558891" stop-color="white" stop-opacity="0"/>
</radialGradient>
<radialGradient id="paint50_radial_14794_31470" cx="0" cy="0" r="1" gradientUnits="userSpaceOnUse" gradientTransform="translate(21.604 14.807) rotate(143.771) scale(11.7382 12.0103)">
<stop stop-color="#197AFF"/>
<stop offset="1" stop-color="#1462E6"/>
</radialGradient>
<radialGradient id="paint51_radial_14794_31470" cx="0" cy="0" r="1" gradientUnits="userSpaceOnUse" gradientTransform="translate(11.8125 23.5079) rotate(141.235) scale(1.9839 12.2073)">
<stop offset="0.0808128" stop-opacity="0.6"/>
<stop offset="1" stop-opacity="0"/>
</radialGradient>
<radialGradient id="paint52_radial_14794_31470" cx="0" cy="0" r="1" gradientUnits="userSpaceOnUse" gradientTransform="translate(20.5078 25.9923) rotate(62.7236) scale(3.0062 17.1467)">
<stop offset="0.0808128"/>
<stop offset="1" stop-opacity="0"/>
</radialGradient>
<radialGradient id="paint53_radial_14794_31470" cx="0" cy="0" r="1" gradientUnits="userSpaceOnUse" gradientTransform="translate(10.5469 15.1642) rotate(-148.815) scale(3.12317 14.4351)">
<stop offset="0.0808128" stop-opacity="0.8"/>
<stop offset="1" stop-opacity="0"/>
</radialGradient>
<radialGradient id="paint54_radial_14794_31470" cx="0" cy="0" r="1" gradientUnits="userSpaceOnUse" gradientTransform="translate(19.125 11.6017) rotate(-80.1723) scale(3.02089 29.9198)">
<stop offset="0.20954" stop-color="white"/>
<stop offset="0.861355" stop-color="white" stop-opacity="0"/>
</radialGradient>
<radialGradient id="paint55_radial_14794_31470" cx="0" cy="0" r="1" gradientUnits="userSpaceOnUse" gradientTransform="translate(23.8594 18.3282) rotate(2.41103) scale(4.45707 26.9025)">
<stop offset="0.19549" stop-color="white" stop-opacity="0.7"/>
<stop offset="0.456144" stop-color="white" stop-opacity="0"/>
</radialGradient>
<radialGradient id="paint56_radial_14794_31470" cx="0" cy="0" r="1" gradientUnits="userSpaceOnUse" gradientTransform="translate(36.229 7.40105) rotate(117.699) scale(8.47077 9.78831)">
<stop stop-color="#3697FF"/>
<stop offset="1" stop-color="#2890FF"/>
</radialGradient>
<radialGradient id="paint57_radial_14794_31470" cx="0" cy="0" r="1" gradientUnits="userSpaceOnUse" gradientTransform="translate(31.3828 15.3049) rotate(122.876) scale(2.28837 9.40626)">
<stop offset="0.0808128"/>
<stop offset="1" stop-opacity="0"/>
</radialGradient>
<radialGradient id="paint58_radial_14794_31470" cx="0" cy="0" r="1" gradientUnits="userSpaceOnUse" gradientTransform="translate(37.664 16.7112) rotate(61.1768) scale(2.18061 6.29489)">
<stop offset="0.0808128"/>
<stop offset="1" stop-opacity="0"/>
</radialGradient>
<radialGradient id="paint59_radial_14794_31470" cx="0" cy="0" r="1" gradientUnits="userSpaceOnUse" gradientTransform="translate(26.7656 9.30493) rotate(172.725) scale(2.221 9.8284)">
<stop offset="0.0808128"/>
<stop offset="1" stop-opacity="0"/>
</radialGradient>
<radialGradient id="paint60_radial_14794_31470" cx="0" cy="0" r="1" gradientUnits="userSpaceOnUse" gradientTransform="translate(35.4793 15.4421) rotate(155.871) scale(8.72371 11.632)">
<stop stop-color="#ECEAF2"/>
<stop offset="1" stop-color="#D5CEEA"/>
</radialGradient>
<radialGradient id="paint61_radial_14794_31470" cx="0" cy="0" r="1" gradientUnits="userSpaceOnUse" gradientTransform="translate(24.823 25.7783) rotate(123.311) scale(2.21439 9.50646)">
<stop offset="0.0808128" stop-opacity="0.6"/>
<stop offset="1" stop-opacity="0"/>
</radialGradient>
<radialGradient id="paint62_radial_14794_31470" cx="0" cy="0" r="1" gradientUnits="userSpaceOnUse" gradientTransform="translate(33.4414 27.4703) rotate(67.0362) scale(3.38804 18.3343)">
<stop offset="0.0808128"/>
<stop offset="1" stop-opacity="0"/>
</radialGradient>
<radialGradient id="paint63_radial_14794_31470" cx="0" cy="0" r="1" gradientUnits="userSpaceOnUse" gradientTransform="translate(20.2758 18.5346) rotate(-180) scale(2.64368 13.2097)">
<stop offset="0.0808128" stop-opacity="0.8"/>
<stop offset="1" stop-opacity="0"/>
</radialGradient>
<radialGradient id="paint64_radial_14794_31470" cx="0" cy="0" r="1" gradientUnits="userSpaceOnUse" gradientTransform="translate(32.9126 11.8726) rotate(-56.2617) scale(4.35535 25.5826)">
<stop offset="0.45955" stop-color="white" stop-opacity="0.7"/>
<stop offset="0.558891" stop-color="white" stop-opacity="0"/>
</radialGradient>
</defs>
</svg>
