<svg width="48" height="48" viewBox="0 0 48 48" fill="none" xmlns="http://www.w3.org/2000/svg">
<g id="T-shirt">
<g id="Back">
<path d="M24.0039 19.8301C27.3823 19.8301 30.1211 17.0913 30.1211 13.7129C30.1211 13.6738 30.1207 13.6347 30.12 13.5957H17.8878C17.8871 13.6347 17.8867 13.6738 17.8867 13.7129C17.8867 17.0913 20.6255 19.8301 24.0039 19.8301Z" fill="url(#paint0_linear_1536_12100)"/>
<path d="M24.0039 19.8301C27.3823 19.8301 30.1211 17.0913 30.1211 13.7129C30.1211 13.6738 30.1207 13.6347 30.12 13.5957H17.8878C17.8871 13.6347 17.8867 13.6738 17.8867 13.7129C17.8867 17.0913 20.6255 19.8301 24.0039 19.8301Z" fill="url(#paint1_radial_1536_12100)"/>
</g>
<g id="L-Sleeve">
<path d="M3.70967 20.61C3.30132 19.9031 3.53131 19.0006 4.22999 18.5783C6.40106 17.2659 10.668 14.6903 11.1017 14.4571C11.8735 14.0423 12.2443 13.9473 12.2443 13.9473L17.5589 22.0892L9.11271 26.9656C8.39538 27.3798 7.47813 27.1341 7.06383 26.4168L3.70967 20.61Z" fill="url(#paint2_linear_1536_12100)"/>
<path d="M3.70967 20.61C3.30132 19.9031 3.53131 19.0006 4.22999 18.5783C6.40106 17.2659 10.668 14.6903 11.1017 14.4571C11.8735 14.0423 12.2443 13.9473 12.2443 13.9473L17.5589 22.0892L9.11271 26.9656C8.39538 27.3798 7.47813 27.1341 7.06383 26.4168L3.70967 20.61Z" fill="url(#paint3_linear_1536_12100)"/>
<path d="M3.70967 20.61C3.30132 19.9031 3.53131 19.0006 4.22999 18.5783C6.40106 17.2659 10.668 14.6903 11.1017 14.4571C11.8735 14.0423 12.2443 13.9473 12.2443 13.9473L17.5589 22.0892L9.11271 26.9656C8.39538 27.3798 7.47813 27.1341 7.06383 26.4168L3.70967 20.61Z" fill="url(#paint4_radial_1536_12100)"/>
<path d="M3.70967 20.61C3.30132 19.9031 3.53131 19.0006 4.22999 18.5783C6.40106 17.2659 10.668 14.6903 11.1017 14.4571C11.8735 14.0423 12.2443 13.9473 12.2443 13.9473L17.5589 22.0892L9.11271 26.9656C8.39538 27.3798 7.47813 27.1341 7.06383 26.4168L3.70967 20.61Z" fill="url(#paint5_linear_1536_12100)"/>
<path d="M3.70967 20.61C3.30132 19.9031 3.53131 19.0006 4.22999 18.5783C6.40106 17.2659 10.668 14.6903 11.1017 14.4571C11.8735 14.0423 12.2443 13.9473 12.2443 13.9473L17.5589 22.0892L9.11271 26.9656C8.39538 27.3798 7.47813 27.1341 7.06383 26.4168L3.70967 20.61Z" fill="url(#paint6_radial_1536_12100)"/>
</g>
<g id="R-Sleeve">
<path d="M44.2945 20.61C44.7029 19.9031 44.4729 19.0006 43.7742 18.5783C41.6031 17.2659 37.5933 14.8285 36.9024 14.4571C36.2116 14.0858 35.7599 13.9473 35.7599 13.9473L30.4453 22.0892L38.8915 26.9656C39.6088 27.3798 40.5261 27.1341 40.9404 26.4168L44.2945 20.61Z" fill="url(#paint7_linear_1536_12100)"/>
<path d="M44.2945 20.61C44.7029 19.9031 44.4729 19.0006 43.7742 18.5783C41.6031 17.2659 37.5933 14.8285 36.9024 14.4571C36.2116 14.0858 35.7599 13.9473 35.7599 13.9473L30.4453 22.0892L38.8915 26.9656C39.6088 27.3798 40.5261 27.1341 40.9404 26.4168L44.2945 20.61Z" fill="url(#paint8_linear_1536_12100)"/>
<path d="M44.2945 20.61C44.7029 19.9031 44.4729 19.0006 43.7742 18.5783C41.6031 17.2659 37.5933 14.8285 36.9024 14.4571C36.2116 14.0858 35.7599 13.9473 35.7599 13.9473L30.4453 22.0892L38.8915 26.9656C39.6088 27.3798 40.5261 27.1341 40.9404 26.4168L44.2945 20.61Z" fill="url(#paint9_radial_1536_12100)"/>
<path d="M44.2945 20.61C44.7029 19.9031 44.4729 19.0006 43.7742 18.5783C41.6031 17.2659 37.5933 14.8285 36.9024 14.4571C36.2116 14.0858 35.7599 13.9473 35.7599 13.9473L30.4453 22.0892L38.8915 26.9656C39.6088 27.3798 40.5261 27.1341 40.9404 26.4168L44.2945 20.61Z" fill="url(#paint10_linear_1536_12100)"/>
<path d="M44.2945 20.61C44.7029 19.9031 44.4729 19.0006 43.7742 18.5783C41.6031 17.2659 37.5933 14.8285 36.9024 14.4571C36.2116 14.0858 35.7599 13.9473 35.7599 13.9473L30.4453 22.0892L38.8915 26.9656C39.6088 27.3798 40.5261 27.1341 40.9404 26.4168L44.2945 20.61Z" fill="url(#paint11_linear_1536_12100)"/>
</g>
<g id="Torso">
<path d="M14.9518 13.5957C14.0346 13.5957 13.1213 13.7139 12.2344 13.9473V44.0645C12.2344 44.4787 12.5701 44.8145 12.9844 44.8145H35.0156C35.4299 44.8145 35.7656 44.4787 35.7656 44.0645V13.9473L35.7033 13.9322C34.7794 13.7087 33.8321 13.5957 32.8815 13.5957H30.1189C30.1196 13.6347 30.12 13.6738 30.12 13.7129C30.12 17.0913 27.3812 19.8301 24.0028 19.8301C20.6244 19.8301 17.8856 17.0913 17.8856 13.7129C17.8856 13.6738 17.886 13.6347 17.8867 13.5957H14.9518Z" fill="url(#paint12_linear_1536_12100)"/>
<path d="M14.9518 13.5957C14.0346 13.5957 13.1213 13.7139 12.2344 13.9473V44.0645C12.2344 44.4787 12.5701 44.8145 12.9844 44.8145H35.0156C35.4299 44.8145 35.7656 44.4787 35.7656 44.0645V13.9473L35.7033 13.9322C34.7794 13.7087 33.8321 13.5957 32.8815 13.5957H30.1189C30.1196 13.6347 30.12 13.6738 30.12 13.7129C30.12 17.0913 27.3812 19.8301 24.0028 19.8301C20.6244 19.8301 17.8856 17.0913 17.8856 13.7129C17.8856 13.6738 17.886 13.6347 17.8867 13.5957H14.9518Z" fill="url(#paint13_linear_1536_12100)"/>
<path d="M14.9518 13.5957C14.0346 13.5957 13.1213 13.7139 12.2344 13.9473V44.0645C12.2344 44.4787 12.5701 44.8145 12.9844 44.8145H35.0156C35.4299 44.8145 35.7656 44.4787 35.7656 44.0645V13.9473L35.7033 13.9322C34.7794 13.7087 33.8321 13.5957 32.8815 13.5957H30.1189C30.1196 13.6347 30.12 13.6738 30.12 13.7129C30.12 17.0913 27.3812 19.8301 24.0028 19.8301C20.6244 19.8301 17.8856 17.0913 17.8856 13.7129C17.8856 13.6738 17.886 13.6347 17.8867 13.5957H14.9518Z" fill="url(#paint14_linear_1536_12100)"/>
<path d="M14.9518 13.5957C14.0346 13.5957 13.1213 13.7139 12.2344 13.9473V44.0645C12.2344 44.4787 12.5701 44.8145 12.9844 44.8145H35.0156C35.4299 44.8145 35.7656 44.4787 35.7656 44.0645V13.9473L35.7033 13.9322C34.7794 13.7087 33.8321 13.5957 32.8815 13.5957H30.1189C30.1196 13.6347 30.12 13.6738 30.12 13.7129C30.12 17.0913 27.3812 19.8301 24.0028 19.8301C20.6244 19.8301 17.8856 17.0913 17.8856 13.7129C17.8856 13.6738 17.886 13.6347 17.8867 13.5957H14.9518Z" fill="url(#paint15_linear_1536_12100)"/>
<path d="M14.9518 13.5957C14.0346 13.5957 13.1213 13.7139 12.2344 13.9473V44.0645C12.2344 44.4787 12.5701 44.8145 12.9844 44.8145H35.0156C35.4299 44.8145 35.7656 44.4787 35.7656 44.0645V13.9473L35.7033 13.9322C34.7794 13.7087 33.8321 13.5957 32.8815 13.5957H30.1189C30.1196 13.6347 30.12 13.6738 30.12 13.7129C30.12 17.0913 27.3812 19.8301 24.0028 19.8301C20.6244 19.8301 17.8856 17.0913 17.8856 13.7129C17.8856 13.6738 17.886 13.6347 17.8867 13.5957H14.9518Z" fill="url(#paint16_radial_1536_12100)"/>
</g>
<path id="Graphic" d="M12.2344 28.0801V23.1582H35.7656V28.0801H12.2344Z" fill="url(#paint17_linear_1536_12100)"/>
<g id="Neck">
<path d="M17.4973 13.3784C17.3003 13.3784 17.1367 13.5329 17.1367 13.73C17.1367 17.5151 20.2133 20.58 24.0039 20.58C27.7946 20.58 30.8711 17.5151 30.8711 13.73C30.8711 13.5329 30.7075 13.3784 30.5105 13.3784H29.7115C29.521 13.3784 29.3711 13.5395 29.3711 13.73C29.3711 16.6827 26.9701 19.08 24.0039 19.08C21.0377 19.08 18.6367 16.6827 18.6367 13.73C18.6367 13.5395 18.4868 13.3784 18.2963 13.3784H17.4973Z" fill="url(#paint18_linear_1536_12100)"/>
<path d="M17.4973 13.3784C17.3003 13.3784 17.1367 13.5329 17.1367 13.73C17.1367 17.5151 20.2133 20.58 24.0039 20.58C27.7946 20.58 30.8711 17.5151 30.8711 13.73C30.8711 13.5329 30.7075 13.3784 30.5105 13.3784H29.7115C29.521 13.3784 29.3711 13.5395 29.3711 13.73C29.3711 16.6827 26.9701 19.08 24.0039 19.08C21.0377 19.08 18.6367 16.6827 18.6367 13.73C18.6367 13.5395 18.4868 13.3784 18.2963 13.3784H17.4973Z" fill="url(#paint19_radial_1536_12100)" fill-opacity="0.8"/>
<path d="M17.4973 13.3784C17.3003 13.3784 17.1367 13.5329 17.1367 13.73C17.1367 17.5151 20.2133 20.58 24.0039 20.58C27.7946 20.58 30.8711 17.5151 30.8711 13.73C30.8711 13.5329 30.7075 13.3784 30.5105 13.3784H29.7115C29.521 13.3784 29.3711 13.5395 29.3711 13.73C29.3711 16.6827 26.9701 19.08 24.0039 19.08C21.0377 19.08 18.6367 16.6827 18.6367 13.73C18.6367 13.5395 18.4868 13.3784 18.2963 13.3784H17.4973Z" fill="url(#paint20_radial_1536_12100)"/>
<path d="M17.4973 13.3784C17.3003 13.3784 17.1367 13.5329 17.1367 13.73C17.1367 17.5151 20.2133 20.58 24.0039 20.58C27.7946 20.58 30.8711 17.5151 30.8711 13.73C30.8711 13.5329 30.7075 13.3784 30.5105 13.3784H29.7115C29.521 13.3784 29.3711 13.5395 29.3711 13.73C29.3711 16.6827 26.9701 19.08 24.0039 19.08C21.0377 19.08 18.6367 16.6827 18.6367 13.73C18.6367 13.5395 18.4868 13.3784 18.2963 13.3784H17.4973Z" fill="url(#paint21_radial_1536_12100)" fill-opacity="0.2"/>
</g>
</g>
<defs>
<linearGradient id="paint0_linear_1536_12100" x1="24.0039" y1="13.5957" x2="24.0039" y2="18.3301" gradientUnits="userSpaceOnUse">
<stop stop-color="#A4D047"/>
<stop offset="1" stop-color="#66A749"/>
</linearGradient>
<radialGradient id="paint1_radial_1536_12100" cx="0" cy="0" r="1" gradientUnits="userSpaceOnUse" gradientTransform="translate(24.0039 13.5957) rotate(90) scale(5.90625 8.88422)">
<stop offset="0.484127" stop-color="#7FB84A" stop-opacity="0"/>
<stop offset="0.944444" stop-color="#4C8A3B"/>
</radialGradient>
<linearGradient id="paint2_linear_1536_12100" x1="13.2639" y1="19.924" x2="6.04511" y2="24.424" gradientUnits="userSpaceOnUse">
<stop stop-color="#90CC68"/>
<stop offset="1" stop-color="#98D766"/>
</linearGradient>
<linearGradient id="paint3_linear_1536_12100" x1="7.87323" y1="16.0333" x2="9.18573" y2="18.3302" gradientUnits="userSpaceOnUse">
<stop stop-color="#A6E36C"/>
<stop offset="1" stop-color="#A6E36C" stop-opacity="0"/>
</linearGradient>
<radialGradient id="paint4_radial_1536_12100" cx="0" cy="0" r="1" gradientUnits="userSpaceOnUse" gradientTransform="translate(4.54511 23.0646) rotate(-32.3998) scale(2.88691 15.1751)">
<stop offset="0.293699" stop-color="#7AB25C"/>
<stop offset="1" stop-color="#93D263" stop-opacity="0"/>
</radialGradient>
<linearGradient id="paint5_linear_1536_12100" x1="12.3264" y1="25.8771" x2="10.217" y2="23.2052" gradientUnits="userSpaceOnUse">
<stop offset="0.130238" stop-color="#619B51"/>
<stop offset="1" stop-color="#85C26C" stop-opacity="0"/>
</linearGradient>
<radialGradient id="paint6_radial_1536_12100" cx="0" cy="0" r="1" gradientUnits="userSpaceOnUse" gradientTransform="translate(12.7951 23.5333) rotate(180) scale(1.59375 8.10938)">
<stop offset="0.125001" stop-color="#72B25A"/>
<stop offset="1" stop-color="#72B25A" stop-opacity="0"/>
</radialGradient>
<linearGradient id="paint7_linear_1536_12100" x1="35.8129" y1="20.0646" x2="43.2191" y2="23.3458" gradientUnits="userSpaceOnUse">
<stop stop-color="#95D669"/>
<stop offset="1" stop-color="#8FD670"/>
</linearGradient>
<linearGradient id="paint8_linear_1536_12100" x1="40.3597" y1="16.3146" x2="38.6254" y2="19.4552" gradientUnits="userSpaceOnUse">
<stop offset="0.174377" stop-color="#C0FE7C"/>
<stop offset="1" stop-color="#98D969" stop-opacity="0"/>
</linearGradient>
<radialGradient id="paint9_radial_1536_12100" cx="0" cy="0" r="1" gradientUnits="userSpaceOnUse" gradientTransform="translate(35.2035 18.424) rotate(2.7263) scale(1.97098 19.0528)">
<stop offset="0.199095" stop-color="#ABF17B"/>
<stop offset="1" stop-color="#ABF17B" stop-opacity="0"/>
</radialGradient>
<linearGradient id="paint10_linear_1536_12100" x1="42.4222" y1="23.9552" x2="42.0824" y2="23.7443" gradientUnits="userSpaceOnUse">
<stop stop-color="#8ECE6F"/>
<stop offset="1" stop-color="#8ECE6F" stop-opacity="0"/>
</linearGradient>
<linearGradient id="paint11_linear_1536_12100" x1="36.7035" y1="25.7833" x2="37.8285" y2="23.9552" gradientUnits="userSpaceOnUse">
<stop stop-color="#68A163"/>
<stop offset="1" stop-color="#84CC69" stop-opacity="0"/>
</linearGradient>
<linearGradient id="paint12_linear_1536_12100" x1="12.2344" y1="36.8457" x2="36.2812" y2="36.8457" gradientUnits="userSpaceOnUse">
<stop stop-color="#7ED279"/>
<stop offset="1" stop-color="#88EE94"/>
</linearGradient>
<linearGradient id="paint13_linear_1536_12100" x1="11.1562" y1="43.3145" x2="24" y2="43.3145" gradientUnits="userSpaceOnUse">
<stop stop-color="#6FBE75"/>
<stop offset="1" stop-color="#6FBE75" stop-opacity="0"/>
</linearGradient>
<linearGradient id="paint14_linear_1536_12100" x1="24" y1="13.5957" x2="24" y2="26.4395" gradientUnits="userSpaceOnUse">
<stop stop-color="#A5E26B"/>
<stop offset="1" stop-color="#A5E26B" stop-opacity="0"/>
</linearGradient>
<linearGradient id="paint15_linear_1536_12100" x1="24" y1="45.0957" x2="24" y2="43.4512" gradientUnits="userSpaceOnUse">
<stop stop-color="#539583"/>
<stop offset="1" stop-color="#53AE80" stop-opacity="0"/>
</linearGradient>
<radialGradient id="paint16_radial_1536_12100" cx="0" cy="0" r="1" gradientUnits="userSpaceOnUse" gradientTransform="translate(35.7656 13.5957) rotate(90) scale(12.8906 3.17068)">
<stop stop-color="#B9F87A"/>
<stop offset="1" stop-color="#B9F87A" stop-opacity="0"/>
</radialGradient>
<linearGradient id="paint17_linear_1536_12100" x1="12.2344" y1="26.1582" x2="35.7656" y2="26.1582" gradientUnits="userSpaceOnUse">
<stop stop-color="#BDC792"/>
<stop offset="1" stop-color="#EBF9B6"/>
</linearGradient>
<linearGradient id="paint18_linear_1536_12100" x1="24.0039" y1="13.3784" x2="24.0039" y2="20.58" gradientUnits="userSpaceOnUse">
<stop stop-color="#2FCF6C"/>
<stop offset="1" stop-color="#2FC36B"/>
</linearGradient>
<radialGradient id="paint19_radial_1536_12100" cx="0" cy="0" r="1" gradientUnits="userSpaceOnUse" gradientTransform="translate(24.4505 13.7141) rotate(95.1643) scale(11.0742 11.2669)">
<stop offset="0.447234" stop-color="#5DF194" stop-opacity="0"/>
<stop offset="0.528429" stop-color="#4BE986" stop-opacity="0.38"/>
<stop offset="0.56361" stop-color="#40D176" stop-opacity="0.38"/>
<stop offset="0.628658" stop-color="#2AB55F" stop-opacity="0.81"/>
<stop offset="0.671357" stop-color="#318451"/>
</radialGradient>
<radialGradient id="paint20_radial_1536_12100" cx="0" cy="0" r="1" gradientUnits="userSpaceOnUse" gradientTransform="translate(25.005 13.9529) rotate(16.8645) scale(5.34835 5.4375)">
<stop offset="0.260417" stop-color="#43D579" stop-opacity="0"/>
<stop offset="0.510417" stop-color="#43D579"/>
<stop offset="0.815051" stop-color="#25B05B"/>
<stop offset="1" stop-color="#43D579" stop-opacity="0"/>
</radialGradient>
<radialGradient id="paint21_radial_1536_12100" cx="0" cy="0" r="1" gradientUnits="userSpaceOnUse" gradientTransform="translate(24.414 13.7277) rotate(114.46) scale(7.98365 7.80288)">
<stop offset="0.610473" stop-color="#3ACD73"/>
<stop offset="0.677052" stop-color="#83FCAF"/>
<stop offset="0.75943" stop-color="#83FCAF" stop-opacity="0"/>
<stop offset="0.889759" stop-color="#0B8238"/>
</radialGradient>
</defs>
</svg>
