<svg width="48" height="48" viewBox="0 0 48 48" fill="none" xmlns="http://www.w3.org/2000/svg">
<g id="Watch">
<g id="Rectangle 78">
<rect x="39.5021" y="20.5796" width="4.29885" height="5.71749" rx="0.6" fill="url(#paint0_radial_14794_30501)"/>
<rect x="39.5021" y="20.5796" width="4.29885" height="5.71749" rx="0.6" fill="url(#paint1_radial_14794_30501)"/>
<rect x="39.5021" y="20.5796" width="4.29885" height="5.71749" rx="0.6" fill="url(#paint2_linear_14794_30501)"/>
</g>
<g id="Rectangle 79">
<rect x="13.5" y="3" width="21" height="42" rx="1" fill="url(#paint3_linear_14794_30501)"/>
<rect x="13.5" y="3" width="21" height="42" rx="1" fill="url(#paint4_linear_14794_30501)"/>
<rect x="13.5" y="3" width="21" height="42" rx="1" fill="url(#paint5_linear_14794_30501)"/>
<rect x="13.5" y="3" width="21" height="42" rx="1" fill="url(#paint6_linear_14794_30501)"/>
<rect x="13.5" y="3" width="21" height="42" rx="1" fill="url(#paint7_linear_14794_30501)"/>
<rect x="13.5" y="3" width="21" height="42" rx="1" fill="url(#paint8_linear_14794_30501)"/>
</g>
<g id="Ellipse 15">
<path d="M37.5 24C37.5 31.4558 31.4558 37.5 24 37.5C16.5442 37.5 10.5 31.4558 10.5 24C10.5 16.5442 16.5442 10.5 24 10.5C31.4558 10.5 37.5 16.5442 37.5 24Z" fill="url(#paint9_radial_14794_30501)"/>
<path d="M37.5 24C37.5 31.4558 31.4558 37.5 24 37.5C16.5442 37.5 10.5 31.4558 10.5 24C10.5 16.5442 16.5442 10.5 24 10.5C31.4558 10.5 37.5 16.5442 37.5 24Z" fill="url(#paint10_radial_14794_30501)"/>
<path d="M37.5 24C37.5 31.4558 31.4558 37.5 24 37.5C16.5442 37.5 10.5 31.4558 10.5 24C10.5 16.5442 16.5442 10.5 24 10.5C31.4558 10.5 37.5 16.5442 37.5 24Z" fill="url(#paint11_radial_14794_30501)"/>
</g>
<g id="Subtract">
<path fill-rule="evenodd" clip-rule="evenodd" d="M24 42C33.9411 42 42 33.9411 42 24C42 14.0589 33.9411 6 24 6C14.0589 6 6 14.0589 6 24C6 33.9411 14.0589 42 24 42ZM24 37.5C31.4558 37.5 37.5 31.4558 37.5 24C37.5 16.5442 31.4558 10.5 24 10.5C16.5442 10.5 10.5 16.5442 10.5 24C10.5 31.4558 16.5442 37.5 24 37.5Z" fill="url(#paint12_linear_14794_30501)"/>
<path fill-rule="evenodd" clip-rule="evenodd" d="M24 42C33.9411 42 42 33.9411 42 24C42 14.0589 33.9411 6 24 6C14.0589 6 6 14.0589 6 24C6 33.9411 14.0589 42 24 42ZM24 37.5C31.4558 37.5 37.5 31.4558 37.5 24C37.5 16.5442 31.4558 10.5 24 10.5C16.5442 10.5 10.5 16.5442 10.5 24C10.5 31.4558 16.5442 37.5 24 37.5Z" fill="url(#paint13_linear_14794_30501)"/>
<path fill-rule="evenodd" clip-rule="evenodd" d="M24 42C33.9411 42 42 33.9411 42 24C42 14.0589 33.9411 6 24 6C14.0589 6 6 14.0589 6 24C6 33.9411 14.0589 42 24 42ZM24 37.5C31.4558 37.5 37.5 31.4558 37.5 24C37.5 16.5442 31.4558 10.5 24 10.5C16.5442 10.5 10.5 16.5442 10.5 24C10.5 31.4558 16.5442 37.5 24 37.5Z" fill="url(#paint14_radial_14794_30501)"/>
<path fill-rule="evenodd" clip-rule="evenodd" d="M24 42C33.9411 42 42 33.9411 42 24C42 14.0589 33.9411 6 24 6C14.0589 6 6 14.0589 6 24C6 33.9411 14.0589 42 24 42ZM24 37.5C31.4558 37.5 37.5 31.4558 37.5 24C37.5 16.5442 31.4558 10.5 24 10.5C16.5442 10.5 10.5 16.5442 10.5 24C10.5 31.4558 16.5442 37.5 24 37.5Z" fill="url(#paint15_radial_14794_30501)"/>
</g>
<rect id="Rectangle 80" x="22.9841" y="12.626" width="2.03173" height="10.8495" rx="1.01587" fill="url(#paint16_linear_14794_30501)"/>
<rect id="Rectangle 77" x="24" y="22.5806" width="2.03173" height="9.64653" rx="1.01587" transform="rotate(50.0064 24 22.5806)" fill="url(#paint17_linear_14794_30501)"/>
<circle id="Ellipse 16" cx="24" cy="23.9998" r="2.45879" fill="url(#paint18_radial_14794_30501)"/>
</g>
<defs>
<radialGradient id="paint0_radial_14794_30501" cx="0" cy="0" r="1" gradientUnits="userSpaceOnUse" gradientTransform="translate(44.4314 22.4281) rotate(130.179) scale(5.06389 7.01255)">
<stop stop-color="#28A1FA"/>
<stop offset="1" stop-color="#1F6DFF"/>
</radialGradient>
<radialGradient id="paint1_radial_14794_30501" cx="0" cy="0" r="1" gradientUnits="userSpaceOnUse" gradientTransform="translate(43.6576 22.2275) rotate(90) scale(3.32444 0.573179)">
<stop stop-color="#5CC2FF"/>
<stop offset="1" stop-color="#5CC2FF" stop-opacity="0"/>
</radialGradient>
<linearGradient id="paint2_linear_14794_30501" x1="41.1094" y1="20.5796" x2="42.6797" y2="21.6791" gradientUnits="userSpaceOnUse">
<stop stop-color="#5190D7"/>
<stop offset="1" stop-color="#5190D7" stop-opacity="0"/>
</linearGradient>
<linearGradient id="paint3_linear_14794_30501" x1="24" y1="3" x2="24" y2="45" gradientUnits="userSpaceOnUse">
<stop stop-color="#3B96E6"/>
<stop offset="1" stop-color="#256AFF"/>
</linearGradient>
<linearGradient id="paint4_linear_14794_30501" x1="35.3437" y1="21.8198" x2="31.125" y2="21.8198" gradientUnits="userSpaceOnUse">
<stop stop-color="#4CB2FF"/>
<stop offset="1" stop-color="#4CB2FF" stop-opacity="0"/>
</linearGradient>
<linearGradient id="paint5_linear_14794_30501" x1="13.9687" y1="1.00726" x2="22.0312" y2="8.69476" gradientUnits="userSpaceOnUse">
<stop stop-color="#596FC7"/>
<stop offset="1" stop-color="#596FC7" stop-opacity="0"/>
</linearGradient>
<linearGradient id="paint6_linear_14794_30501" x1="13.5" y1="27.6323" x2="15.9375" y2="27.6323" gradientUnits="userSpaceOnUse">
<stop stop-color="#444A9E"/>
<stop offset="1" stop-color="#444A9E" stop-opacity="0"/>
</linearGradient>
<linearGradient id="paint7_linear_14794_30501" x1="14.9062" y1="47.1323" x2="17.4375" y2="38.7885" gradientUnits="userSpaceOnUse">
<stop stop-color="#2845FF"/>
<stop offset="1" stop-color="#2845FF" stop-opacity="0"/>
</linearGradient>
<linearGradient id="paint8_linear_14794_30501" x1="25.5738" y1="45.4127" x2="25.5738" y2="44.037" gradientUnits="userSpaceOnUse">
<stop stop-color="#5D7AFF"/>
<stop offset="1" stop-color="#5D7AFF" stop-opacity="0"/>
</linearGradient>
<radialGradient id="paint9_radial_14794_30501" cx="0" cy="0" r="1" gradientUnits="userSpaceOnUse" gradientTransform="translate(24 24) rotate(90) scale(13.5)">
<stop offset="0.9009" stop-color="#50369C"/>
<stop offset="1" stop-color="#3B2862"/>
</radialGradient>
<radialGradient id="paint10_radial_14794_30501" cx="0" cy="0" r="1" gradientUnits="userSpaceOnUse" gradientTransform="translate(19.5 28.5) rotate(-37.875) scale(8.55132 2.58389)">
<stop offset="0.303279" stop-color="#3C288F"/>
<stop offset="0.552254" stop-color="#3C288F" stop-opacity="0"/>
</radialGradient>
<radialGradient id="paint11_radial_14794_30501" cx="0" cy="0" r="1" gradientUnits="userSpaceOnUse" gradientTransform="translate(23.25 17.25) rotate(90) scale(10.5 2.85937)">
<stop offset="0.303279" stop-color="#3C288F"/>
<stop offset="0.552254" stop-color="#3C288F" stop-opacity="0"/>
</radialGradient>
<linearGradient id="paint12_linear_14794_30501" x1="35.625" y1="10.1948" x2="15.5625" y2="33.351" gradientUnits="userSpaceOnUse">
<stop stop-color="#CCCFF7"/>
<stop offset="1" stop-color="#BDC2FF"/>
</linearGradient>
<linearGradient id="paint13_linear_14794_30501" x1="12" y1="37.5" x2="36.75" y2="11.25" gradientUnits="userSpaceOnUse">
<stop stop-color="#A7AAD3"/>
<stop offset="0.515557" stop-color="#A7AAD3"/>
<stop offset="0.574789" stop-color="#A7AAD3" stop-opacity="0"/>
<stop offset="0.622299" stop-color="#E6E7FF" stop-opacity="0.2"/>
<stop offset="1" stop-color="#E6E7FF"/>
</linearGradient>
<radialGradient id="paint14_radial_14794_30501" cx="0" cy="0" r="1" gradientUnits="userSpaceOnUse" gradientTransform="translate(24 24) rotate(-41.6335) scale(18.0624)">
<stop offset="0.739009" stop-color="#CBCEF8" stop-opacity="0"/>
<stop offset="0.774838" stop-color="#CBCEF8"/>
<stop offset="0.865948" stop-color="#CBCEF8"/>
<stop offset="0.95431" stop-color="#CBCEF8"/>
<stop offset="1" stop-color="#CBCEF8" stop-opacity="0"/>
</radialGradient>
<radialGradient id="paint15_radial_14794_30501" cx="0" cy="0" r="1" gradientUnits="userSpaceOnUse" gradientTransform="translate(22.5 24) scale(27)">
<stop offset="0.413194" stop-color="#DDDFF7" stop-opacity="0"/>
<stop offset="0.446181" stop-color="#DDDFF7"/>
<stop offset="0.46875" stop-color="#DDDFF7" stop-opacity="0"/>
</radialGradient>
<linearGradient id="paint16_linear_14794_30501" x1="22.9841" y1="18.0507" x2="25.3216" y2="18.0507" gradientUnits="userSpaceOnUse">
<stop stop-color="#D6D8FF"/>
<stop offset="1" stop-color="#E7EAFF"/>
</linearGradient>
<linearGradient id="paint17_linear_14794_30501" x1="25.2747" y1="25.2487" x2="25.2096" y2="32.4075" gradientUnits="userSpaceOnUse">
<stop stop-color="#D6D8FF"/>
<stop offset="1" stop-color="#E7EAFF"/>
</linearGradient>
<radialGradient id="paint18_radial_14794_30501" cx="0" cy="0" r="1" gradientUnits="userSpaceOnUse" gradientTransform="translate(25.4842 22.6171) rotate(111.124) scale(4.11825)">
<stop offset="0.701421" stop-color="#DDBD3D"/>
<stop offset="1" stop-color="#CAA742"/>
</radialGradient>
</defs>
</svg>
