<svg width="20" height="20" viewBox="0 0 20 20" fill="none" xmlns="http://www.w3.org/2000/svg">
<g id="x-circle">
<path id="Solid" fill-rule="evenodd" clip-rule="evenodd" d="M9.9987 0.833252C4.93609 0.833252 0.832031 4.93731 0.832031 9.99992C0.832031 15.0625 4.93609 19.1666 9.9987 19.1666C15.0613 19.1666 19.1654 15.0625 19.1654 9.99992C19.1654 4.93731 15.0613 0.833252 9.9987 0.833252ZM13.088 6.91066C13.4134 7.2361 13.4134 7.76374 13.088 8.08917L11.1772 9.99992L13.088 11.9107C13.4134 12.2361 13.4134 12.7637 13.088 13.0892C12.7625 13.4146 12.2349 13.4146 11.9094 13.0892L9.9987 11.1784L8.08795 13.0892C7.76252 13.4146 7.23488 13.4146 6.90944 13.0892C6.584 12.7637 6.584 12.2361 6.90944 11.9107L8.82019 9.99992L6.90944 8.08917C6.584 7.76374 6.584 7.2361 6.90944 6.91066C7.23488 6.58523 7.76252 6.58523 8.08795 6.91066L9.9987 8.82141L11.9094 6.91066C12.2349 6.58523 12.7625 6.58523 13.088 6.91066Z" fill="#475467"/>
</g>
</svg>
