<svg width="256" height="256" viewBox="0 0 256 256" fill="none" xmlns="http://www.w3.org/2000/svg">
<g clip-path="url(#clip0_1_1836)">
<g clip-path="url(#clip1_1_1836)">
<path d="M128 255.238C198.272 255.238 255.238 198.272 255.238 128C255.238 57.7279 198.272 0.761389 128 0.761389C57.728 0.761389 0.761475 57.7279 0.761475 128C0.761475 198.272 57.728 255.238 128 255.238Z" fill="#FAFAFA"/>
<path d="M128 256C57.4271 256 0 198.588 0 128C0 57.4119 57.4271 0 128 0C198.573 0 256 57.4271 256 128C256 198.573 198.573 256 128 256ZM128 1.52327C58.2649 1.52327 1.52327 58.2649 1.52327 128C1.52327 197.735 58.2649 254.477 128 254.477C197.735 254.477 254.477 197.735 254.477 128C254.477 58.2649 197.735 1.52327 128 1.52327Z" fill="#E6E7E8"/>
<path d="M121.815 122.089C120.49 86.5517 107.192 51.3947 81.921 23.1229C41.6154 40.8537 13.4807 81.1441 13.4807 128C13.4807 139.409 15.1411 150.422 18.2638 160.826L82.6065 96.4834C93.2237 106.811 93.833 123.933 84.5258 135.296L46.9621 172.86C46.1243 173.424 44.403 172.708 43.3367 172.662C37.7006 172.372 32.948 173.85 28.622 177.612C27.7232 178.389 26.855 179.227 25.9715 180.034C37.9444 203.478 57.7316 222.259 81.9363 232.892C107.131 204.681 120.429 169.646 121.8 134.215C121.983 130.178 121.983 126.126 121.815 122.105V122.089Z" fill="#009933"/>
<path d="M189.342 214.552C188.55 214.003 186.95 214.993 185.945 215.191C179.836 216.456 169.996 215.572 165.35 210.926L132.768 178.344C132.57 178.146 132.57 177.841 132.768 177.643L138.861 171.55C139.059 171.352 139.363 171.352 139.561 171.55L166.02 198.009C166.218 198.207 166.523 198.207 166.721 198.009L172.814 191.916C173.012 191.718 173.012 191.413 172.814 191.215L146.355 164.756C146.157 164.558 146.157 164.253 146.355 164.055L152.448 157.962C152.646 157.764 152.951 157.764 153.149 157.962L179.608 184.422C179.806 184.62 180.111 184.62 180.309 184.422L186.402 178.328C186.6 178.13 186.6 177.826 186.402 177.628L159.943 151.169C159.745 150.971 159.745 150.666 159.943 150.468L166.036 144.375C166.234 144.177 166.538 144.177 166.736 144.375L199.091 176.729C203.935 181.573 204.909 191.185 203.584 197.552C203.371 198.542 202.396 200.142 202.944 200.949L209.967 207.971C219.502 198.192 227.317 186.722 232.892 174.048C204.605 148.777 169.448 135.464 133.925 134.154C132.509 171.062 118.144 207.545 90.8625 236.334C102.5 240.341 115.006 242.504 128 242.504C153.195 242.504 176.485 234.354 195.404 220.569L189.357 214.521L189.342 214.552Z" fill="#FBAA19"/>
<path d="M206.402 64.2207C205.854 65.0128 206.829 66.6274 207.042 67.6175C210.469 83.6727 199.974 94.3661 186.478 101.358C160.704 114.717 142.303 96.7728 155.601 70.7859C162.547 57.1984 173.256 46.5508 189.418 49.9934C190.408 50.2066 192.023 51.1815 192.815 50.6331L202.442 41.0061C182.411 23.8389 156.424 13.4502 127.969 13.4502C114.961 13.4502 102.47 15.6133 90.8169 19.6194C118.16 48.4549 132.524 85.0589 133.91 122.059C170.895 123.43 207.484 137.794 236.334 165.137C240.341 153.484 242.504 140.993 242.504 127.985C242.504 100.094 232.511 74.5332 215.938 54.6545L206.387 64.2054L206.402 64.2207Z" fill="#E57E25"/>
</g>
</g>
<defs>
<clipPath id="clip0_1_1836">
<rect width="256" height="256" fill="white"/>
</clipPath>
<clipPath id="clip1_1_1836">
<rect width="256" height="256" fill="white"/>
</clipPath>
</defs>
</svg>
