<svg width="400" height="400" viewBox="0 0 400 400" fill="none" xmlns="http://www.w3.org/2000/svg">
<g clip-path="url(#clip0_20089_75310)">
<rect width="400" height="400" fill="url(#paint0_linear_20089_75310)"/>
<path d="M248.142 323.908C245.174 321.086 242.824 317.68 241.241 313.904C239.658 310.127 238.877 306.063 238.946 301.969C238.904 297.92 239.708 293.906 241.304 290.184C242.901 286.463 245.255 283.114 248.218 280.353C253.112 275.532 259.45 272.445 266.264 271.566C273.078 270.686 279.992 272.06 285.951 275.48C290.651 278.182 294.571 282.056 297.328 286.724C300.107 291.296 301.577 296.543 301.575 301.893C301.653 305.998 300.877 310.074 299.297 313.864C297.717 317.653 295.368 321.073 292.398 323.908C286.472 329.696 278.516 332.937 270.232 332.937C261.948 332.937 253.992 329.696 248.066 323.908H248.142ZM240.197 92.5784L299.774 82.9341L290.293 247.285H249.792L240.197 92.5784Z" fill="#EA275E"/>
<path d="M161.585 151.762C162.729 146.697 165.148 142.007 168.61 138.136H168.595C169.962 136.549 171.65 135.271 173.549 134.386C175.447 133.5 177.511 133.028 179.606 133.001C180.244 132.971 180.882 133.068 181.483 133.287C182.083 133.507 182.634 133.843 183.103 134.277C183.528 134.663 183.865 135.135 184.093 135.662C184.321 136.189 184.435 136.759 184.426 137.333C184.426 143.875 176.812 148.685 161.585 151.762Z" fill="url(#paint1_linear_20089_75310)"/>
<path fill-rule="evenodd" clip-rule="evenodd" d="M227.88 282V332.938C227.88 332.938 199.989 333.198 168.858 316.261C133.665 297.044 98.8557 255.413 98.8557 196.034L98.8008 79.3084C98.824 77.2743 99.3582 75.2787 100.354 73.5051C101.35 71.7314 102.777 70.2367 104.501 69.1583C106.226 68.0799 108.195 67.4525 110.225 67.3337C112.256 67.2149 114.284 67.6086 116.123 68.4786C129.295 74.5957 143.055 79.3557 157.191 82.685C179.919 88.0742 203.114 91.2551 226.453 92.1834V208.443C226.453 210.627 225.585 212.722 224.041 214.266C222.496 215.811 220.401 216.678 218.217 216.678H171.096C173.882 249.319 190.134 270.58 227.88 282ZM211.474 182.37L187.514 169.5C183.418 175.601 178.398 178.652 172.454 178.652C170.206 178.63 168.014 177.945 166.153 176.683C164.013 175.202 162.393 173.086 161.522 170.634L161.616 170.445C167.119 169.559 172.571 168.386 177.952 166.932C182.968 165.576 187.863 163.805 192.586 161.639C196.83 159.748 200.833 157.357 204.511 154.519C207.728 151.994 210.406 148.85 212.387 145.272C214.357 141.778 215.384 137.831 215.365 133.82C215.405 130.312 214.747 126.831 213.427 123.581C212.264 120.652 210.499 118 208.244 115.799C206.002 113.674 203.46 111.891 200.699 110.506C197.874 109.078 194.877 108.019 191.783 107.355C188.676 106.691 185.508 106.359 182.331 106.363C176.128 106.316 169.965 107.355 164.121 109.435C158.701 111.332 153.669 114.192 149.266 117.878C144.992 121.492 141.299 125.743 138.318 130.48C135.238 135.352 132.917 140.664 131.434 146.233C129.881 152.017 129.103 157.982 129.118 163.971C129.118 176.919 132.657 186.964 139.736 194.106C146.814 201.247 156.701 204.817 169.398 204.817C188.154 204.817 202.179 197.335 211.474 182.37Z" fill="url(#paint2_linear_20089_75310)"/>
</g>
<defs>
<linearGradient id="paint0_linear_20089_75310" x1="-0.00622919" y1="399.998" x2="399.995" y2="-0.00487019" gradientUnits="userSpaceOnUse">
<stop stop-color="#E9DEFA"/>
<stop offset="1" stop-color="#FFF6EB"/>
</linearGradient>
<linearGradient id="paint1_linear_20089_75310" x1="98.7677" y1="200.111" x2="227.88" y2="200.111" gradientUnits="userSpaceOnUse">
<stop stop-color="#EA275E"/>
<stop offset="1" stop-color="#F7941D"/>
</linearGradient>
<linearGradient id="paint2_linear_20089_75310" x1="98.7677" y1="200.111" x2="227.88" y2="200.111" gradientUnits="userSpaceOnUse">
<stop stop-color="#EA275E"/>
<stop offset="1" stop-color="#F7941D"/>
</linearGradient>
<clipPath id="clip0_20089_75310">
<rect width="400" height="400" fill="white"/>
</clipPath>
</defs>
</svg>
