<svg width="161" height="160" viewBox="0 0 161 160" fill="none" xmlns="http://www.w3.org/2000/svg">
<rect x="0.25" width="160" height="160" fill="url(#paint0_linear_1186_572)"/>
<path d="M87.9926 125.022C86.9123 123.995 86.057 122.755 85.4807 121.38C84.9045 120.006 84.6199 118.526 84.6451 117.036C84.6301 115.562 84.9225 114.101 85.5036 112.746C86.0848 111.391 86.9419 110.173 88.0203 109.167C89.8019 107.412 92.1091 106.289 94.5893 105.969C97.0696 105.648 99.5865 106.149 101.756 107.394C103.467 108.377 104.893 109.787 105.897 111.487C106.909 113.151 107.444 115.061 107.443 117.008C107.471 118.503 107.189 119.986 106.614 121.366C106.039 122.745 105.184 123.99 104.102 125.022C101.945 127.129 99.0492 128.309 96.0337 128.309C93.0182 128.309 90.1223 127.129 87.965 125.022H87.9926ZM85.1006 40.8152L106.787 37.3046L103.336 97.1301H88.5932L85.1006 40.8152Z" fill="#EA275E"/>
<path d="M56.485 62.3581C56.9017 60.5141 57.782 58.8069 59.0425 57.398H59.0367C59.5344 56.8204 60.149 56.3551 60.84 56.0328C61.531 55.7105 62.2826 55.5387 63.0449 55.5287C63.2773 55.5178 63.5095 55.5533 63.7281 55.633C63.9466 55.7128 64.1471 55.8352 64.3179 55.9931C64.4725 56.1338 64.5954 56.3057 64.6784 56.4975C64.7615 56.6893 64.8028 56.8966 64.7996 57.1056C64.7996 59.4872 62.0281 61.238 56.485 62.3581Z" fill="url(#paint1_linear_1186_572)"/>
<path fill-rule="evenodd" clip-rule="evenodd" d="M80.6176 109.766V128.308C80.6176 128.308 70.4648 128.403 59.1329 122.238C46.322 115.243 33.6511 100.088 33.6511 78.4738L33.6311 35.9842C33.6395 35.2437 33.834 34.5173 34.1966 33.8717C34.5592 33.226 35.0783 32.6819 35.7062 32.2894C36.3341 31.8968 37.0506 31.6684 37.7898 31.6252C38.529 31.582 39.2673 31.7253 39.9366 32.042C44.7313 34.2687 49.7402 36.0014 54.8859 37.2133C63.159 39.175 71.6022 40.3329 80.0979 40.6708V82.9906C80.0979 83.7857 79.7821 84.5482 79.2199 85.1104C78.6577 85.6726 77.8952 85.9885 77.1001 85.9885H59.9473C60.9616 97.87 66.8774 105.609 80.6176 109.766ZM74.6452 73.4996L65.9235 68.8148C64.4326 71.0358 62.6053 72.1463 60.4416 72.1463C59.6231 72.1384 58.8253 71.8891 58.1479 71.4296C57.3691 70.8904 56.7793 70.1202 56.4621 69.2276L56.4965 69.1588C58.4995 68.8363 60.4843 68.4095 62.4428 67.8801C64.2688 67.3864 66.0506 66.7419 67.7699 65.9534C69.3146 65.2649 70.7718 64.3948 72.1107 63.3616C73.2818 62.4425 74.2567 61.2979 74.9778 59.9956C75.6949 58.7237 76.0684 57.287 76.0615 55.8268C76.0764 54.5499 75.8366 53.2828 75.3562 52.0996C74.933 51.0335 74.2902 50.0684 73.4697 49.2669C72.6535 48.4935 71.7281 47.8443 70.723 47.3402C69.6948 46.8204 68.604 46.4349 67.4774 46.1934C66.3466 45.9517 65.1933 45.8306 64.0369 45.8321C61.779 45.815 59.5355 46.1934 57.4082 46.9503C55.4355 47.641 53.6036 48.6822 52.0009 50.0238C50.445 51.3395 49.1009 52.8867 48.0156 54.6112C46.8945 56.3845 46.0495 58.318 45.5098 60.3454C44.9446 62.4509 44.6611 64.622 44.6668 66.8021C44.6668 71.5156 45.9551 75.1721 48.5317 77.7716C51.1082 80.3711 54.7074 81.6708 59.3292 81.6708C66.1567 81.6708 71.262 78.9471 74.6452 73.4996Z" fill="url(#paint2_linear_1186_572)"/>
<path d="M126.957 47.3476C126.409 46.128 125.738 45.0915 124.823 44.1768C123.909 43.2622 122.872 42.5305 121.652 42.0427C120.433 41.5549 119.152 41.25 117.75 41.25C116.348 41.25 115.067 41.4939 113.848 42.0427C112.628 42.5305 111.591 43.2622 110.677 44.1768C109.762 45.0915 109.03 46.128 108.543 47.3476C108.055 48.5671 107.75 49.8476 107.75 51.25C107.75 52.6524 107.994 53.9329 108.543 55.1524C109.03 56.372 109.762 57.4085 110.677 58.3232C111.591 59.2378 112.628 59.9695 113.848 60.4573C115.067 60.9451 116.348 61.25 117.75 61.25C119.152 61.25 120.433 61.0061 121.652 60.4573C122.872 59.9085 123.909 59.2378 124.823 58.3232C125.738 57.4085 126.47 56.372 126.957 55.1524C127.445 53.9329 127.75 52.6524 127.75 51.25C127.75 49.8476 127.445 48.5671 126.957 47.3476ZM124.091 54.9085C123.421 56.0061 122.567 56.9207 121.47 57.5915C120.372 58.2622 119.152 58.5671 117.75 58.5671C116.409 58.5671 115.189 58.2622 114.03 57.5915C112.933 56.9207 112.018 56.0671 111.409 54.9085C110.738 53.811 110.433 52.5915 110.433 51.189C110.433 49.8476 110.738 48.628 111.409 47.4695C112.079 46.372 112.933 45.4573 114.03 44.7866C115.189 44.1768 116.409 43.872 117.75 43.872C119.091 43.872 120.311 44.1768 121.47 44.8476C122.567 45.5183 123.482 46.372 124.152 47.5305C124.823 48.628 125.128 49.8476 125.128 51.25C125.067 52.5915 124.762 53.811 124.091 54.9085Z" fill="#EA275E"/>
<path d="M121.409 51.189C121.713 50.7012 121.835 50.1524 121.835 49.5427C121.835 48.872 121.713 48.3232 121.409 47.8964C121.104 47.4085 120.738 47.1037 120.25 46.8598C119.762 46.6159 119.213 46.4939 118.665 46.4939H114.152V55.7012H116.53V52.5915H118.055L119.457 55.7012H122.079L120.311 52.1646C120.799 51.9207 121.104 51.6159 121.409 51.189ZM118.909 50.5183C118.665 50.7622 118.36 50.8842 117.994 50.8842H116.53V48.2622H118.055C118.421 48.2622 118.665 48.3842 118.969 48.5671C119.213 48.75 119.335 49.0549 119.335 49.5427C119.335 49.9695 119.213 50.3354 118.909 50.5183Z" fill="#EA275E"/>
<defs>
<linearGradient id="paint0_linear_1186_572" x1="0.247508" y1="159.999" x2="160.248" y2="-0.00194808" gradientUnits="userSpaceOnUse">
<stop stop-color="#E9DEFA"/>
<stop offset="1" stop-color="#FFF6EB"/>
</linearGradient>
<linearGradient id="paint1_linear_1186_572" x1="33.6191" y1="79.9578" x2="80.6176" y2="79.9578" gradientUnits="userSpaceOnUse">
<stop stop-color="#EA275E"/>
<stop offset="1" stop-color="#F7941D"/>
</linearGradient>
<linearGradient id="paint2_linear_1186_572" x1="33.6191" y1="79.9578" x2="80.6176" y2="79.9578" gradientUnits="userSpaceOnUse">
<stop stop-color="#EA275E"/>
<stop offset="1" stop-color="#F7941D"/>
</linearGradient>
</defs>
</svg>
