<svg width="32" height="32" viewBox="0 0 32 32" fill="none" xmlns="http://www.w3.org/2000/svg">
<g id="Shopping bags">
<g id="Rectangle 55">
<path d="M14.7656 14.7813C14.7656 14.229 15.2133 13.7812 15.7656 13.7812H28.7969C29.3492 13.7812 29.7969 14.229 29.7969 14.7812V28.9062C29.7969 29.4585 29.3492 29.9062 28.7969 29.9062H15.7656C15.2133 29.9062 14.7656 29.4585 14.7656 28.9062V14.7813Z" fill="url(#paint0_linear_3328_23100)"/>
<path d="M14.7656 14.7813C14.7656 14.229 15.2133 13.7812 15.7656 13.7812H28.7969C29.3492 13.7812 29.7969 14.229 29.7969 14.7812V28.9062C29.7969 29.4585 29.3492 29.9062 28.7969 29.9062H15.7656C15.2133 29.9062 14.7656 29.4585 14.7656 28.9062V14.7813Z" fill="url(#paint1_radial_3328_23100)"/>
<path d="M14.7656 14.7813C14.7656 14.229 15.2133 13.7812 15.7656 13.7812H28.7969C29.3492 13.7812 29.7969 14.229 29.7969 14.7812V28.9062C29.7969 29.4585 29.3492 29.9062 28.7969 29.9062H15.7656C15.2133 29.9062 14.7656 29.4585 14.7656 28.9062V14.7813Z" fill="url(#paint2_linear_3328_23100)"/>
<path d="M14.7656 14.7813C14.7656 14.229 15.2133 13.7812 15.7656 13.7812H28.7969C29.3492 13.7812 29.7969 14.229 29.7969 14.7812V28.9062C29.7969 29.4585 29.3492 29.9062 28.7969 29.9062H15.7656C15.2133 29.9062 14.7656 29.4585 14.7656 28.9062V14.7813Z" fill="url(#paint3_linear_3328_23100)"/>
<path d="M14.7656 14.7813C14.7656 14.229 15.2133 13.7812 15.7656 13.7812H28.7969C29.3492 13.7812 29.7969 14.229 29.7969 14.7812V28.9062C29.7969 29.4585 29.3492 29.9062 28.7969 29.9062H15.7656C15.2133 29.9062 14.7656 29.4585 14.7656 28.9062V14.7813Z" fill="url(#paint4_linear_3328_23100)"/>
</g>
<g id="Rectangle 54 (Stroke)">
<path fill-rule="evenodd" clip-rule="evenodd" d="M27.3594 18.2812C27.3594 21.288 25.0497 23.7812 22.1875 23.7812C19.3253 23.7812 17.0156 21.288 17.0156 18.2812L17.0156 16.1406C17.0156 15.8645 17.2395 15.6406 17.5156 15.6406C17.7918 15.6406 18.0156 15.8645 18.0156 16.1406L18.0156 18.2812C18.0156 20.7973 19.9372 22.7812 22.1875 22.7812C24.4378 22.7812 26.3594 20.7973 26.3594 18.2812L26.3594 16.1406C26.3594 15.8645 26.5832 15.6406 26.8594 15.6406C27.1355 15.6406 27.3594 15.8645 27.3594 16.1406L27.3594 18.2812Z" fill="#E45A3B"/>
<path fill-rule="evenodd" clip-rule="evenodd" d="M27.3594 18.2812C27.3594 21.288 25.0497 23.7812 22.1875 23.7812C19.3253 23.7812 17.0156 21.288 17.0156 18.2812L17.0156 16.1406C17.0156 15.8645 17.2395 15.6406 17.5156 15.6406C17.7918 15.6406 18.0156 15.8645 18.0156 16.1406L18.0156 18.2812C18.0156 20.7973 19.9372 22.7812 22.1875 22.7812C24.4378 22.7812 26.3594 20.7973 26.3594 18.2812L26.3594 16.1406C26.3594 15.8645 26.5832 15.6406 26.8594 15.6406C27.1355 15.6406 27.3594 15.8645 27.3594 16.1406L27.3594 18.2812Z" fill="url(#paint5_radial_3328_23100)" fill-opacity="0.5"/>
<path fill-rule="evenodd" clip-rule="evenodd" d="M27.3594 18.2812C27.3594 21.288 25.0497 23.7812 22.1875 23.7812C19.3253 23.7812 17.0156 21.288 17.0156 18.2812L17.0156 16.1406C17.0156 15.8645 17.2395 15.6406 17.5156 15.6406C17.7918 15.6406 18.0156 15.8645 18.0156 16.1406L18.0156 18.2812C18.0156 20.7973 19.9372 22.7812 22.1875 22.7812C24.4378 22.7812 26.3594 20.7973 26.3594 18.2812L26.3594 16.1406C26.3594 15.8645 26.5832 15.6406 26.8594 15.6406C27.1355 15.6406 27.3594 15.8645 27.3594 16.1406L27.3594 18.2812Z" fill="url(#paint6_radial_3328_23100)"/>
<path fill-rule="evenodd" clip-rule="evenodd" d="M27.3594 18.2812C27.3594 21.288 25.0497 23.7812 22.1875 23.7812C19.3253 23.7812 17.0156 21.288 17.0156 18.2812L17.0156 16.1406C17.0156 15.8645 17.2395 15.6406 17.5156 15.6406C17.7918 15.6406 18.0156 15.8645 18.0156 16.1406L18.0156 18.2812C18.0156 20.7973 19.9372 22.7812 22.1875 22.7812C24.4378 22.7812 26.3594 20.7973 26.3594 18.2812L26.3594 16.1406C26.3594 15.8645 26.5832 15.6406 26.8594 15.6406C27.1355 15.6406 27.3594 15.8645 27.3594 16.1406L27.3594 18.2812Z" fill="url(#paint7_linear_3328_23100)" fill-opacity="0.3"/>
<path fill-rule="evenodd" clip-rule="evenodd" d="M27.3594 18.2812C27.3594 21.288 25.0497 23.7812 22.1875 23.7812C19.3253 23.7812 17.0156 21.288 17.0156 18.2812L17.0156 16.1406C17.0156 15.8645 17.2395 15.6406 17.5156 15.6406C17.7918 15.6406 18.0156 15.8645 18.0156 16.1406L18.0156 18.2812C18.0156 20.7973 19.9372 22.7812 22.1875 22.7812C24.4378 22.7812 26.3594 20.7973 26.3594 18.2812L26.3594 16.1406C26.3594 15.8645 26.5832 15.6406 26.8594 15.6406C27.1355 15.6406 27.3594 15.8645 27.3594 16.1406L27.3594 18.2812Z" fill="url(#paint8_radial_3328_23100)"/>
<path fill-rule="evenodd" clip-rule="evenodd" d="M27.3594 18.2812C27.3594 21.288 25.0497 23.7812 22.1875 23.7812C19.3253 23.7812 17.0156 21.288 17.0156 18.2812L17.0156 16.1406C17.0156 15.8645 17.2395 15.6406 17.5156 15.6406C17.7918 15.6406 18.0156 15.8645 18.0156 16.1406L18.0156 18.2812C18.0156 20.7973 19.9372 22.7812 22.1875 22.7812C24.4378 22.7812 26.3594 20.7973 26.3594 18.2812L26.3594 16.1406C26.3594 15.8645 26.5832 15.6406 26.8594 15.6406C27.1355 15.6406 27.3594 15.8645 27.3594 16.1406L27.3594 18.2812Z" fill="url(#paint9_radial_3328_23100)"/>
<path fill-rule="evenodd" clip-rule="evenodd" d="M27.3594 18.2812C27.3594 21.288 25.0497 23.7812 22.1875 23.7812C19.3253 23.7812 17.0156 21.288 17.0156 18.2812L17.0156 16.1406C17.0156 15.8645 17.2395 15.6406 17.5156 15.6406C17.7918 15.6406 18.0156 15.8645 18.0156 16.1406L18.0156 18.2812C18.0156 20.7973 19.9372 22.7812 22.1875 22.7812C24.4378 22.7812 26.3594 20.7973 26.3594 18.2812L26.3594 16.1406C26.3594 15.8645 26.5832 15.6406 26.8594 15.6406C27.1355 15.6406 27.3594 15.8645 27.3594 16.1406L27.3594 18.2812Z" fill="url(#paint10_radial_3328_23100)"/>
</g>
<g id="Subtract">
<path d="M3.01562 7.6875C2.46334 7.6875 2.01562 8.13522 2.01562 8.6875V13.9688L10.9531 14.8524L19.8906 13.9688V8.6875C19.8906 8.13522 19.4429 7.6875 18.8906 7.6875H3.01562Z" fill="url(#paint11_linear_3328_23100)"/>
<path d="M3.01562 7.6875C2.46334 7.6875 2.01562 8.13522 2.01562 8.6875V13.9688L10.9531 14.8524L19.8906 13.9688V8.6875C19.8906 8.13522 19.4429 7.6875 18.8906 7.6875H3.01562Z" fill="url(#paint12_linear_3328_23100)"/>
<path d="M3.01562 7.6875C2.46334 7.6875 2.01562 8.13522 2.01562 8.6875V13.9688L10.9531 14.8524L19.8906 13.9688V8.6875C19.8906 8.13522 19.4429 7.6875 18.8906 7.6875H3.01562Z" fill="url(#paint13_linear_3328_23100)"/>
<path d="M3.01562 7.6875C2.46334 7.6875 2.01562 8.13522 2.01562 8.6875V13.9688L10.9531 14.8524L19.8906 13.9688V8.6875C19.8906 8.13522 19.4429 7.6875 18.8906 7.6875H3.01562Z" fill="url(#paint14_linear_3328_23100)"/>
<path d="M3.01562 7.6875C2.46334 7.6875 2.01562 8.13522 2.01562 8.6875V13.9688L10.9531 14.8524L19.8906 13.9688V8.6875C19.8906 8.13522 19.4429 7.6875 18.8906 7.6875H3.01562Z" fill="url(#paint15_linear_3328_23100)"/>
<path d="M3.01562 7.6875C2.46334 7.6875 2.01562 8.13522 2.01562 8.6875V13.9688L10.9531 14.8524L19.8906 13.9688V8.6875C19.8906 8.13522 19.4429 7.6875 18.8906 7.6875H3.01562Z" fill="url(#paint16_radial_3328_23100)" fill-opacity="0.4"/>
<path d="M19.8906 16.1875L10.9531 15.5772L2.01562 16.1875V18.625L10.9531 19.4774L19.8906 18.625V16.1875Z" fill="url(#paint17_linear_3328_23100)"/>
<path d="M19.8906 16.1875L10.9531 15.5772L2.01562 16.1875V18.625L10.9531 19.4774L19.8906 18.625V16.1875Z" fill="url(#paint18_linear_3328_23100)"/>
<path d="M19.8906 16.1875L10.9531 15.5772L2.01562 16.1875V18.625L10.9531 19.4774L19.8906 18.625V16.1875Z" fill="url(#paint19_linear_3328_23100)"/>
<path d="M19.8906 16.1875L10.9531 15.5772L2.01562 16.1875V18.625L10.9531 19.4774L19.8906 18.625V16.1875Z" fill="url(#paint20_linear_3328_23100)"/>
<path d="M19.8906 16.1875L10.9531 15.5772L2.01562 16.1875V18.625L10.9531 19.4774L19.8906 18.625V16.1875Z" fill="url(#paint21_linear_3328_23100)"/>
<path d="M19.8906 16.1875L10.9531 15.5772L2.01562 16.1875V18.625L10.9531 19.4774L19.8906 18.625V16.1875Z" fill="url(#paint22_radial_3328_23100)" fill-opacity="0.4"/>
<path d="M2.01562 23.2812V20.8438L10.9531 20.3057L19.8906 20.8438V23.2812L10.9531 23.9298L2.01562 23.2812Z" fill="url(#paint23_linear_3328_23100)"/>
<path d="M2.01562 23.2812V20.8438L10.9531 20.3057L19.8906 20.8438V23.2812L10.9531 23.9298L2.01562 23.2812Z" fill="url(#paint24_linear_3328_23100)"/>
<path d="M2.01562 23.2812V20.8438L10.9531 20.3057L19.8906 20.8438V23.2812L10.9531 23.9298L2.01562 23.2812Z" fill="url(#paint25_linear_3328_23100)"/>
<path d="M2.01562 23.2812V20.8438L10.9531 20.3057L19.8906 20.8438V23.2812L10.9531 23.9298L2.01562 23.2812Z" fill="url(#paint26_linear_3328_23100)"/>
<path d="M2.01562 23.2812V20.8438L10.9531 20.3057L19.8906 20.8438V23.2812L10.9531 23.9298L2.01562 23.2812Z" fill="url(#paint27_linear_3328_23100)"/>
<path d="M2.01562 23.2812V20.8438L10.9531 20.3057L19.8906 20.8438V23.2812L10.9531 23.9298L2.01562 23.2812Z" fill="url(#paint28_radial_3328_23100)" fill-opacity="0.4"/>
<path d="M2.01562 25.5V26.7812C2.01562 27.3335 2.46334 27.7812 3.01563 27.7812H18.8906C19.4429 27.7812 19.8906 27.3335 19.8906 26.7812V25.5L10.9531 24.7927L2.01562 25.5Z" fill="url(#paint29_linear_3328_23100)"/>
<path d="M2.01562 25.5V26.7812C2.01562 27.3335 2.46334 27.7812 3.01563 27.7812H18.8906C19.4429 27.7812 19.8906 27.3335 19.8906 26.7812V25.5L10.9531 24.7927L2.01562 25.5Z" fill="url(#paint30_linear_3328_23100)"/>
<path d="M2.01562 25.5V26.7812C2.01562 27.3335 2.46334 27.7812 3.01563 27.7812H18.8906C19.4429 27.7812 19.8906 27.3335 19.8906 26.7812V25.5L10.9531 24.7927L2.01562 25.5Z" fill="url(#paint31_linear_3328_23100)"/>
<path d="M2.01562 25.5V26.7812C2.01562 27.3335 2.46334 27.7812 3.01563 27.7812H18.8906C19.4429 27.7812 19.8906 27.3335 19.8906 26.7812V25.5L10.9531 24.7927L2.01562 25.5Z" fill="url(#paint32_linear_3328_23100)"/>
<path d="M2.01562 25.5V26.7812C2.01562 27.3335 2.46334 27.7812 3.01563 27.7812H18.8906C19.4429 27.7812 19.8906 27.3335 19.8906 26.7812V25.5L10.9531 24.7927L2.01562 25.5Z" fill="url(#paint33_linear_3328_23100)"/>
<path d="M2.01562 25.5V26.7812C2.01562 27.3335 2.46334 27.7812 3.01563 27.7812H18.8906C19.4429 27.7812 19.8906 27.3335 19.8906 26.7812V25.5L10.9531 24.7927L2.01562 25.5Z" fill="url(#paint34_radial_3328_23100)" fill-opacity="0.4"/>
</g>
<g id="Intersect">
<path d="M2.01562 16.1875V13.9688H19.8906V16.1875H2.01562Z" fill="#3A92EA"/>
<path d="M2.01562 16.1875V13.9688H19.8906V16.1875H2.01562Z" fill="url(#paint35_linear_3328_23100)"/>
<path d="M2.01562 16.1875V13.9688H19.8906V16.1875H2.01562Z" fill="url(#paint36_linear_3328_23100)"/>
<path d="M2.01562 16.1875V13.9688H19.8906V16.1875H2.01562Z" fill="url(#paint37_linear_3328_23100)"/>
</g>
<g id="Intersect_2">
<path d="M2.01562 20.8438V18.625H19.8906V20.8438H2.01562Z" fill="#3A91ED"/>
<path d="M2.01562 20.8438V18.625H19.8906V20.8438H2.01562Z" fill="url(#paint38_linear_3328_23100)"/>
<path d="M2.01562 20.8438V18.625H19.8906V20.8438H2.01562Z" fill="url(#paint39_linear_3328_23100)"/>
<path d="M2.01562 20.8438V18.625H19.8906V20.8438H2.01562Z" fill="url(#paint40_linear_3328_23100)"/>
</g>
<g id="Intersect_3">
<path d="M2.01562 25.5V23.2812H19.8906V25.5H2.01562Z" fill="#3A8FF0"/>
<path d="M2.01562 25.5V23.2812H19.8906V25.5H2.01562Z" fill="url(#paint41_linear_3328_23100)"/>
<path d="M2.01562 25.5V23.2812H19.8906V25.5H2.01562Z" fill="url(#paint42_linear_3328_23100)"/>
<path d="M2.01562 25.5V23.2812H19.8906V25.5H2.01562Z" fill="url(#paint43_linear_3328_23100)"/>
</g>
<g id="Rectangle 56 (Stroke)">
<path fill-rule="evenodd" clip-rule="evenodd" d="M5.40625 7.28125C5.40625 4.23764 7.92164 1.78125 10.9531 1.78125C13.9846 1.78125 16.5 4.23764 16.5 7.28125V10.8438C16.5 11.1199 16.2761 11.3438 16 11.3438C15.7239 11.3438 15.5 11.1199 15.5 10.8438V7.28125C15.5 4.80202 13.4445 2.78125 10.9531 2.78125C8.46176 2.78125 6.40625 4.80202 6.40625 7.28125V10.8438C6.40625 11.1199 6.18239 11.3438 5.90625 11.3438C5.63011 11.3438 5.40625 11.1199 5.40625 10.8438V7.28125Z" fill="url(#paint44_radial_3328_23100)"/>
<path fill-rule="evenodd" clip-rule="evenodd" d="M5.40625 7.28125C5.40625 4.23764 7.92164 1.78125 10.9531 1.78125C13.9846 1.78125 16.5 4.23764 16.5 7.28125V10.8438C16.5 11.1199 16.2761 11.3438 16 11.3438C15.7239 11.3438 15.5 11.1199 15.5 10.8438V7.28125C15.5 4.80202 13.4445 2.78125 10.9531 2.78125C8.46176 2.78125 6.40625 4.80202 6.40625 7.28125V10.8438C6.40625 11.1199 6.18239 11.3438 5.90625 11.3438C5.63011 11.3438 5.40625 11.1199 5.40625 10.8438V7.28125Z" fill="url(#paint45_radial_3328_23100)" fill-opacity="0.9"/>
<path fill-rule="evenodd" clip-rule="evenodd" d="M5.40625 7.28125C5.40625 4.23764 7.92164 1.78125 10.9531 1.78125C13.9846 1.78125 16.5 4.23764 16.5 7.28125V10.8438C16.5 11.1199 16.2761 11.3438 16 11.3438C15.7239 11.3438 15.5 11.1199 15.5 10.8438V7.28125C15.5 4.80202 13.4445 2.78125 10.9531 2.78125C8.46176 2.78125 6.40625 4.80202 6.40625 7.28125V10.8438C6.40625 11.1199 6.18239 11.3438 5.90625 11.3438C5.63011 11.3438 5.40625 11.1199 5.40625 10.8438V7.28125Z" fill="url(#paint46_linear_3328_23100)" fill-opacity="0.9"/>
<path fill-rule="evenodd" clip-rule="evenodd" d="M5.40625 7.28125C5.40625 4.23764 7.92164 1.78125 10.9531 1.78125C13.9846 1.78125 16.5 4.23764 16.5 7.28125V10.8438C16.5 11.1199 16.2761 11.3438 16 11.3438C15.7239 11.3438 15.5 11.1199 15.5 10.8438V7.28125C15.5 4.80202 13.4445 2.78125 10.9531 2.78125C8.46176 2.78125 6.40625 4.80202 6.40625 7.28125V10.8438C6.40625 11.1199 6.18239 11.3438 5.90625 11.3438C5.63011 11.3438 5.40625 11.1199 5.40625 10.8438V7.28125Z" fill="url(#paint47_radial_3328_23100)" fill-opacity="0.9"/>
<path fill-rule="evenodd" clip-rule="evenodd" d="M5.40625 7.28125C5.40625 4.23764 7.92164 1.78125 10.9531 1.78125C13.9846 1.78125 16.5 4.23764 16.5 7.28125V10.8438C16.5 11.1199 16.2761 11.3438 16 11.3438C15.7239 11.3438 15.5 11.1199 15.5 10.8438V7.28125C15.5 4.80202 13.4445 2.78125 10.9531 2.78125C8.46176 2.78125 6.40625 4.80202 6.40625 7.28125V10.8438C6.40625 11.1199 6.18239 11.3438 5.90625 11.3438C5.63011 11.3438 5.40625 11.1199 5.40625 10.8438V7.28125Z" fill="url(#paint48_radial_3328_23100)" fill-opacity="0.9"/>
<path fill-rule="evenodd" clip-rule="evenodd" d="M5.40625 7.28125C5.40625 4.23764 7.92164 1.78125 10.9531 1.78125C13.9846 1.78125 16.5 4.23764 16.5 7.28125V10.8438C16.5 11.1199 16.2761 11.3438 16 11.3438C15.7239 11.3438 15.5 11.1199 15.5 10.8438V7.28125C15.5 4.80202 13.4445 2.78125 10.9531 2.78125C8.46176 2.78125 6.40625 4.80202 6.40625 7.28125V10.8438C6.40625 11.1199 6.18239 11.3438 5.90625 11.3438C5.63011 11.3438 5.40625 11.1199 5.40625 10.8438V7.28125Z" fill="url(#paint49_radial_3328_23100)" fill-opacity="0.9"/>
<path fill-rule="evenodd" clip-rule="evenodd" d="M5.40625 7.28125C5.40625 4.23764 7.92164 1.78125 10.9531 1.78125C13.9846 1.78125 16.5 4.23764 16.5 7.28125V10.8438C16.5 11.1199 16.2761 11.3438 16 11.3438C15.7239 11.3438 15.5 11.1199 15.5 10.8438V7.28125C15.5 4.80202 13.4445 2.78125 10.9531 2.78125C8.46176 2.78125 6.40625 4.80202 6.40625 7.28125V10.8438C6.40625 11.1199 6.18239 11.3438 5.90625 11.3438C5.63011 11.3438 5.40625 11.1199 5.40625 10.8438V7.28125Z" fill="url(#paint50_linear_3328_23100)"/>
</g>
</g>
<defs>
<linearGradient id="paint0_linear_3328_23100" x1="18.5469" y1="17.0625" x2="23.6094" y2="25.8125" gradientUnits="userSpaceOnUse">
<stop stop-color="#FEC243"/>
<stop offset="1" stop-color="#FDB046"/>
</linearGradient>
<radialGradient id="paint1_radial_3328_23100" cx="0" cy="0" r="1" gradientUnits="userSpaceOnUse" gradientTransform="translate(15.6661 27.1429) rotate(52.0795) scale(3.50299 4.76486)">
<stop offset="0.224669" stop-color="#D38D3C"/>
<stop offset="1" stop-color="#D38D3C" stop-opacity="0"/>
</radialGradient>
<linearGradient id="paint2_linear_3328_23100" x1="30.2825" y1="23.3511" x2="25.0785" y2="23.3993" gradientUnits="userSpaceOnUse">
<stop offset="0.0438865" stop-color="#FAB254" stop-opacity="0.48"/>
<stop offset="0.14895" stop-color="#E8B585" stop-opacity="0.19"/>
<stop offset="0.247068" stop-color="#FFF2D2" stop-opacity="0.16"/>
<stop offset="0.317564" stop-color="#FFF0CD" stop-opacity="0.16"/>
<stop offset="0.457158" stop-color="#FEC159" stop-opacity="0"/>
<stop offset="1" stop-color="#E8B585" stop-opacity="0"/>
</linearGradient>
<linearGradient id="paint3_linear_3328_23100" x1="20.7678" y1="27.2729" x2="20.7932" y2="30.4149" gradientUnits="userSpaceOnUse">
<stop offset="0.128631" stop-color="#FDB047" stop-opacity="0"/>
<stop offset="0.832901" stop-color="#E6914B"/>
</linearGradient>
<linearGradient id="paint4_linear_3328_23100" x1="20.7678" y1="14.9859" x2="20.7678" y2="12.97" gradientUnits="userSpaceOnUse">
<stop offset="0.128631" stop-color="#FFBC46" stop-opacity="0"/>
<stop offset="0.627191" stop-color="#FCAF47"/>
</linearGradient>
<radialGradient id="paint5_radial_3328_23100" cx="0" cy="0" r="1" gradientUnits="userSpaceOnUse" gradientTransform="translate(21.7689 17.2256) rotate(-106.678) scale(7.12362 5.98033)">
<stop offset="0.157322" stop-color="#FF0000" stop-opacity="0"/>
<stop offset="0.772337" stop-color="#FF0000" stop-opacity="0"/>
<stop offset="0.849899" stop-color="white" stop-opacity="0.3"/>
<stop offset="1" stop-color="#FF0000" stop-opacity="0"/>
</radialGradient>
<radialGradient id="paint6_radial_3328_23100" cx="0" cy="0" r="1" gradientUnits="userSpaceOnUse" gradientTransform="translate(25.8562 20.8912) rotate(-130.662) scale(3.93432 3.86586)">
<stop offset="0.0651489" stop-color="#E0562D"/>
<stop offset="1" stop-color="#E55B3C" stop-opacity="0"/>
</radialGradient>
<linearGradient id="paint7_linear_3328_23100" x1="25.8395" y1="16.7444" x2="28.2625" y2="16.7559" gradientUnits="userSpaceOnUse">
<stop offset="0.155866" stop-color="#E1572E" stop-opacity="0"/>
<stop offset="0.26033" stop-color="#E1572E" stop-opacity="0.87"/>
<stop offset="0.323532" stop-color="#E1572E"/>
<stop offset="0.386557" stop-color="#E1572E" stop-opacity="0.39"/>
<stop offset="0.456025" stop-color="white" stop-opacity="0.29"/>
<stop offset="0.479854" stop-color="white" stop-opacity="0.32"/>
<stop offset="0.536502" stop-color="#E1572E" stop-opacity="0.5"/>
<stop offset="0.65313" stop-color="#E1572E" stop-opacity="0"/>
</linearGradient>
<radialGradient id="paint8_radial_3328_23100" cx="0" cy="0" r="1" gradientUnits="userSpaceOnUse" gradientTransform="translate(26.7456 15.6406) rotate(91.2846) scale(0.715923 2.3862)">
<stop offset="0.427382" stop-color="#E0562D"/>
<stop offset="1" stop-color="#E35A35" stop-opacity="0"/>
</radialGradient>
<radialGradient id="paint9_radial_3328_23100" cx="0" cy="0" r="1" gradientUnits="userSpaceOnUse" gradientTransform="translate(26.5706 16.3172) rotate(-176.255) scale(0.798671 2.66201)">
<stop offset="0.159726" stop-color="#E0562D"/>
<stop offset="0.434508" stop-color="#E35A35" stop-opacity="0"/>
</radialGradient>
<radialGradient id="paint10_radial_3328_23100" cx="0" cy="0" r="1" gradientUnits="userSpaceOnUse" gradientTransform="translate(27.141 20.0028) rotate(110.342) scale(1.64114 0.987876)">
<stop stop-color="#E0562D"/>
<stop offset="0.931389" stop-color="#E55B3C" stop-opacity="0"/>
</radialGradient>
<linearGradient id="paint11_linear_3328_23100" x1="10.9531" y1="7.6875" x2="10.9531" y2="27.7812" gradientUnits="userSpaceOnUse">
<stop stop-color="#59C1FA"/>
<stop offset="1" stop-color="#49A8FF"/>
</linearGradient>
<linearGradient id="paint12_linear_3328_23100" x1="2.01563" y1="25.4688" x2="3.76562" y2="25.4688" gradientUnits="userSpaceOnUse">
<stop stop-color="#358ACA"/>
<stop offset="1" stop-color="#449FEE" stop-opacity="0"/>
</linearGradient>
<linearGradient id="paint13_linear_3328_23100" x1="20.4682" y1="19.6128" x2="14.2795" y2="19.6675" gradientUnits="userSpaceOnUse">
<stop offset="0.000347238" stop-color="#52B6FD" stop-opacity="0.9"/>
<stop offset="0.0920241" stop-color="#52B6FD" stop-opacity="0"/>
<stop offset="0.161088" stop-color="#E9F6FF" stop-opacity="0.16"/>
<stop offset="0.223814" stop-color="#E9F6FF" stop-opacity="0.22"/>
<stop offset="0.277332" stop-color="#E9F6FF" stop-opacity="0.24"/>
<stop offset="0.363502" stop-color="#52B6FD" stop-opacity="0.17"/>
<stop offset="1" stop-color="#52B6FD" stop-opacity="0"/>
</linearGradient>
<linearGradient id="paint14_linear_3328_23100" x1="10.6094" y1="28.25" x2="10.6094" y2="23.875" gradientUnits="userSpaceOnUse">
<stop stop-color="#4676F8"/>
<stop offset="1" stop-color="#439AFF" stop-opacity="0"/>
</linearGradient>
<linearGradient id="paint15_linear_3328_23100" x1="10.9531" y1="7.6875" x2="10.9531" y2="9.84375" gradientUnits="userSpaceOnUse">
<stop offset="0.15942" stop-color="#61C9E8"/>
<stop offset="1" stop-color="#61C9E8" stop-opacity="0"/>
</linearGradient>
<radialGradient id="paint16_radial_3328_23100" cx="0" cy="0" r="1" gradientUnits="userSpaceOnUse" gradientTransform="translate(18.9093 9.47066) rotate(89.5226) scale(1.10493 0.686426)">
<stop stop-color="white" stop-opacity="0.37"/>
<stop offset="1" stop-color="white" stop-opacity="0"/>
</radialGradient>
<linearGradient id="paint17_linear_3328_23100" x1="10.9531" y1="7.6875" x2="10.9531" y2="27.7812" gradientUnits="userSpaceOnUse">
<stop stop-color="#59C1FA"/>
<stop offset="1" stop-color="#49A8FF"/>
</linearGradient>
<linearGradient id="paint18_linear_3328_23100" x1="2.01563" y1="25.4688" x2="3.76562" y2="25.4688" gradientUnits="userSpaceOnUse">
<stop stop-color="#358ACA"/>
<stop offset="1" stop-color="#449FEE" stop-opacity="0"/>
</linearGradient>
<linearGradient id="paint19_linear_3328_23100" x1="20.4682" y1="19.6128" x2="14.2795" y2="19.6675" gradientUnits="userSpaceOnUse">
<stop offset="0.000347238" stop-color="#52B6FD" stop-opacity="0.9"/>
<stop offset="0.0920241" stop-color="#52B6FD" stop-opacity="0"/>
<stop offset="0.161088" stop-color="#E9F6FF" stop-opacity="0.16"/>
<stop offset="0.223814" stop-color="#E9F6FF" stop-opacity="0.22"/>
<stop offset="0.277332" stop-color="#E9F6FF" stop-opacity="0.24"/>
<stop offset="0.363502" stop-color="#52B6FD" stop-opacity="0.17"/>
<stop offset="1" stop-color="#52B6FD" stop-opacity="0"/>
</linearGradient>
<linearGradient id="paint20_linear_3328_23100" x1="10.6094" y1="28.25" x2="10.6094" y2="23.875" gradientUnits="userSpaceOnUse">
<stop stop-color="#4676F8"/>
<stop offset="1" stop-color="#439AFF" stop-opacity="0"/>
</linearGradient>
<linearGradient id="paint21_linear_3328_23100" x1="10.9531" y1="7.6875" x2="10.9531" y2="9.84375" gradientUnits="userSpaceOnUse">
<stop offset="0.15942" stop-color="#61C9E8"/>
<stop offset="1" stop-color="#61C9E8" stop-opacity="0"/>
</linearGradient>
<radialGradient id="paint22_radial_3328_23100" cx="0" cy="0" r="1" gradientUnits="userSpaceOnUse" gradientTransform="translate(18.9093 9.47066) rotate(89.5226) scale(1.10493 0.686426)">
<stop stop-color="white" stop-opacity="0.37"/>
<stop offset="1" stop-color="white" stop-opacity="0"/>
</radialGradient>
<linearGradient id="paint23_linear_3328_23100" x1="10.9531" y1="7.6875" x2="10.9531" y2="27.7812" gradientUnits="userSpaceOnUse">
<stop stop-color="#59C1FA"/>
<stop offset="1" stop-color="#49A8FF"/>
</linearGradient>
<linearGradient id="paint24_linear_3328_23100" x1="2.01563" y1="25.4688" x2="3.76562" y2="25.4688" gradientUnits="userSpaceOnUse">
<stop stop-color="#358ACA"/>
<stop offset="1" stop-color="#449FEE" stop-opacity="0"/>
</linearGradient>
<linearGradient id="paint25_linear_3328_23100" x1="20.4682" y1="19.6128" x2="14.2795" y2="19.6675" gradientUnits="userSpaceOnUse">
<stop offset="0.000347238" stop-color="#52B6FD" stop-opacity="0.9"/>
<stop offset="0.0920241" stop-color="#52B6FD" stop-opacity="0"/>
<stop offset="0.161088" stop-color="#E9F6FF" stop-opacity="0.16"/>
<stop offset="0.223814" stop-color="#E9F6FF" stop-opacity="0.22"/>
<stop offset="0.277332" stop-color="#E9F6FF" stop-opacity="0.24"/>
<stop offset="0.363502" stop-color="#52B6FD" stop-opacity="0.17"/>
<stop offset="1" stop-color="#52B6FD" stop-opacity="0"/>
</linearGradient>
<linearGradient id="paint26_linear_3328_23100" x1="10.6094" y1="28.25" x2="10.6094" y2="23.875" gradientUnits="userSpaceOnUse">
<stop stop-color="#4676F8"/>
<stop offset="1" stop-color="#439AFF" stop-opacity="0"/>
</linearGradient>
<linearGradient id="paint27_linear_3328_23100" x1="10.9531" y1="7.6875" x2="10.9531" y2="9.84375" gradientUnits="userSpaceOnUse">
<stop offset="0.15942" stop-color="#61C9E8"/>
<stop offset="1" stop-color="#61C9E8" stop-opacity="0"/>
</linearGradient>
<radialGradient id="paint28_radial_3328_23100" cx="0" cy="0" r="1" gradientUnits="userSpaceOnUse" gradientTransform="translate(18.9093 9.47066) rotate(89.5226) scale(1.10493 0.686426)">
<stop stop-color="white" stop-opacity="0.37"/>
<stop offset="1" stop-color="white" stop-opacity="0"/>
</radialGradient>
<linearGradient id="paint29_linear_3328_23100" x1="10.9531" y1="7.6875" x2="10.9531" y2="27.7812" gradientUnits="userSpaceOnUse">
<stop stop-color="#59C1FA"/>
<stop offset="1" stop-color="#49A8FF"/>
</linearGradient>
<linearGradient id="paint30_linear_3328_23100" x1="2.01563" y1="25.4688" x2="3.76562" y2="25.4688" gradientUnits="userSpaceOnUse">
<stop stop-color="#358ACA"/>
<stop offset="1" stop-color="#449FEE" stop-opacity="0"/>
</linearGradient>
<linearGradient id="paint31_linear_3328_23100" x1="20.4682" y1="19.6128" x2="14.2795" y2="19.6675" gradientUnits="userSpaceOnUse">
<stop offset="0.000347238" stop-color="#52B6FD" stop-opacity="0.9"/>
<stop offset="0.0920241" stop-color="#52B6FD" stop-opacity="0"/>
<stop offset="0.161088" stop-color="#E9F6FF" stop-opacity="0.16"/>
<stop offset="0.223814" stop-color="#E9F6FF" stop-opacity="0.22"/>
<stop offset="0.277332" stop-color="#E9F6FF" stop-opacity="0.24"/>
<stop offset="0.363502" stop-color="#52B6FD" stop-opacity="0.17"/>
<stop offset="1" stop-color="#52B6FD" stop-opacity="0"/>
</linearGradient>
<linearGradient id="paint32_linear_3328_23100" x1="10.6094" y1="28.25" x2="10.6094" y2="23.875" gradientUnits="userSpaceOnUse">
<stop stop-color="#4676F8"/>
<stop offset="1" stop-color="#439AFF" stop-opacity="0"/>
</linearGradient>
<linearGradient id="paint33_linear_3328_23100" x1="10.9531" y1="7.6875" x2="10.9531" y2="9.84375" gradientUnits="userSpaceOnUse">
<stop offset="0.15942" stop-color="#61C9E8"/>
<stop offset="1" stop-color="#61C9E8" stop-opacity="0"/>
</linearGradient>
<radialGradient id="paint34_radial_3328_23100" cx="0" cy="0" r="1" gradientUnits="userSpaceOnUse" gradientTransform="translate(18.9093 9.47066) rotate(89.5226) scale(1.10493 0.686426)">
<stop stop-color="white" stop-opacity="0.37"/>
<stop offset="1" stop-color="white" stop-opacity="0"/>
</radialGradient>
<linearGradient id="paint35_linear_3328_23100" x1="2.01562" y1="15.5" x2="3.85938" y2="15.5" gradientUnits="userSpaceOnUse">
<stop offset="0.196078" stop-color="#2A81CD"/>
<stop offset="1" stop-color="#2A81CD" stop-opacity="0"/>
</linearGradient>
<linearGradient id="paint36_linear_3328_23100" x1="19.8906" y1="15.5" x2="18.1406" y2="15.5" gradientUnits="userSpaceOnUse">
<stop stop-color="#51A9F3"/>
<stop offset="1" stop-color="#51A9F3" stop-opacity="0"/>
</linearGradient>
<linearGradient id="paint37_linear_3328_23100" x1="19.8906" y1="16.1875" x2="19.0781" y2="16.1875" gradientUnits="userSpaceOnUse">
<stop stop-color="#3C97EE"/>
<stop offset="1" stop-color="#3C97EE" stop-opacity="0"/>
</linearGradient>
<linearGradient id="paint38_linear_3328_23100" x1="2.01562" y1="20.1563" x2="3.85938" y2="20.1563" gradientUnits="userSpaceOnUse">
<stop offset="0.196078" stop-color="#2A81CD"/>
<stop offset="1" stop-color="#2A81CD" stop-opacity="0"/>
</linearGradient>
<linearGradient id="paint39_linear_3328_23100" x1="19.8906" y1="20.1563" x2="18.1406" y2="20.1563" gradientUnits="userSpaceOnUse">
<stop stop-color="#51A9F3"/>
<stop offset="1" stop-color="#51A9F3" stop-opacity="0"/>
</linearGradient>
<linearGradient id="paint40_linear_3328_23100" x1="19.8906" y1="20.8438" x2="19.0781" y2="20.8438" gradientUnits="userSpaceOnUse">
<stop stop-color="#3C97EE"/>
<stop offset="1" stop-color="#3C97EE" stop-opacity="0"/>
</linearGradient>
<linearGradient id="paint41_linear_3328_23100" x1="2.01562" y1="24.8125" x2="3.85938" y2="24.8125" gradientUnits="userSpaceOnUse">
<stop offset="0.196078" stop-color="#2A81CD"/>
<stop offset="1" stop-color="#2A81CD" stop-opacity="0"/>
</linearGradient>
<linearGradient id="paint42_linear_3328_23100" x1="19.8906" y1="24.8125" x2="18.1406" y2="24.8125" gradientUnits="userSpaceOnUse">
<stop stop-color="#51A9F3"/>
<stop offset="1" stop-color="#51A9F3" stop-opacity="0"/>
</linearGradient>
<linearGradient id="paint43_linear_3328_23100" x1="19.8906" y1="25.5" x2="19.0781" y2="25.5" gradientUnits="userSpaceOnUse">
<stop stop-color="#3C97EE"/>
<stop offset="1" stop-color="#3C97EE" stop-opacity="0"/>
</linearGradient>
<radialGradient id="paint44_radial_3328_23100" cx="0" cy="0" r="1" gradientUnits="userSpaceOnUse" gradientTransform="translate(8.48437 2.78125) rotate(72.9753) scale(8.432 9.93991)">
<stop stop-color="#2C94E3"/>
<stop offset="1" stop-color="#2C9CEB"/>
</radialGradient>
<radialGradient id="paint45_radial_3328_23100" cx="0" cy="0" r="1" gradientUnits="userSpaceOnUse" gradientTransform="translate(10.9531 9.10914) rotate(90) scale(14.0075 11.1829)">
<stop offset="0.416331" stop-color="#2C98E8" stop-opacity="0"/>
<stop offset="0.484064" stop-color="#4FA9EE"/>
<stop offset="0.499615" stop-color="#4FA9EE"/>
<stop offset="0.546152" stop-color="#2C98E8" stop-opacity="0"/>
</radialGradient>
<linearGradient id="paint46_linear_3328_23100" x1="3.73628" y1="10.7244" x2="17.825" y2="10.7842" gradientUnits="userSpaceOnUse">
<stop offset="0.111594" stop-color="#288BD8"/>
<stop offset="0.152774" stop-color="#4FA9EE"/>
<stop offset="0.199446" stop-color="#2C98E8" stop-opacity="0"/>
<stop offset="0.821864" stop-color="#2C98E8" stop-opacity="0"/>
<stop offset="0.871166" stop-color="#4FA9EE"/>
<stop offset="0.881981" stop-color="#4FA9EE"/>
<stop offset="0.910572" stop-color="#3494DE"/>
</linearGradient>
<radialGradient id="paint47_radial_3328_23100" cx="0" cy="0" r="1" gradientUnits="userSpaceOnUse" gradientTransform="translate(5.88554 11.3438) scale(1.7051 1.36127)">
<stop offset="0.113523" stop-color="#278CDB"/>
<stop offset="0.895852" stop-color="#3796E0" stop-opacity="0"/>
</radialGradient>
<radialGradient id="paint48_radial_3328_23100" cx="0" cy="0" r="1" gradientUnits="userSpaceOnUse" gradientTransform="translate(16.0794 11.3438) rotate(180) scale(1.4222 0.707417)">
<stop offset="0.113523" stop-color="#288EDD"/>
<stop offset="0.895852" stop-color="#3796E0" stop-opacity="0"/>
</radialGradient>
<radialGradient id="paint49_radial_3328_23100" cx="0" cy="0" r="1" gradientUnits="userSpaceOnUse" gradientTransform="translate(6.66144 4.16988) rotate(52.6648) scale(5.6873 7.47223)">
<stop offset="0.113523" stop-color="#288EDD"/>
<stop offset="0.732873" stop-color="#3796E0" stop-opacity="0"/>
</radialGradient>
<linearGradient id="paint50_linear_3328_23100" x1="14" y1="6.99971" x2="16.9259" y2="6.42157" gradientUnits="userSpaceOnUse">
<stop offset="0.646541" stop-color="#2C98E8" stop-opacity="0"/>
<stop offset="0.855689" stop-color="#3494DE"/>
</linearGradient>
</defs>
</svg>
