<svg width="20" height="20" viewBox="0 0 20 20" fill="none" xmlns="http://www.w3.org/2000/svg">
<g id="shopping-cart-03" clip-path="url(#clip0_17431_42716)">
<path id="Icon" d="M4.16662 11.6665H15.1131C15.9571 11.6665 16.3791 11.6665 16.715 11.5091C17.011 11.3705 17.2597 11.148 17.4301 10.8691C17.6236 10.5526 17.6702 10.1332 17.7634 9.29432L18.2509 4.90679C18.2794 4.65057 18.2936 4.52246 18.2524 4.4233C18.2162 4.33622 18.1516 4.26398 18.069 4.2184C17.975 4.1665 17.8461 4.1665 17.5883 4.1665H3.74995M1.6665 1.6665H2.70687C2.92739 1.6665 3.03765 1.6665 3.12391 1.70844C3.19985 1.74536 3.26278 1.80448 3.30437 1.87797C3.3516 1.96145 3.35848 2.0715 3.37224 2.29159L4.12744 14.3748C4.14119 14.5948 4.14807 14.7049 4.19531 14.7884C4.23689 14.8619 4.29982 14.921 4.37576 14.9579C4.46203 14.9998 4.57229 14.9998 4.7928 14.9998H15.8332M6.24984 17.9165H6.25817M13.7498 17.9165H13.7582M6.6665 17.9165C6.6665 18.1466 6.47996 18.3332 6.24984 18.3332C6.01972 18.3332 5.83317 18.1466 5.83317 17.9165C5.83317 17.6864 6.01972 17.4998 6.24984 17.4998C6.47996 17.4998 6.6665 17.6864 6.6665 17.9165ZM14.1665 17.9165C14.1665 18.1466 13.98 18.3332 13.7498 18.3332C13.5197 18.3332 13.3332 18.1466 13.3332 17.9165C13.3332 17.6864 13.5197 17.4998 13.7498 17.4998C13.98 17.4998 14.1665 17.6864 14.1665 17.9165Z" stroke="#BF1343" stroke-width="1.66667" stroke-linecap="round" stroke-linejoin="round"/>
</g>
<defs>
<clipPath id="clip0_17431_42716">
<rect width="20" height="20" fill="white"/>
</clipPath>
</defs>
</svg>
