<svg width="25" height="24" viewBox="0 0 25 24" fill="none" xmlns="http://www.w3.org/2000/svg">
<g id="Verified tick" clip-path="url(#clip0_16458_33092)">
<path id="Vector" d="M19.0332 4.25036C19.2611 4.80163 19.6987 5.23982 20.2496 5.46859L22.1814 6.26878C22.7327 6.49714 23.1708 6.93516 23.3991 7.48647C23.6275 8.03778 23.6275 8.65723 23.3991 9.20855L22.5995 11.139C22.371 11.6905 22.3707 12.3106 22.6002 12.8619L23.3984 14.7918C23.5117 15.0648 23.5699 15.3575 23.57 15.6531C23.57 15.9487 23.5118 16.2414 23.3987 16.5145C23.2856 16.7876 23.1198 17.0358 22.9107 17.2447C22.7017 17.4537 22.4535 17.6195 22.1804 17.7325L20.2499 18.5321C19.6987 18.7601 19.2605 19.1976 19.0317 19.7485L18.2315 21.6803C18.0031 22.2317 17.5651 22.6697 17.0138 22.898C16.4625 23.1264 15.843 23.1264 15.2917 22.898L13.3613 22.0984C12.81 21.8706 12.1907 21.8711 11.6397 22.0997L9.70792 22.8988C9.15691 23.1266 8.538 23.1264 7.98713 22.8982C7.43627 22.67 6.9985 22.2325 6.76998 21.6818L5.96955 19.7494C5.74161 19.1981 5.30408 18.76 4.75315 18.5312L2.82132 17.731C2.27025 17.5027 1.83236 17.065 1.60392 16.514C1.37547 15.963 1.37516 15.3438 1.60306 14.7926L2.40267 12.8622C2.63047 12.3108 2.63001 11.6916 2.40138 11.1406L1.60291 9.20741C1.4897 8.93436 1.43141 8.64167 1.43136 8.34607C1.43132 8.05047 1.48951 7.75777 1.60263 7.48467C1.71575 7.21158 1.88158 6.96345 2.09063 6.75446C2.29968 6.54548 2.54786 6.37974 2.82099 6.26671L4.75144 5.46709C5.30223 5.23935 5.74015 4.80237 5.96909 4.25208L6.76928 2.32024C6.99764 1.76893 7.43566 1.33091 7.98697 1.10255C8.53829 0.874191 9.15774 0.874191 9.70905 1.10255L11.6395 1.90217C12.1908 2.12997 12.81 2.1295 13.361 1.90088L15.2937 1.10379C15.8449 0.875559 16.4642 0.875606 17.0154 1.10392C17.5666 1.33224 18.0046 1.77013 18.233 2.3213L19.0334 4.25371L19.0332 4.25036Z" fill="#DC6803"/>
<path id="Vector_2" fill-rule="evenodd" clip-rule="evenodd" d="M17.1999 8.85437C17.3602 8.60255 17.4139 8.29735 17.3492 8.00592C17.2845 7.71449 17.1067 7.46069 16.8549 7.30037C16.6031 7.14005 16.2979 7.08633 16.0064 7.15103C15.715 7.21573 15.4612 7.39355 15.3009 7.64537L10.8954 14.5679L8.87939 12.0479C8.69301 11.8147 8.42166 11.6652 8.12502 11.6322C7.82838 11.5991 7.53077 11.6852 7.29764 11.8716C7.06452 12.058 6.91498 12.3294 6.88193 12.626C6.84887 12.9226 6.93501 13.2202 7.12139 13.4534L10.1214 17.2034C10.2332 17.3433 10.3768 17.4545 10.5402 17.5278C10.7037 17.601 10.8823 17.6342 11.0611 17.6245C11.24 17.6148 11.4139 17.5626 11.5685 17.4721C11.7231 17.3816 11.8538 17.2556 11.9499 17.1044L17.1999 8.85437V8.85437Z" fill="white"/>
</g>
<defs>
<clipPath id="clip0_16458_33092">
<rect width="24" height="24" fill="white" transform="translate(0.5)"/>
</clipPath>
</defs>
</svg>
