<svg width="160" height="160" viewBox="0 0 160 160" fill="none" xmlns="http://www.w3.org/2000/svg">
<rect width="160" height="160" fill="#EFF4FF"/>
<path d="M90.364 112.147C80.8186 108.601 71.0004 108.056 62.0004 110.511C55.7277 112.147 49.7277 115.42 44.2732 119.511L40.4549 122.783L39.364 123.874L41.8185 126.056C42.0913 126.056 42.0913 126.329 42.364 126.602C42.9095 127.147 43.455 127.42 44.2732 127.965L45.9095 129.056L47.5458 127.692C47.8186 127.42 48.364 126.874 48.9095 126.602C53.8186 122.511 59.2731 119.783 65.0004 118.42C72.364 116.511 80.2731 116.783 88.1822 119.783C94.7276 122.238 108.091 125.238 124.182 118.42L124.728 118.147L125.546 117.329C125.546 117.056 125.819 117.056 126.091 116.783C127.455 115.147 128.819 113.511 129.91 111.602L135.364 103.147L126.637 108.056C113.819 115.147 102.091 116.511 90.364 112.147Z" fill="#155EEF"/>
<path d="M52.9999 82.6937C60.3635 80.7846 68.2726 81.0573 76.1817 84.0573C84.909 87.3301 107.273 91.9664 132.364 69.3301L136.454 65.2392L136.727 64.9664L137.818 63.8755L137.273 62.5119C137 61.421 136.454 60.0574 135.909 58.6937L134.545 54.8755L131.818 57.6028C131.545 58.1482 131 58.4209 130.454 58.9664C118.454 71.2391 99.909 83.7846 78.6362 76.1483C69.0908 72.6028 59.2726 72.0573 50.2726 74.5119C41.5454 76.9664 33.909 81.6028 26.8181 88.1483V87.8755L22.7272 92.2392C22.7272 92.5119 22.4545 92.5119 22.1818 92.7846L21.3635 93.6028L21.6363 94.6937C21.909 96.0573 22.4544 97.421 22.7272 98.7846L24.3635 103.148L27.0908 99.6028C27.3635 99.0574 27.909 98.7846 28.1817 98.2392C33.909 93.0574 41.8181 85.6937 52.9999 82.6937Z" fill="#155EEF"/>
<path d="M26.5455 77.7843C32.8182 71.2388 39.9091 67.1479 47.5455 64.9661C54.9091 63.057 62.8182 63.3297 70.7273 66.3297C95.2727 75.3297 116.546 60.6024 125.818 52.6933L129.364 49.1479L130.727 48.057L129.636 46.4207C128.818 45.6025 128.273 44.5115 127.455 43.4206L125.818 41.2388L123.909 43.1479C123.636 43.4206 123.091 43.9661 122.818 44.2388C111.364 55.1479 93.6364 66.3297 73.4546 58.6934C63.9091 55.1479 54.0909 54.6025 45.0909 57.057C39.3637 58.6934 33.9091 61.4206 28.4546 64.9661L22.7273 69.6025C22.1818 70.1479 21.9091 70.4207 21.3636 70.9661L20.8182 71.5115V72.3297C20.5455 74.2388 20.5455 76.1479 20.2727 77.7843L20 84.6025L24.6364 79.6933C25.1819 79.1479 25.7273 78.3297 26.5455 77.7843Z" fill="#155EEF"/>
<path d="M98.2724 130.693L97.7269 132.33L98.2724 130.693C97.4542 130.42 96.9088 130.148 96.0906 129.875C86.5451 126.329 76.7269 125.784 67.7269 128.239C65.8178 128.784 63.9088 129.33 61.9997 130.148L55.4542 133.148L53.8179 133.966L59.2724 135.875C60.9088 136.42 62.5451 136.966 64.1815 137.511L64.9996 137.784L65.8179 137.511C66.636 137.239 67.4542 136.693 68.2724 136.693C68.8178 136.693 69.3633 136.42 69.9088 136.148C76.4542 134.511 83.5451 134.511 91.1815 136.966C91.9996 137.239 92.5451 137.511 93.3633 137.784L94.727 138.33L95.5451 138.057C97.4542 137.511 99.636 136.966 101.272 136.148L108.909 133.42L101 131.511C100.181 131.239 99.0906 130.966 98.2724 130.693Z" fill="#155EEF"/>
<path d="M140 74.2393L135.909 78.3302C135.364 78.8756 134.818 79.4211 134.273 79.9665C123.091 90.6029 105.091 102.057 84.9093 94.4211C75.3639 90.8756 65.5457 90.3302 56.5457 92.7848C48.0912 95.2393 40.4547 99.6029 33.6366 106.148L30.0911 109.967L29.0002 111.33L30.0911 112.967C30.9093 114.057 31.4548 114.876 32.0003 115.967L33.6366 118.421L35.5457 115.967C35.8184 115.694 36.3638 115.148 36.6366 114.876C43.182 107.785 50.2729 103.421 58.4548 101.239C65.8184 99.3302 73.7275 99.6029 81.6366 102.603C88.4548 105.057 95.5457 105.876 102.637 105.057C115.182 103.694 127.728 96.6029 137 88.6939C137.546 88.1484 138.091 87.8757 138.637 87.3302L139.455 86.512V85.6938C139.455 84.0575 139.728 82.1484 139.728 80.512L140 74.2393Z" fill="#155EEF"/>
<path d="M36.3642 49.1488L35.5461 47.5124L36.3642 49.1488C38.0006 48.3306 39.9097 47.7851 41.5461 47.2397C48.9097 45.3306 56.8188 45.6033 64.7279 48.6033C69.9097 50.5124 75.0915 51.3306 80.8188 51.3306C92.2733 51.3306 103.728 47.2397 114.364 39.3306L118.455 36.0579L119.819 34.967L117.364 33.0578C116.546 32.2397 115.455 31.4215 114.364 30.876L112.728 29.7852L111.364 30.876C110.819 31.1488 110.546 31.6942 110.001 31.9669C95.546 42.876 81.0915 45.8761 67.4552 40.6942C57.637 37.1488 47.8188 36.3306 38.0006 39.3306C37.1824 39.6033 36.3642 39.876 35.2733 40.1488L34.7279 40.4215L33.9097 41.2397C33.9097 41.5124 33.637 41.5124 33.3643 41.7851C32.2734 43.4215 30.9097 44.7852 29.8188 46.4215L24.637 54.3306L33.0915 49.967C34.4552 49.967 35.546 49.4215 36.3642 49.1488Z" fill="#155EEF"/>
<path d="M58.7273 30.6022L59.5455 30.875C63.0909 32.2386 68.5455 33.6022 75.3637 33.6022C82.4546 33.6022 89.2728 31.9659 96.091 29.2386L104.545 25.1477L98.8182 23.2386C97.1819 22.6932 95.5455 22.1477 93.6364 21.875H92.8182L92.0001 22.1477C91.1819 22.4204 90.3636 22.9659 89.5455 23.2386C81.3636 26.2386 73.1818 26.7841 65.2727 24.6023C64.4546 24.3295 63.6364 24.0568 62.8182 23.784L62.0001 23.5113L61.1818 23.784C59.5455 24.3295 57.9091 24.875 56.2728 25.6932L50 28.4204L56.5455 30.3295C57.091 30.0568 57.9091 30.3295 58.7273 30.6022Z" fill="#155EEF"/>
</svg>
