<svg width="160" height="160" viewBox="0 0 160 160" fill="none" xmlns="http://www.w3.org/2000/svg">
<rect width="160" height="160" fill="#444CE7"/>
<path opacity="0.8" fill-rule="evenodd" clip-rule="evenodd" d="M32.8718 93.8081C35.5932 96.5139 35.5932 100.901 32.8717 103.606L32.7323 103.745C30.0109 106.451 25.5986 106.451 22.8772 103.745C20.1558 101.039 20.1558 96.6523 22.8773 93.9466L23.0167 93.808C25.7381 91.1024 30.1504 91.1024 32.8718 93.8081Z" fill="white"/>
<path opacity="0.9" fill-rule="evenodd" clip-rule="evenodd" d="M65.6335 95.8941C68.35 98.6047 68.3421 102.992 65.6157 105.692L46.3126 124.815C43.5862 127.516 39.174 127.508 36.4575 124.797C33.741 122.086 33.7489 117.7 36.4753 114.999L55.7784 95.8764C58.5048 93.1756 62.917 93.1835 65.6335 95.8941Z" fill="white"/>
<path opacity="0.8" fill-rule="evenodd" clip-rule="evenodd" d="M91.8325 128.813C93.9674 125.629 98.294 124.769 101.496 126.891L101.914 127.169C105.117 129.291 105.982 133.593 103.847 136.776C101.712 139.96 97.3857 140.821 94.1834 138.698L93.7653 138.421C90.563 136.298 89.6976 131.997 91.8325 128.813Z" fill="white"/>
<path opacity="0.9" fill-rule="evenodd" clip-rule="evenodd" d="M137.82 93.3926C140.541 96.0983 140.541 100.485 137.82 103.191L128.342 112.613C125.621 115.319 121.209 115.319 118.487 112.613C115.766 109.908 115.766 105.521 118.487 102.815L127.964 93.3926C130.686 90.6869 135.098 90.6869 137.82 93.3926Z" fill="white"/>
<path fill-rule="evenodd" clip-rule="evenodd" d="M137.959 58.5425C140.68 61.2482 140.68 65.635 137.959 68.3407L67.9241 137.971C65.2026 140.677 60.7903 140.677 58.0689 137.971C55.3475 135.265 55.3475 130.879 58.0689 128.173L128.104 58.5425C130.825 55.8368 135.237 55.8368 137.959 58.5425Z" fill="white"/>
<path fill-rule="evenodd" clip-rule="evenodd" d="M124.718 37.1333C127.44 39.839 127.44 44.2258 124.718 46.9315L84.4394 86.9777C81.718 89.6834 77.3057 89.6834 74.5843 86.9777C71.8629 84.272 71.8629 79.8852 74.5843 77.1795L114.863 37.1333C117.584 34.4276 121.997 34.4276 124.718 37.1333Z" fill="white"/>
<path fill-rule="evenodd" clip-rule="evenodd" d="M103.461 23.5509C106.184 26.2548 106.187 30.6416 103.467 33.3491L51.6903 84.8965C48.9707 87.604 44.5584 87.6069 41.8352 84.9031C39.1119 82.1992 39.1089 77.8124 41.8285 75.1048L93.6055 23.5575C96.3251 20.85 100.737 20.847 103.461 23.5509Z" fill="white"/>
<path opacity="0.9" fill-rule="evenodd" clip-rule="evenodd" d="M52.1834 40.0514C54.9002 42.7618 54.8926 47.1486 52.1665 49.8496L31.8877 69.942C29.1616 72.6431 24.7493 72.6355 22.0326 69.9251C19.3159 67.2148 19.3235 62.828 22.0496 60.1269L42.3283 40.0345C45.0544 37.3335 49.4667 37.341 52.1834 40.0514Z" fill="white"/>
<path opacity="0.8" fill-rule="evenodd" clip-rule="evenodd" d="M64.5993 20C68.4479 20 71.5679 23.102 71.5679 26.9284V27.6212C71.5679 31.4477 68.4479 34.5497 64.5993 34.5497C60.7506 34.5497 57.6306 31.4477 57.6306 27.6212V26.9284C57.6306 23.102 60.7506 20 64.5993 20Z" fill="white"/>
</svg>
