<svg width="160" height="160" viewBox="0 0 160 160" fill="none" xmlns="http://www.w3.org/2000/svg">
<rect width="160" height="160" fill="white"/>
<path fill-rule="evenodd" clip-rule="evenodd" d="M80 140C113.137 140 140 113.137 140 80C140 46.8629 113.137 20 80 20C46.8629 20 20 46.8629 20 80C20 113.137 46.8629 140 80 140ZM98.7179 47.9505C99.629 44.7142 96.4883 42.8004 93.62 44.8439L53.5793 73.3688C50.4686 75.5849 50.9579 80 54.3143 80H64.8581V79.9184H85.4075L68.6636 85.8263L61.2821 112.05C60.371 115.286 63.5114 117.2 66.38 115.156L106.421 86.6315C109.531 84.4154 109.042 80 105.686 80H89.6963L98.7179 47.9505Z" fill="#155EEF"/>
</svg>
