<svg width="160" height="160" viewBox="0 0 160 160" fill="none" xmlns="http://www.w3.org/2000/svg">
<rect width="160" height="160" fill="#EBE9FE"/>
<path fill-rule="evenodd" clip-rule="evenodd" d="M80 114C98.7777 114 114 98.7776 114 79.9999C114 61.2223 98.7777 46 80 46C61.2223 46 46 61.2223 46 79.9999C46 98.7776 61.2223 114 80 114ZM80 140C113.137 140 140 113.137 140 79.9999C140 46.8629 113.137 20 80 20C46.8629 20 20 46.8629 20 79.9999C20 113.137 46.8629 140 80 140Z" fill="#6938EF"/>
<path d="M80.6865 81.3134C86.9349 75.0651 97.0656 75.0651 103.314 81.3135L134.427 112.426C140.675 118.674 140.675 128.805 134.427 135.053C128.178 141.302 118.048 141.302 111.799 135.053L80.6866 103.941C74.4382 97.6925 74.4382 87.5618 80.6865 81.3134Z" fill="#F670C7"/>
<path d="M89.4229 112.678L109.183 132.438C118.661 127.152 126.557 119.371 131.983 109.983L112.385 90.385C108.943 101.129 100.302 109.546 89.4229 112.678Z" fill="#6519BA"/>
</svg>
