<svg width="160" height="160" viewBox="0 0 160 160" fill="none" xmlns="http://www.w3.org/2000/svg">
<rect width="160" height="160" fill="#ECE9FE"/>
<path d="M78.8546 25.4546C68.9274 25.4546 60.9092 33.3753 60.9092 43.1819C60.9092 52.9131 68.9274 60.8336 78.7782 60.9091C76.3346 60.8336 74.4255 58.8724 74.4255 56.4584C74.4255 54.0445 76.411 52.0078 78.9311 52.0078C89.6219 52.0078 113.371 52.0078 123.833 52.0078C131.24 52.0078 137.273 46.0484 137.273 38.7313C137.273 31.414 131.24 25.4546 123.833 25.4546L78.8546 25.4546Z" fill="#5720B7"/>
<path d="M57.0363 60.9092C47.109 60.9092 39.0908 68.8299 39.0908 78.6365C39.0908 88.3677 47.109 96.2882 56.9599 96.3637C54.5163 96.2882 52.6072 94.327 52.6072 91.913C52.6072 89.4991 54.5927 87.4624 57.1127 87.4624C67.8035 87.4624 91.5527 87.4624 102.015 87.4624C109.422 87.4624 115.454 81.503 115.454 74.1859C115.454 66.8686 109.422 60.9092 102.015 60.9092L57.0363 60.9092Z" fill="#6927DA"/>
<path d="M41.9546 96.3638C31.3182 96.3638 22.7273 104.894 22.7273 115.455C22.7273 125.934 31.3182 134.464 41.8727 134.546C39.2545 134.464 37.2091 132.352 37.2091 129.752C37.2091 127.153 39.3364 124.96 42.0365 124.96C53.4909 124.96 78.9365 124.96 90.1455 124.96C98.0818 124.96 104.545 118.542 104.545 110.662C104.545 102.782 98.0818 96.3638 90.1455 96.3638L41.9546 96.3638Z" fill="#7839EE"/>
</svg>
