<svg width="160" height="160" viewBox="0 0 160 160" fill="none" xmlns="http://www.w3.org/2000/svg">
<rect width="160" height="160" fill="#4CA30D"/>
<path opacity="0.8" d="M119.018 44.9903C117.839 43.8115 116.66 42.6328 115.481 41.454C111.945 37.6819 108.173 33.9098 103.458 31.5522C98.0355 28.7231 92.1416 29.4304 86.2477 29.4304C77.2889 29.4304 54.8921 29.4304 41.6897 29.4304L50.6484 41.454C66.9156 41.454 92.3773 41.454 104.165 41.454C109.116 41.454 113.36 42.397 117.368 44.9903C118.075 45.2261 118.782 45.2261 119.018 44.9903Z" fill="white"/>
<path opacity="0.9" d="M128.92 64.3228C127.741 63.144 126.562 61.9653 125.383 60.7865C121.847 57.0144 118.075 53.2423 113.36 50.8847C107.937 48.0556 102.043 48.7629 96.1496 48.7629C88.3696 48.7629 69.7448 48.7629 56.5425 48.7629L65.5012 60.7865C81.5327 60.7865 103.458 60.7865 114.303 60.7865C119.254 60.7865 123.497 61.7295 127.505 64.3228C127.977 64.5586 128.448 64.5586 128.92 64.3228Z" fill="white"/>
<path d="M140 83.1827C138.821 82.0039 137.642 80.8252 136.464 79.6464C132.927 75.8743 129.155 72.1021 124.44 69.7446C119.018 66.9155 113.124 67.6228 107.23 67.6228C99.9214 67.6228 83.8899 67.6228 70.9233 67.6228L79.8821 79.6464C95.442 79.6464 115.246 79.6464 125.147 79.6464C130.098 79.6464 134.342 80.5894 138.35 83.1827C139.057 83.4185 139.528 83.6542 140 83.1827Z" fill="white"/>
<path opacity="0.8" d="M40.7468 115.01C41.9256 116.188 43.1044 117.367 44.2832 118.546C47.8195 122.318 51.5916 126.09 56.3067 128.448C61.7291 131.277 67.623 130.569 73.517 130.569H118.075L109.116 118.546C92.849 118.546 67.3873 118.546 55.5995 118.546C50.6486 118.546 46.405 117.603 42.3971 115.01C41.6898 114.774 41.2183 114.774 40.7468 115.01Z" fill="white"/>
<path opacity="0.9" d="M30.8452 95.6783C32.024 96.8571 33.2028 98.0358 34.3816 99.2146C37.9179 102.987 41.69 106.759 46.4051 109.116C51.8275 111.946 57.7214 111.238 63.6153 111.238H103.222L94.2637 99.2146C78.2322 99.2146 56.3069 99.2146 45.4621 99.2146C40.5112 99.2146 36.2676 98.2716 32.2597 95.6783C31.7882 95.4425 31.3167 95.4425 30.8452 95.6783Z" fill="white"/>
<path d="M20 76.5814C21.1788 77.7601 22.3576 78.9389 23.5363 80.1177C27.0727 83.8898 30.8448 87.6619 35.5599 90.0195C40.9823 92.8486 46.8762 92.1413 52.7701 92.1413H89.0766L80.1179 80.1177C64.558 80.1177 44.7544 80.1177 34.8527 80.1177C29.9018 80.1177 25.6581 79.1747 21.6503 76.5814C20.943 76.3456 20.4715 76.3456 20 76.5814Z" fill="white"/>
</svg>
