<svg width="160" height="160" viewBox="0 0 160 160" fill="none" xmlns="http://www.w3.org/2000/svg">
<rect width="160" height="160" fill="#FBFAFF"/>
<path d="M52.2701 26.7787L66.3114 79.1816V21.5688C67.4248 21.309 68.5501 21.0801 69.6864 20.8833V79.187L85.4793 20.2471C86.6174 20.3501 87.7464 20.4849 88.8652 20.6506L72.9451 80.0654L104.59 25.2544C105.621 25.7182 106.637 26.2103 107.636 26.7296L75.8725 81.745L121.218 36.3991C122.036 37.1722 122.832 37.9681 123.605 38.7857L78.2522 84.1382L133.274 52.3713C133.793 53.3704 134.285 54.386 134.749 55.417L79.9515 87.0542L139.35 71.1384C139.516 72.2573 139.651 73.3863 139.753 74.5244L80.8143 90.3171L139.116 90.3171C138.919 91.4534 138.691 92.5787 138.431 93.6921L80.8052 93.6921L133.218 107.736C132.68 108.767 132.113 109.78 131.517 110.774L79.9466 96.9561L123.02 121.825C122.205 122.663 121.365 123.478 120.502 124.268L78.2629 99.8811L110.225 131.843C109.214 132.433 108.184 132.995 107.136 133.527L75.8729 102.264L96.357 137.744C95.2355 138.061 94.1006 138.346 92.9534 138.598L72.9471 103.946L82.593 139.945C81.7332 139.982 80.8688 140 80 140C79.7035 140 79.4074 139.998 79.1119 139.994L69.6864 104.817V139.117C68.5501 138.92 67.4248 138.692 66.3114 138.432V104.823L58.0006 135.839C56.9406 135.421 55.8954 134.974 54.8659 134.498L63.0501 103.954L47.6866 130.564C46.7354 129.955 45.8026 129.32 44.8891 128.66L60.1319 102.259L38.7854 123.605C37.9678 122.832 37.1719 122.036 36.3988 121.219L57.7386 99.8789L31.3449 115.117C30.6845 114.204 30.0491 113.271 29.4399 112.32L56.0629 96.9492L25.5036 105.138C25.028 104.108 24.5807 103.063 24.1626 102.003L55.1786 93.6921H21.5693C21.3094 92.5787 21.0805 91.4534 20.8836 90.3171L55.1695 90.3171L20.0065 80.8952C20.0022 80.5974 20 80.2991 20 80.0002C20 79.1338 20.0184 78.2716 20.0547 77.4141L56.058 87.0611L21.4008 67.0518C21.6531 65.9045 21.9383 64.7696 22.2553 63.648L57.7492 84.1404L26.4728 52.864C27.0049 51.8165 27.5668 50.7867 28.1575 49.7757L60.1323 81.7505L35.7357 39.4945C36.5257 38.6317 37.3406 37.792 38.1792 36.9767L63.0522 80.0579L49.2317 28.4793C50.2262 27.8841 51.2393 27.3169 52.2701 26.7787Z" fill="#6927DA"/>
</svg>
