<svg width="160" height="160" viewBox="0 0 160 160" fill="none" xmlns="http://www.w3.org/2000/svg">
<rect width="160" height="160" fill="#E0F2FE"/>
<path d="M108.623 27.2544C116.697 43.0847 121.25 61.0105 121.25 79.9998C121.25 98.9892 116.697 116.915 108.623 132.746C127.314 122.581 140 102.772 140 79.9999C140 57.2277 127.314 37.4186 108.623 27.2544Z" fill="#0BA5EC"/>
<path d="M81.643 25.9963C78.9291 22.1518 74.3059 20.0813 69.6694 20.8859C41.4551 25.7822 20 50.3855 20 79.9999C20 109.614 41.455 134.217 69.6691 139.114C74.3057 139.918 78.9289 137.848 81.6427 134.004C92.4195 118.737 98.75 100.108 98.75 79.9997C98.75 59.8919 92.4196 41.2627 81.643 25.9963Z" fill="#0086C9"/>
</svg>
