<svg width="160" height="160" viewBox="0 0 160 160" fill="none" xmlns="http://www.w3.org/2000/svg">
<rect width="160" height="160" fill="#175CD3"/>
<path d="M113.542 80C105.302 89.2062 93.3276 95 80.0001 95C66.6726 95 54.6983 89.2062 46.4585 80C54.6983 70.7938 66.6726 65 80.0001 65C93.3276 65 105.302 70.7938 113.542 80Z" fill="white"/>
<path fill-rule="evenodd" clip-rule="evenodd" d="M35 110C35 85.1472 55.1472 65 80 65C66.6725 65 54.6983 70.7938 46.4585 80C54.6983 89.2062 66.6726 95 80.0001 95C93.3276 95 105.302 89.2063 113.542 80.0001C120.667 87.9614 125 98.4747 125 110V127C125 129.209 123.209 131 121 131H39C36.7909 131 35 129.209 35 127V110Z" fill="#7CD4FD"/>
<path fill-rule="evenodd" clip-rule="evenodd" d="M63.121 91.7274C56.6956 89.1257 51.0079 85.083 46.4585 80C54.6983 70.7938 66.6726 65 80.0001 65C93.3276 65 105.302 70.7938 113.542 80C113.542 79.9999 113.542 80 113.542 80C120.667 72.0386 125 61.5253 125 50V33C125 30.7909 123.209 29 121 29L39 29C36.7909 29 35 30.7909 35 33L35 50C35 68.8837 46.6316 85.0508 63.121 91.7274Z" fill="#0BA5EC"/>
</svg>
