<svg width="160" height="160" viewBox="0 0 160 160" fill="none" xmlns="http://www.w3.org/2000/svg">
<rect width="160" height="160" fill="#101828"/>
<path fill-rule="evenodd" clip-rule="evenodd" d="M82.0878 23.9493C80.7104 23.666 79.2898 23.666 77.9124 23.9493C76.3202 24.2767 74.8971 25.0738 73.7658 25.7075L73.4574 25.8798L35.1133 47.182C35.0073 47.2409 34.8981 47.3011 34.7862 47.3627C33.5885 48.0224 32.0827 48.8518 30.9263 50.1067C29.9265 51.1916 29.1698 52.4775 28.707 53.8784C28.1716 55.4987 28.1779 57.2178 28.1829 58.5851C28.1833 58.7129 28.1838 58.8376 28.1838 58.9589V101.019C28.1838 101.14 28.1833 101.265 28.1829 101.392C28.1779 102.76 28.1716 104.479 28.707 106.099C29.1698 107.5 29.9265 108.786 30.9263 109.871C32.0827 111.126 33.5885 111.955 34.7862 112.615C34.8981 112.676 35.0073 112.737 35.1133 112.796L73.4574 134.098L73.7658 134.27C74.8972 134.904 76.3202 135.701 77.9124 136.028C79.2898 136.312 80.7104 136.312 82.0878 136.028C83.6799 135.701 85.103 134.904 86.2344 134.27L86.5428 134.098L124.887 112.796C124.934 112.769 124.981 112.743 125.029 112.717C125.09 112.683 125.151 112.649 125.214 112.615C126.412 111.955 127.917 111.126 129.074 109.871C130.074 108.786 130.83 107.5 131.293 106.099C131.828 104.479 131.822 102.76 131.817 101.392C131.817 101.265 131.816 101.14 131.816 101.019V58.9589C131.816 58.8376 131.817 58.7129 131.817 58.5851C131.822 57.2178 131.828 55.4987 131.293 53.8784C130.83 52.4775 130.074 51.1916 129.074 50.1067C127.917 48.8518 126.412 48.0224 125.214 47.3627L125.21 47.3604C125.099 47.2995 124.991 47.2402 124.887 47.182L86.5428 25.8798L86.2344 25.7075C85.103 25.0738 83.6799 24.2767 82.0878 23.9493ZM78.4902 34.9389C79.2754 34.5026 79.6763 34.2822 79.9753 34.138L80.0001 34.1261L80.0248 34.138C80.3239 34.2822 80.7247 34.5026 81.5099 34.9389L115.965 54.0805L79.9999 74.061L44.0351 54.0806L78.4902 34.9389ZM38.547 62.8868L74.8183 83.0375L74.8184 122.999L40.1462 103.736C39.3174 103.276 38.8942 103.038 38.5973 102.849L38.5722 102.833L38.5704 102.803C38.5492 102.452 38.547 101.967 38.547 101.019V62.8868Z" fill="white"/>
</svg>
