<svg width="160" height="160" viewBox="0 0 160 160" fill="none" xmlns="http://www.w3.org/2000/svg">
<rect width="160" height="160" fill="white"/>
<path d="M60.3036 67.5901C76.0152 60.0759 88.3112 47.3245 95.37 31.3852C90.8159 26.6034 84.8956 23.1879 78.5199 21.1385L75.1043 20C74.8766 20.4554 74.6489 21.1385 74.6489 21.594C69.184 37.0778 58.0266 49.6015 42.9981 56.6603C32.5237 61.6698 24.7818 70.778 21.1385 81.7078L20 85.1233C20.4554 85.351 21.1385 85.5787 21.5939 85.5787C25.9203 87.1726 30.2467 89.222 34.3454 91.7267C40.038 81.4801 49.1461 72.8273 60.3036 67.5901Z" fill="#087443"/>
<path d="M126.338 68.501C117.913 81.2524 106.3 91.4991 91.9544 98.3302C80.3415 103.795 71.4611 114.042 67.3624 126.338L66.2239 130.209C70.5503 134.08 75.7874 137.04 81.48 138.862L84.8956 140C85.1233 139.545 85.351 138.862 85.351 138.406C90.8159 122.922 101.973 110.399 117.002 103.34C127.476 98.3302 135.446 89.2221 138.861 78.2923L140 74.8767C135.218 73.5105 130.664 71.2334 126.338 68.501Z" fill="#16B364"/>
<path d="M57.1157 118.368C62.8083 104.706 73.2827 93.548 86.7172 87.1723C99.0132 81.252 109.26 72.1438 116.319 60.9864C111.082 55.9769 106.755 50.2842 103.567 43.4531C95.1422 58.937 81.9354 71.4607 65.7684 79.2027C56.4326 83.529 48.9183 91.0433 44.3643 100.151C49.3737 104.933 53.4724 110.853 56.6603 117.457C56.6603 117.457 56.888 117.912 57.1157 118.368Z" fill="#099250"/>
</svg>
