<svg width="160" height="160" viewBox="0 0 160 160" fill="none" xmlns="http://www.w3.org/2000/svg">
<rect width="160" height="160" fill="#EFF4FF"/>
<path d="M57.0389 24.5672C64.3184 21.5521 72.1208 20 80 20V50C76.0602 50 72.1592 50.7759 68.5194 52.2838C64.8797 53.7913 61.5725 56.001 58.7867 58.7867C56.001 61.5725 53.7913 64.8797 52.2838 68.5194C50.7759 72.1592 50 76.0602 50 80H20C20 72.1208 21.5521 64.3184 24.5672 57.0389C27.5826 49.7593 32.0021 43.1453 37.5735 37.5735C43.1453 32.0021 49.7593 27.5826 57.0389 24.5672Z" fill="#155EEF"/>
<path d="M20 80C20 87.8792 21.5521 95.6816 24.5672 102.961C27.5826 110.241 32.0021 116.855 37.5735 122.427C43.1453 127.998 49.7593 132.417 57.0389 135.433C64.3184 138.448 72.1208 140 80 140C87.8792 140 95.6816 138.448 102.961 135.433C110.241 132.417 116.855 127.998 122.427 122.427C127.998 116.855 132.417 110.241 135.433 102.961C138.448 95.6816 140 87.8792 140 80H110C110 83.9398 109.224 87.8408 107.716 91.4806C106.209 95.1203 103.999 98.4275 101.213 101.213C98.4275 103.999 95.1203 106.209 91.4806 107.716C87.8408 109.224 83.9398 110 80 110C76.0602 110 72.1592 109.224 68.5194 107.716C64.8797 106.209 61.5725 103.999 58.7867 101.213C56.001 98.4275 53.7913 95.1203 52.2838 91.4806C50.7759 87.8408 50 83.9398 50 80H20Z" fill="#84ADFF"/>
<path d="M80.0001 60.9092C69.4565 60.9092 60.9092 69.4565 60.9092 80.0001H99.091C99.091 69.4565 90.5437 60.9092 80.0001 60.9092Z" fill="#84ADFF"/>
<path d="M80.0001 99.0908C69.4565 99.0908 60.9092 90.5435 60.9092 79.9999H99.091C99.091 90.5435 90.5437 99.0908 80.0001 99.0908Z" fill="#155EEF"/>
</svg>
