<svg width="160" height="160" viewBox="0 0 160 160" fill="none" xmlns="http://www.w3.org/2000/svg">
<rect width="160" height="160" fill="#FFF4ED"/>
<mask id="mask0_144_1222" style="mask-type:luminance" maskUnits="userSpaceOnUse" x="13" y="13" width="134" height="134">
<path d="M146.25 80.01C146.25 103.101 134.445 123.42 116.538 135.267C115.594 135.909 114.611 136.512 113.627 137.094C103.77 142.917 92.2663 146.25 80 146.25C62.9356 146.25 47.3769 139.805 35.6527 129.203C33.9864 127.697 32.3803 126.091 30.8746 124.424C20.2345 112.678 13.75 97.0971 13.75 80.01C13.75 43.4064 43.422 13.75 80 13.75C85.2598 13.75 90.3792 14.3524 95.2977 15.537C96.3617 15.778 97.4258 16.0591 98.4697 16.3602C126.074 24.3516 146.25 49.8316 146.25 80.01Z" fill="white"/>
</mask>
<g mask="url(#mask0_144_1222)">
<path d="M146.25 80.01C146.25 103.101 134.445 123.42 116.538 135.267C115.594 135.909 114.611 136.512 113.627 137.094C103.77 142.917 92.2663 146.25 80 146.25C62.9356 146.25 47.3769 139.805 35.6527 129.203C33.9864 127.697 32.3803 126.091 30.8746 124.424C20.2345 112.678 13.75 97.0971 13.75 80.01C13.75 43.4064 43.422 13.75 80 13.75C85.2598 13.75 90.3792 14.3524 95.2977 15.537C96.3617 15.778 97.4258 16.0591 98.4697 16.3602C126.074 24.3516 146.25 49.8316 146.25 80.01Z" fill="white"/>
<path d="M113.627 137.094C103.77 142.917 92.2663 146.25 80 146.25C79.5383 146.25 79.0966 146.25 78.6348 146.23C75.5231 146.17 72.4515 145.889 69.4602 145.427C56.5515 143.379 44.9076 137.596 35.6326 129.203L34.95 127.918C27.2811 94.3664 46.9553 83.8049 52.2955 80.1908C64.883 71.6372 75.0614 64.1478 75.0614 64.1478C88.1106 69.1073 96.1409 84.6282 97.6265 89.8888C98.5098 92.9408 101.762 105.189 103.509 114.164C105.817 126.031 113.486 136.913 113.486 136.913L113.607 137.094H113.627Z" fill="#FEAA00"/>
<path d="M77.5106 129.243C77.8318 134.624 78.2132 140.387 78.6348 146.23C75.5231 146.17 72.4515 145.889 69.4602 145.427C69.8617 139.865 70.2231 134.383 70.5242 129.243C63.7587 126.914 58.7197 117.959 58.7197 107.237C58.7197 94.7479 65.5655 84.6282 74.0174 84.6282C82.4693 84.6282 89.3151 94.7479 89.3151 107.237C89.3151 117.939 84.256 126.914 77.5106 129.243Z" fill="white"/>
<path d="M95.2976 15.537C95.1972 17.1835 93.29 43.9084 72.2105 62.3608C72.2105 62.3608 47.6578 79.5281 45.59 81.2951C43.5222 83.0821 26.498 95.0691 30.6537 122.738L30.8745 124.424C23.0249 115.77 17.4438 105.028 15.0548 93.1416C14.3521 89.7081 13.9306 86.1742 13.79 82.56C13.7499 81.7167 13.7298 80.8734 13.7298 80.0301C13.7499 43.4064 43.4218 13.75 79.9999 13.75C85.2597 13.75 90.379 14.3524 95.2976 15.537Z" fill="#1A8638"/>
<path d="M66.6095 39.6316C63.1966 50.0324 40.8523 79.6085 36.0943 82.0581C33.1231 83.5841 25.5546 79.2069 20.9773 86.0939C19.1504 88.2423 17.1428 90.6116 15.0549 93.1416C14.3523 89.7081 13.9307 86.1742 13.7902 82.56C14.4527 81.9778 15.0951 81.4156 15.7174 80.8734C19.7326 77.3596 23.7879 71.2958 24.6913 70.3722C33.625 61.1761 64.5818 28.8894 65.5655 29.2508C69.3197 30.6363 67.3523 37.3827 66.5894 39.6316H66.6095Z" fill="white"/>
<path d="M146.25 80.0097C146.25 88.7239 144.564 97.0566 141.512 104.666C140.348 107.558 138.983 110.369 137.437 113.039C132.297 121.974 125.13 129.584 116.538 135.267L116.297 135.186C116.297 135.186 109.511 127.918 103.669 99.1247C103.669 99.1247 100.176 74.6687 77.9924 61.497C77.9924 61.497 86.7455 52.8832 90.1383 45.0926C93.511 37.3422 97.3455 28.1863 98.4697 16.3599C126.074 24.3512 146.25 49.8312 146.25 80.0097Z" fill="#FF8731"/>
<path d="M141.512 104.667C140.348 107.558 138.983 110.369 137.437 113.04C134.847 107.659 132.297 102.418 129.908 97.7195C129.507 96.9365 128.644 96.4747 127.8 96.6754C121.978 97.9605 115.695 95.3904 112.563 89.9691L99.3731 67.0994C98.811 66.1557 99.1523 64.9309 100.096 64.3687C100.417 64.1879 100.758 64.0876 101.08 64.0876C101.762 64.0876 102.445 64.449 102.826 65.0915L113.547 83.6644C114.069 84.5679 115.233 84.8892 116.156 84.3671C117.06 83.8451 117.381 82.6805 116.859 81.7569L106.139 63.184C105.597 62.2202 105.918 61.0155 106.861 60.4533L107.183 60.2726C108.146 59.7104 109.351 60.0517 109.913 60.9954L120.633 79.5683C121.155 80.4719 122.32 80.7931 123.243 80.2711C124.147 79.749 124.468 78.5845 123.946 77.6608L113.225 59.0879C112.663 58.1442 112.984 56.9194 113.948 56.3572L114.269 56.1564C115.213 55.6143 116.437 55.9356 117 56.8793L127.72 75.4522C128.242 76.3557 129.427 76.677 130.33 76.1549C131.233 75.6329 131.555 74.4683 131.012 73.5447L120.292 54.9718C119.73 54.0281 120.071 52.8033 121.015 52.2411C121.336 52.0604 121.677 51.96 122.019 51.96C122.701 51.96 123.384 52.3214 123.745 52.9639L136.935 75.8336C138.862 79.1868 139.244 83.0219 138.32 86.4955C137.738 88.664 136.654 90.692 135.108 92.3786C134.526 93.0211 134.486 94.005 134.967 94.7278C136.995 97.84 139.203 101.173 141.532 104.586L141.512 104.667Z" fill="white"/>
</g>
<path d="M146.25 80.01C146.25 103.101 134.445 123.42 116.538 135.267C115.594 135.909 114.611 136.512 113.627 137.094C103.77 142.917 92.2663 146.25 80 146.25C62.9356 146.25 47.3769 139.805 35.6527 129.203C33.9864 127.697 32.3803 126.091 30.8746 124.424C20.2345 112.678 13.75 97.0971 13.75 80.01C13.75 43.4064 43.422 13.75 80 13.75C85.2598 13.75 90.3792 14.3524 95.2977 15.537C96.3617 15.778 97.4258 16.0591 98.4697 16.3602C126.074 24.3516 146.25 49.8316 146.25 80.01Z" stroke="white" stroke-width="2.59804" stroke-miterlimit="10"/>
</svg>
