<svg width="160" height="160" viewBox="0 0 160 160" fill="none" xmlns="http://www.w3.org/2000/svg">
<rect width="160" height="160" fill="#6927DA"/>
<circle cx="80" cy="82.6815" r="55.9091" stroke="white" stroke-width="8.18182"/>
<path d="M102.178 104.859C90.8884 116.148 78.0987 123.518 66.7087 126.447C55.2157 129.402 45.9521 127.701 40.4665 122.215C34.9808 116.73 33.2796 107.466 36.2349 95.9733C39.1638 84.5832 46.5335 71.7936 57.8227 60.5043C69.112 49.215 81.9016 41.8454 93.2917 38.9165C104.785 35.9611 114.048 37.6624 119.534 43.148C125.02 48.6337 126.721 57.8972 123.765 69.3902C120.837 80.7803 113.467 93.5699 102.178 104.859Z" stroke="white" stroke-width="8.18182"/>
<path d="M102.177 60.5043C113.466 71.7935 120.836 84.5831 123.764 95.9732C126.72 107.466 125.019 116.73 119.533 122.215C114.047 127.701 104.784 129.402 93.2908 126.447C81.9007 123.518 69.1111 116.148 57.8218 104.859C46.5325 93.5699 39.1629 80.7803 36.234 69.3902C33.2786 57.8972 34.9799 48.6337 40.4655 43.148C45.9512 37.6623 55.2147 35.9611 66.7077 38.9164C78.0978 41.8453 90.8874 49.215 102.177 60.5043Z" stroke="white" stroke-width="8.18182"/>
</svg>
