<svg width="160" height="160" viewBox="0 0 160 160" fill="none" xmlns="http://www.w3.org/2000/svg">
<rect width="160" height="160" fill="url(#paint0_linear_1785_537475)"/>
<path d="M87.6232 124.33C86.5595 123.319 85.7173 122.098 85.15 120.744C84.5826 119.391 84.3024 117.934 84.3272 116.467C84.3124 115.015 84.6004 113.577 85.1725 112.243C85.7447 110.909 86.5886 109.709 87.6504 108.719C89.4047 106.991 91.6764 105.885 94.1185 105.57C96.5606 105.254 99.0388 105.747 101.174 106.973C102.859 107.941 104.264 109.329 105.252 111.003C106.248 112.641 106.775 114.522 106.774 116.439C106.802 117.911 106.524 119.372 105.958 120.73C105.392 122.088 104.55 123.314 103.485 124.33C101.361 126.404 98.5097 127.566 95.5406 127.566C92.5714 127.566 89.7201 126.404 87.5961 124.33H87.6232ZM84.7757 41.4186L106.129 37.9619L102.731 96.867H88.2145L84.7757 41.4186Z" fill="white"/>
<path d="M56.6007 62.6293C57.011 60.8137 57.8777 59.1328 59.1188 57.7455H59.1131C59.6031 57.1768 60.2084 56.7186 60.8887 56.4013C61.5691 56.084 62.309 55.9148 63.0597 55.9049C63.2885 55.8943 63.5171 55.9292 63.7323 56.0077C63.9475 56.0862 64.1449 56.2067 64.3131 56.3623C64.4653 56.5008 64.5863 56.6701 64.668 56.8589C64.7498 57.0477 64.7905 57.2518 64.7874 57.4576C64.7874 59.8025 62.0585 61.5264 56.6007 62.6293Z" fill="white"/>
<path fill-rule="evenodd" clip-rule="evenodd" d="M80.362 109.308V127.565C80.362 127.565 70.3654 127.658 59.2078 121.588C46.5941 114.7 34.1181 99.7791 34.1181 78.4971L34.0984 36.6611C34.1067 35.9321 34.2982 35.2168 34.6552 34.5811C35.0122 33.9454 35.5234 33.4097 36.1416 33.0232C36.7598 32.6367 37.4653 32.4118 38.1931 32.3692C38.921 32.3267 39.6478 32.4678 40.3069 32.7796C45.0278 34.972 49.9597 36.6781 55.0262 37.8713C63.172 39.8029 71.4853 40.9429 79.8503 41.2757V82.9444C79.8503 83.7272 79.5394 84.478 78.9858 85.0316C78.4322 85.5851 77.6815 85.8961 76.8986 85.8961H60.0097C61.0084 97.5948 66.8332 105.215 80.362 109.308ZM74.4815 73.5994L65.894 68.9866C64.426 71.1735 62.6268 72.267 60.4964 72.267C59.6906 72.2592 58.9049 72.0136 58.238 71.5612C57.4711 71.0304 56.8905 70.272 56.5781 69.3931L56.612 69.3254C58.5842 69.0078 60.5385 68.5876 62.4668 68.0664C64.2647 67.5802 66.0191 66.9457 67.712 66.1693C69.2329 65.4914 70.6677 64.6347 71.986 63.6173C73.139 62.7124 74.0989 61.5855 74.809 60.3031C75.5151 59.0508 75.8828 57.6362 75.876 56.1985C75.8907 54.9412 75.6546 53.6936 75.1816 52.5286C74.7649 51.4789 74.132 50.5287 73.3241 49.7395C72.5205 48.978 71.6092 48.3388 70.6196 47.8425C69.6073 47.3306 68.5332 46.9511 67.424 46.7133C66.3106 46.4753 65.175 46.3561 64.0364 46.3576C61.8132 46.3407 59.6043 46.7133 57.5097 47.4586C55.5673 48.1386 53.7636 49.1638 52.1855 50.4848C50.6536 51.7802 49.3302 53.3036 48.2616 55.0016C47.1577 56.7476 46.3258 58.6514 45.7943 60.6475C45.2378 62.7207 44.9587 64.8584 44.9643 67.0049C44.9643 71.6459 46.2328 75.2462 48.7697 77.8057C51.3066 80.3652 54.8504 81.6449 59.4011 81.6449C66.1236 81.6449 71.1504 78.9631 74.4815 73.5994Z" fill="white"/>
<path d="M125.989 47.8504C125.448 46.6497 124.788 45.629 123.887 44.7285C122.987 43.8279 121.966 43.1075 120.765 42.6272C119.565 42.1469 118.304 41.8467 116.923 41.8467C115.542 41.8467 114.281 42.0868 113.081 42.6272C111.88 43.1075 110.859 43.8279 109.959 44.7285C109.058 45.629 108.338 46.6497 107.857 47.8504C107.377 49.0512 107.077 50.312 107.077 51.6928C107.077 53.0737 107.317 54.3345 107.857 55.5352C108.338 56.736 109.058 57.7566 109.959 58.6572C110.859 59.5577 111.88 60.2782 113.081 60.7585C114.281 61.2388 115.542 61.539 116.923 61.539C118.304 61.539 119.565 61.2988 120.765 60.7585C121.966 60.2182 122.987 59.5577 123.887 58.6572C124.788 57.7566 125.508 56.736 125.989 55.5352C126.469 54.3345 126.769 53.0737 126.769 51.6928C126.769 50.312 126.469 49.0512 125.989 47.8504ZM123.167 55.2951C122.507 56.3758 121.666 57.2763 120.585 57.9367C119.505 58.5971 118.304 58.8973 116.923 58.8973C115.602 58.8973 114.401 58.5971 113.261 57.9367C112.18 57.2763 111.28 56.4358 110.679 55.2951C110.019 54.2144 109.719 53.0137 109.719 51.6328C109.719 50.312 110.019 49.1112 110.679 47.9705C111.34 46.8898 112.18 45.9893 113.261 45.3289C114.401 44.7285 115.602 44.4283 116.923 44.4283C118.244 44.4283 119.445 44.7285 120.585 45.3889C121.666 46.0493 122.567 46.8898 123.227 48.0305C123.887 49.1112 124.188 50.312 124.188 51.6928C124.128 53.0137 123.827 54.2144 123.167 55.2951Z" fill="white"/>
<path d="M120.525 51.6328C120.825 51.1525 120.946 50.6122 120.946 50.0118C120.946 49.3514 120.825 48.811 120.525 48.3908C120.225 47.9105 119.865 47.6103 119.385 47.3701C118.904 47.13 118.364 47.0099 117.824 47.0099H113.381V56.0756H115.722V53.0137H117.223L118.604 56.0756H121.186L119.445 52.5934C119.925 52.3533 120.225 52.0531 120.525 51.6328ZM118.064 50.9724C117.824 51.2125 117.523 51.3326 117.163 51.3326H115.722V48.751H117.223C117.583 48.751 117.824 48.8711 118.124 49.0512C118.364 49.2313 118.484 49.5315 118.484 50.0118C118.484 50.4321 118.364 50.7923 118.064 50.9724Z" fill="white"/>
<defs>
<linearGradient id="paint0_linear_1785_537475" x1="40" y1="160" x2="120" y2="-7.7486e-06" gradientUnits="userSpaceOnUse">
<stop stop-color="#9E0F38"/>
<stop offset="1" stop-color="#BF1343"/>
</linearGradient>
</defs>
</svg>
