<svg width="25" height="24" viewBox="0 0 25 24" fill="none" xmlns="http://www.w3.org/2000/svg">
<path d="M17.1212 22.5531C16.8603 22.3051 16.6538 22.0057 16.5146 21.6738C16.3755 21.3419 16.3068 20.9847 16.3129 20.6248C16.3093 20.2689 16.3799 19.9161 16.5202 19.589C16.6605 19.2619 16.8674 18.9676 17.1278 18.7249C17.558 18.3012 18.1151 18.0299 18.714 17.9525C19.3129 17.8752 19.9206 17.9961 20.4443 18.2966C20.8575 18.5341 21.202 18.8746 21.4443 19.2849C21.6886 19.6867 21.8177 20.1479 21.8176 20.6182C21.8244 20.979 21.7562 21.3372 21.6174 21.6703C21.4785 22.0034 21.272 22.304 21.011 22.5531C20.4901 23.0619 19.7909 23.3467 19.0627 23.3467C18.3346 23.3467 17.6354 23.0619 17.1145 22.5531H17.1212ZM16.4229 2.22072L21.6593 1.37305L20.826 15.8184H17.2662L16.4229 2.22072Z" fill="#98A2B3"/>
<path fill-rule="evenodd" clip-rule="evenodd" d="M15.3453 18.8697V23.3467C15.3453 23.3467 12.8938 23.3696 10.1576 21.8809C7.06433 20.1919 4.00483 16.5328 4.00483 11.3138V9.05174L4 1.05432C4.00204 0.875538 4.04899 0.700136 4.13655 0.544243C4.2241 0.388351 4.34945 0.256972 4.50105 0.162188C4.65266 0.0674046 4.82566 0.0122579 5.00415 0.00181933C5.18264 -0.00861928 5.36089 0.0259849 5.52251 0.10245C6.68023 0.640102 7.88968 1.05848 9.13215 1.35111C11.1297 1.82478 13.1684 2.10436 15.2198 2.18595V12.4044C15.2198 12.5964 15.1435 12.7805 15.0078 12.9163C14.872 13.052 14.6879 13.1283 14.4959 13.1283H10.3543C10.5992 15.9972 12.0276 17.8659 15.3453 18.8697ZM13.9026 10.1126L11.7967 8.98136C11.4367 9.51765 10.9955 9.7858 10.473 9.7858C10.2754 9.78388 10.0827 9.72368 9.9192 9.61273C9.73114 9.48255 9.58874 9.29656 9.51214 9.08105L9.52044 9.06444C10.0041 8.98656 10.4833 8.8835 10.9562 8.75568C11.3971 8.63647 11.8274 8.48086 12.2425 8.29046C12.6155 8.12421 12.9673 7.91413 13.2906 7.66464C13.5734 7.44272 13.8088 7.16636 13.9829 6.8519C14.1561 6.5448 14.2463 6.19788 14.2446 5.84532C14.2482 5.53699 14.1903 5.23105 14.0743 4.94535C13.9721 4.68793 13.8169 4.4549 13.6188 4.26138C13.4217 4.07463 13.1982 3.91788 12.9556 3.79616C12.7073 3.67064 12.4439 3.57757 12.1719 3.51925C11.8988 3.46089 11.6204 3.43165 11.3411 3.43202C10.796 3.42787 10.2543 3.51925 9.74059 3.70201C9.26425 3.86878 8.82194 4.12019 8.43495 4.44414C8.05927 4.76182 7.73472 5.1354 7.47267 5.55179C7.20197 5.97998 6.99795 6.44683 6.86761 6.93636C6.73115 7.44475 6.66271 7.96899 6.66408 8.49538C6.66408 9.63349 6.97515 10.5164 7.59728 11.1441C8.21941 11.7717 9.08846 12.0856 10.2044 12.0856C11.853 12.0856 13.0857 11.4279 13.9026 10.1126ZM9.51768 7.42234C9.6183 6.9771 9.83084 6.56489 10.1352 6.22469H10.1338C10.254 6.08522 10.4024 5.97286 10.5692 5.89505C10.7361 5.81724 10.9175 5.77575 11.1016 5.77332C11.1577 5.77071 11.2138 5.77927 11.2666 5.79853C11.3193 5.81778 11.3678 5.84734 11.409 5.88547C11.4463 5.91944 11.476 5.96095 11.496 6.00726C11.5161 6.05357 11.5261 6.10362 11.5253 6.15408C11.5253 6.72914 10.8561 7.15189 9.51768 7.42234Z" fill="#98A2B3"/>
</svg>
