<svg width="20" height="20" viewBox="0 0 20 20" fill="none" xmlns="http://www.w3.org/2000/svg">
<path d="M19.6909 0.731689V20H11.6289V15.2265H14.2929V17.0544H16.7732V3.31009H13.5568L14.9939 0.731689H19.6909Z" fill="#98A2B3"/>
<path d="M15.5562 9.72126C15.5562 11.4286 14.785 12.7178 13.3129 13.4843C12.1912 14.0767 11.0345 14.1464 10.8242 14.1812C10.8242 14.1812 10.8809 14.1812 8.70769 14.1812V20H0.308594V0.731689H4.9705L6.47773 3.34494H3.2179V17.1114H5.8468V11.5679H10.7541C12.6469 11.5679 12.717 9.93031 12.717 9.7561C12.717 8.91986 12.3314 8.32752 11.5953 7.97909C11.2448 7.80488 10.8242 7.73519 10.4035 7.73519H8.70769V10.1394H5.88185V5.01741H10.2283C11.2097 5.01741 12.1912 5.22647 12.9974 5.64459C14.1541 6.20208 15.5562 7.38676 15.5562 9.72126Z" fill="#98A2B3"/>
<path d="M10.017 3.83275L7.84375 0H12.1902L10.017 3.83275Z" fill="#98A2B3"/>
</svg>
