<svg width="160" height="160" viewBox="0 0 160 160" fill="none" xmlns="http://www.w3.org/2000/svg">
<g clip-path="url(#clip0_20032_71322)">
<g clip-path="url(#clip1_20032_71322)">
<path d="M79.9927 159.524C123.913 159.524 159.517 123.92 159.517 80.0001C159.517 36.0802 123.913 0.476074 79.9927 0.476074C36.0729 0.476074 0.46875 36.0802 0.46875 80.0001C0.46875 123.92 36.0729 159.524 79.9927 159.524Z" fill="white"/>
<path d="M80 160C35.8919 160 0 124.118 0 80C0 35.8824 35.8919 0 80 0C124.108 0 160 35.8919 160 80C160 124.108 124.108 160 80 160ZM80 0.952041C36.4156 0.952041 0.952041 36.4156 0.952041 80C0.952041 123.584 36.4156 159.048 80 159.048C123.584 159.048 159.048 123.584 159.048 80C159.048 36.4156 123.584 0.952041 80 0.952041Z" fill="#E6E7E8"/>
<path d="M76.1271 76.3048C75.2989 54.0937 66.9875 32.1206 51.1932 14.4507C26.0022 25.5324 8.41797 50.7139 8.41797 79.9987C8.41797 87.1295 9.45569 94.0128 11.4074 100.515L51.6216 60.301C58.2573 66.7558 58.6381 77.4568 52.8212 84.559L29.3438 108.036C28.8202 108.389 27.7444 107.941 27.078 107.913C23.5554 107.732 20.5851 108.655 17.8813 111.007C17.3196 111.492 16.7769 112.016 16.2247 112.52C23.7077 127.172 36.0748 138.911 51.2027 145.556C66.9495 127.924 75.2608 106.028 76.1176 83.883C76.2319 81.3601 76.2319 78.8277 76.1271 76.3143V76.3048Z" fill="#1F8642"/>
<path d="M118.346 134.094C117.851 133.751 116.852 134.37 116.223 134.494C112.406 135.284 106.255 134.732 103.352 131.828L82.9875 111.464C82.8638 111.34 82.8638 111.15 82.9875 111.026L86.7957 107.218C86.9195 107.094 87.1099 107.094 87.2336 107.218L103.771 123.755C103.894 123.879 104.085 123.879 104.209 123.755L108.017 119.947C108.14 119.823 108.14 119.632 108.017 119.509L91.4797 102.972C91.356 102.848 91.356 102.658 91.4797 102.534L95.2879 98.7256C95.4117 98.6018 95.6021 98.6018 95.7258 98.7256L112.263 115.263C112.387 115.386 112.577 115.386 112.701 115.263L116.509 111.454C116.633 111.331 116.633 111.14 116.509 111.016L99.9719 94.4795C99.8482 94.3557 99.8482 94.1653 99.9719 94.0416L103.78 90.2334C103.904 90.1096 104.094 90.1096 104.218 90.2334L124.439 110.455C127.467 113.482 128.076 119.49 127.248 123.469C127.115 124.088 126.505 125.088 126.848 125.592L131.237 129.981C137.197 123.869 142.081 116.7 145.565 108.779C127.886 92.9848 105.913 84.664 83.7111 83.8452C82.8257 106.913 73.8479 129.715 56.7969 147.708C64.0705 150.212 71.8867 151.564 80.0076 151.564C95.7544 151.564 110.311 146.47 122.135 137.855L118.356 134.075L118.346 134.094Z" fill="#FBAA19"/>
<path d="M128.999 40.1373C128.656 40.6324 129.265 41.6415 129.399 42.2603C131.541 52.2949 124.981 58.9782 116.546 63.348C100.437 71.6974 88.9368 60.4824 97.2481 44.2406C101.589 35.7484 108.282 29.0936 118.383 31.2452C119.002 31.3785 120.011 31.9878 120.506 31.6451L126.523 25.6282C114.004 14.8987 97.7622 8.40576 79.9781 8.40576C71.8477 8.40576 64.0409 9.75766 56.7578 12.2615C73.8469 30.2837 82.8247 53.1612 83.6911 76.2863C106.807 77.1431 129.675 86.1209 147.706 103.21C150.21 95.9269 151.562 88.1202 151.562 79.9897C151.562 62.5579 145.317 46.5826 134.958 34.1585L128.989 40.1278L128.999 40.1373Z" fill="#E57E25"/>
</g>
</g>
<defs>
<clipPath id="clip0_20032_71322">
<rect width="160" height="160" fill="white"/>
</clipPath>
<clipPath id="clip1_20032_71322">
<rect width="160" height="160" fill="white"/>
</clipPath>
</defs>
</svg>
