<svg width="32" height="32" viewBox="0 0 32 32" fill="none" xmlns="http://www.w3.org/2000/svg">
<g id="Fire">
<g id="Vector 396">
<path d="M12.5555 8.93513C14.0922 6.53767 15.0018 4.32356 15.4764 2.75822C15.6583 2.15828 16.4265 1.91253 16.8826 2.34265C23.755 8.82389 26.0012 13.7721 26.4494 19.4907C26.7776 25.022 24.0588 29.9438 16.7619 29.9438C9.91121 29.9438 4.8556 25.1626 5.54306 17.5845C5.95392 13.0555 7.71462 9.60526 9.1223 7.55137C9.5604 6.91216 10.4731 6.9029 10.978 7.4908L12.2372 8.95707C12.3239 9.0581 12.4837 9.04724 12.5555 8.93513Z" fill="url(#paint0_radial_1544_12928)"/>
<path d="M12.5555 8.93513C14.0922 6.53767 15.0018 4.32356 15.4764 2.75822C15.6583 2.15828 16.4265 1.91253 16.8826 2.34265C23.755 8.82389 26.0012 13.7721 26.4494 19.4907C26.7776 25.022 24.0588 29.9438 16.7619 29.9438C9.91121 29.9438 4.8556 25.1626 5.54306 17.5845C5.95392 13.0555 7.71462 9.60526 9.1223 7.55137C9.5604 6.91216 10.4731 6.9029 10.978 7.4908L12.2372 8.95707C12.3239 9.0581 12.4837 9.04724 12.5555 8.93513Z" fill="url(#paint1_radial_1544_12928)"/>
<path d="M12.5555 8.93513C14.0922 6.53767 15.0018 4.32356 15.4764 2.75822C15.6583 2.15828 16.4265 1.91253 16.8826 2.34265C23.755 8.82389 26.0012 13.7721 26.4494 19.4907C26.7776 25.022 24.0588 29.9438 16.7619 29.9438C9.91121 29.9438 4.8556 25.1626 5.54306 17.5845C5.95392 13.0555 7.71462 9.60526 9.1223 7.55137C9.5604 6.91216 10.4731 6.9029 10.978 7.4908L12.2372 8.95707C12.3239 9.0581 12.4837 9.04724 12.5555 8.93513Z" fill="url(#paint2_radial_1544_12928)"/>
<path d="M12.5555 8.93513C14.0922 6.53767 15.0018 4.32356 15.4764 2.75822C15.6583 2.15828 16.4265 1.91253 16.8826 2.34265C23.755 8.82389 26.0012 13.7721 26.4494 19.4907C26.7776 25.022 24.0588 29.9438 16.7619 29.9438C9.91121 29.9438 4.8556 25.1626 5.54306 17.5845C5.95392 13.0555 7.71462 9.60526 9.1223 7.55137C9.5604 6.91216 10.4731 6.9029 10.978 7.4908L12.2372 8.95707C12.3239 9.0581 12.4837 9.04724 12.5555 8.93513Z" fill="url(#paint3_linear_1544_12928)"/>
<path d="M12.5555 8.93513C14.0922 6.53767 15.0018 4.32356 15.4764 2.75822C15.6583 2.15828 16.4265 1.91253 16.8826 2.34265C23.755 8.82389 26.0012 13.7721 26.4494 19.4907C26.7776 25.022 24.0588 29.9438 16.7619 29.9438C9.91121 29.9438 4.8556 25.1626 5.54306 17.5845C5.95392 13.0555 7.71462 9.60526 9.1223 7.55137C9.5604 6.91216 10.4731 6.9029 10.978 7.4908L12.2372 8.95707C12.3239 9.0581 12.4837 9.04724 12.5555 8.93513Z" fill="url(#paint4_radial_1544_12928)"/>
<path d="M12.5555 8.93513C14.0922 6.53767 15.0018 4.32356 15.4764 2.75822C15.6583 2.15828 16.4265 1.91253 16.8826 2.34265C23.755 8.82389 26.0012 13.7721 26.4494 19.4907C26.7776 25.022 24.0588 29.9438 16.7619 29.9438C9.91121 29.9438 4.8556 25.1626 5.54306 17.5845C5.95392 13.0555 7.71462 9.60526 9.1223 7.55137C9.5604 6.91216 10.4731 6.9029 10.978 7.4908L12.2372 8.95707C12.3239 9.0581 12.4837 9.04724 12.5555 8.93513Z" fill="url(#paint5_radial_1544_12928)"/>
<path d="M12.5555 8.93513C14.0922 6.53767 15.0018 4.32356 15.4764 2.75822C15.6583 2.15828 16.4265 1.91253 16.8826 2.34265C23.755 8.82389 26.0012 13.7721 26.4494 19.4907C26.7776 25.022 24.0588 29.9438 16.7619 29.9438C9.91121 29.9438 4.8556 25.1626 5.54306 17.5845C5.95392 13.0555 7.71462 9.60526 9.1223 7.55137C9.5604 6.91216 10.4731 6.9029 10.978 7.4908L12.2372 8.95707C12.3239 9.0581 12.4837 9.04724 12.5555 8.93513Z" fill="url(#paint6_radial_1544_12928)"/>
<path d="M12.5555 8.93513C14.0922 6.53767 15.0018 4.32356 15.4764 2.75822C15.6583 2.15828 16.4265 1.91253 16.8826 2.34265C23.755 8.82389 26.0012 13.7721 26.4494 19.4907C26.7776 25.022 24.0588 29.9438 16.7619 29.9438C9.91121 29.9438 4.8556 25.1626 5.54306 17.5845C5.95392 13.0555 7.71462 9.60526 9.1223 7.55137C9.5604 6.91216 10.4731 6.9029 10.978 7.4908L12.2372 8.95707C12.3239 9.0581 12.4837 9.04724 12.5555 8.93513Z" fill="url(#paint7_radial_1544_12928)"/>
<path d="M12.5555 8.93513C14.0922 6.53767 15.0018 4.32356 15.4764 2.75822C15.6583 2.15828 16.4265 1.91253 16.8826 2.34265C23.755 8.82389 26.0012 13.7721 26.4494 19.4907C26.7776 25.022 24.0588 29.9438 16.7619 29.9438C9.91121 29.9438 4.8556 25.1626 5.54306 17.5845C5.95392 13.0555 7.71462 9.60526 9.1223 7.55137C9.5604 6.91216 10.4731 6.9029 10.978 7.4908L12.2372 8.95707C12.3239 9.0581 12.4837 9.04724 12.5555 8.93513Z" fill="url(#paint8_radial_1544_12928)"/>
<path d="M12.5555 8.93513C14.0922 6.53767 15.0018 4.32356 15.4764 2.75822C15.6583 2.15828 16.4265 1.91253 16.8826 2.34265C23.755 8.82389 26.0012 13.7721 26.4494 19.4907C26.7776 25.022 24.0588 29.9438 16.7619 29.9438C9.91121 29.9438 4.8556 25.1626 5.54306 17.5845C5.95392 13.0555 7.71462 9.60526 9.1223 7.55137C9.5604 6.91216 10.4731 6.9029 10.978 7.4908L12.2372 8.95707C12.3239 9.0581 12.4837 9.04724 12.5555 8.93513Z" fill="url(#paint9_radial_1544_12928)"/>
<path d="M12.5555 8.93513C14.0922 6.53767 15.0018 4.32356 15.4764 2.75822C15.6583 2.15828 16.4265 1.91253 16.8826 2.34265C23.755 8.82389 26.0012 13.7721 26.4494 19.4907C26.7776 25.022 24.0588 29.9438 16.7619 29.9438C9.91121 29.9438 4.8556 25.1626 5.54306 17.5845C5.95392 13.0555 7.71462 9.60526 9.1223 7.55137C9.5604 6.91216 10.4731 6.9029 10.978 7.4908L12.2372 8.95707C12.3239 9.0581 12.4837 9.04724 12.5555 8.93513Z" fill="url(#paint10_radial_1544_12928)"/>
<path d="M12.5555 8.93513C14.0922 6.53767 15.0018 4.32356 15.4764 2.75822C15.6583 2.15828 16.4265 1.91253 16.8826 2.34265C23.755 8.82389 26.0012 13.7721 26.4494 19.4907C26.7776 25.022 24.0588 29.9438 16.7619 29.9438C9.91121 29.9438 4.8556 25.1626 5.54306 17.5845C5.95392 13.0555 7.71462 9.60526 9.1223 7.55137C9.5604 6.91216 10.4731 6.9029 10.978 7.4908L12.2372 8.95707C12.3239 9.0581 12.4837 9.04724 12.5555 8.93513Z" fill="url(#paint11_radial_1544_12928)"/>
<path d="M12.5555 8.93513C14.0922 6.53767 15.0018 4.32356 15.4764 2.75822C15.6583 2.15828 16.4265 1.91253 16.8826 2.34265C23.755 8.82389 26.0012 13.7721 26.4494 19.4907C26.7776 25.022 24.0588 29.9438 16.7619 29.9438C9.91121 29.9438 4.8556 25.1626 5.54306 17.5845C5.95392 13.0555 7.71462 9.60526 9.1223 7.55137C9.5604 6.91216 10.4731 6.9029 10.978 7.4908L12.2372 8.95707C12.3239 9.0581 12.4837 9.04724 12.5555 8.93513Z" fill="url(#paint12_radial_1544_12928)"/>
<path d="M12.5555 8.93513C14.0922 6.53767 15.0018 4.32356 15.4764 2.75822C15.6583 2.15828 16.4265 1.91253 16.8826 2.34265C23.755 8.82389 26.0012 13.7721 26.4494 19.4907C26.7776 25.022 24.0588 29.9438 16.7619 29.9438C9.91121 29.9438 4.8556 25.1626 5.54306 17.5845C5.95392 13.0555 7.71462 9.60526 9.1223 7.55137C9.5604 6.91216 10.4731 6.9029 10.978 7.4908L12.2372 8.95707C12.3239 9.0581 12.4837 9.04724 12.5555 8.93513Z" fill="url(#paint13_radial_1544_12928)" fill-opacity="0.2"/>
<path d="M12.5555 8.93513C14.0922 6.53767 15.0018 4.32356 15.4764 2.75822C15.6583 2.15828 16.4265 1.91253 16.8826 2.34265C23.755 8.82389 26.0012 13.7721 26.4494 19.4907C26.7776 25.022 24.0588 29.9438 16.7619 29.9438C9.91121 29.9438 4.8556 25.1626 5.54306 17.5845C5.95392 13.0555 7.71462 9.60526 9.1223 7.55137C9.5604 6.91216 10.4731 6.9029 10.978 7.4908L12.2372 8.95707C12.3239 9.0581 12.4837 9.04724 12.5555 8.93513Z" fill="url(#paint14_radial_1544_12928)"/>
<path d="M12.5555 8.93513C14.0922 6.53767 15.0018 4.32356 15.4764 2.75822C15.6583 2.15828 16.4265 1.91253 16.8826 2.34265C23.755 8.82389 26.0012 13.7721 26.4494 19.4907C26.7776 25.022 24.0588 29.9438 16.7619 29.9438C9.91121 29.9438 4.8556 25.1626 5.54306 17.5845C5.95392 13.0555 7.71462 9.60526 9.1223 7.55137C9.5604 6.91216 10.4731 6.9029 10.978 7.4908L12.2372 8.95707C12.3239 9.0581 12.4837 9.04724 12.5555 8.93513Z" fill="url(#paint15_radial_1544_12928)"/>
<path d="M12.5555 8.93513C14.0922 6.53767 15.0018 4.32356 15.4764 2.75822C15.6583 2.15828 16.4265 1.91253 16.8826 2.34265C23.755 8.82389 26.0012 13.7721 26.4494 19.4907C26.7776 25.022 24.0588 29.9438 16.7619 29.9438C9.91121 29.9438 4.8556 25.1626 5.54306 17.5845C5.95392 13.0555 7.71462 9.60526 9.1223 7.55137C9.5604 6.91216 10.4731 6.9029 10.978 7.4908L12.2372 8.95707C12.3239 9.0581 12.4837 9.04724 12.5555 8.93513Z" fill="url(#paint16_radial_1544_12928)"/>
<path d="M12.5555 8.93513C14.0922 6.53767 15.0018 4.32356 15.4764 2.75822C15.6583 2.15828 16.4265 1.91253 16.8826 2.34265C23.755 8.82389 26.0012 13.7721 26.4494 19.4907C26.7776 25.022 24.0588 29.9438 16.7619 29.9438C9.91121 29.9438 4.8556 25.1626 5.54306 17.5845C5.95392 13.0555 7.71462 9.60526 9.1223 7.55137C9.5604 6.91216 10.4731 6.9029 10.978 7.4908L12.2372 8.95707C12.3239 9.0581 12.4837 9.04724 12.5555 8.93513Z" fill="url(#paint17_radial_1544_12928)"/>
<path d="M12.5555 8.93513C14.0922 6.53767 15.0018 4.32356 15.4764 2.75822C15.6583 2.15828 16.4265 1.91253 16.8826 2.34265C23.755 8.82389 26.0012 13.7721 26.4494 19.4907C26.7776 25.022 24.0588 29.9438 16.7619 29.9438C9.91121 29.9438 4.8556 25.1626 5.54306 17.5845C5.95392 13.0555 7.71462 9.60526 9.1223 7.55137C9.5604 6.91216 10.4731 6.9029 10.978 7.4908L12.2372 8.95707C12.3239 9.0581 12.4837 9.04724 12.5555 8.93513Z" fill="url(#paint18_radial_1544_12928)" fill-opacity="0.3"/>
<path d="M12.5555 8.93513C14.0922 6.53767 15.0018 4.32356 15.4764 2.75822C15.6583 2.15828 16.4265 1.91253 16.8826 2.34265C23.755 8.82389 26.0012 13.7721 26.4494 19.4907C26.7776 25.022 24.0588 29.9438 16.7619 29.9438C9.91121 29.9438 4.8556 25.1626 5.54306 17.5845C5.95392 13.0555 7.71462 9.60526 9.1223 7.55137C9.5604 6.91216 10.4731 6.9029 10.978 7.4908L12.2372 8.95707C12.3239 9.0581 12.4837 9.04724 12.5555 8.93513Z" fill="url(#paint19_radial_1544_12928)" fill-opacity="0.4"/>
<path d="M12.5555 8.93513C14.0922 6.53767 15.0018 4.32356 15.4764 2.75822C15.6583 2.15828 16.4265 1.91253 16.8826 2.34265C23.755 8.82389 26.0012 13.7721 26.4494 19.4907C26.7776 25.022 24.0588 29.9438 16.7619 29.9438C9.91121 29.9438 4.8556 25.1626 5.54306 17.5845C5.95392 13.0555 7.71462 9.60526 9.1223 7.55137C9.5604 6.91216 10.4731 6.9029 10.978 7.4908L12.2372 8.95707C12.3239 9.0581 12.4837 9.04724 12.5555 8.93513Z" fill="url(#paint20_radial_1544_12928)"/>
<path d="M12.5555 8.93513C14.0922 6.53767 15.0018 4.32356 15.4764 2.75822C15.6583 2.15828 16.4265 1.91253 16.8826 2.34265C23.755 8.82389 26.0012 13.7721 26.4494 19.4907C26.7776 25.022 24.0588 29.9438 16.7619 29.9438C9.91121 29.9438 4.8556 25.1626 5.54306 17.5845C5.95392 13.0555 7.71462 9.60526 9.1223 7.55137C9.5604 6.91216 10.4731 6.9029 10.978 7.4908L12.2372 8.95707C12.3239 9.0581 12.4837 9.04724 12.5555 8.93513Z" fill="url(#paint21_radial_1544_12928)"/>
<path d="M12.5555 8.93513C14.0922 6.53767 15.0018 4.32356 15.4764 2.75822C15.6583 2.15828 16.4265 1.91253 16.8826 2.34265C23.755 8.82389 26.0012 13.7721 26.4494 19.4907C26.7776 25.022 24.0588 29.9438 16.7619 29.9438C9.91121 29.9438 4.8556 25.1626 5.54306 17.5845C5.95392 13.0555 7.71462 9.60526 9.1223 7.55137C9.5604 6.91216 10.4731 6.9029 10.978 7.4908L12.2372 8.95707C12.3239 9.0581 12.4837 9.04724 12.5555 8.93513Z" fill="url(#paint22_radial_1544_12928)"/>
<path d="M12.5555 8.93513C14.0922 6.53767 15.0018 4.32356 15.4764 2.75822C15.6583 2.15828 16.4265 1.91253 16.8826 2.34265C23.755 8.82389 26.0012 13.7721 26.4494 19.4907C26.7776 25.022 24.0588 29.9438 16.7619 29.9438C9.91121 29.9438 4.8556 25.1626 5.54306 17.5845C5.95392 13.0555 7.71462 9.60526 9.1223 7.55137C9.5604 6.91216 10.4731 6.9029 10.978 7.4908L12.2372 8.95707C12.3239 9.0581 12.4837 9.04724 12.5555 8.93513Z" fill="url(#paint23_radial_1544_12928)" fill-opacity="0.8"/>
<path d="M12.5555 8.93513C14.0922 6.53767 15.0018 4.32356 15.4764 2.75822C15.6583 2.15828 16.4265 1.91253 16.8826 2.34265C23.755 8.82389 26.0012 13.7721 26.4494 19.4907C26.7776 25.022 24.0588 29.9438 16.7619 29.9438C9.91121 29.9438 4.8556 25.1626 5.54306 17.5845C5.95392 13.0555 7.71462 9.60526 9.1223 7.55137C9.5604 6.91216 10.4731 6.9029 10.978 7.4908L12.2372 8.95707C12.3239 9.0581 12.4837 9.04724 12.5555 8.93513Z" fill="url(#paint24_radial_1544_12928)" fill-opacity="0.2"/>
<path d="M12.5555 8.93513C14.0922 6.53767 15.0018 4.32356 15.4764 2.75822C15.6583 2.15828 16.4265 1.91253 16.8826 2.34265C23.755 8.82389 26.0012 13.7721 26.4494 19.4907C26.7776 25.022 24.0588 29.9438 16.7619 29.9438C9.91121 29.9438 4.8556 25.1626 5.54306 17.5845C5.95392 13.0555 7.71462 9.60526 9.1223 7.55137C9.5604 6.91216 10.4731 6.9029 10.978 7.4908L12.2372 8.95707C12.3239 9.0581 12.4837 9.04724 12.5555 8.93513Z" fill="url(#paint25_radial_1544_12928)" fill-opacity="0.2"/>
<path d="M12.5555 8.93513C14.0922 6.53767 15.0018 4.32356 15.4764 2.75822C15.6583 2.15828 16.4265 1.91253 16.8826 2.34265C23.755 8.82389 26.0012 13.7721 26.4494 19.4907C26.7776 25.022 24.0588 29.9438 16.7619 29.9438C9.91121 29.9438 4.8556 25.1626 5.54306 17.5845C5.95392 13.0555 7.71462 9.60526 9.1223 7.55137C9.5604 6.91216 10.4731 6.9029 10.978 7.4908L12.2372 8.95707C12.3239 9.0581 12.4837 9.04724 12.5555 8.93513Z" fill="url(#paint26_radial_1544_12928)"/>
<path d="M12.5555 8.93513C14.0922 6.53767 15.0018 4.32356 15.4764 2.75822C15.6583 2.15828 16.4265 1.91253 16.8826 2.34265C23.755 8.82389 26.0012 13.7721 26.4494 19.4907C26.7776 25.022 24.0588 29.9438 16.7619 29.9438C9.91121 29.9438 4.8556 25.1626 5.54306 17.5845C5.95392 13.0555 7.71462 9.60526 9.1223 7.55137C9.5604 6.91216 10.4731 6.9029 10.978 7.4908L12.2372 8.95707C12.3239 9.0581 12.4837 9.04724 12.5555 8.93513Z" fill="url(#paint27_radial_1544_12928)"/>
<path d="M12.5555 8.93513C14.0922 6.53767 15.0018 4.32356 15.4764 2.75822C15.6583 2.15828 16.4265 1.91253 16.8826 2.34265C23.755 8.82389 26.0012 13.7721 26.4494 19.4907C26.7776 25.022 24.0588 29.9438 16.7619 29.9438C9.91121 29.9438 4.8556 25.1626 5.54306 17.5845C5.95392 13.0555 7.71462 9.60526 9.1223 7.55137C9.5604 6.91216 10.4731 6.9029 10.978 7.4908L12.2372 8.95707C12.3239 9.0581 12.4837 9.04724 12.5555 8.93513Z" fill="url(#paint28_radial_1544_12928)"/>
<path d="M12.5555 8.93513C14.0922 6.53767 15.0018 4.32356 15.4764 2.75822C15.6583 2.15828 16.4265 1.91253 16.8826 2.34265C23.755 8.82389 26.0012 13.7721 26.4494 19.4907C26.7776 25.022 24.0588 29.9438 16.7619 29.9438C9.91121 29.9438 4.8556 25.1626 5.54306 17.5845C5.95392 13.0555 7.71462 9.60526 9.1223 7.55137C9.5604 6.91216 10.4731 6.9029 10.978 7.4908L12.2372 8.95707C12.3239 9.0581 12.4837 9.04724 12.5555 8.93513Z" fill="url(#paint29_radial_1544_12928)"/>
</g>
<g id="Vector 397">
<path d="M10.1781 19.877C11.4804 16.7777 14.1526 13.3481 15.9573 11.4876C16.4672 10.9619 17.2914 10.9526 17.83 11.4488C21.2912 14.6378 22.3331 17.5208 23.2173 20.877C24.1371 24.3687 23.2173 29.9947 16.2957 29.9947C10.3349 29.9947 8.27007 24.4176 10.1781 19.877Z" fill="url(#paint30_radial_1544_12928)"/>
<path d="M10.1781 19.877C11.4804 16.7777 14.1526 13.3481 15.9573 11.4876C16.4672 10.9619 17.2914 10.9526 17.83 11.4488C21.2912 14.6378 22.3331 17.5208 23.2173 20.877C24.1371 24.3687 23.2173 29.9947 16.2957 29.9947C10.3349 29.9947 8.27007 24.4176 10.1781 19.877Z" fill="url(#paint31_radial_1544_12928)"/>
<path d="M10.1781 19.877C11.4804 16.7777 14.1526 13.3481 15.9573 11.4876C16.4672 10.9619 17.2914 10.9526 17.83 11.4488C21.2912 14.6378 22.3331 17.5208 23.2173 20.877C24.1371 24.3687 23.2173 29.9947 16.2957 29.9947C10.3349 29.9947 8.27007 24.4176 10.1781 19.877Z" fill="url(#paint32_radial_1544_12928)"/>
<path d="M10.1781 19.877C11.4804 16.7777 14.1526 13.3481 15.9573 11.4876C16.4672 10.9619 17.2914 10.9526 17.83 11.4488C21.2912 14.6378 22.3331 17.5208 23.2173 20.877C24.1371 24.3687 23.2173 29.9947 16.2957 29.9947C10.3349 29.9947 8.27007 24.4176 10.1781 19.877Z" fill="url(#paint33_radial_1544_12928)"/>
<path d="M10.1781 19.877C11.4804 16.7777 14.1526 13.3481 15.9573 11.4876C16.4672 10.9619 17.2914 10.9526 17.83 11.4488C21.2912 14.6378 22.3331 17.5208 23.2173 20.877C24.1371 24.3687 23.2173 29.9947 16.2957 29.9947C10.3349 29.9947 8.27007 24.4176 10.1781 19.877Z" fill="url(#paint34_linear_1544_12928)"/>
<path d="M10.1781 19.877C11.4804 16.7777 14.1526 13.3481 15.9573 11.4876C16.4672 10.9619 17.2914 10.9526 17.83 11.4488C21.2912 14.6378 22.3331 17.5208 23.2173 20.877C24.1371 24.3687 23.2173 29.9947 16.2957 29.9947C10.3349 29.9947 8.27007 24.4176 10.1781 19.877Z" fill="url(#paint35_radial_1544_12928)"/>
<path d="M10.1781 19.877C11.4804 16.7777 14.1526 13.3481 15.9573 11.4876C16.4672 10.9619 17.2914 10.9526 17.83 11.4488C21.2912 14.6378 22.3331 17.5208 23.2173 20.877C24.1371 24.3687 23.2173 29.9947 16.2957 29.9947C10.3349 29.9947 8.27007 24.4176 10.1781 19.877Z" fill="url(#paint36_radial_1544_12928)"/>
<path d="M10.1781 19.877C11.4804 16.7777 14.1526 13.3481 15.9573 11.4876C16.4672 10.9619 17.2914 10.9526 17.83 11.4488C21.2912 14.6378 22.3331 17.5208 23.2173 20.877C24.1371 24.3687 23.2173 29.9947 16.2957 29.9947C10.3349 29.9947 8.27007 24.4176 10.1781 19.877Z" fill="url(#paint37_radial_1544_12928)" fill-opacity="0.7"/>
</g>
</g>
<defs>
<radialGradient id="paint0_radial_1544_12928" cx="0" cy="0" r="1" gradientUnits="userSpaceOnUse" gradientTransform="translate(24.0024 19.7199) rotate(-179.474) scale(17.0988 25.7861)">
<stop stop-color="#FF953D"/>
<stop offset="1" stop-color="#FF5141"/>
</radialGradient>
<radialGradient id="paint1_radial_1544_12928" cx="0" cy="0" r="1" gradientUnits="userSpaceOnUse" gradientTransform="translate(10.3726 15.6548) rotate(-157.937) scale(10.3441 17.8495)">
<stop stop-color="#CE5327"/>
<stop offset="1" stop-color="#CE5327" stop-opacity="0"/>
</radialGradient>
<radialGradient id="paint2_radial_1544_12928" cx="0" cy="0" r="1" gradientUnits="userSpaceOnUse" gradientTransform="translate(7.88822 19.9571) rotate(15.4786) scale(2.10319 7.66339)">
<stop stop-color="#F38758"/>
<stop offset="0.363071" stop-color="#F38758" stop-opacity="0.703001"/>
<stop offset="0.71349" stop-color="#F38758" stop-opacity="0.210142"/>
<stop offset="1" stop-color="#F38758" stop-opacity="0"/>
</radialGradient>
<linearGradient id="paint3_linear_1544_12928" x1="18.3365" y1="29.9438" x2="18.3365" y2="24.8454" gradientUnits="userSpaceOnUse">
<stop stop-color="#FF7583"/>
<stop offset="1" stop-color="#FF7583" stop-opacity="0"/>
</linearGradient>
<radialGradient id="paint4_radial_1544_12928" cx="0" cy="0" r="1" gradientUnits="userSpaceOnUse" gradientTransform="translate(4.9573 14.3913) rotate(24.0149) scale(3.10465 25.6991)">
<stop stop-color="#FFAA7B"/>
<stop offset="0.845295" stop-color="#FFAA7B" stop-opacity="0.0923529"/>
<stop offset="1" stop-color="#FFAA7B" stop-opacity="0"/>
</radialGradient>
<radialGradient id="paint5_radial_1544_12928" cx="0" cy="0" r="1" gradientUnits="userSpaceOnUse" gradientTransform="translate(9.31045 6.25083) rotate(77.3196) scale(3.84035 4.79187)">
<stop stop-color="#FF5E47"/>
<stop offset="1" stop-color="#FF5E47" stop-opacity="0"/>
</radialGradient>
<radialGradient id="paint6_radial_1544_12928" cx="0" cy="0" r="1" gradientUnits="userSpaceOnUse" gradientTransform="translate(16.4292 1.36572) rotate(87.8819) scale(10.1374 9.38321)">
<stop stop-color="#FF2F3C"/>
<stop offset="1" stop-color="#FF2F3C" stop-opacity="0"/>
</radialGradient>
<radialGradient id="paint7_radial_1544_12928" cx="0" cy="0" r="1" gradientUnits="userSpaceOnUse" gradientTransform="translate(12.08 8.76443) rotate(152.832) scale(1.24603 0.529672)">
<stop stop-color="#FFA682"/>
<stop offset="0.686162" stop-color="#FFA682" stop-opacity="0.266248"/>
<stop offset="0.821066" stop-color="#FFA682" stop-opacity="0.117186"/>
<stop offset="1" stop-color="#FFA682" stop-opacity="0"/>
</radialGradient>
<radialGradient id="paint8_radial_1544_12928" cx="0" cy="0" r="1" gradientUnits="userSpaceOnUse" gradientTransform="translate(11.9302 8.75937) rotate(114.808) scale(3.87273 0.383498)">
<stop stop-color="#FFA682"/>
<stop offset="0.701678" stop-color="#FFA682" stop-opacity="0.199672"/>
<stop offset="1" stop-color="#FFA682" stop-opacity="0"/>
</radialGradient>
<radialGradient id="paint9_radial_1544_12928" cx="0" cy="0" r="1" gradientUnits="userSpaceOnUse" gradientTransform="translate(8.62662 10.0115) rotate(20.9596) scale(0.893491 4.2378)">
<stop stop-color="#FF815B"/>
<stop offset="0.24804" stop-color="#FF815B" stop-opacity="0.869521"/>
<stop offset="0.815487" stop-color="#FF815B" stop-opacity="0.150116"/>
<stop offset="1" stop-color="#FF815B" stop-opacity="0"/>
</radialGradient>
<radialGradient id="paint10_radial_1544_12928" cx="0" cy="0" r="1" gradientUnits="userSpaceOnUse" gradientTransform="translate(9.3081 8.72953) rotate(16.4224) scale(1.09656 3.62674)">
<stop stop-color="#FF815B"/>
<stop offset="0.24804" stop-color="#FF815B" stop-opacity="0.869521"/>
<stop offset="0.822875" stop-color="#FF815B" stop-opacity="0.150116"/>
<stop offset="1" stop-color="#FF815B" stop-opacity="0"/>
</radialGradient>
<radialGradient id="paint11_radial_1544_12928" cx="0" cy="0" r="1" gradientUnits="userSpaceOnUse" gradientTransform="translate(10.6628 6.77498) rotate(99.2111) scale(1.09249 4.35305)">
<stop stop-color="#FF2F3C"/>
<stop offset="0.739036" stop-color="#FF2F3C" stop-opacity="0.119038"/>
<stop offset="1" stop-color="#FF2F3C" stop-opacity="0"/>
</radialGradient>
<radialGradient id="paint12_radial_1544_12928" cx="0" cy="0" r="1" gradientUnits="userSpaceOnUse" gradientTransform="translate(11.5766 8.10897) rotate(105.173) scale(5.83208 1.53621)">
<stop stop-color="#FF2F3C" stop-opacity="0.72"/>
<stop offset="0.739036" stop-color="#FF2F3C" stop-opacity="0.119038"/>
<stop offset="1" stop-color="#FF2F3C" stop-opacity="0"/>
</radialGradient>
<radialGradient id="paint13_radial_1544_12928" cx="0" cy="0" r="1" gradientUnits="userSpaceOnUse" gradientTransform="translate(11.8126 13.2388) rotate(31.1593) scale(2.77527 12.5574)">
<stop stop-color="#CA0B4A"/>
<stop offset="0.680964" stop-color="#CA0B4A" stop-opacity="0.54"/>
<stop offset="1" stop-color="#CA0B4A" stop-opacity="0"/>
</radialGradient>
<radialGradient id="paint14_radial_1544_12928" cx="0" cy="0" r="1" gradientUnits="userSpaceOnUse" gradientTransform="translate(14.0841 6.44305) rotate(23.7601) scale(2.25614 8.22067)">
<stop stop-color="#F38758"/>
<stop offset="0.363071" stop-color="#F38758" stop-opacity="0.703001"/>
<stop offset="0.71349" stop-color="#F38758" stop-opacity="0.210142"/>
<stop offset="1" stop-color="#F38758" stop-opacity="0"/>
</radialGradient>
<radialGradient id="paint15_radial_1544_12928" cx="0" cy="0" r="1" gradientUnits="userSpaceOnUse" gradientTransform="translate(12.2686 10.8119) rotate(28.8359) scale(1.67103 6.08873)">
<stop stop-color="#F38758" stop-opacity="0.86"/>
<stop offset="0.262244" stop-color="#F38758" stop-opacity="0.703001"/>
<stop offset="0.675284" stop-color="#F38758" stop-opacity="0.210142"/>
<stop offset="0.861713" stop-color="#F38758" stop-opacity="0.0623553"/>
<stop offset="1" stop-color="#F38758" stop-opacity="0"/>
</radialGradient>
<radialGradient id="paint16_radial_1544_12928" cx="0" cy="0" r="1" gradientUnits="userSpaceOnUse" gradientTransform="translate(9.6635 15.5522) rotate(24.6769) scale(2.4617 8.96967)">
<stop stop-color="#F38758"/>
<stop offset="0.363071" stop-color="#F38758" stop-opacity="0.703001"/>
<stop offset="0.71349" stop-color="#F38758" stop-opacity="0.210142"/>
<stop offset="1" stop-color="#F38758" stop-opacity="0"/>
</radialGradient>
<radialGradient id="paint17_radial_1544_12928" cx="0" cy="0" r="1" gradientUnits="userSpaceOnUse" gradientTransform="translate(12.4121 22.0805) rotate(-160.017) scale(5.81517 11.851)">
<stop stop-color="#CE5327"/>
<stop offset="0.844833" stop-color="#CE5327" stop-opacity="0.434204"/>
<stop offset="0.945717" stop-color="#CE5327" stop-opacity="0.12821"/>
<stop offset="1" stop-color="#CE5327" stop-opacity="0"/>
</radialGradient>
<radialGradient id="paint18_radial_1544_12928" cx="0" cy="0" r="1" gradientUnits="userSpaceOnUse" gradientTransform="translate(16.3531 5.85245) rotate(-176.122) scale(1.16693 4.66501)">
<stop stop-color="#CE5327" stop-opacity="0.65"/>
<stop offset="0.481357" stop-color="#CE5327" stop-opacity="0.434204"/>
<stop offset="0.738276" stop-color="#CE5327" stop-opacity="0.12821"/>
<stop offset="1" stop-color="#CE5327" stop-opacity="0"/>
</radialGradient>
<radialGradient id="paint19_radial_1544_12928" cx="0" cy="0" r="1" gradientUnits="userSpaceOnUse" gradientTransform="translate(15.8879 7.97295) rotate(-164.148) scale(1.19333 4.77054)">
<stop stop-color="#CE5327" stop-opacity="0.65"/>
<stop offset="0.481357" stop-color="#CE5327" stop-opacity="0.434204"/>
<stop offset="0.738276" stop-color="#CE5327" stop-opacity="0.12821"/>
<stop offset="1" stop-color="#CE5327" stop-opacity="0"/>
</radialGradient>
<radialGradient id="paint20_radial_1544_12928" cx="0" cy="0" r="1" gradientUnits="userSpaceOnUse" gradientTransform="translate(8.66387 13.7151) rotate(-154.011) scale(0.735942 6.20389)">
<stop stop-color="#CE5327" stop-opacity="0.87"/>
<stop offset="0.493785" stop-color="#CE5327" stop-opacity="0.53"/>
<stop offset="0.852631" stop-color="#CE5327" stop-opacity="0.123929"/>
<stop offset="1" stop-color="#CE5327" stop-opacity="0"/>
</radialGradient>
<radialGradient id="paint21_radial_1544_12928" cx="0" cy="0" r="1" gradientUnits="userSpaceOnUse" gradientTransform="translate(11.7064 10.242) rotate(-145.909) scale(0.312395 1.93454)">
<stop stop-color="#FF5E47"/>
<stop offset="1" stop-color="#FF5E47" stop-opacity="0"/>
</radialGradient>
<radialGradient id="paint22_radial_1544_12928" cx="0" cy="0" r="1" gradientUnits="userSpaceOnUse" gradientTransform="translate(7.80607 8.87616) rotate(29.1817) scale(1.34904 8.35405)">
<stop offset="0.25679" stop-color="#FF5E47"/>
<stop offset="0.779632" stop-color="#FF5E47" stop-opacity="0.216117"/>
<stop offset="1" stop-color="#FF5E47" stop-opacity="0"/>
</radialGradient>
<radialGradient id="paint23_radial_1544_12928" cx="0" cy="0" r="1" gradientUnits="userSpaceOnUse" gradientTransform="translate(12.2508 9.16134) rotate(-155.855) scale(0.433192 2.12703)">
<stop stop-color="#FF2F3C"/>
<stop offset="0.361378" stop-color="#FF2F3C" stop-opacity="0.44772"/>
<stop offset="0.739036" stop-color="#FF2F3C" stop-opacity="0.119038"/>
<stop offset="1" stop-color="#FF2F3C" stop-opacity="0"/>
</radialGradient>
<radialGradient id="paint24_radial_1544_12928" cx="0" cy="0" r="1" gradientUnits="userSpaceOnUse" gradientTransform="translate(16.4225 5.885) rotate(-177.99) scale(1.79611 9.48689)">
<stop stop-color="#CA0B4A"/>
<stop offset="0.680964" stop-color="#CA0B4A" stop-opacity="0.183465"/>
<stop offset="1" stop-color="#CA0B4A" stop-opacity="0"/>
</radialGradient>
<radialGradient id="paint25_radial_1544_12928" cx="0" cy="0" r="1" gradientUnits="userSpaceOnUse" gradientTransform="translate(16.46 3.32087) rotate(-180) scale(0.95266 5.03186)">
<stop stop-color="#CA0B4A"/>
<stop offset="0.680964" stop-color="#CA0B4A" stop-opacity="0.183465"/>
<stop offset="1" stop-color="#CA0B4A" stop-opacity="0"/>
</radialGradient>
<radialGradient id="paint26_radial_1544_12928" cx="0" cy="0" r="1" gradientUnits="userSpaceOnUse" gradientTransform="translate(7.81876 18.0276) rotate(22.249) scale(0.676615 4.25249)">
<stop stop-color="#F38758"/>
<stop offset="0.277249" stop-color="#F38758" stop-opacity="0.771452"/>
<stop offset="0.585568" stop-color="#F38758" stop-opacity="0.288453"/>
<stop offset="1" stop-color="#F38758" stop-opacity="0"/>
</radialGradient>
<radialGradient id="paint27_radial_1544_12928" cx="0" cy="0" r="1" gradientUnits="userSpaceOnUse" gradientTransform="translate(9.2472 15.4071) rotate(29.7449) scale(0.607731 3.81956)">
<stop stop-color="#F38758"/>
<stop offset="0.277249" stop-color="#F38758" stop-opacity="0.771452"/>
<stop offset="0.585568" stop-color="#F38758" stop-opacity="0.288453"/>
<stop offset="1" stop-color="#F38758" stop-opacity="0"/>
</radialGradient>
<radialGradient id="paint28_radial_1544_12928" cx="0" cy="0" r="1" gradientUnits="userSpaceOnUse" gradientTransform="translate(10.7925 13.0308) rotate(37.4054) scale(0.556521 3.49771)">
<stop stop-color="#F38758"/>
<stop offset="0.277249" stop-color="#F38758" stop-opacity="0.771452"/>
<stop offset="0.585568" stop-color="#F38758" stop-opacity="0.288453"/>
<stop offset="1" stop-color="#F38758" stop-opacity="0"/>
</radialGradient>
<radialGradient id="paint29_radial_1544_12928" cx="0" cy="0" r="1" gradientUnits="userSpaceOnUse" gradientTransform="translate(12.6781 17.2528) rotate(-151.033) scale(4.25959 9.26848)">
<stop stop-color="#CE5327"/>
<stop offset="0.638398" stop-color="#CE5327" stop-opacity="0.417024"/>
<stop offset="0.913732" stop-color="#CE5327" stop-opacity="0.123929"/>
<stop offset="1" stop-color="#CE5327" stop-opacity="0"/>
</radialGradient>
<radialGradient id="paint30_radial_1544_12928" cx="0" cy="0" r="1" gradientUnits="userSpaceOnUse" gradientTransform="translate(21.2045 24.3763) rotate(-168.558) scale(10.0291 12.4891)">
<stop stop-color="#FFDA2F"/>
<stop offset="0.352487" stop-color="#FFC634"/>
<stop offset="1" stop-color="#FF8E41"/>
</radialGradient>
<radialGradient id="paint31_radial_1544_12928" cx="0" cy="0" r="1" gradientUnits="userSpaceOnUse" gradientTransform="translate(19.7291 22.5302) rotate(-174.878) scale(10.2804 25.1708)">
<stop offset="0.627719" stop-color="#D7812D" stop-opacity="0"/>
<stop offset="0.728983" stop-color="#D7812D" stop-opacity="0.137125"/>
<stop offset="0.855913" stop-color="#D7812D" stop-opacity="0.404199"/>
<stop offset="1" stop-color="#D7812D"/>
</radialGradient>
<radialGradient id="paint32_radial_1544_12928" cx="0" cy="0" r="1" gradientUnits="userSpaceOnUse" gradientTransform="translate(26.7998 28.5205) rotate(-135.822) scale(20.0732 23.6701)">
<stop stop-color="#D7812D" stop-opacity="0"/>
<stop offset="0.688904" stop-color="#D7812D" stop-opacity="0"/>
<stop offset="0.767023" stop-color="#D7812D" stop-opacity="0.103983"/>
<stop offset="0.837368" stop-color="#D7812D" stop-opacity="0.404199"/>
<stop offset="0.951078" stop-color="#D7812D"/>
</radialGradient>
<radialGradient id="paint33_radial_1544_12928" cx="0" cy="0" r="1" gradientUnits="userSpaceOnUse" gradientTransform="translate(12.4012 8.59275) rotate(69.0442) scale(14.1425 12.2879)">
<stop offset="0.152609" stop-color="#FD5639"/>
<stop offset="0.835743" stop-color="#FE5534" stop-opacity="0.0858814"/>
<stop offset="1" stop-color="#FE5533" stop-opacity="0"/>
</radialGradient>
<linearGradient id="paint34_linear_1544_12928" x1="16.5025" y1="10.6123" x2="16.5025" y2="14.2596" gradientUnits="userSpaceOnUse">
<stop stop-color="#F95131"/>
<stop offset="1" stop-color="#F95131" stop-opacity="0"/>
</linearGradient>
<radialGradient id="paint35_radial_1544_12928" cx="0" cy="0" r="1" gradientUnits="userSpaceOnUse" gradientTransform="translate(22.9856 18.8025) rotate(143.063) scale(16.0546 11.6174)">
<stop offset="0.725303" stop-color="#F18A52" stop-opacity="0"/>
<stop offset="0.816284" stop-color="#F18A52" stop-opacity="0.230883"/>
<stop offset="1" stop-color="#F18A52"/>
</radialGradient>
<radialGradient id="paint36_radial_1544_12928" cx="0" cy="0" r="1" gradientUnits="userSpaceOnUse" gradientTransform="translate(24.1283 22.8731) rotate(-148.858) scale(13.7806 22.6966)">
<stop stop-color="#F39D5D" stop-opacity="0"/>
<stop offset="0.928937" stop-color="#F39D5D" stop-opacity="0"/>
<stop offset="0.938719" stop-color="#F39D5D" stop-opacity="0.0581965"/>
<stop offset="0.950197" stop-color="#F39D5D" stop-opacity="0.180239"/>
<stop offset="0.983595" stop-color="#F39D5D"/>
</radialGradient>
<radialGradient id="paint37_radial_1544_12928" cx="0" cy="0" r="1" gradientUnits="userSpaceOnUse" gradientTransform="translate(26.7493 23.6069) rotate(-178.108) scale(17.465 17.7011)">
<stop stop-color="#F39D5D" stop-opacity="0"/>
<stop offset="0.939537" stop-color="#F39D5D" stop-opacity="0"/>
<stop offset="0.951154" stop-color="#F39D5D" stop-opacity="0.0581965"/>
<stop offset="0.96296" stop-color="#F39D5D" stop-opacity="0.180239"/>
<stop offset="0.980969" stop-color="#F39D5D"/>
</radialGradient>
</defs>
</svg>
